<svg id="footer_画像" data-name="footer 画像" xmlns="http://www.w3.org/2000/svg" xmlns:xlink="http://www.w3.org/1999/xlink" viewBox="0 0 1949.89 1642.76"><defs><style>.cls-1,.cls-25,.cls-26,.cls-27,.cls-28,.cls-29{fill:none;}.cls-1,.cls-30{stroke:#000;}.cls-1,.cls-25,.cls-26,.cls-27,.cls-28,.cls-29,.cls-30{stroke-miterlimit:10;}.cls-1{stroke-width:1.29px;}.cls-2{fill:#a0e0f0;}.cls-3{fill:#d3f5ff;}.cls-4{fill:#040074;}.cls-5{fill:#000bec;}.cls-6{fill:#c38e00;}.cls-7{fill:#ff874e;}.cls-8{fill:#ff151c;}.cls-9{fill:#b0fbff;}.cls-10{fill:#ffc356;}.cls-11{fill:#3a00f1;}.cls-12{fill:#49ea6f;}.cls-13{fill:#61ff2e;}.cls-14{fill:#ffa400;}.cls-15{fill:#006946;}.cls-16{fill:#b59a00;}.cls-17{fill:#3f23ff;}.cls-18{fill:#00ad03;}.cls-19{fill:#d30025;}.cls-20{fill:#8f2a00;}.cls-21,.cls-30{fill:#f4592f;}.cls-22{fill:#003b0b;}.cls-23{fill:#ff84b3;}.cls-24{fill:#613600;}.cls-25{stroke:url(#名称未設定グラデーション);}.cls-26{stroke:url(#名称未設定グラデーション-2);}.cls-27{stroke:url(#名称未設定グラデーション-3);}.cls-28{stroke:url(#名称未設定グラデーション-4);}.cls-29{stroke:url(#名称未設定グラデーション-5);}.cls-30{stroke-width:14px;}</style><linearGradient id="名称未設定グラデーション" x1="460.57" y1="561.8" x2="1857.17" y2="561.8" gradientUnits="userSpaceOnUse"><stop offset="0" stop-color="#fff"/><stop offset="1"/></linearGradient><linearGradient id="名称未設定グラデーション-2" x1="482.74" y1="527.03" x2="1873.97" y2="527.03" xlink:href="#名称未設定グラデーション"/><linearGradient id="名称未設定グラデーション-3" x1="1900.34" y1="473.47" x2="1901.68" y2="473.47" xlink:href="#名称未設定グラデーション"/><linearGradient id="名称未設定グラデーション-4" x1="971.87" y1="534.96" x2="1877.88" y2="534.96" xlink:href="#名称未設定グラデーション"/><linearGradient id="名称未設定グラデーション-5" x1="149.66" y1="482.4" x2="1858.19" y2="482.4" xlink:href="#名称未設定グラデーション"/></defs><path d="M248.88,106.32" transform="translate(-0.11 12.81)"/><path class="cls-1" d="M1949.36,1388v0Z" transform="translate(-0.11 12.81)"/><path class="cls-2" d="M1901.16,473.45l0,.6c-.24-.23-.5-.45-.76-.67Z" transform="translate(-0.11 12.81)"/><path d="M1875.17,466.89c.83-.16,1.57,1.95,2.22,5.84a17.69,17.69,0,0,0-3.53,3.1c-4.84,1.11-9.65,2.4-14.46,3.63-13.73,3.5-27.51,3-41.44,2.45-14.7-.58-29.44-.43-44.16-.55a78.08,78.08,0,0,0-8.92.22c-12.11,1.23-24.26,2.31-36.31,4-11.22,1.59-22.26,4.44-33.5,5.8-10.47,1.28-21.1,1.28-31.66,1.93-18.61,1.14-37.23,2.37-55.84,3.52-16.66,1-33.31,2.14-50,3-16,.8-32,1.36-48,1.85-10.63.32-21.32-.2-31.91.62-12.64,1-25.16,3.66-37.81,4.37-20.88,1.18-41.63.8-61.86-6.5-11.56-4.17-23.79-7.62-36-8.65-10.77-.91-21.9,1.73-32.79,3.33-5.6.83-11,2.81-17.24,4.46,7.86,7.23,9,16.85,12.21,25.51,7.09,18.83,14.34,37.6,21.42,56.41,2.67,7.06,5.12,14.2,7.59,21.33.55,1.59,1.62,4.15,1,4.77-2,2-4.71,4.56-7.19,4.62-15.83.4-31.71.75-47.51,0s-31.3-4.76-46.4-9.57c-16.13-5.13-32.28-9.17-49.42-9.56-10.84-.25-21.57-3.36-32.43-4.25a269.86,269.86,0,0,0-35.72-1c-15.67.8-31.27,2.87-46.87,4.59-13.1,1.43-26.17,3.15-39.25,4.73-21.87,2.64-43.77,5.08-65.61,8-8.47,1.14-16.74,3.71-25.19,5.1-20,3.27-39.8,8.87-60.37,6-4.24-.59-8.37-3.28-12.49-3.19-7.32.19-14.6,1.75-21.89,2.78-12.5,1.77-25.13,2.93-37.46,5.51C791,624.36,775.85,629,760.5,632.59c-17.53,4.1-35.27,5.53-53.16,2.34-14.93-2.66-29.84-5.45-44.81-7.92-15.35-2.53-29-9.32-42.79-16-10.18-5-20.5-9.78-30.33-15.4-8.56-4.89-17.28-10-24.57-16.49-10.38-9.27-9.34-21.55.42-33.34,3.35-4.07,5.35-9.32,7.52-14.22.47-1.08-.49-3.63-1.58-4.43-4.71-3.44-9.4-8.52-14.65-9.27-11.53-1.67-23.41-1.63-35.11-1.22-7.83.26-15.13-.76-21.11-5.52-6.91-5.5-9-9.28-5.44-18.46,4-10.42,8.17-20.81,11.61-31.43A56.52,56.52,0,0,0,509,445.13c.14-5.9-1.92-11.78-6.53-15.52-5.66-4.57-12.18-8.07-18.32-12.05l-.84,1.09a7.32,7.32,0,0,0,1.05,2c8.88,8.67,10.49,18.62,9.47,29.05l-2.07-.19c.87-8.31-.66-16.67-6.61-23.63-2.78-3.26-5.39-6.66-8.75-9.59,3.15,7.34,6.09,14.77,9.47,22,3.95,8.47,1.92,16.33-1.5,24.32C476.94,480,468.87,497.22,462.57,515c-5.33,15.09,4.17,27.27,19.16,27.07a192.63,192.63,0,0,0,24.66-2.23c11-1.59,19.79,6.07,19.82,17.29,0,12.35-5.63,22.51-11.59,32.69-4.05,6.95-7.95,14-11.38,21.28-3.09,6.55-2.23,13.54-.42,20.35,1.38,5.28,2.49,10.83,9.17,12.28.65.14,1.28,1.46,1.48,2.33,4.91,21.15,19,35.11,36.7,45.85A299.25,299.25,0,0,0,581.24,708c2.93,1.34,7,0,10.62,0,8.13,0,16.28.25,24.41,0,13.75-.44,27.48-1.25,41.23-1.78,6.8-.27,13.62-.33,20.42-.35,22-.08,43.89-.22,65.83-.08,11.26.08,22.52,1.07,33.77,1,28.57-.11,57.14-.6,85.7-.82,7.68,0,15.38.67,23,.47,15.22-.4,30.46-.71,45.62-2,19.35-1.61,38.61-4.3,58-6.2q21.66-2.13,43.42-3.32c4.94-.27,10,.89,15,1.35,1.83.17,3.66.29,5.49.31,5.41.1,10.83.21,16.25.22,12.08,0,24.17-.19,36.25,0q31,.59,62.08,1.61c16.82.56,33.63,1.66,50.45,2.1,29.76.79,59.53,1.19,89.29,1.91,12.48.3,25,1.46,37.43,1.39,15.73-.09,31.45-1.1,47.18-1.62,7-.22,14-.33,20.95-.29,19.73.09,39.47.36,59.22.43,23.24.06,46.49,0,69.74,0,16.26,0,32.54-.16,48.8.13,22.38.39,44.76,1.18,67.14,1.71,4,.09,8.54,1,11.78-.56,12.7-6.25,25.92-1.13,38.77-2.72,3.37-.41,6.91.28,10.34.69.89.11,1.65,1.11,1.9,1.28,2.73-.47,5.17-1.36,7.57-1.25,18,.88,36,2.43,54.08,2.82,24.74.56,49.49.51,74.25.62a16.3,16.3,0,0,0,1,4.1c-7.07,0-14.15.14-21.24.09-15.6-.08-31.19-.31-46.79-.44q-29.88-.25-59.76-.43-24.95-.15-49.9-.21t-49.84-.11c-15.1,0-30.19,0-45.29.06-26.5.17-53,.46-79.49.62q-33.13.18-66.28.19c-23.44,0-46.87,0-70.3.06q-32.38.07-64.78.21-34.66.13-69.34.29-19.7.07-39.37.09l-66.72.21c-7.47,0-14.94.18-22.41,0-12.75-.39-25.51-1.51-38.25-1.4-8.89.07-17.74,1.81-26.63,2.53-5.29.43-10.61.39-15.92.44-19.89.15-39.79.31-59.68.37-16.91.06-33.82-.1-50.72,0-18.91.1-37.82.39-56.72.6-12.11.13-24.22.21-36.33.43-20.38.39-40.75.88-61.11,1.29-6.82.13-13.64.17-20.45.17-16.77,0-33.54-.15-50.31,0-25.57.15-51.13.49-76.7.72-13.59.13-27.18.16-40.78.27q-36.87.33-73.74.68c-8.77.08-17.53.08-26.3.05-18.11-.07-36.22-.23-54.33-.27-14.62,0-29.25.1-43.86.11-18.59,0-37.17-.06-55.76,0-20.41,0-40.84-.06-61.25.12-24.71.21-49.42.62-74.14,1-10.78.16-21.54.46-32.75.18,3.29-2.91,1.42-8.57,6.95-10.39,2.32-.76,3.8-4,5.75-6,20.84-21.54,38.91-45.38,51.28-72.56a902.73,902.73,0,0,0,34.89-88.65c11.09-33.3,19.79-67.41,29.05-101.3,2.72-10,3.13-20.59,5.87-30.56a324.67,324.67,0,0,1,11.92-34.41c3.69-9.23,7.67-18.52,13-26.89,5.57-8.86,11.89-17.68,19.55-24.7,16-14.64,32.27-29.17,49.9-41.68,12-8.52,26.26-14.15,40-19.95a175.75,175.75,0,0,1,31-9.42c8.65-1.87,17.68-2.39,26.56-2.65a303.74,303.74,0,0,1,34.41.47c20.78,1.79,41.44,5.31,60.38,14.32A165.91,165.91,0,0,1,602.9,282.8c13.19,10.48,25.65,22,37.76,33.7,12.7,12.32,22.1,27,29.31,43.32,6,13.61,13.69,26.48,20.08,39.94,4.93,10.36,8.54,21.38,13.63,31.66,6,12.09,13.58,23.39,19.24,35.6,5.41,11.63,12.82,21.63,20.91,31.34,16.73,20.09,35.73,37.62,57.74,51.84,9.69,6.26,18.64,14,30.33,16.41,10.52,2.13,21.12,4.39,31.78,5.08,6.18.39,12.53-2.37,18.85-3.46,14.25-2.47,28.52-4.88,42.81-7.11,11.72-1.84,23.46-3.54,35.23-5,6.56-.81,13.21-1,20.2-1.49l2.08.09c-.41,9.34-.8,18.51-1.07,27.69,0,1.31.94,3.54,1.88,3.81,4.28,1.21,8.77,2.82,13.07,2.54,11.57-.76,23.09-2.42,35.53-3.83l2.63-.12.06,1.38c20.29-2.28,40.59-4.49,60.87-6.88,19-2.25,38.08-2,57.08-.4,10.68.91,21.24,3.22,31.85,4.89a18.39,18.39,0,0,0,3.45.43c13.77-.43,26.74,3,39.8,7.06,16.7,5.12,33.61,9.36,51.18,11.27,10.91,1.19,21.39-.17,32.07-.88,3.91-.26,7.86.27,12.46.46-2.78-8.24-5.11-15.71-7.83-23-5.15-13.86-10.53-27.63-15.78-41.46-3.32-8.78-6.48-17.61-9.9-26.34-2.48-6.34-3.26-6.54-9.37-4.3-1.39.52-3,1.12-4.33.83a9,9,0,0,1-4.34-2.15,3.72,3.72,0,0,1-.42-.47c-.46-.65,1.17-2.9,2-4.34,5-9.1,14.62-9.44,23.08-11.38,11.18-2.57,22.57-4.3,33.88-6.29,12.11-2.13,23.72.79,35.23,3.94,10.62,2.9,21,7.31,31.74,9.06a158,158,0,0,0,34.77,1.64c23.71-1.49,47.12-5.87,71.07-5.5,20.34.31,40.72-.95,61-2.19,21.43-1.31,42.8-3.62,64.22-5.1,10.55-.74,21.19-.22,31.74-.89,18.12-1.15,36.25-1.53,54.22-5.24a309.34,309.34,0,0,1,50-6.57c21-.83,42.11.18,63.12,1.26C1844.18,474.44,1859.48,469.76,1875.17,466.89Zm-896.47,117c.47-6.59,1.39-13.15,2.17-20.33-11,1-21.15,1.44-31.22,2.78-19.28,2.53-38.57,5.12-57.71,8.51-10.56,1.88-20.82,5.4-31.92,8.36l12.78,11.17L867.16,600l5.33,7.39c3.69.15,7.61.41,11.53.47,19.52.3,38.18-5.25,57.21-8.36,8.91-1.46,17.77-3.42,26.73-4.52C978.07,593.75,978,594,978.7,583.88ZM856.1,604.16c-3.66-4.13-7.19-7.52-2.75-11.21-2.27-4.28-4.32-8.15-6.38-12-.63-1.06-2.33-1-3.88-1.42-9.66-2.7-20.33-3.77-28.74-8.66-20.41-11.87-39.89-25.43-56.75-42.22-18.51-18.42-35.37-38-47.72-61.42-10-19-19.64-38.2-28-58C675.42,394,667.47,379.45,660,364.72c-4.11-8.09-7.71-16.69-13.18-23.79a210.9,210.9,0,0,0-25.47-27.78c-13.28-12-27.56-23-41.48-34.31-2.37-1.93-4.77-4.35-8.39-2.67-2.79-5.58-8.7-6.48-13.59-7.85-12.52-3.52-25.19-7.26-38-8.57-17-1.74-34.15-1.56-51.24-1.64-13-.05-25.35,4.35-37.58,8.2a170.84,170.84,0,0,0-51.94,26.27c-11.26,8.47-22.48,17.09-32.85,26.59S325.48,338,319.1,350.71c-5.85,11.62-11.46,23.4-16.52,35.37a132.78,132.78,0,0,0-7,22.18c-3.46,15.25-5.9,30.74-9.55,45.95-3.93,16.37-8.32,32.66-13.26,48.75-9.1,29.63-18.7,59.05-30.49,87.81-10.61,25.85-21.54,51.37-37.68,74.28-6.18,8.78-12.93,17.16-19.69,25.5-4.46,5.5-9.39,10.61-14.71,16.57,6.09.26,11.07.75,16,.63,23.17-.54,46.34-1.57,69.52-1.82,25.93-.29,51.88,0,77.82.24,6.08.06,12.16,1.32,18.25,1.39,10.77.15,21.56-.58,32.32-.24,24.38.76,48.73,2.45,73.1,2.84,28.64.44,57.29,0,85.94-.23,4.39,0,8.77-.64,14.56-1.09-7.32-4.43-13.44-7.93-19.36-11.75-15.79-10.15-27.7-23.54-34-41.5-.52-1.51-1-3.59-2.2-4.23-5.79-3.21-7.76-8.69-9.45-14.46-2.92-9.86-3.84-19.84.82-29.29,5.11-10.33,11.15-20.19,16.53-30.38,3.75-7.11,5.74-14.73,4.43-22.83-.66-4.13-4.09-6.08-8.17-5.69-9.36.9-18.76,2.25-28.13,2.11-10.19-.15-18.48-5.15-24.4-13.62-5.21-7.43-4.49-15.92-1.73-23.44,6.67-18.19,14.44-36,21.87-53.9,2.05-4.93,4.29-9.84,2.41-15.23-4.31-12.33-9.39-24.3-17.49-34.76-2.21-2.84-2.07-6,1.76-7,3.35-.89,7.44-1.61,10.5-.51a211.92,211.92,0,0,1,27.61,11.86c5.67,3,11.42,7.06,15.25,12.08,9,11.8,6.3,25,1.94,37.83-3.51,10.28-7.66,20.34-11.52,30.5-1.43,3.75.07,6.28,3.27,8.28,5.87,3.65,12.3,4.54,19,4,12.45-1.05,25-1.9,37,2.15,14.65,5,27,18.36,12.5,35.74-2.64,3.15-4.84,6.68-7.22,10-2.81,4-2.64,8.22.31,11.86s5.86,7.54,9.73,9.7c15,8.36,30.33,16,45.52,24,15.56,8.19,31.69,14.8,49.18,17.64,10.93,1.78,21.86,3.54,32.73,5.64a126,126,0,0,0,47.95.08c13.06-2.5,25.82-6.55,38.79-9.57,11.07-2.58,22.19-5.08,33.4-6.9C836.08,605.72,845.74,605.21,856.1,604.16Z" transform="translate(-0.11 12.81)"/><path class="cls-2" d="M1873.86,475.83a16.87,16.87,0,0,0-2.24,3.18,19.31,19.31,0,0,0-14.55,18.34c-3,68.41,3,136.86,0,205.27a14.4,14.4,0,0,0,.1,2.55c-24.76-.11-49.51-.06-74.25-.62-18-.39-36.05-1.94-54.08-2.82-2.4-.11-4.84.78-7.57,1.25-.25-.17-1-1.17-1.9-1.28-3.43-.41-7-1.1-10.34-.69-12.85,1.59-26.07-3.53-38.77,2.72-3.24,1.59-7.82.65-11.78.56-22.38-.53-44.76-1.32-67.14-1.71-16.26-.29-32.54-.13-48.8-.13-23.25,0-46.5.07-69.74,0-19.75-.07-39.49-.34-59.22-.43-7,0-14,.07-20.95.29-15.73.52-31.45,1.53-47.18,1.62-12.48.07-25-1.09-37.43-1.39-29.76-.72-59.53-1.12-89.29-1.91-16.82-.44-33.63-1.54-50.45-2.1q-31-1-62.08-1.61c-12.08-.24-24.17,0-36.25,0-5.42,0-10.84-.12-16.25-.22-1.83,0-3.66-.14-5.49-.31-5-.46-10-1.62-15-1.35q-21.75,1.18-43.42,3.32c-19.34,1.9-38.6,4.59-58,6.2-15.16,1.26-30.4,1.57-45.62,2-7.66.2-15.36-.52-23-.47-28.56.22-57.13.71-85.7.82-11.25,0-22.51-1-33.77-1-21.94-.14-43.88,0-65.83.08-6.8,0-13.62.08-20.42.35-13.75.53-27.48,1.34-41.23,1.78-8.13.26-16.28,0-24.41,0-3.57,0-7.69,1.34-10.62,0A299.25,299.25,0,0,1,550.17,692c-17.68-10.74-31.79-24.7-36.7-45.85-.2-.87-.83-2.19-1.48-2.33-6.68-1.45-7.79-7-9.17-12.28-1.81-6.81-2.67-13.8.42-20.35,3.43-7.26,7.33-14.33,11.38-21.28,6-10.18,11.63-20.34,11.59-32.69,0-11.22-8.87-18.88-19.82-17.29a192.63,192.63,0,0,1-24.66,2.23c-15,.2-24.49-12-19.16-27.07,6.3-17.82,14.37-35,21.82-52.44,3.42-8,5.45-15.85,1.5-24.32-3.38-7.22-6.32-14.65-9.47-22,3.36,2.93,6,6.33,8.75,9.59,5.95,7,7.48,15.32,6.61,23.63-.09.86-.21,1.73-.35,2.58-2.26,13.8-6.15,27.33-9.21,41-2.77,12.34,1.1,22.05,10.71,26.36,8.11,3.64,16.65,6.38,24.56,10.41,6.81,3.47,14.5,7,19.14,12.63A34.15,34.15,0,0,1,544.16,566a44.62,44.62,0,0,1-1,7.51c-1.85,8.36-3.91,16.69-5.34,25.13-.48,2.9-.25,6.61,1.2,9a89.23,89.23,0,0,0,29.19,30.07c18.74,11.74,39,20.27,60.17,26.64,6.6,2,13.38,3.51,20.13,4.91,3.13.66,6.7,1,7-3.48-2.35.05-4.42.4-6.36.06-2.19-.39-4.22-1.65-6.41-2.13-4.65-1-9.53-1.31-14-2.78-10-3.29-19.93-6.82-29.67-10.78-18.69-7.62-36.14-17.21-49.64-32.81-6.27-7.24-11.23-14.3-7.84-25A103.45,103.45,0,0,0,546,567.56c0-.52.05-1,.07-1.54.55-15.58-5.22-28.4-18.74-34.79-10.27-4.85-20.85-9.05-31.29-13.53-8.13-3.48-13.67-11.94-12.17-19.53,2.41-12.13,5.2-24.2,7.87-36.28a99.29,99.29,0,0,0,2.08-12.19c1-10.43-.59-20.38-9.47-29.05a7.32,7.32,0,0,1-1.05-2l.84-1.09c6.14,4,12.66,7.48,18.32,12.05,4.61,3.74,6.67,9.62,6.53,15.52a56.52,56.52,0,0,1-2.52,16.05c-3.44,10.62-7.6,21-11.61,31.43-3.52,9.18-1.47,13,5.44,18.46,6,4.76,13.28,5.78,21.11,5.52,11.7-.41,23.58-.45,35.11,1.22,5.25.75,9.94,5.83,14.65,9.27,1.09.8,2,3.35,1.58,4.43-2.17,4.9-4.17,10.15-7.52,14.22-9.76,11.79-10.8,24.07-.42,33.34,7.29,6.51,16,11.6,24.57,16.49,9.83,5.62,20.15,10.42,30.33,15.4,13.74,6.73,27.44,13.52,42.79,16,15,2.47,29.88,5.26,44.81,7.92,17.89,3.19,35.63,1.76,53.16-2.34,15.35-3.58,30.46-8.23,45.88-11.46,12.33-2.58,25-3.74,37.46-5.51,7.29-1,14.57-2.59,21.89-2.78,4.12-.09,8.25,2.6,12.49,3.19,20.57,2.82,40.38-2.78,60.37-6,8.45-1.39,16.72-4,25.19-5.1,21.84-2.94,43.74-5.38,65.61-8,13.08-1.58,26.15-3.3,39.25-4.73,15.6-1.72,31.2-3.79,46.87-4.59a269.86,269.86,0,0,1,35.72,1c10.86.89,21.59,4,32.43,4.25,17.14.39,33.29,4.43,49.42,9.56,15.1,4.81,30.53,8.82,46.4,9.57s31.68.4,47.51,0c2.48-.06,5.17-2.63,7.19-4.62.64-.62-.43-3.18-1-4.77-2.47-7.13-4.92-14.27-7.59-21.33-7.08-18.81-14.33-37.58-21.42-56.41-3.25-8.66-4.35-18.28-12.21-25.51,6.21-1.65,11.64-3.63,17.24-4.46,10.89-1.6,22-4.24,32.79-3.33,12.16,1,24.39,4.48,36,8.65,20.23,7.3,41,7.68,61.86,6.5,12.65-.71,25.17-3.39,37.81-4.37,10.59-.82,21.28-.3,31.91-.62,16-.49,32-1.05,48-1.85,16.67-.83,33.32-1.95,50-3,18.61-1.15,37.23-2.38,55.84-3.52,10.56-.65,21.19-.65,31.66-1.93,11.24-1.36,22.28-4.21,33.5-5.8,12-1.72,24.2-2.8,36.31-4a78.08,78.08,0,0,1,8.92-.22c14.72.12,29.46,0,44.16.55,13.93.56,27.71,1,41.44-2.45C1864.21,478.23,1869,476.94,1873.86,475.83ZM1801.4,614.76c4.1-4.69,8.62-4.27,14.31-2.22-5.6-3.88-11.66-3.46-14.24.9-1,1.76-.77,5,.14,6.93.46,1,3.72.66,5.71.93,0-.48.09-1,.13-1.44C1805.48,618.21,1803.5,616.54,1801.4,614.76Zm3.81-88c2,3.64,5.06,3.49,8.21,1.51l-8.11-2.22,1.71-3.92-1.72-.32C1805.23,523.51,1804.52,525.53,1805.21,526.79Zm-89,46.34c-.07-.27-.14-.54-.2-.82l-10.27-3.16c1.35,2,2,3.94,3,4.1C1711.13,573.66,1713.69,573.23,1716.2,573.13ZM1673.77,609l0-1.41-10.51-.45c0,.59-.07,1.18-.1,1.76C1666.72,608.9,1670.24,611.05,1673.77,609Zm-74.33,62,12.52.53-8.67-5.9,2.64,5.06ZM1545,616c4.12-.76,8-2.72,13-4.51-6.84-6-28.26-5.19-32.33,0a6.22,6.22,0,0,0-1.17,4.42c.15.79,2.27,1.75,3.44,1.69A132.09,132.09,0,0,0,1545,616Zm-73.49,46.44c-2.26-1.12-4.51-2.26-6.8-3.34a8,8,0,0,0-2-.11c-2.64.33-6.37.36-9.8,1.36-2.67.76-5,2.74-7.44,4.17,2,1.49,3.88,3.05,5.92,4.42a13.38,13.38,0,0,0,3.55,1.6,4,4,0,0,0,1.86-.19c-.32-5,4.25-1.48,5.88-3.3.7-.8,2.53-.48,3.63-1.09A61,61,0,0,0,1471.54,662.47Zm-11.46-88.94c2.26-.89,4.5-1.88,7.38-3.1-8.07-5.15-23.39-5-30.42.21,3.72,2,6.78,3.83,10,5.23a8.92,8.92,0,0,0,5.17.55A54.06,54.06,0,0,0,1460.08,573.53Zm-48.2-54.28c-.14-.59-.27-1.2-.41-1.8a26.18,26.18,0,0,0-4.82-1.89c-6.16-1.12-12.4-1.83-18.53-3a28.79,28.79,0,0,0-18.22,2.59c-.94.43-1.92,3.09-1.74,3.22,3.64,2.79,7.21,5.81,11.28,7.79,2.26,1.1,5.4.41,8.31.53.82-.49,1.88-1.57,3.09-1.78,4.22-.73,8.59-.81,12.74-1.82C1406.48,522.35,1409.13,520.56,1411.88,519.25Zm-40.14,51.38c1.75-.42,3.26-1.84,6.16-3.57-4.52-1.47-7.64-3-10.91-3.44a171.33,171.33,0,0,0-19.08-1.37c-1.34,0-2.71,1.9-4.07,2.92,1,1,1.78,2.28,2.94,2.84A36.29,36.29,0,0,0,1371.74,570.63Zm3.82,59.57c-8.75-5.4-32.82-8.87-39.63.56C1342.24,637.74,1366.23,637.27,1375.56,630.2Zm-45.39,64,14.45-6.53c-8.72-6.06-23.13-5.17-29.73,2ZM1275,658.94c3.32-6.48,10.9-1.13,14.74-6-3-1.5-6.23-2.78-9.12-4.56-5.08-3.12-10.08-2.64-15-.11-1.33.68-3.26,2.13-3.19,3.12.07,1.26,1.66,2.87,3,3.55C1268.51,656.54,1271.91,657.7,1275,658.94Zm-70.38-14c3.63-2.62,3.31-4.63-.95-5.94-4.7-1.43-9.58-2.25-14.37-3.32-7-.24-13.4.73-18.78,5.36-1.08.93-2.23,2.92-1.91,4s2.33,1.89,3.74,2.5c8.12,3.51,16.47,1,24.7.52A15.52,15.52,0,0,0,1204.59,645Zm-110.34,22c-.72-1.18-1.74-2.58-2.9-2.69-13.68-1.4-27.37-2.76-41.07-3.79-15.88-1.21-31.77-2.16-47.66-3-2.67-.13-5.4.93-8.1,1.45C1027.9,661.18,1061,662.7,1094.25,667Zm-148.16-.78c-1.43-.37-2.9-1.17-4.26-1-16.87,2-33.71,4.2-50.57,6.18-8.19,1-16.4,2-24.62,2.18-11.89.26-23.83.26-35.68-.54-16-1.08-31.92-3.11-47.89-4.55-2.65-.23-5.37.49-8.06.77C832.17,680.84,888.86,675.53,946.09,666.24ZM723.46,669l0-1.71c-12.28-2.42-24.48-.79-36.67,1.47-.08.63-.14,1.24-.22,1.86,2,.09,4.32.86,6,.15,8.69-3.63,17.63-1.2,26.44-1.56Z" transform="translate(-0.11 12.81)"/><path d="M1843.11,350.42c4.62,6.36,8.58,13.41,5.14,21.55-1.65,3.86-4.8,7.13-7.46,10.52-2,2.59-4.49,4.83-6.54,7.39-9.48,11.85-34.55,12.75-44.22-2.35a26.2,26.2,0,0,0-3.33-3.46c-4.74,4.38-9.06,8.88-13.89,12.75-8.43,6.74-18,10.95-29,10.83-7.89-.09-15.93.31-23.62-1.07-14.29-2.56-17.46-16.68-12.72-27.27.31-.69.73-1.34,1.56-2.8-17.8-1.12-35.3-3.94-35.17-26,.09-16.22,13.23-28.31,28-29.9-1.44-23.37,9.47-40.36,27.92-53.31a50.54,50.54,0,0,1,10.31-5.73c16.73-6.57,31.85,8.16,33.85,21.85.69,4.71-.27,9.66-.44,13.71,7.32-3.22,14.19-7.5,21.64-9.23,14.58-3.41,28.64-.78,40.21,9.23,9.2,8,10.06,23.57,2.48,33-1.9,2.36-4.87,3.88-7.09,5.59C1834.75,340.45,1839.3,345.17,1843.11,350.42Zm-6.28,25.17c4.84-4.51,5.73-8.18,2.82-14.06-5.89-11.9-15.41-20.12-27.42-25.39-3-1.33-3.93-3.49-2.86-5.82a10.14,10.14,0,0,1,5.12-4.47c1.39-.58,3.48.48,5.25.88,6.78,1.54,16-4.17,14.82-9.8a39.37,39.37,0,0,0-6.12-13.6c-3.83-5.61-10.72-5.36-16.59-6.46-9.48-1.78-19-1.83-26.74,5.22-4.72,4.32-8.9,9.22-13.2,14-2.24,2.47-5,4.93-8,3-1.46-.94-1.62-4.93-1.31-7.41.81-6.53,2.2-13,3-17.47,1.81-17.42-11.9-29.79-24.27-23.43-15.42,7.93-26.71,20-30.53,37.6-1.8,8.34-.2,15.87,5.87,22.23,3.07,3.22,3.37,7.26.63,9.09-3.87,2.58-5.92-.09-8-3.07-4.65-6.8-10.44-7.57-16.79-2.36a69.71,69.71,0,0,0-5.54,5c-6.94,7-6.79,17.16,1.08,22.72,8.21,5.8,17.7,6.09,27.44,4.36,2.56-.45,6.3-.05,8,1.56,2.65,2.53-.51,4.58-2.47,6.33-.5.44-1,.82-1.51,1.3a16.75,16.75,0,0,0-4.69,14.95c.84,4.79,5.54,7.83,10.35,8.06,8.21.38,16.66.73,24.67-.72,14.3-2.58,24.17-12.24,32.47-23.6,3-4.09,6.25-4,9,.12a90.44,90.44,0,0,0,6.09,8.41c5.53,6.55,12.54,8.48,20.79,6.34C1826.2,387.08,1831.17,380.85,1836.83,375.59Z" transform="translate(-0.11 12.81)"/><path class="cls-3" d="M1839.65,361.53c2.91,5.88,2,9.55-2.82,14.06-5.66,5.26-10.63,11.49-18.63,13.57-8.25,2.14-15.26.21-20.79-6.34a90.44,90.44,0,0,1-6.09-8.41c-2.73-4.11-6-4.21-9-.12-8.3,11.36-18.17,21-32.47,23.6-8,1.45-16.46,1.1-24.67.72-4.81-.23-9.51-3.27-10.35-8.06a16.75,16.75,0,0,1,4.69-14.95c.46-.48,1-.86,1.51-1.3,2-1.75,5.12-3.8,2.47-6.33-1.67-1.61-5.41-2-8-1.56-9.74,1.73-19.23,1.44-27.44-4.36-7.87-5.56-8-15.7-1.08-22.72a69.71,69.71,0,0,1,5.54-5c6.35-5.21,12.14-4.44,16.79,2.36,2,3,4.08,5.65,8,3.07,2.74-1.83,2.44-5.87-.63-9.09-6.07-6.36-7.67-13.89-5.87-22.23,3.82-17.64,15.11-29.67,30.53-37.6,12.37-6.36,26.08,6,24.27,23.43-.79,4.47-2.18,10.94-3,17.47-.31,2.48-.15,6.47,1.31,7.41,3,1.9,5.74-.56,8-3,4.3-4.77,8.48-9.67,13.2-14,7.73-7,17.26-7,26.74-5.22,5.87,1.1,12.76.85,16.59,6.46a39.37,39.37,0,0,1,6.12,13.6c1.19,5.63-8,11.34-14.82,9.8-1.77-.4-3.86-1.46-5.25-.88a10.14,10.14,0,0,0-5.12,4.47c-1.07,2.33-.17,4.49,2.86,5.82C1824.24,341.41,1833.76,349.63,1839.65,361.53Z" transform="translate(-0.11 12.81)"/><path d="M1815.71,612.54c-5.69-2-10.21-2.47-14.31,2.22,2.1,1.78,4.08,3.45,6,5.1,0,.48-.09,1-.13,1.44-2-.27-5.25.05-5.71-.93-.91-2-1.18-5.17-.14-6.93C1804.05,609.08,1810.11,608.66,1815.71,612.54Z" transform="translate(-0.11 12.81)"/><path d="M1813.42,528.3c-3.15,2-6.23,2.13-8.21-1.51-.69-1.26,0-3.28.09-4.95l1.72.32-1.71,3.92Z" transform="translate(-0.11 12.81)"/><path class="cls-4" d="M1716,572.31c.06.28.13.55.2.82-2.51.1-5.07.53-7.49.12-1-.16-1.63-2.15-3-4.1Z" transform="translate(-0.11 12.81)"/><path d="M1673.8,607.63l0,1.41c-3.53,2-7-.14-10.58-.1,0-.58.06-1.17.1-1.76Z" transform="translate(-0.11 12.81)"/><path d="M1612,671.61l-12.52-.53,6.49-.31-2.64-5.06Z" transform="translate(-0.11 12.81)"/><path class="cls-4" d="M1604.25,340.85c.23,1.09-.87,2.46-1.35,3.7-.88-.72-2.08-1.27-2.61-2.19-3.11-5.41-6.74-9-10.74-11.27l1.08-2a57.72,57.72,0,0,1,9,6.11c-.57-6.83-4.79-15.1-9.39-17.84-12.27-7.27-22.71-4.79-31.72,8.16,0-3.42-.06-4.87-.1-6.31a14.2,14.2,0,0,0-1.14-5.59l2.16-.19a27.64,27.64,0,0,1,1.24,3.26c4.12-1.74,8.12-4.35,12.47-5.13,16.71-3,24.38,6.2,27.85,17.91C1602.15,333.22,1603.42,337,1604.25,340.85Z" transform="translate(-0.11 12.81)"/><path class="cls-4" d="M1590.63,329.05l-1.08,2c-7.19-4-15.58-3.69-24.35-1.52-5.27,1.3-9.38,7.31-14.62,11.68-.79-2.64-1.65-5.53-2.53-8.42-.63-2.05-1.12-4.14-1.92-6.12-4.65-11.4-7.75-12.56-18.74-6.64-3,1.62-5.68,3.92-8.55,5.83a6.32,6.32,0,0,1-3.56,1.07c6-10.54,14.75-17.87,26.1-21.34,8.7-2.66,14.69.3,18.09,7.76l-2.16.19c-1.52-3.3-4.59-4.92-9.4-5.42-8.78-.91-15,3.84-20.82,9.22,1.33-.58,2.65-1.17,4-1.72,8.33-3.31,10.93-2.66,15.18,5.38,2.51,4.74,3.88,10.08,5.86,15.39C1564.64,323.23,1577.52,322,1590.63,329.05Z" transform="translate(-0.11 12.81)"/><path d="M1558.07,611.52c-5,1.79-8.92,3.75-13,4.51a132.09,132.09,0,0,1-17,1.55c-1.17.06-3.29-.9-3.44-1.69a6.22,6.22,0,0,1,1.17-4.42C1529.81,606.33,1551.23,605.48,1558.07,611.52Zm-3.82-1c-7.72-4.35-21.78-2.66-26.44,2.94C1532.13,617.51,1548.72,615.83,1554.25,610.5Z" transform="translate(-0.11 12.81)"/><path class="cls-5" d="M1527.81,613.44c4.66-5.6,18.72-7.29,26.44-2.94C1548.72,615.83,1532.13,617.51,1527.81,613.44Z" transform="translate(-0.11 12.81)"/><path d="M1464.74,659.13c2.29,1.08,4.54,2.22,6.8,3.34a61,61,0,0,1-5.16,3.52c-1.1.61-2.93.29-3.63,1.09-1.63,1.82-6.2-1.73-5.88,3.3a4,4,0,0,1-1.86.19,13.38,13.38,0,0,1-3.55-1.6c-2-1.37-4-2.93-5.92-4.42,2.46-1.43,4.77-3.41,7.44-4.17,3.43-1,7.16-1,9.8-1.36A8,8,0,0,1,1464.74,659.13Zm4.26,4.49c-4.8-5-14.78-4.2-20.81,1.75C1455.68,668.25,1462.2,666.28,1469,663.62Z" transform="translate(-0.11 12.81)"/><path class="cls-5" d="M1448.19,665.37c6-6,16-6.76,20.81-1.75C1462.2,666.28,1455.68,668.25,1448.19,665.37Z" transform="translate(-0.11 12.81)"/><path d="M1467.46,570.43c-2.88,1.22-5.12,2.21-7.38,3.1a54.06,54.06,0,0,1-7.85,2.89,8.92,8.92,0,0,1-5.17-.55c-3.24-1.4-6.3-3.25-10-5.23C1444.07,565.47,1459.39,565.28,1467.46,570.43Zm-5.54-.17c-6.61-2.14-13.27-3-20.74.09C1448.61,574.27,1455.24,573.07,1461.92,570.26Z" transform="translate(-0.11 12.81)"/><path d="M1470.49,261.64c1.91,7.3-2.71,18.23-9.17,22.39-7.67,4.94-16.31,5.53-25,6.53a36.77,36.77,0,0,1-20.08-3.22c-4.39-2-9.13.28-10.86,4.83a65.84,65.84,0,0,0-2.32,7.55c-2.13,8.63-10.44,14.31-20,14.64-17.39.6-32-5.59-44.36-17.36-2.42-2.3-3.5-1.45-5.79-.25-8.3,4.33-16.67,8.62-25.29,12.29-11.78,5-23.85,9.46-35.75,14.25-14.5,5.84-23.82-1.86-28.67-13.6-2.47-6,1.78-18.89,7.22-23,.75-.58,1.53-1.11,2.91-2.12-4.37-3.36-8.3-6.52-12.36-9.49-10.76-7.86-16.32-24.82-12.47-36.31,2.28-6.82,7.33-10.88,13.62-13.52a46,46,0,0,1,24.89-2.89c4,.59,5-.89,5.65-4.68a66.44,66.44,0,0,1,4.59-15.44c6.19-14,15-25.95,28.37-34,7.19-4.35,14.94-3.75,22.12-1.41,6.58,2.13,12.68,6,18.62,9.67,6.27,3.88,7.11,10.65,7.46,18.12,10.26-6.5,21.35-8.13,32.57-8.6,13.68-.57,26.79,1.92,37.74,10.82,13.38,10.89,11.34,17.84,4.76,29.47a34.66,34.66,0,0,1-2.42,3.32c6.64,2.54,13.1,4.88,19.47,7.44C1457.57,241.74,1467.08,248.66,1470.49,261.64Zm-20.28,15.79c11.82-4,14.58-9.11,5.08-21.06-7.29-9.18-18.34-13-29.67-15.35-4.68-1-9.53-1.41-14-2.93-1.81-.61-3.76-3.38-4-5.33-.16-1.7,1.72-4,3.29-5.38s3.85-1.83,5.69-2.91c7.54-4.4,8.81-10.48,3.3-17.15a24.75,24.75,0,0,0-6.92-5.56c-11.59-6.49-24.16-6.39-36.7-4.39-13.92,2.23-25,8.85-31.36,22.19-1.75,3.68-4.45,6.95-7,10.15-1.7,2.12-3.68,4.56-7,2.07-2.87-2.13-3.54-4.67-1.76-7.71,3.47-6,6.71-12.07,10.62-17.72,4.33-6.23,4.3-17.53-.69-22.45a26,26,0,0,0-33.64-2.87,35.28,35.28,0,0,0-7.25,6.7c-8.66,11.12-17.53,22.31-17,37.54.11,2.89,1.59,5.85,2.86,8.59s3.8,4.89,4.22,7.56c.35,2.28-1,5.35-2.69,7.13-.61.67-4.64-.77-6.18-2.24-2.58-2.47-4.12-6-6.65-8.58-2.23-2.24-5.18-5.18-7.88-5.23a65.41,65.41,0,0,0-19,2.24c-4.48,1.26-9.37,4.76-9,10a30.82,30.82,0,0,0,4.89,14.84c7.44,10.88,18.46,17.84,29.92,23.87,6.67,3.52,6.86,3.16,4.74,11.79-3.1-.85-6.13-1.83-9.23-2.51-2.29-.51-5.13-1.62-6.93-.76-6.24,2.94-8.68,9.47-6.26,14.8,3.3,7.27,9,9.59,16.54,6.72,12.13-4.64,24.31-9.14,36.37-13.95,9.86-3.91,19.34-8.39,25.78-17.54,2.42-3.42,8-2.72,10,.73,7.76,13,19.25,19.92,34.29,21,10.85.76,15.5-1.85,18-12.24,3.54-14.85,15.31-17.57,27.62-13C1431.88,281.94,1441.31,280.43,1450.21,277.43Z" transform="translate(-0.11 12.81)"/><path class="cls-4" d="M1464.56,376.28c.14,3.84-.51,7.7-.84,11.56l-2-.11a62.26,62.26,0,0,0,0-11.5c-.36-3.1-3-7.45-5.64-8.48-10-3.91-20.35-5.13-29.26,3.09-2,1.81-3.31,4.33-4.95,6.52-.59-.54-1.2-1.08-1.81-1.62-.27-2.59-.66-5.18-.8-7.78-.53-9.76-8.84-14.65-17.38-9.92a99.81,99.81,0,0,0-11.47,7.8,82.93,82.93,0,0,0-6.38,5.93l-2.29-.58c5.73-8.07,14.14-13.54,23.75-17.64,6.3-2.68,14.24,3.14,15.74,10.57.39,1.93.74,3.87,1.16,6.08,3.08-1.92,5.87-3.89,8.85-5.46,8.78-4.67,17.84-3.14,26.37.2C1462,366.63,1464.38,371.41,1464.56,376.28Z" transform="translate(-0.11 12.81)"/><path class="cls-4" d="M1463.62,389.11c-.22,3.56-.19,7.12-.43,10.67a54.41,54.41,0,0,1-1.26,6c-2.57-5.49-4.44-9.5-6.34-13.51-4.37-9.23-13.29-11.46-21.87-12.06-3.76-.27-8.1,4.29-11.77,7.16-2.76,2.15-4.86,5.12-8.06,8.6-1.58-6.08-2.77-10.93-4.13-15.74-3.83-13.6-9.06-15.67-20.33-7.42-4.81,3.52-8.75,8.21-13.1,12.4,0,0-.7-.74-.55-1.28a40.58,40.58,0,0,1,6-12.75l2.29.58a12.5,12.5,0,0,0,5.74-2.3c1.82-1.12,3.62-2.29,5.52-3.27,5.13-2.64,9.74-1.51,12.61,3.5a56.9,56.9,0,0,1,4.3,10c1.11,3.31,1.71,6.8,2.76,11.2,7.34-6.7,11.9-16.15,23.69-13.27,10,2.46,17.46,7.28,21,17.51l1.54-.72c.1-2.22.28-4.44.45-6.67l2,.11C1463.68,388.27,1463.65,388.68,1463.62,389.11Z" transform="translate(-0.11 12.81)"/><path class="cls-5" d="M1441.18,570.35c7.47-3.09,14.13-2.23,20.74-.09C1455.24,573.07,1448.61,574.27,1441.18,570.35Z" transform="translate(-0.11 12.81)"/><path class="cls-3" d="M1455.29,256.37c9.5,11.95,6.74,17.09-5.08,21.06-8.9,3-18.33,4.51-27.59,1.07-12.31-4.59-24.08-1.87-27.62,13-2.49,10.39-7.14,13-18,12.24-15-1.06-26.53-8-34.29-21-2.06-3.45-7.62-4.15-10-.73-6.44,9.15-15.92,13.63-25.78,17.54-12.06,4.81-24.24,9.31-36.37,13.95-7.52,2.87-13.24.55-16.54-6.72-2.42-5.33,0-11.86,6.26-14.8,1.8-.86,4.64.25,6.93.76,3.1.68,6.13,1.66,9.23,2.51,2.12-8.63,1.93-8.27-4.74-11.79-11.46-6-22.48-13-29.92-23.87a30.82,30.82,0,0,1-4.89-14.84c-.33-5.25,4.56-8.75,9-10a65.41,65.41,0,0,1,19-2.24c2.7.05,5.65,3,7.88,5.23,2.53,2.54,4.07,6.11,6.65,8.58,1.54,1.47,5.57,2.91,6.18,2.24,1.65-1.78,3-4.85,2.69-7.13-.42-2.67-3-4.93-4.22-7.56s-2.75-5.7-2.86-8.59c-.57-15.23,8.3-26.42,17-37.54a35.28,35.28,0,0,1,7.25-6.7,26,26,0,0,1,33.64,2.87c5,4.92,5,16.22.69,22.45-3.91,5.65-7.15,11.76-10.62,17.72-1.78,3-1.11,5.58,1.76,7.71,3.33,2.49,5.31.05,7-2.07,2.58-3.2,5.28-6.47,7-10.15,6.35-13.34,17.44-20,31.36-22.19,12.54-2,25.11-2.1,36.7,4.39a24.75,24.75,0,0,1,6.92,5.56c5.51,6.67,4.24,12.75-3.3,17.15-1.84,1.08-4.17,1.53-5.69,2.91s-3.45,3.68-3.29,5.38c.2,2,2.15,4.72,4,5.33,4.49,1.52,9.34,2,14,2.93C1437,243.37,1448,247.19,1455.29,256.37Z" transform="translate(-0.11 12.81)"/><path class="cls-5" d="M1411.47,517.45c.14.6.27,1.21.41,1.8-2.75,1.31-5.4,3.1-8.3,3.79-4.15,1-8.52,1.09-12.74,1.82-1.21.21-2.27,1.29-3.09,1.78-2.91-.12-6,.57-8.31-.53-4.07-2-7.64-5-11.28-7.79-.18-.13.8-2.79,1.74-3.22a28.79,28.79,0,0,1,18.22-2.59c6.13,1.22,12.37,1.93,18.53,3A26.18,26.18,0,0,1,1411.47,517.45Zm-41,.8c7.11,6.88,27.6,7.3,38.08.53C1396.19,513.22,1375.37,510.49,1370.42,518.25Z" transform="translate(-0.11 12.81)"/><path class="cls-5" d="M1408.5,518.78c-10.48,6.77-31,6.35-38.08-.53C1375.37,510.49,1396.19,513.22,1408.5,518.78Z" transform="translate(-0.11 12.81)"/><path class="cls-5" d="M1377.9,567.06c-2.9,1.73-4.41,3.15-6.16,3.57a36.29,36.29,0,0,1-25-2.62c-1.16-.56-2-1.86-2.94-2.84,1.36-1,2.73-2.94,4.07-2.92a171.33,171.33,0,0,1,19.08,1.37C1370.26,564.05,1373.38,565.59,1377.9,567.06ZM1347,565.7c8.28,2.26,16.5,5.25,25.23,2.19C1364.05,564.28,1355.81,561.19,1347,565.7Z" transform="translate(-0.11 12.81)"/><path class="cls-4" d="M1372.25,567.89c-8.73,3.06-17,.07-25.23-2.19C1355.81,561.19,1364.05,564.28,1372.25,567.89Z" transform="translate(-0.11 12.81)"/><path class="cls-5" d="M1339.34,631.76c5.18-6.83,22.44-7.22,32.44-.89C1360.79,635,1350.29,633.75,1339.34,631.76Z" transform="translate(-0.11 12.81)"/><path d="M1335.93,630.76c6.81-9.43,30.88-6,39.63-.56C1366.23,637.27,1342.24,637.74,1335.93,630.76Zm35.85.11c-10-6.33-27.26-5.94-32.44.89C1350.29,633.75,1360.79,635,1371.78,630.87Z" transform="translate(-0.11 12.81)"/><path class="cls-5" d="M1344.62,687.63l-14.45,6.53-15.28-4.49C1321.49,682.46,1335.9,681.57,1344.62,687.63Zm-5.18,0c-6.63-3.42-15.31-3-19.38,1C1325.59,691.48,1335.53,691,1339.44,687.6Z" transform="translate(-0.11 12.81)"/><path class="cls-4" d="M1320.06,688.63c4.07-4,12.75-4.45,19.38-1C1335.53,691,1325.59,691.48,1320.06,688.63Z" transform="translate(-0.11 12.81)"/><path class="cls-6" d="M1323.71,602.14c-4.6-.19-8.55-.72-12.46-.46-10.68.71-21.16,2.07-32.07.88-17.57-1.91-34.48-6.15-51.18-11.27-13.06-4-26-7.49-39.8-7.06a18.39,18.39,0,0,1-3.45-.43c-10.61-1.67-21.17-4-31.85-4.89-19-1.61-38.06-1.85-57.08.4-20.28,2.39-40.58,4.6-60.87,6.88l-.06-1.38c-.14-3.24-.21-6.7-.58-10.14-1-8.67-2.07-17.31-3.17-26,0-.11,0-.21,0-.32l2.17-.26c0,.45.3.78,1.2.84,3.34.28,2.8,2.55,4.37,2.61,2.21.11,4.51-.8,6.7-1.48,7-2.21,13.92-5.17,21.1-6.63,14.66-3,29.42-5.77,44.26-7.53s29.64-2.06,44.45-3.18c4.57-.35,10.46.31,13.35-2.23,5.55-4.86,11.6-3.17,18.22-5,.4,8.37,1,16.1,1.16,23.76,0,1.09,0,2.19.05,3.28,0,8-.6,15.95-.91,23.93-.11,2.78-.54,5.43,4.11,4a48,48,0,0,1,12.22-1.59c20.94-.58,41.89-1,62.89-1.4.68,1.23,1.54,2.74,2.39,4.27.41-.14.84-.27,1.26-.42q-.72-32.22-1.45-64.58c3.61.47,6.17.94,8.76,1,.94,0,1.91-.82,2.87-1.28a13,13,0,0,0-1.52-2.74c-2.39-2.52-4.84-5-7.28-7.49l.69-.69a9,9,0,0,0,4.34,2.15c1.32.29,2.94-.31,4.33-.83,6.11-2.24,6.89-2,9.37,4.3,3.42,8.73,6.58,17.56,9.9,26.34,5.25,13.83,10.63,27.6,15.78,41.46C1318.6,586.43,1320.93,593.9,1323.71,602.14Z" transform="translate(-0.11 12.81)"/><path d="M1289.71,652.91c-3.84,4.9-11.42-.45-14.74,6-3.06-1.24-6.46-2.4-9.63-4-1.33-.68-2.92-2.29-3-3.55-.07-1,1.86-2.44,3.19-3.12,5-2.53,10-3,15,.11C1283.48,650.13,1286.68,651.41,1289.71,652.91Zm-25.57-.75c7.35,2.63,13.79,2.37,20.63,1C1273.94,647.05,1271.65,646.09,1264.14,652.16Z" transform="translate(-0.11 12.81)"/><path class="cls-5" d="M1284.77,653.18c-6.84,1.35-13.28,1.61-20.63-1C1271.65,646.09,1273.94,647.05,1284.77,653.18Z" transform="translate(-0.11 12.81)"/><path d="M1280.27,516.6c-1,.46-1.93,1.32-2.87,1.28-2.59-.1-5.15-.57-8.76-1l-2.14,0c0-.23,0-.47,0-.7l-.08-2.53c2.25-.07,4.46-.15,6.67-.25l-17-20.11,1.6-1.37c3.36,3.55,6.7,7.13,10.09,10.64,1.23,1.28,2.47,2.54,3.71,3.81,2.44,2.49,4.89,5,7.28,7.49A13,13,0,0,1,1280.27,516.6Z" transform="translate(-0.11 12.81)"/><path d="M1270.09,581.42c-.42.15-.85.28-1.26.42-.85-1.53-1.71-3-2.39-4.27-21,.44-42,.82-62.89,1.4a48,48,0,0,0-12.22,1.59c-4.65,1.38-4.22-1.27-4.11-4,.31-8,1-16,.91-23.93,0-1.09,0-2.19-.05-3.28l1.86,0q.24,13.9.46,27.69c12.78-.31,25.48-.47,38.16-1,12.83-.53,25.64-1.44,38.9-2.2-.32-19.08-.63-37.5-1-56.88l2.14,0Q1269.36,549.26,1270.09,581.42Z" transform="translate(-0.11 12.81)"/><path class="cls-7" d="M1266.5,516.88c.33,19.38.64,37.8,1,56.88-13.26.76-26.07,1.67-38.9,2.2-12.68.53-25.38.69-38.16,1q-.24-13.79-.46-27.69-.21-12.1-.41-24.31c25.2-7.79,51.57-6.67,77-8.78C1266.49,516.41,1266.5,516.65,1266.5,516.88Zm-18.9,49.87c-6.08-10.34-2.59-20.88-4.31-31.09l-33.46-1.42c-1.79,6.51,4,12.54-3.2,17.61l4.54,2.1c-.13,3.06-.08,5.74-.4,8.37-.51,4.3,1.42,6.16,5.57,6.14,7.45,0,14.91.07,22.36-.18C1241.71,568.17,1244.7,567.26,1247.6,566.75Z" transform="translate(-0.11 12.81)"/><path class="cls-8" d="M1273.08,513.4c-2.21.1-4.42.18-6.67.25-14.42.47-29.45.61-44.32,2.28-17.26,1.93-34.31,5.91-51.44,9l-.6-1.49c3.22-3.7,6.29-7.54,9.67-11.1,6.78-7.14,13.63-14.19,20.46-21.29,7.2-7.46,14.34-14.95,21.33-22.59,6.09-6.66,6.74-6.75,12.66-.17,5.59,6.2,6.07,12.66,4.18,20.12a26.54,26.54,0,0,0-.68,8.92c.13,1.41,1.9,3.62,3.13,3.77,3,.39,6.2-.22,9.31-.43s5.29-.68,5.41-5.07c0-.77,0-1.56.08-2.33l.47,0Z" transform="translate(-0.11 12.81)"/><path d="M1266.41,513.65l.08,2.53c-25.39,2.11-51.76,1-77,8.78q.21,12.21.41,24.31l-1.86,0c-.18-7.66-.76-15.39-1.16-23.76-6.62,1.82-12.67.13-18.22,5-2.89,2.54-8.78,1.88-13.35,2.23-14.81,1.12-29.71,1.42-44.45,3.18s-29.6,4.55-44.26,7.53c-7.18,1.46-14.06,4.42-21.1,6.63-2.19.68-4.49,1.59-6.7,1.48-1.57-.06-1-2.33-4.37-2.61-.9-.06-1.22-.39-1.2-.84,0-1.22,2.71-3.36,3.67-3.72,8.56-3.33,17.13-6.9,26-9.09,11.93-2.92,24.13-4.9,36.28-6.85,7-1.13,14.1-1.44,21.18-2.05,12-1.06,24-2,35.94-3.07.49,0,1-.36,1.46-.24,8.43,2.26,12.09-3.72,16.83-8.91,7.71-8.46,16.44-16,24.35-24.3l1.19,1.15c-6.83,7.1-13.68,14.15-20.46,21.29-3.38,3.56-6.45,7.4-9.67,11.1l.6,1.49c17.13-3.09,34.18-7.07,51.44-9C1237,514.26,1252,514.12,1266.41,513.65Z" transform="translate(-0.11 12.81)"/><path class="cls-8" d="M1252.32,461.85c6.34.46,6.16.34,5.5,6.55-.91,8.27-1.89,16.56-2.22,24.87,0,.77-.07,1.56-.08,2.33-.12,4.39-2.22,4.87-5.41,5.07s-6.27.82-9.31.43c-1.23-.15-3-2.36-3.13-3.77a26.54,26.54,0,0,1,.68-8.92c1.89-7.46,1.41-13.92-4.18-20.12-5.92-6.58-6.57-6.49-12.66.17-7,7.64-14.13,15.13-21.33,22.59L1199,489.9c8.33-8.74,16.27-17.87,24.24-27,4.43-5.06,5.53-5.25,9.88-.2,2.25,2.6,4.3,5.36,7.06,8.82.92-4.88,1.66-8.7,2.14-11.23C1246.38,461,1249.34,461.64,1252.32,461.85Zm1.35,23.27c.73-6.52,1.42-13.05,2.19-20.14-3.51-.14-6.81-.59-10-.26-1.11.12-2.68,2-2.92,3.36a115.17,115.17,0,0,0-1.63,13.23c-.39,5.52-.51,11.06-.75,16.67,2.75-.14,4.41-.54,6-.25,5.27,1,6.8-1.38,6.43-6.25C1252.75,489.39,1253.44,487.24,1253.67,485.12Z" transform="translate(-0.11 12.81)"/><path class="cls-6" d="M1255.86,465c-.77,7.09-1.46,13.62-2.19,20.14-.23,2.12-.92,4.27-.77,6.36.37,4.87-1.16,7.25-6.43,6.25-1.54-.29-3.2.11-6,.25.24-5.61.36-11.15.75-16.67a115.17,115.17,0,0,1,1.63-13.23c.24-1.31,1.81-3.24,2.92-3.36C1249.05,464.39,1252.35,464.84,1255.86,465Z" transform="translate(-0.11 12.81)"/><path d="M1243.29,535.66c1.72,10.21-1.77,20.75,4.31,31.09-2.9.51-5.89,1.42-8.9,1.53-7.45.25-14.91.15-22.36.18-4.15,0-6.08-1.84-5.57-6.14.32-2.63.27-5.31.4-8.37l-4.54-2.1c7.2-5.07,1.41-11.1,3.2-17.61Zm-1.45,26.52c-.08-3.1-.17-6.83-.27-10.88l-11.3,1.54a93.34,93.34,0,0,0-.29,9.89c.07,1,2,2.75,2.7,2.59A80.49,80.49,0,0,0,1241.84,562.18Zm.7-15.43c-1.15-3-1.47-7-3.42-8.07-2.93-1.61-7-1.13-10.57-1.53C1226.81,546.53,1229.17,548.35,1242.54,546.75ZM1213.82,565l12.65.54c-.32-4.65.85-10.14-1.31-12.34-2-2-7.6-.57-11.6-.63-.12,0-.25.19-1,.77C1213,557.19,1213.42,561.17,1213.82,565Zm11.84-17a86.26,86.26,0,0,0-1.28-8.87,3.56,3.56,0,0,0-2.54-2.18c-3.23,0-6.46.42-10.34.74.31,3.65.59,7.11.92,11.1Z" transform="translate(-0.11 12.81)"/><path class="cls-9" d="M1241.57,551.3c.1,4.05.19,7.78.27,10.88a80.49,80.49,0,0,1-9.16,3.14c-.72.16-2.63-1.61-2.7-2.59a93.34,93.34,0,0,1,.29-9.89Z" transform="translate(-0.11 12.81)"/><path class="cls-9" d="M1239.12,538.68c2,1.06,2.27,5.09,3.42,8.07-13.37,1.6-15.73-.22-14-9.6C1232.12,537.55,1236.19,537.07,1239.12,538.68Z" transform="translate(-0.11 12.81)"/><path class="cls-9" d="M1226.47,565.49l-12.65-.54c-.4-3.78-.81-7.76-1.21-11.66.7-.58.83-.78,1-.77,4,.06,9.59-1.42,11.6.63C1227.32,555.35,1226.15,560.84,1226.47,565.49Z" transform="translate(-0.11 12.81)"/><path class="cls-9" d="M1224.38,539.06a86.26,86.26,0,0,1,1.28,8.87l-13.24.79c-.33-4-.61-7.45-.92-11.1,3.88-.32,7.11-.75,10.34-.74A3.56,3.56,0,0,1,1224.38,539.06Z" transform="translate(-0.11 12.81)"/><path d="M1203.64,639c4.26,1.31,4.58,3.32.95,5.94a15.52,15.52,0,0,1-7.57,3.14c-8.23.47-16.58,3-24.7-.52-1.41-.61-3.43-1.4-3.74-2.5s.83-3.09,1.91-4c5.38-4.63,11.8-5.6,18.78-5.36C1194.06,636.79,1198.94,637.61,1203.64,639Zm.25,3c-9.87-6.08-27.85-5-32.83,2.19C1178.93,648.91,1199.92,647.38,1203.89,642.05Z" transform="translate(-0.11 12.81)"/><path class="cls-5" d="M1171.06,644.24c5-7.22,23-8.27,32.83-2.19C1199.92,647.38,1178.93,648.91,1171.06,644.24Z" transform="translate(-0.11 12.81)"/><path d="M1192.15,105.28c10.7,19.33-3.55,45.4-25.65,47.68-1.77.18-3.5.65-5.1.95-5,22.65-21.79,46.57-41.89,50.47-14.79,2.86-27.21.77-37.07-11.28-2.71-3.3-5.55-6.49-8.43-9.85-3.41,1.69-6.88,4.12-10.71,5.19-17.82,5-33.77,1.83-46.78-12-4-4.23-8-8.54-11.06-13.43-2.5-4-4.92-4.38-8.86-2.87a42.14,42.14,0,0,1-26.78,1.48c-10.28-2.79-16.51-10.47-21-19.14-6.59-12.58-3.16-30.22,6.48-40.83,3.3-3.64,6.79-2.24,10.56-1.11a50.92,50.92,0,0,1,17.29-31.13c13.51-11.89,37.57-11,47.88,6.44a19.69,19.69,0,0,0,1.27,1.76c3.87-4.06,7.21-8.75,11.62-12,10.88-7.94,23.58-11.37,36.83-12.81,6.58-.71,13.17-1.51,19.76-1.71,19.2-.6,30.77,10.21,36.75,27.51.48,1.38.94,2.77,1.6,4.7,2.59-.77,5-2,7.52-2.16C1164.66,80.13,1182.84,88.5,1192.15,105.28Zm-7.4,22c2.45-7.2.82-14.85-4.33-21-6.38-7.65-14.81-11.63-24.43-14a21.6,21.6,0,0,0-15.65,1.9c-3.67,1.83-7.43,3.5-10.95,5.14-4.29-2.74-4.67-6-2.67-10a7.25,7.25,0,0,0,.73-3.76c-2-17.64-14.27-24.51-29.52-24.2-9.94.2-19.93,2.46-29.74,4.54-13.23,2.82-24.71,8-28.85,22.93-1.7,6.16-7.73,6.35-11.53,1-1.63-2.3-2.9-4.88-4.68-7-3.76-4.57-7.19-9.55-13.83-10.55-18.69-2.78-30.16,11.63-31.9,25.28a23.58,23.58,0,0,0,2.14,12.2c1.56,3.41.79,5.16-1.52,7.25s-4.24,1.45-6.45-.37c-3-2.47-6.27-4.6-9.39-6.84-6,7.71-7.86,16.46-4.63,24.66,5.68,14.39,12.18,19.32,26.33,17.76,5.91-.65,11.56-3.45,17.47-4.54,2.87-.52,8-.36,8.8,1.17a74.51,74.51,0,0,0,15.41,21c5.13,4.9,10.6,10.42,17.85,10.74,9.33.41,18.68-.77,26.74-6.94,6.11-4.68,9.8-3.3,14.14,3.14a73.74,73.74,0,0,0,10.67,13c2.85,2.64,7,5.3,10.6,5.45a42.13,42.13,0,0,0,23.11-6.21c8.3-4.88,12.49-13,17.29-20.67,3.3-5.29,5.52-10.39,2.21-16.88-2.56-5-.05-8.11,5.7-8.54,3.93-.29,7.88-.47,11.81-.91C1175,140.84,1181.86,135.73,1184.75,127.26Z" transform="translate(-0.11 12.81)"/><path class="cls-3" d="M1180.42,106.25c5.15,6.16,6.78,13.81,4.33,21-2.89,8.47-9.8,13.58-19.07,14.63-3.93.44-7.88.62-11.81.91-5.75.43-8.26,3.51-5.7,8.54,3.31,6.49,1.09,11.59-2.21,16.88-4.8,7.69-9,15.79-17.29,20.67a42.13,42.13,0,0,1-23.11,6.21c-3.65-.15-7.75-2.81-10.6-5.45a73.74,73.74,0,0,1-10.67-13c-4.34-6.44-8-7.82-14.14-3.14-8.06,6.17-17.41,7.35-26.74,6.94-7.25-.32-12.72-5.84-17.85-10.74a74.51,74.51,0,0,1-15.41-21c-.77-1.53-5.93-1.69-8.8-1.17-5.91,1.09-11.56,3.89-17.47,4.54-14.15,1.56-20.65-3.37-26.33-17.76-3.23-8.2-1.4-16.95,4.63-24.66,3.12,2.24,6.39,4.37,9.39,6.84,2.21,1.82,4.12,2.48,6.45.37s3.08-3.84,1.52-7.25a23.58,23.58,0,0,1-2.14-12.2c1.74-13.65,13.21-28.06,31.9-25.28,6.64,1,10.07,6,13.83,10.55,1.78,2.17,3.05,4.75,4.68,7,3.8,5.37,9.83,5.18,11.53-1,4.14-14.94,15.62-20.11,28.85-22.93,9.81-2.08,19.8-4.34,29.74-4.54,15.25-.31,27.48,6.56,29.52,24.2a7.25,7.25,0,0,1-.73,3.76c-2,4-1.62,7.3,2.67,10,3.52-1.64,7.28-3.31,10.95-5.14a21.6,21.6,0,0,1,15.65-1.9C1165.61,94.62,1174,98.6,1180.42,106.25Z" transform="translate(-0.11 12.81)"/><path d="M1091.35,664.33c1.16.11,2.18,1.51,2.9,2.69-33.27-4.32-66.35-5.84-99.73-8,2.7-.52,5.43-1.58,8.1-1.45,15.89.83,31.78,1.78,47.66,3C1064,661.57,1077.67,662.93,1091.35,664.33Z" transform="translate(-0.11 12.81)"/><path d="M1034.89,584.81l-2.63.12c-1.72-13.93-3.38-27.54-5.17-42.15l-43.86,3.29c-.13,2.9-.25,5.78-.38,8.65l-2.08-.09.36-8.39c-3,.56-5.6,1.08-8.26,1.61-.14-.36-.28-.72-.42-1.06l10.31-12.87,1.48,1.33a83.47,83.47,0,0,0-5.6,8.14l50.71-4-22.67-39.87-1.79,2.84-1.88-1.2c1.41-2.09,2.79-4.16,4.14-6.19l27.42,47.14c-3.44.22-3.85,3-3.47,6.33,0,.11,0,.21,0,.32,1.1,8.65,2.22,17.29,3.17,26C1034.68,578.11,1034.75,581.57,1034.89,584.81Z" transform="translate(-0.11 12.81)"/><path class="cls-10" d="M1027.09,542.78c1.79,14.61,3.45,28.22,5.17,42.15-12.44,1.41-24,3.07-35.53,3.83-4.3.28-8.79-1.33-13.07-2.54-.94-.27-1.92-2.5-1.88-3.81.27-9.18.66-18.35,1.07-27.69.13-2.87.25-5.75.38-8.65Zm-3.8,33.74,1.18-27.65c-6.71.22-12.3.51-17.89.56-3.6,0-7.2-.28-11.94-.48-1.49,8.38.52,17.49.1,26.36Z" transform="translate(-0.11 12.81)"/><path d="M1024.47,548.87l-1.18,27.65-28.55-1.21c.42-8.87-1.59-18-.1-26.36,4.74.2,8.34.52,11.94.48C1012.17,549.38,1017.76,549.09,1024.47,548.87Zm-4,9.9.28-6.44-11-.46c.39,2.87.73,5.3,1.08,7.77Zm-.64,11.06c.26-8.73.26-8.73-9-6.37l-.31,7.34Zm-12.56,1.64c-.47-3.23-.81-5.48-1.16-7.9l-9.08-.38c.72,3.47.44,7.29,2.2,9C1000.54,573.37,1004.5,571.79,1007.27,571.47Zm-1-12.27c-.11-2.5-.22-4.8-.33-7.11-8.56.7-8.56.7-7.88,7.56Z" transform="translate(-0.11 12.81)"/><path class="cls-9" d="M1020.75,552.33l-.28,6.44-9.62.87c-.35-2.47-.69-4.9-1.08-7.77Z" transform="translate(-0.11 12.81)"/><path class="cls-9" d="M1010.84,563.46c9.25-2.36,9.25-2.36,9,6.37l-9.3,1Z" transform="translate(-0.11 12.81)"/><path class="cls-11" d="M1006.68,499.47l22.67,39.87-50.71,4a83.47,83.47,0,0,1,5.6-8.14c3.86-4.71,8.57-8,16.18-7.53-4.73-4.47-5.5-9.36-2.46-14.33,2.29-3.74,4.64-7.45,6.93-11.08Z" transform="translate(-0.11 12.81)"/><path class="cls-9" d="M1006.11,563.57c.35,2.42.69,4.67,1.16,7.9-2.77.32-6.73,1.9-8,.68-1.76-1.67-1.48-5.49-2.2-9Z" transform="translate(-0.11 12.81)"/><path class="cls-9" d="M1005.89,552.09c.11,2.31.22,4.61.33,7.11l-8.21.45C997.33,552.79,997.33,552.79,1005.89,552.09Z" transform="translate(-0.11 12.81)"/><path d="M1003,501.11l1.88,1.2c-2.29,3.63-4.64,7.34-6.93,11.08-3,5-2.27,9.86,2.46,14.33-7.61-.44-12.32,2.82-16.18,7.53l-1.48-1.33c-1-1.55-2.54-2.82-2.55-4.11-.15-10.28.07-20.57,0-30.86,0-3.46,1.1-4.48,4.73-4.2,9.24.75,9.28.53,9.91,10,.15,2.26,0,4.53,1,7Zm-10.59,25.46a3.32,3.32,0,0,0,1.66-2.6c-.54-7.89-1.17-15.79-2.06-23.64a4.12,4.12,0,0,0-2.76-2.68c-2.18-.37-4.47,0-7,.09.41,10.79.81,21,1.22,31.4C986.5,528.31,989.53,527.63,992.42,526.57Z" transform="translate(-0.11 12.81)"/><path class="cls-6" d="M994.08,524a3.32,3.32,0,0,1-1.66,2.6c-2.89,1.06-5.92,1.74-8.93,2.57-.41-10.43-.81-20.61-1.22-31.4,2.52-.08,4.81-.46,7-.09a4.12,4.12,0,0,1,2.76,2.68C992.91,508.18,993.54,516.08,994.08,524Z" transform="translate(-0.11 12.81)"/><path class="cls-6" d="M980.87,563.55c-.78,7.18-1.7,13.74-2.17,20.33C978,594,978.07,593.75,968,595c-9,1.1-17.82,3.06-26.73,4.52-19,3.11-37.69,8.66-57.21,8.36-3.92-.06-7.84-.32-11.53-.47L867.16,600l5.64-5.64L860,583.2c11.1-3,21.36-6.48,31.92-8.36,19.14-3.39,38.43-6,57.71-8.51C959.72,565,969.9,564.5,980.87,563.55Z" transform="translate(-0.11 12.81)"/><path d="M941.83,665.22c1.36-.15,2.83.65,4.26,1-57.23,9.29-113.92,14.6-171.08,3,2.69-.28,5.41-1,8.06-.77C799,669.93,815,672,831,673c11.85.8,23.79.8,35.68.54,8.22-.17,16.43-1.23,24.62-2.18C908.12,669.42,925,667.22,941.83,665.22Z" transform="translate(-0.11 12.81)"/><path class="cls-4" d="M888.55,392.79c6.43,3,11.52,15,9.71,19.83-5-2.57-9.86-5.2-14.84-7.69a16.35,16.35,0,0,0-20.35,4.31l-1.83-.86c9.29-11.08,17.69-11.18,32.67-2.29-1.44-7.88-7.13-11.16-13.72-14.09a26.46,26.46,0,0,0-6.43-2l.44-2.32A63.76,63.76,0,0,1,888.55,392.79Z" transform="translate(-0.11 12.81)"/><path d="M863.56,193.32c13,2.94,23.19,17.42,21.29,29.06-2.06,12.68-14.18,24-27,25.24a15.68,15.68,0,0,1-8.91,12,61.39,61.39,0,0,1-41.46,5c-2.68-.59-5.16-2.1-7.7-3.16-20.41,17.86-41.6,35.1-64.88,49.51-11.35,7-23.52,7.8-35.6,1.21a12.6,12.6,0,0,1-6.7-12.89c.68-7.28,2.27-14.48,3.52-22-5-.87-11.38-1.17-17.19-3.1-19.55-6.46-33.17-20.51-31.51-40,2-23.11,15.07-32.74,35.07-35.49,1.83-.26,3.82.55,6.68,1-5.16-14.29-5.63-27.88,3.3-40.42,5.48-7.68,12.43-13.09,21.83-15.75a55.38,55.38,0,0,1,33.16.73c11,3.6,20.31,9.49,23.06,22.68,8-10,13.46-21.59,26.59-24.44,11.54-2.5,22.18.52,32.36,6,16.67,8.93,21.11,21,15.49,43.88C851.47,192.63,857.73,192,863.56,193.32Zm-4.39,43.57c7.17-.11,16.18-10.27,15.76-17.27-.36-6-10.31-16.09-16.47-16.73-9.34-.94-18.57-.62-27.41,2.85-4,1.56-7,.5-8.59-3.1s1-5.76,4-7.88c3.66-2.6,7.44-5.58,9.84-9.27,4.78-7.36-2.23-20.88-7.1-25.06-8.23-7.08-18.2-9.16-28.73-7.37a18.89,18.89,0,0,0-9.9,4.81c-4.67,4.85-8.54,10.51-12.45,16-4.7,6.66-4.55,14.4-3.84,22,.43,4.68-1,8.87-4.2,9.08-4.67.31-5.74-3.12-6.23-6.8-1.28-9.61-1.74-19.43-4.12-28.77-1.23-4.83-4.89-10.44-9.09-12.83-14-7.93-28.63-6.59-42.47.86-10.13,5.45-13.49,14.35-11.92,26.43,1.57,12.3,5.77,22.7,17.87,28.37,1,.46,1.81,2.78,1.61,4.07-.56,3.57-4.79,5.71-8.24,4.14s-7.42-3.18-10.29-5.74c-8.36-7.45-16.89-6.85-26.54-2.7-15.73,6.77-17.14,29.5-8.27,40.34,11.7,14.3,27,17,43.79,15.62,9-.75,17.84-1.78,26.35,1.94,2,.88,5.16,1.8,3.53,5.37-1.44,3.13-2.95,5.95-7.36,3.88-1.87-.88-4.22-.67-6.21-1.35-6.89-2.31-12.17,1-16.35,5.51-4.34,4.69-4.5,11.05-2.73,16.88a9.09,9.09,0,0,0,5.86,5.19c7.12,1.4,14.15.83,20.45-3.64,6-4.29,12.49-8,18.36-12.54,13.4-10.28,26.88-20.5,39.64-31.52a19.86,19.86,0,0,1,18.18-4.21c9.94,2.74,19.31,1.68,28.81.07,4.34-.73,8.32-3.54,13.73-6a43.14,43.14,0,0,0-4.13-1.85c-4.07-1.2-6.53-3.65-4.9-8s5.34-2.58,8.5-2.17C851.65,236.11,855.42,237,859.17,236.89Z" transform="translate(-0.11 12.81)"/><path class="cls-4" d="M874.2,387.69l-.44,2.32c-8.72-1.34-14.32,4-18,13.51-13.21-13.61-19-8.68-27.59,2.8,13.35-7.84,20.46,1.24,27.82,9.3a74.42,74.42,0,0,1,5.27-7.24l1.83.86a18.77,18.77,0,0,0-2.43,3.92c-1.3,2.8-2.69,5.57-4.19,8.63-3-3.52-5.51-6.81-8.36-9.82-8.73-9.26-16.26-6.61-24.41,2.69-1.17,1.33-1.93,3-3.6,5.65-.59-2.14-1.49-3.51-1.14-4.4a44.49,44.49,0,0,1,18.27-22.17c2.94-1.8,8.37,0,12.56.8,1.73.31,3.19,2.2,4,2.83,4.91-3.75,9.33-9.82,14.11-10.14A24.91,24.91,0,0,1,874.2,387.69Z" transform="translate(-0.11 12.81)"/><path class="cls-3" d="M874.93,219.62c.42,7-8.59,17.16-15.76,17.27-3.75.07-7.52-.78-11.27-1.27-3.16-.41-6.88-2.15-8.5,2.17s.83,6.78,4.9,8a43.14,43.14,0,0,1,4.13,1.85c-5.41,2.44-9.39,5.25-13.73,6-9.5,1.61-18.87,2.67-28.81-.07a19.86,19.86,0,0,0-18.18,4.21c-12.76,11-26.24,21.24-39.64,31.52-5.87,4.51-12.32,8.25-18.36,12.54-6.3,4.47-13.33,5-20.45,3.64a9.09,9.09,0,0,1-5.86-5.19c-1.77-5.83-1.61-12.19,2.73-16.88,4.18-4.52,9.46-7.82,16.35-5.51,2,.68,4.34.47,6.21,1.35,4.41,2.07,5.92-.75,7.36-3.88,1.63-3.57-1.54-4.49-3.53-5.37-8.51-3.72-17.38-2.69-26.35-1.94-16.82,1.4-32.09-1.32-43.79-15.62-8.87-10.84-7.46-33.57,8.27-40.34,9.65-4.15,18.18-4.75,26.54,2.7,2.87,2.56,6.71,4.12,10.29,5.74s7.68-.57,8.24-4.14c.2-1.29-.61-3.61-1.61-4.07-12.1-5.67-16.3-16.07-17.87-28.37-1.57-12.08,1.79-21,11.92-26.43,13.84-7.45,28.51-8.79,42.47-.86,4.2,2.39,7.86,8,9.09,12.83,2.38,9.34,2.84,19.16,4.12,28.77.49,3.68,1.56,7.11,6.23,6.8,3.24-.21,4.63-4.4,4.2-9.08-.71-7.63-.86-15.37,3.84-22,3.91-5.54,7.78-11.2,12.45-16a18.89,18.89,0,0,1,9.9-4.81c10.53-1.79,20.5.29,28.73,7.37,4.87,4.18,11.88,17.7,7.1,25.06-2.4,3.69-6.18,6.67-9.84,9.27-3,2.12-5.56,4.2-4,7.88s4.6,4.66,8.59,3.1c8.84-3.47,18.07-3.79,27.41-2.85C864.62,203.53,874.57,213.62,874.93,219.62Z" transform="translate(-0.11 12.81)"/><path class="cls-12" d="M853.35,593c-4.44,3.69-.91,7.08,2.75,11.21-10.36,1.05-20,1.56-29.5,3.1-11.21,1.82-22.33,4.32-33.4,6.9-13,3-25.73,7.07-38.79,9.57a126,126,0,0,1-47.95-.08c-10.87-2.1-21.8-3.86-32.73-5.64-17.49-2.84-33.62-9.45-49.18-17.64-15.19-8-30.55-15.66-45.52-24-3.87-2.16-6.85-6.14-9.73-9.7s-3.12-7.84-.31-11.86c2.38-3.37,4.58-6.9,7.22-10,14.54-17.38,2.15-30.79-12.5-35.74-11.93-4.05-24.53-3.2-37-2.15-6.7.57-13.13-.32-19-4-3.2-2-4.7-4.53-3.27-8.28,3.86-10.16,8-20.22,11.52-30.5,4.36-12.79,7-26-1.94-37.83-3.83-5-9.58-9.06-15.25-12.08a211.92,211.92,0,0,0-27.61-11.86c-3.06-1.1-7.15-.38-10.5.51-3.83,1-4,4.19-1.76,7,8.1,10.46,13.18,22.43,17.49,34.76,1.88,5.39-.36,10.3-2.41,15.23-7.43,17.91-15.2,35.71-21.87,53.9-2.76,7.52-3.48,16,1.73,23.44,5.92,8.47,14.21,13.47,24.4,13.62,9.37.14,18.77-1.21,28.13-2.11,4.08-.39,7.51,1.56,8.17,5.69,1.31,8.1-.68,15.72-4.43,22.83-5.38,10.19-11.42,20-16.53,30.38-4.66,9.45-3.74,19.43-.82,29.29,1.69,5.77,3.66,11.25,9.45,14.46,1.16.64,1.68,2.72,2.2,4.23,6.29,18,18.2,31.35,34,41.5,5.92,3.82,12,7.32,19.36,11.75-5.79.45-10.17,1.06-14.56,1.09-28.65.19-57.3.67-85.94.23-24.37-.39-48.72-2.08-73.1-2.84-10.76-.34-21.55.39-32.32.24-6.09-.07-12.17-1.33-18.25-1.39-25.94-.24-51.89-.53-77.82-.24-23.18.25-46.35,1.28-69.52,1.82-5,.12-10-.37-16-.63,5.32-6,10.25-11.07,14.71-16.57,6.76-8.34,13.51-16.72,19.69-25.5,16.14-22.91,27.07-48.43,37.68-74.28C254.1,562,263.7,532.59,272.8,503c4.94-16.09,9.33-32.38,13.26-48.75,3.65-15.21,6.09-30.7,9.55-45.95a132.78,132.78,0,0,1,7-22.18c5.06-12,10.67-23.75,16.52-35.37,6.38-12.71,16.92-22.16,27.14-31.54s21.59-18.12,32.85-26.59A170.84,170.84,0,0,1,431,266.31c12.23-3.85,24.55-8.25,37.58-8.2,17.09.08,34.27-.1,51.24,1.64,12.84,1.31,25.51,5.05,38,8.57,4.89,1.37,10.8,2.27,13.59,7.85,3.62-1.68,6,.74,8.39,2.67,13.92,11.34,28.2,22.27,41.48,34.31a210.9,210.9,0,0,1,25.47,27.78c5.47,7.1,9.07,15.7,13.18,23.79,7.48,14.73,15.43,29.26,21.85,44.45,8.4,19.84,18,39,28,58,12.35,23.41,29.21,43,47.72,61.42,16.86,16.79,36.34,30.35,56.75,42.22,8.41,4.89,19.08,6,28.74,8.66,1.55.44,3.25.36,3.88,1.42C849,584.8,851.08,588.67,853.35,593ZM721,548.18a5.76,5.76,0,0,0,2.63-2.3c-.83-1.27-1.61-2.69-2.48-4a11.53,11.53,0,0,0-3-3.24c-5.73-3.71-11.94-6.69-18.35-10.18l11.14-3.38c.09-.53.17-1.08.25-1.63-11.92-6.15-24.31-10.89-38.48-11.77-.16-.41-.56-1.39-1.12-2.75-9.8,10.54-19.3,20.75-28.78,31,.3.5.61,1,.92,1.48l7.61-.48,15.49-1-21.63,25.7c13.71-1.08,26.29-3.84,38.73-6.62l.4,1.79a98.45,98.45,0,0,0-1.4,17.34c0,.76,2,2.33,2.73,2.16,6-1.39,11.9-3.11,17.18-4.55-1.48-5.65-3-11.12-4.27-16.66-.27-1.2.24-3.47,1-3.86A162.74,162.74,0,0,1,714.66,549C716.61,548.28,719,548.72,721,548.18Zm-87.8-156.87c4.14-7.15.88-13.25-7.28-14.09-4.18-.43-8.35-.87-12.74-1.31a50,50,0,0,0,1.81-4.76c1.32-4.95-2.23-10.4-7.36-10.62a29.54,29.54,0,0,0-3.12,0,31.77,31.77,0,0,0-7.57,1.24c-10.48,3.16-19.51,9-27.56,16.31a31.25,31.25,0,0,0-7,9.4c-2.18,4.51-.37,6.86,4.63,7.17l2.92.16L574,395c-3.65,3.77-6.95,6.8-9.73,10.26-1.32,1.63-1.63,4.08-2.39,6.17,1,.36,2.06.89,3.1,1.34a7.48,7.48,0,0,0,3.66.84c9.53-1,19-2.61,29.11-4.09.12.48.24,1,.37,1.45,1.23,4.78,2.82,9.78,3.39,14.9.37,3.24,1.35,3.14,3.59,2.46,4.09-1.22,8.23-2.26,12.19-3.78.76-.3,1.35-2.68,1-3.81a48.08,48.08,0,0,0-3.82-10.16c-2.83-5.16-.71-7.18,4.12-8.73C624.55,399.94,630,396.91,633.18,391.31ZM409.35,403.69c7.48-1.05,7.57-1.09,7.76-8.73.36-14.6,1.07-29.23.71-43.82A119.71,119.71,0,0,0,416,333.47c-.49-2.77-1.06-5.52-1.68-8.25-2.4-10.45-10.74-12.72-18.23-4.86a27.1,27.1,0,0,0-4,5.65,78.48,78.48,0,0,0-3.8,8.31,238.29,238.29,0,0,0-9.46,26.51c-2.08,7.59-2.69,15.57-4,23.38-.72,4.21-1.71,8.38-2.2,12.61-.09.71,1.67,2.18,2.75,2.37,5.42,1,10.9,1.69,16.25,2.46.07,6,.17,11.47.22,16.94s.05,10.88.07,17.22l13.27-2.1c-.59-10.49-1.14-20.11-1.68-29.83C406.05,403.81,407.73,403.92,409.35,403.69ZM342.82,600.57c4.45-.94,5.55-4.09,5.6-7.47,0-3.72-.05-7.43-.16-11.15-.15-4.72-.36-9.45-.44-14.17-.24-14.4,0-28.82-.79-43.18-.22-3.87-2.72-9-5.8-11-4-2.68-8.7.24-11.53,4.12A149.87,149.87,0,0,0,320.44,532c-3.24,5.71-6.73,11.43-8.79,17.58-3.64,10.92-6.56,22.08-9.25,33.28A139.21,139.21,0,0,0,299.57,600c-.14,1.14-.26,2.28-.37,3.42-.55,5.49,1.28,7.14,6.71,7.36,1.66.08,3.52.52,4.95-.06,5.05-2,6.1,1,6.75,4.86,1.57,9.18,3.15,18.37,4.67,27.26,6-1.62,12.15-3.25,18-4.81-1.92-8.58-3.7-16.59-5.49-24.61C332.45,603,332.41,602.76,342.82,600.57Z" transform="translate(-0.11 12.81)"/><path class="cls-4" d="M802.49,359c8.82,2.19,15,8.54,18.2,18.73-3.13-.66-5.53-.86-7.7-1.66a39.82,39.82,0,0,0-15.63-2.6l-.11-2.61A93.91,93.91,0,0,1,814.48,372c-5-8.11-12.88-12.4-21.64-10.61-13.61,2.79-23.33,10.32-26.92,25.6a55.78,55.78,0,0,1-3.68-5.66c-1.21-2.53-1.82-5.36-3.15-7.78-3.23-5.92-8-6.83-13-2.32s-7.73,10.51-9.89,18.25l-2.4-.23c1.05-8.17,5.31-14.69,10.93-20.5,5.26-5.46,12.59-4.09,16.67,2.68a68.44,68.44,0,0,1,3.42,7.62C775.8,360.32,791.11,356.18,802.49,359Z" transform="translate(-0.11 12.81)"/><path class="cls-4" d="M797.25,370.89l.11,2.61a37.77,37.77,0,0,0-20.57,7.43c-4.14,3-6,9.13-8.92,13.81-.72,1.16-1.62,2.2-2.45,3.29a31.7,31.7,0,0,1-2.38-2.82,69.44,69.44,0,0,1-5-7.95c-2.19-4.52-5.73-5.32-9.34-2.81-4.48,3.14-8.34,7.19-12.49,10.82-.58.52-1.23,1-2.47,1.91a33,33,0,0,1,0-7.89l2.4.23c2.92-2.29,4.53-3.73,6.33-4.89a37.35,37.35,0,0,1,6.06-3.28c5.94-2.44,8.73-1.47,11.91,3.91,1.37,2.33,2.73,4.67,4.5,7.68a50.35,50.35,0,0,1,2.52-4.87C774.87,375.56,785.37,371.41,797.25,370.89Z" transform="translate(-0.11 12.81)"/><path d="M723.42,667.25l0,1.71-4.49.21c-8.81.36-17.75-2.07-26.44,1.56-1.68.71-4-.06-6-.15.08-.62.14-1.23.22-1.86C698.94,666.46,711.14,664.83,723.42,667.25Z" transform="translate(-0.11 12.81)"/><path d="M723.61,545.88a5.76,5.76,0,0,1-2.63,2.3c-2,.54-4.37.1-6.32.8a162.74,162.74,0,0,0-15.11,6.24c-.8.39-1.31,2.66-1,3.86,1.23,5.54,2.79,11,4.27,16.66-5.28,1.44-11.2,3.16-17.18,4.55-.75.17-2.73-1.4-2.73-2.16a98.45,98.45,0,0,1,1.4-17.34c.58,5.28,1.17,10.55,1.78,16.26l13.52-3.53c-1.54-6-3-11.48-4.38-17-3.78.81-7.54,1.66-11.32,2.51-12.44,2.78-25,5.54-38.73,6.62l21.63-25.7-15.49,1-.15-2.54c4.62-.42,9.22-1.13,13.85-1.25,1.45,0,3.11,1.29,4.27,2.4.27.25-.94,2.39-1.78,3.41-4.91,6-9.91,11.9-14.88,17.83L653,562c5.14-.94,10.29-1.8,15.4-2.84,8.21-1.67,16.73-2.58,24.46-5.53,5-1.88,9.36-5.16,14.89-6,3.92-.57,7.75-1.83,11.61-2.79.16-.66.33-1.34.49-2l1.33-1C722,543.19,722.78,544.61,723.61,545.88Z" transform="translate(-0.11 12.81)"/><path d="M721.13,541.9l-1.33,1c-9.08-4.63-18.17-9.27-27.83-14.22l6.33-2.46,1.44,2.31c6.41,3.49,12.62,6.47,18.35,10.18A11.53,11.53,0,0,1,721.13,541.9Z" transform="translate(-0.11 12.81)"/><path class="cls-13" d="M719.8,542.85c-.16.67-.33,1.35-.49,2-3.86,1-7.69,2.22-11.61,2.79-5.53.83-9.94,4.11-14.89,6-7.73,3-16.25,3.86-24.46,5.53-5.11,1-10.26,1.9-15.4,2.84l-.36-1.25c5-5.93,10-11.85,14.88-17.83.84-1,2-3.16,1.78-3.41-1.16-1.11-2.82-2.43-4.27-2.4-4.63.12-9.23.83-13.85,1.25A21,21,0,0,1,648,538l22-24.08,1.17,0c-.19,1.32-.37,2.64-.52,3.75,4.06-4.41,9.23-1.73,14-.7a88.84,88.84,0,0,1,19.44,6.91l-5.77,2.24L692,528.63C701.63,533.58,710.72,538.22,719.8,542.85Z" transform="translate(-0.11 12.81)"/><path d="M711.13,523.47c-.08.55-.16,1.1-.25,1.63l-11.14,3.38-1.44-2.31,5.77-2.24A88.84,88.84,0,0,0,684.63,517c-4.75-1-9.92-3.71-14,.7.15-1.11.33-2.43.52-3.75l-1.17,0L648,538a21,21,0,0,0,3.17.35l.15,2.54-7.61.48c-.31-.49-.62-1-.92-1.48,9.48-10.21,19-20.42,28.78-31,.56,1.36,1,2.34,1.12,2.75C686.82,512.58,699.21,517.32,711.13,523.47Z" transform="translate(-0.11 12.81)"/><path class="cls-14" d="M695.19,556.49c1.43,5.55,2.84,11.06,4.38,17l-13.52,3.53c-.61-5.71-1.2-11-1.78-16.26l-.4-1.79C687.65,558.15,691.41,557.3,695.19,556.49Z" transform="translate(-0.11 12.81)"/><path d="M655.55,665.78c-.34,4.48-3.91,4.14-7,3.48-6.75-1.4-13.53-2.91-20.13-4.91-21.15-6.37-41.43-14.9-60.17-26.64A89.23,89.23,0,0,1,539,607.64c-1.45-2.42-1.68-6.13-1.2-9,1.43-8.44,3.49-16.77,5.34-25.13a44.62,44.62,0,0,0,1-7.51l1.94,0c0,.51,0,1-.07,1.54a103.45,103.45,0,0,1-4.42,24.83c-3.39,10.65,1.57,17.71,7.84,25,13.5,15.6,30.95,25.19,49.64,32.81,9.74,4,19.68,7.49,29.67,10.78,4.49,1.47,9.37,1.75,14,2.78,2.19.48,4.22,1.74,6.41,2.13C651.13,666.18,653.2,665.83,655.55,665.78Z" transform="translate(-0.11 12.81)"/><path d="M625.9,377.22c8.16.84,11.42,6.94,7.28,14.09-3.23,5.6-8.63,8.63-14.53,10.52-4.83,1.55-6.95,3.57-4.12,8.73a48.08,48.08,0,0,1,3.82,10.16c.33,1.13-.26,3.51-1,3.81-4,1.52-8.1,2.56-12.19,3.78-2.24.68-3.22.78-3.59-2.46-.57-5.12-2.16-10.12-3.39-14.9l2.66-.68c.95,5.07,2.32,10.06,3.56,15.15l11.52-3.74c-2.15-5.68-4.16-11-6.22-16.45-1.63.44-3.08.72-4.4,1.09l-.7-2.54q2.61-.72,5.19-1.51c6.91-2.17,13.37-6.26,19.42-10.4,1.91-1.3,2.66-5.65,2.27-8.37-.2-1.39-4-3-6.32-3.2-5.31-.38-10.67.09-16,.21-1,0-2,.09-4.43.2,1.91-2.07,2.8-3.14,3.81-4.08,2.64-2.45,5.1-5,3.53-9a7.17,7.17,0,0,0-7.43-4.76l-.12-2.33a29.54,29.54,0,0,1,3.12,0c5.13.22,8.68,5.67,7.36,10.62a50,50,0,0,1-1.81,4.76C617.55,376.35,621.72,376.79,625.9,377.22Z" transform="translate(-0.11 12.81)"/><path class="cls-15" d="M631.46,383.5c.39,2.72-.36,7.07-2.27,8.37-6.05,4.14-12.51,8.23-19.42,10.4q-2.58.8-5.19,1.51c-9.64,2.65-19.54,4.47-29.34,6.55-3,.64-6.29.45-10.3.66l-.31,0c3.35-9.05,10.65-12.09,17.75-17-2.24-.85-3.56-1.75-4.92-1.78-2.48-.08-5,.54-7.48.44l-.41,0c-1.59-.12-3.66-.93-4.47-2.13-.6-.9,0-3.3.85-4.38,9.38-11.78,21.81-18.95,36.14-22.84a11.62,11.62,0,0,1,2.52-.41,7.17,7.17,0,0,1,7.43,4.76c1.57,3.95-.89,6.54-3.53,9-1,.94-1.9,2-3.81,4.08,2.47-.11,3.45-.17,4.43-.2,5.34-.12,10.7-.59,16-.21C627.42,380.46,631.26,382.11,631.46,383.5Zm-27.57-10.07c.44-1.11-2-3.91-3.68-5.08-.79-.55-3.77.44-4.41,1.53-2,3.39-1.57,6.85,2.44,10.73C600.3,378.15,602.84,376.09,603.89,373.43Zm-7.76,21.23c1.37-2.84-1.45-4.4-4.12-4.82-3-.46-6.49,3.42-6.84,9,.8.88,2.4,2.65,4,4.41C591.56,400.4,594.58,397.89,596.13,394.66Z" transform="translate(-0.11 12.81)"/><path class="cls-16" d="M609.68,405.23c2.06,5.48,4.07,10.77,6.22,16.45l-11.52,3.74c-1.24-5.09-2.61-10.08-3.56-15.15-.17-.9,1.18-2.61,2.24-3.12a13.58,13.58,0,0,1,2.22-.83C606.6,406,608.05,405.67,609.68,405.23Z" transform="translate(-0.11 12.81)"/><path d="M604.58,403.78l.7,2.54a13.58,13.58,0,0,0-2.22.83c-1.06.51-2.41,2.22-2.24,3.12l-2.66.68c-.13-.48-.25-1-.37-1.45-10.12,1.48-19.58,3.06-29.11,4.09a7.48,7.48,0,0,1-3.66-.84l-.08-1.76c4-.21,7.25,0,10.3-.66C585,408.25,594.94,406.43,604.58,403.78Z" transform="translate(-0.11 12.81)"/><path d="M604.49,360.55l.12,2.33a11.62,11.62,0,0,0-2.52.41c-14.33,3.89-26.76,11.06-36.14,22.84-.87,1.08-1.45,3.48-.85,4.38.81,1.2,2.88,2,4.47,2.13l.41,0-.08,2.16-2.92-.16c-5-.31-6.81-2.66-4.63-7.17a31.25,31.25,0,0,1,7-9.4c8-7.27,17.08-13.15,27.56-16.31A31.77,31.77,0,0,1,604.49,360.55Z" transform="translate(-0.11 12.81)"/><path class="cls-17" d="M600.21,368.35c1.7,1.17,4.12,4,3.68,5.08-1,2.66-3.59,4.72-5.65,7.18-4-3.88-4.44-7.34-2.44-10.73C596.44,368.79,599.42,367.8,600.21,368.35Z" transform="translate(-0.11 12.81)"/><path class="cls-17" d="M592,389.84c2.67.42,5.49,2,4.12,4.82-1.55,3.23-4.57,5.74-7,8.56-1.61-1.76-3.21-3.53-4-4.41C585.52,393.26,589,389.38,592,389.84Z" transform="translate(-0.11 12.81)"/><path d="M577.46,392.23c1.36,0,2.68.93,4.92,1.78-7.1,4.91-14.4,7.95-17.75,17l.31,0,.08,1.76c-1-.45-2.09-1-3.1-1.34.76-2.09,1.07-4.54,2.39-6.17,2.78-3.46,6.08-6.49,9.73-10.26l-4.14-.15.08-2.16C572.46,392.77,575,392.15,577.46,392.23Z" transform="translate(-0.11 12.81)"/><path d="M546.1,566l-1.94,0a34.15,34.15,0,0,0-7.53-23.48c-4.64-5.67-12.33-9.16-19.14-12.63-7.91-4-16.45-6.77-24.56-10.41-9.61-4.31-13.48-14-10.71-26.36,3.06-13.67,6.95-27.2,9.21-41,.14-.85.26-1.72.35-2.58l2.07.19a99.29,99.29,0,0,1-2.08,12.19C489.1,474,486.31,486,483.9,498.17c-1.5,7.59,4,16.05,12.17,19.53,10.44,4.48,21,8.68,31.29,13.53C540.88,537.62,546.65,550.44,546.1,566Z" transform="translate(-0.11 12.81)"/><path d="M417.11,395c-.19,7.64-.28,7.68-7.76,8.73-1.62.23-3.3.12-5.92.19.54,9.72,1.09,19.34,1.68,29.83l-13.27,2.1c0-6.34,0-11.78-.07-17.22s-.15-10.93-.22-16.94c-5.35-.77-10.83-1.47-16.25-2.46-1.08-.19-2.84-1.66-2.75-2.37.49-4.23,1.48-8.4,2.2-12.61,1.32-7.81,1.93-15.79,4-23.38a238.29,238.29,0,0,1,9.46-26.51A78.48,78.48,0,0,1,392,326l2.3.47a24.25,24.25,0,0,0-1,2.29c-4.76,12.89-11.77,25-12.72,39.29-.49,7.5-2.88,14.86-4.28,22.31-.54,2.83-.84,5.78,3.29,6.28,9.53,1.17,19.07,2.32,28.59,3.54,4.55.6,6-1.23,6.07-5.82.11-16.28.71-32.54.89-48.83,0-3.89-.84-7.8-1.31-11.71l2.08-.36a119.71,119.71,0,0,1,1.87,17.67C418.18,365.73,417.47,380.36,417.11,395ZM394.8,434c3.33-2.14,7.42-3.54,7.45-5,.12-7-1.08-14.1-1.38-21.17-.2-4.61-2.08-6.3-7.31-5.05C394,412.72,394.34,422.52,394.8,434Z" transform="translate(-0.11 12.81)"/><path class="cls-18" d="M414.29,394.37c0,4.59-1.52,6.42-6.07,5.82-9.52-1.22-19.06-2.37-28.59-3.54-4.13-.5-3.83-3.45-3.29-6.28,1.4-7.45,3.79-14.81,4.28-22.31.95-14.28,8-26.4,12.72-39.29a24.25,24.25,0,0,1,1-2.29c3.05-6.1,8-8.38,13.29-6.68a13,13,0,0,1,2.93,1.95q-.18.57-.36,1.17c-5.79-1-7.3,2.17-7.27,6.88,0,2.49,0,5,0,7.47,0,2-.56,4.29,2.77,4.56,3.06.24,5.22-.35,6-3.66a9.37,9.37,0,0,1,2.2-4.34c.47,3.91,1.35,7.82,1.31,11.71C415,361.83,414.4,378.09,414.29,394.37Zm-5.1-5.86c.67-3.79-2.5-7.79-5.9-7.66-3.92.15-5.89,2.46-5.85,6.89-.9,4.31,2,5.59,5.91,6S408.68,391.51,409.19,388.51Zm-6.89-27.25c.69-.85.71-2.43.43-4.1a22.29,22.29,0,0,0-1.09-4c-.23-.64-2-1.27-3.47-1.39a2.62,2.62,0,0,0-1.65.24c-2.68,2.07-4.69,5-7.49,8.21,1.89,2.6,3.56,5.85,4.22,5.65,1-.3,2.1-.64,3.16-1A13.63,13.63,0,0,0,402.3,361.26Zm-11.83,26c.22-3-1.1-4.15-4-4.26-4.54-.15-6,1.48-6.62,9.24.25.3,1,2.19,2.22,2.49C385.3,395.52,390.21,390.83,390.47,387.23Z" transform="translate(-0.11 12.81)"/><path class="cls-19" d="M416,333.47l-2.08.36a9.37,9.37,0,0,0-2.2,4.34c-.78,3.31-2.94,3.9-6,3.66-3.33-.27-2.75-2.52-2.77-4.56,0-2.48,0-5,0-7.47,0-4.71,1.48-7.88,7.27-6.88q.18-.6.36-1.17a13,13,0,0,0-2.93-1.95c-5.28-1.7-10.24.58-13.29,6.68L392,326a27.1,27.1,0,0,1,4-5.65c7.49-7.86,15.83-5.59,18.23,4.86C414.89,328,415.46,330.7,416,333.47Zm-6.43,5.36c.16-3.85.41-7.69.41-11.53,0-.69-1-1.92-1.63-1.94a3.19,3.19,0,0,0-2.25,1.47c-2.25,3.51-1.45,8.46,1.76,12Z" transform="translate(-0.11 12.81)"/><path class="cls-19" d="M403.29,380.85c3.4-.13,6.57,3.87,5.9,7.66-.51,3-2,5.61-5.84,5.22s-6.81-1.68-5.91-6C397.4,383.31,399.37,381,403.29,380.85Zm3.9,9.6c-.94-2.95-1.15-4.89-2.16-6.24-.39-.53-3-.14-3.83.63s-.82,2.56-1.17,3.9Z" transform="translate(-0.11 12.81)"/><path class="cls-19" d="M409.93,327.3c0,3.84-.25,7.68-.41,11.53l-1.71,0c-3.21-3.52-4-8.47-1.76-12a3.19,3.19,0,0,1,2.25-1.47C408.9,325.38,409.93,326.61,409.93,327.3Z" transform="translate(-0.11 12.81)"/><path class="cls-19" d="M405,384.21c1,1.35,1.22,3.29,2.16,6.24L400,388.74c.35-1.34.31-3.12,1.17-3.9S404.64,383.68,405,384.21Z" transform="translate(-0.11 12.81)"/><path class="cls-20" d="M402.25,429c0,1.45-4.12,2.85-7.45,5-.46-11.5-.85-21.3-1.24-31.21,5.23-1.25,7.11.44,7.31,5.05C401.17,414.93,402.37,422,402.25,429Z" transform="translate(-0.11 12.81)"/><path d="M409.06,29.91c6.8,9.59,9.59,20.41,9.24,33.88-.86,12-6.06,23.45-19.55,28.87-8,3.22-16.86,4.32-25.05.64-7.53-3.38-14.64-7.78-21.71-12.09-12.48-7.6-15-25.73-7-37.91C354.72,28.45,367.69,17.85,386.8,18,396.31,18,403.66,22.3,409.06,29.91ZM407.4,60.59c-.76-3.78-1.54-11.26-3.82-18.26-3.33-10.2-9-14.1-18.21-13.63-14,.7-23.78,8.63-30.87,19.91a18.41,18.41,0,0,0-2.12,16.27c1.71,4.74,4.3,8.51,9.91,9.1.64.06,1.13,1.2,1.82,1.62,4.12,2.5,8,5.65,12.46,7.26C392.08,88.48,406.4,79.57,407.4,60.59Z" transform="translate(-0.11 12.81)"/><path d="M402.73,357.16c.28,1.67.26,3.25-.43,4.1a13.63,13.63,0,0,1-5.89,3.6l-.57-1.56a47.39,47.39,0,0,0,5.41-5.67.29.29,0,0,0,0-.23Z" transform="translate(-0.11 12.81)"/><path d="M402.73,357.16l-1.46.24c-.16-.69-1.7-2.43-3.18-4.61l.08-1c1.44.12,3.24.75,3.47,1.39A22.29,22.29,0,0,1,402.73,357.16Z" transform="translate(-0.11 12.81)"/><path class="cls-19" d="M401.27,357.4a.29.29,0,0,1,0,.23,47.39,47.39,0,0,1-5.41,5.67c-.92-1-2.81-2.44-2.59-2.91,1.07-2.33,2.71-4.4,4.84-7.6C399.57,355,401.11,356.71,401.27,357.4Z" transform="translate(-0.11 12.81)"/><path d="M398.17,351.78l-.08,1c-2.13,3.2-3.77,5.27-4.84,7.6-.22.47,1.67,1.91,2.59,2.91l.57,1.56c-1.06.38-2.13.72-3.16,1-.66.2-2.33-3.05-4.22-5.65,2.8-3.2,4.81-6.14,7.49-8.21A2.62,2.62,0,0,1,398.17,351.78Z" transform="translate(-0.11 12.81)"/><path class="cls-21" d="M403.58,42.33c2.28,7,3.06,14.48,3.82,18.26-1,19-15.32,27.89-30.83,22.27-4.44-1.61-8.34-4.76-12.46-7.26-.69-.42-1.18-1.56-1.82-1.62-5.61-.59-8.2-4.36-9.91-9.1a18.41,18.41,0,0,1,2.12-16.27c7.09-11.28,16.85-19.21,30.87-19.91C394.58,28.23,400.25,32.13,403.58,42.33Z" transform="translate(-0.11 12.81)"/><path class="cls-19" d="M386.43,383c2.94.11,4.26,1.25,4,4.26-.26,3.6-5.17,8.29-8.44,7.47-1.19-.3-2-2.19-2.22-2.49C380.42,384.45,381.89,382.82,386.43,383Z" transform="translate(-0.11 12.81)"/><path d="M348.42,593.1c-.05,3.38-1.15,6.53-5.6,7.47-10.41,2.19-10.37,2.39-8,12.85,1.79,8,3.57,16,5.49,24.61-5.84,1.56-12,3.19-18,4.81-1.52-8.89-3.1-18.08-4.67-27.26-.65-3.85-1.7-6.88-6.75-4.86-1.43.58-3.29.14-4.95.06-5.43-.22-7.26-1.87-6.71-7.36.11-1.14.23-2.28.37-3.42l2.45.27c-.3,2.37,0,5.27,1.2,6.68,2.19,2.47,5.36,1.15,7.59-1.33a1.76,1.76,0,0,1,.91-.39c7.69-1.79,15.37-3.69,23.1-5.34,10.66-2.27,10.69-2.17,11.08-13.38.07-1.5.24-3,.18-4.49l2.18-.07C348.37,585.67,348.46,589.38,348.42,593.1ZM337.6,636c-2.43-11-4.79-21.57-7.21-32.53-2.22.51-5.18.61-7.41,1.94-1.79,1.06-4,3.82-3.73,5.49,1.39,9.38,3.45,18.66,5.3,28Z" transform="translate(-0.11 12.81)"/><path d="M348.26,582l-2.18.07c-.67-15.88-1.18-31.76-2.19-47.61-.32-4.95.48-10.29-3.26-14.71-3.13-3.7-4.9-4.22-7.78-.29-5.25,7.18-11,14.23-14.77,22.2-8.53,18.17-11.51,38.08-15.86,57.53-.08.35-.15.74-.2,1.13l-2.45-.27a139.21,139.21,0,0,1,2.83-17.16c2.69-11.2,5.61-22.36,9.25-33.28,2.06-6.15,5.55-11.87,8.79-17.58a149.87,149.87,0,0,1,9.26-14.26c2.83-3.88,7.5-6.8,11.53-4.12,3.08,2,5.58,7.13,5.8,11,.83,14.36.55,28.78.79,43.18C347.9,572.5,348.11,577.23,348.26,582Z" transform="translate(-0.11 12.81)"/><path d="M365.35,161.76c3.91,15.88-3.09,34.57-19.43,39.75-9.71,3.08-20.54,6.2-29.59-1.65-4.46-3.87-7.87-9.23-10.84-14.43a46.14,46.14,0,0,1-6.13-21.63c1.31-22.68,20.41-37.76,40.85-28.53C352.4,140.79,362,148.26,365.35,161.76Zm-11.3,18.4c5.71-17.35-3-29.91-17.51-35.92-11.44-4.74-25.08,2.53-26.31,14.06-1.47,13.67,4.7,24.8,12.18,34.34,3-.53,5.34-1.7,6.94-1.08C339.67,195.53,350.59,190.64,354.05,180.16Z" transform="translate(-0.11 12.81)"/><path class="cls-22" d="M346.08,582c.06,1.49-.11,3-.18,4.49-.39,11.21-.42,11.11-11.08,13.38-7.73,1.65-15.41,3.55-23.1,5.34a1.76,1.76,0,0,0-.91.39c-2.23,2.48-5.4,3.8-7.59,1.33-1.25-1.41-1.5-4.31-1.2-6.68.05-.39.12-.78.2-1.13,4.35-19.45,7.33-39.36,15.86-57.53,3.74-8,9.52-15,14.77-22.2,2.88-3.93,4.65-3.41,7.78.29,3.74,4.42,2.94,9.76,3.26,14.71C344.9,550.26,345.41,566.14,346.08,582Zm-6.78-38c.21-3.7-2.06-5.8-5.26-6.83-1.71-.54-7.38,4.9-7.53,6.9-.22,3.3,1.05,5.41,3.08,5.6C334.5,550,339.12,546.83,339.3,544ZM318.6,588.3c3.64.23,7.85-3,7.33-6.4-.38-2.53-2-5.62-4-7s-6.78,4.53-6.86,8.3C315,585.75,314.8,588.55,318.6,588.3Z" transform="translate(-0.11 12.81)"/><path class="cls-23" d="M334,537.14c3.2,1,5.47,3.13,5.26,6.83-.18,2.86-4.8,6-9.71,5.67-2-.19-3.3-2.3-3.08-5.6C326.66,542,332.33,536.6,334,537.14Z" transform="translate(-0.11 12.81)"/><path class="cls-21" d="M336.54,144.24c14.52,6,23.22,18.57,17.51,35.92-3.46,10.48-14.38,15.37-24.7,11.4-1.6-.62-3.89.55-6.94,1.08-7.48-9.54-13.65-20.67-12.18-34.34C311.46,146.77,325.1,139.5,336.54,144.24Z" transform="translate(-0.11 12.81)"/><path class="cls-24" d="M330.39,603.51c2.42,11,4.78,21.56,7.21,32.53l-13.05,2.89c-1.85-9.33-3.91-18.61-5.3-28-.25-1.67,1.94-4.43,3.73-5.49C325.21,604.12,328.17,604,330.39,603.51Z" transform="translate(-0.11 12.81)"/><path d="M325.93,581.9c.52,3.39-3.69,6.63-7.33,6.4-3.8.25-3.58-2.55-3.53-5.06.08-3.77,4.84-9.63,6.86-8.3S325.55,579.37,325.93,581.9Zm-2-.35c.46-.61-1-2.65-2-5.34l-4.9,7.93,1.75,1.64C320.51,584.41,322.59,583.27,323.91,581.55Z" transform="translate(-0.11 12.81)"/><path class="cls-23" d="M321.88,576.21c1.08,2.69,2.49,4.73,2,5.34-1.32,1.72-3.4,2.86-5.18,4.23L317,584.14Z" transform="translate(-0.11 12.81)"/><path d="M287.52,11.71c-.25-2.44-.06-4.31,0,0Z" transform="translate(-0.11 12.81)"/><path d="M265.5,312.65c-.6,15.28-10.29,26-24.64,29-4.94,1-10.14.78-15.16,1.57-3.81.59-7.14,1.07-11.2-.31-7.75-2.64-12.08-8.2-15.26-14.84-6.31-13.19-8.22-26.55,1.18-39.32,10.74-14.61,33.14-17.15,47.73-6A44.45,44.45,0,0,1,265.5,312.65Zm-21.38,17.22c6.88-2.61,11.36-9,11.1-14.92-.75-17.83-15.38-30.54-32.68-28-8,1.19-18.13,7.45-18.09,19.1a40.78,40.78,0,0,0,8.94,25.46c.22-.4.42-.8.64-1.2,2.42-.09,5.26-1.05,7.15-.1C229,334.16,236.61,332.71,244.12,329.87Z" transform="translate(-0.11 12.81)"/><path class="cls-21" d="M255.22,315c.26,5.93-4.22,12.31-11.1,14.92-7.51,2.84-15.1,4.29-22.94.36-1.89-1-4.73,0-7.15.1-.22.4-.42.8-.64,1.2a40.78,40.78,0,0,1-8.94-25.46c0-11.65,10.06-17.91,18.09-19.1C239.84,284.41,254.47,297.12,255.22,315Z" transform="translate(-0.11 12.81)"/><path d="M93.77,400.2c2.23,9.56,3.45,19.48-1.76,29-6.16,11.3-16.73,14.44-27.6,12.91a117.46,117.46,0,0,1-16.92-3.65c-8.19-2.42-13-8.75-16.6-16.06C20.67,401.47,27.8,386,45,375c5.07-3.25,12-3.55,18.13-5.2l.38,1.39C81.68,370.58,89.75,383,93.77,400.2Zm-10,21.11c2-10.92-.07-21.33-5-31C74,381,61.73,376.38,53.55,381.45c-18.2,11.29-23.25,23.23-10.16,43.21,2.24,3.42,5.27,9.46,11.77,4.76.54-.4,2.1.56,3.17.93l8.58,3.06c.09-.31.18-.6.28-.91,1.16.05,2.32.17,3.48.14C78.06,432.47,82.47,428.7,83.81,421.31Z" transform="translate(-0.11 12.81)"/><path class="cls-21" d="M78.78,390.29c5,9.69,7,20.1,5,31-1.34,7.39-5.75,11.16-13.14,11.33-1.16,0-2.32-.09-3.48-.14-.1.31-.19.6-.28.91l-8.58-3.06c-1.07-.37-2.63-1.33-3.17-.93-6.5,4.7-9.53-1.34-11.77-4.76-13.09-20-8-31.92,10.16-43.21C61.73,376.38,74,381,78.78,390.29Z" transform="translate(-0.11 12.81)"/><path class="cls-25" d="M493.85,449.7a99.29,99.29,0,0,1-2.08,12.19C489.1,474,486.31,486,483.9,498.17c-1.5,7.59,4,16.05,12.17,19.53,10.44,4.48,21,8.68,31.29,13.53,13.52,6.39,19.29,19.21,18.74,34.79,0,.51,0,1-.07,1.54a103.45,103.45,0,0,1-4.42,24.83c-3.39,10.65,1.57,17.71,7.84,25,13.5,15.6,30.95,25.19,49.64,32.81,9.74,4,19.68,7.49,29.67,10.78,4.49,1.47,9.37,1.75,14,2.78,2.19.48,4.22,1.74,6.41,2.13,1.94.34,4,0,6.36-.06-.34,4.48-3.91,4.14-7,3.48-6.75-1.4-13.53-2.91-20.13-4.91-21.15-6.37-41.43-14.9-60.17-26.64A89.23,89.23,0,0,1,539,607.64c-1.45-2.42-1.68-6.13-1.2-9,1.43-8.44,3.49-16.77,5.34-25.13a44.62,44.62,0,0,0,1-7.51,34.15,34.15,0,0,0-7.53-23.48c-4.64-5.67-12.33-9.16-19.14-12.63-7.91-4-16.45-6.77-24.56-10.41-9.61-4.31-13.48-14-10.71-26.36,3.06-13.67,6.95-27.2,9.21-41,.14-.85.26-1.72.35-2.58.87-8.31-.66-16.67-6.61-23.63-2.78-3.26-5.39-6.66-8.75-9.59,3.15,7.34,6.09,14.77,9.47,22,3.95,8.47,1.92,16.33-1.5,24.32C476.94,480,468.87,497.22,462.57,515c-5.33,15.09,4.17,27.27,19.16,27.07a192.63,192.63,0,0,0,24.66-2.23c11-1.59,19.79,6.07,19.82,17.29,0,12.35-5.63,22.51-11.59,32.69-4.05,6.95-7.95,14-11.38,21.28-3.09,6.55-2.23,13.54-.42,20.35,1.38,5.28,2.49,10.83,9.17,12.28.65.14,1.28,1.46,1.48,2.33,4.91,21.15,19,35.11,36.7,45.85A299.25,299.25,0,0,0,581.24,708c2.93,1.34,7,0,10.62,0,8.13,0,16.28.25,24.41,0,13.75-.44,27.48-1.25,41.23-1.78,6.8-.27,13.62-.33,20.42-.35,22-.08,43.89-.22,65.83-.08,11.26.08,22.52,1.07,33.77,1,28.57-.11,57.14-.6,85.7-.82,7.68,0,15.38.67,23,.47,15.22-.4,30.46-.71,45.62-2,19.35-1.61,38.61-4.3,58-6.2q21.66-2.13,43.42-3.32c4.94-.27,10,.89,15,1.35,1.83.17,3.66.29,5.49.31,5.41.1,10.83.21,16.25.22,12.08,0,24.17-.19,36.25,0q31,.59,62.08,1.61c16.82.56,33.63,1.66,50.45,2.1,29.76.79,59.53,1.19,89.29,1.91,12.48.3,25,1.46,37.43,1.39,15.73-.09,31.45-1.1,47.18-1.62,7-.22,14-.33,20.95-.29,19.73.09,39.47.36,59.22.43,23.24.06,46.49,0,69.74,0,16.26,0,32.54-.16,48.8.13,22.38.39,44.76,1.18,67.14,1.71,4,.09,8.54,1,11.78-.56,12.7-6.25,25.92-1.13,38.77-2.72,3.37-.41,6.91.28,10.34.69.89.11,1.65,1.11,1.9,1.28,2.73-.47,5.17-1.36,7.57-1.25,18,.88,36,2.43,54.08,2.82,24.74.56,49.49.51,74.25.62" transform="translate(-0.11 12.81)"/><path class="cls-26" d="M1873.86,475.83c-4.84,1.11-9.65,2.4-14.46,3.63-13.73,3.5-27.51,3-41.44,2.45-14.7-.58-29.44-.43-44.16-.55a78.08,78.08,0,0,0-8.92.22c-12.11,1.23-24.26,2.31-36.31,4-11.22,1.59-22.26,4.44-33.5,5.8-10.47,1.28-21.1,1.28-31.66,1.93-18.61,1.14-37.23,2.37-55.84,3.52-16.66,1-33.31,2.14-50,3-16,.8-32,1.36-48,1.85-10.63.32-21.32-.2-31.91.62-12.64,1-25.16,3.66-37.81,4.37-20.88,1.18-41.63.8-61.86-6.5-11.56-4.17-23.79-7.62-36-8.65-10.77-.91-21.9,1.73-32.79,3.33-5.6.83-11,2.81-17.24,4.46,7.86,7.23,9,16.85,12.21,25.51,7.09,18.83,14.34,37.6,21.42,56.41,2.67,7.06,5.12,14.2,7.59,21.33.55,1.59,1.62,4.15,1,4.77-2,2-4.71,4.56-7.19,4.62-15.83.4-31.71.75-47.51,0s-31.3-4.76-46.4-9.57c-16.13-5.13-32.28-9.17-49.42-9.56-10.84-.25-21.57-3.36-32.43-4.25a269.86,269.86,0,0,0-35.72-1c-15.67.8-31.27,2.87-46.87,4.59-13.1,1.43-26.17,3.15-39.25,4.73-21.87,2.64-43.77,5.08-65.61,8-8.47,1.14-16.74,3.71-25.19,5.1-20,3.27-39.8,8.87-60.37,6-4.24-.59-8.37-3.28-12.49-3.19-7.32.19-14.6,1.75-21.89,2.78-12.5,1.77-25.13,2.93-37.46,5.51C791,624.36,775.85,629,760.5,632.59c-17.53,4.1-35.27,5.53-53.16,2.34-14.93-2.66-29.84-5.45-44.81-7.92-15.35-2.53-29-9.32-42.79-16-10.18-5-20.5-9.78-30.33-15.4-8.56-4.89-17.28-10-24.57-16.49-10.38-9.27-9.34-21.55.42-33.34,3.35-4.07,5.35-9.32,7.52-14.22.47-1.08-.49-3.63-1.58-4.43-4.71-3.44-9.4-8.52-14.65-9.27-11.53-1.67-23.41-1.63-35.11-1.22-7.83.26-15.13-.76-21.11-5.52-6.91-5.5-9-9.28-5.44-18.46,4-10.42,8.17-20.81,11.61-31.43A56.52,56.52,0,0,0,509,445.13c.14-5.9-1.92-11.78-6.53-15.52-5.66-4.57-12.18-8.07-18.32-12.05l-.84,1.09a7.32,7.32,0,0,0,1.05,2c8.88,8.67,10.49,18.62,9.47,29.05" transform="translate(-0.11 12.81)"/><path class="cls-27" d="M1901.14,474.05l0-.6-.78-.07" transform="translate(-0.11 12.81)"/><path class="cls-28" d="M980.77,554.63l.36-8.39c-3,.56-5.6,1.08-8.26,1.61-.14-.36-.28-.72-.42-1.06l10.31-12.87c-1-1.55-2.54-2.82-2.55-4.11-.15-10.28.07-20.57,0-30.86,0-3.46,1.1-4.48,4.73-4.2,9.24.75,9.28.53,9.91,10,.15,2.26,0,4.53,1,7l7.12-10.65c1.41-2.09,2.79-4.16,4.14-6.19l27.42,47.14c-3.44.22-3.85,3-3.47,6.33,0,.11,0,.21,0,.32,1.1,8.65,2.22,17.29,3.17,26,.37,3.44.44,6.9.58,10.14l.06,1.38c20.29-2.28,40.59-4.49,60.87-6.88,19-2.25,38.08-2,57.08-.4,10.68.91,21.24,3.22,31.85,4.89a18.39,18.39,0,0,0,3.45.43c13.77-.43,26.74,3,39.8,7.06,16.7,5.12,33.61,9.36,51.18,11.27,10.91,1.19,21.39-.17,32.07-.88,3.91-.26,7.86.27,12.46.46-2.78-8.24-5.11-15.71-7.83-23-5.15-13.86-10.53-27.63-15.78-41.46-3.32-8.78-6.48-17.61-9.9-26.34-2.48-6.34-3.26-6.54-9.37-4.3-1.39.52-3,1.12-4.33.83a9,9,0,0,1-4.34-2.15,3.72,3.72,0,0,1-.42-.47c-.46-.65,1.17-2.9,2-4.34,5-9.1,14.62-9.44,23.08-11.38,11.18-2.57,22.57-4.3,33.88-6.29,12.11-2.13,23.72.79,35.23,3.94,10.62,2.9,21,7.31,31.74,9.06a158,158,0,0,0,34.77,1.64c23.71-1.49,47.12-5.87,71.07-5.5,20.34.31,40.72-.95,61-2.19,21.43-1.31,42.8-3.62,64.22-5.1,10.55-.74,21.19-.22,31.74-.89,18.12-1.15,36.25-1.53,54.22-5.24a309.34,309.34,0,0,1,50-6.57c21-.83,42.11.18,63.12,1.26,16.34.83,31.64-3.85,47.33-6.72.83-.16,1.57,1.95,2.22,5.84" transform="translate(-0.11 12.81)"/><path class="cls-29" d="M1858.18,709.27c-7.07,0-14.15.14-21.24.09-15.6-.08-31.19-.31-46.79-.44q-29.88-.25-59.76-.43-24.95-.15-49.9-.21t-49.84-.11c-15.1,0-30.19,0-45.29.06-26.5.17-53,.46-79.49.62q-33.13.18-66.28.19c-23.44,0-46.87,0-70.3.06q-32.38.07-64.78.21-34.66.13-69.34.29-19.7.07-39.37.09l-66.72.21c-7.47,0-14.94.18-22.41,0-12.75-.39-25.51-1.51-38.25-1.4-8.89.07-17.74,1.81-26.63,2.53-5.29.43-10.61.39-15.92.44-19.89.15-39.79.31-59.68.37-16.91.06-33.82-.1-50.72,0-18.91.1-37.82.39-56.72.6-12.11.13-24.22.21-36.33.43-20.38.39-40.75.88-61.11,1.29-6.82.13-13.64.17-20.45.17-16.77,0-33.54-.15-50.31,0-25.57.15-51.13.49-76.7.72-13.59.13-27.18.16-40.78.27q-36.87.33-73.74.68c-8.77.08-17.53.08-26.3.05-18.11-.07-36.22-.23-54.33-.27-14.62,0-29.25.1-43.86.11-18.59,0-37.17-.06-55.76,0-20.41,0-40.84-.06-61.25.12-24.71.21-49.42.62-74.14,1-10.78.16-21.54.46-32.75.18,3.29-2.91,1.42-8.57,6.95-10.39,2.32-.76,3.8-4,5.75-6,20.84-21.54,38.91-45.38,51.28-72.56a902.73,902.73,0,0,0,34.89-88.65c11.09-33.3,19.79-67.41,29.05-101.3,2.72-10,3.13-20.59,5.87-30.56a324.67,324.67,0,0,1,11.92-34.41c3.69-9.23,7.67-18.52,13-26.89,5.57-8.86,11.89-17.68,19.55-24.7,16-14.64,32.27-29.17,49.9-41.68,12-8.52,26.26-14.15,40-19.95a175.75,175.75,0,0,1,31-9.42c8.65-1.87,17.68-2.39,26.56-2.65a303.74,303.74,0,0,1,34.41.47c20.78,1.79,41.44,5.31,60.38,14.32A165.91,165.91,0,0,1,602.9,282.8c13.19,10.48,25.65,22,37.76,33.7,12.7,12.32,22.1,27,29.31,43.32,6,13.61,13.69,26.48,20.08,39.94,4.93,10.36,8.54,21.38,13.63,31.66,6,12.09,13.58,23.39,19.24,35.6,5.41,11.63,12.82,21.63,20.91,31.34,16.73,20.09,35.73,37.62,57.74,51.84,9.69,6.26,18.64,14,30.33,16.41,10.52,2.13,21.12,4.39,31.78,5.08,6.18.39,12.53-2.37,18.85-3.46,14.25-2.47,28.52-4.88,42.81-7.11,11.72-1.84,23.46-3.54,35.23-5,6.56-.81,13.21-1,20.2-1.49" transform="translate(-0.11 12.81)"/><path class="cls-30" d="M7.11-5.59v323s279-89.12,279-314.13Z" transform="translate(-0.11 12.81)"/></svg>