<svg id="future4_画像" data-name="future4 画像" xmlns="http://www.w3.org/2000/svg" width="1866.6" height="1866.6" viewBox="0 0 1866.6 1866.6"><defs><style>.cls-1{fill:#fff;}.cls-2{fill:#f4ef8e;}.cls-3{fill:#eae6e1;}.cls-4{fill:#b5b6ba;}.cls-5{fill:#efef0c;}.cls-6{fill:#e25b00;}.cls-7{fill:#f9005e;}.cls-8{fill:#a8eeff;}</style></defs><circle class="cls-1" cx="933.3" cy="933.3" r="933.3"/><path d="M-253.4,1888.2c7.8-.3,13.5,9.2,8.7,16.7-3.1,4.7-6.6,9.5-10.9,13-9.1,7.5-18.3,15-28.4,21.1-5.5,3.4-12.6,4.6-19.2,5.7-3.6.6-4.6-3.2-4.6-6.3a24.85,24.85,0,0,1,8.6-18.7c10.5-9.4,22-17.6,33.4-25.9C-262.2,1891.2-257.5,1890.1-253.4,1888.2Zm.4,11.4c-2.7,1-5.8,1.4-8.1,3-12,8.8-23.8,17.9-35.5,27-1.2.9-1.7,2.8-2.9,4.7,9.9-1.2,16-6.7,22.7-11.3s10.9-13.2,20.5-13c-3.1-5,2.7-5.8,3.3-10.4Z" transform="translate(1982.4 -928.3)"/><path class="cls-2" d="M-261.1,1902.7c2.2-1.6,5.4-2.1,8.1-3-.6,4.6-6.4,5.4-3.2,10.4-9.7-.2-13.8,8.4-20.5,13s-12.8,10.1-22.7,11.3c1.2-2,1.7-3.8,2.9-4.7Q-279.1,1915.9-261.1,1902.7Z" transform="translate(1982.4 -928.3)"/><path class="cls-2" d="M-419.2,2083.9h0l-1,.3c-.7.2-.4,3.5-.5,5.3l1,.1c.2-1.8.3-3.6.5-5.7Zm0,0,10.7,2.5c-.9-2.3-1.3-3.3-1.7-4.3-1.4-3.7-1.9-7.1,2.6-9.2,4.2-2,6.9.2,9.1,3.4a37.44,37.44,0,0,0,4.1,5.5c1,1,2.8,2.1,4,1.9.9-.1,1.7-2.1,2.5-3.3-3.3,2.4-5.4,1.2-7.4-1.4a34.7,34.7,0,0,1-3.1-4.4c-2-3.2-4.4-5.5-8.5-3.5s-7.2,4.2-4.8,9.4a10.08,10.08,0,0,1,.5,2.5c-2.7.3-5.4.5-8,.9Zm116.2-71.4a29.24,29.24,0,0,1-1.3,12.8c-2.7,8.2-6.4,16.1-9.5,24.2-.4,1.2.3,2.8.5,4.2l-1.5-.5c-.9,2.1-1.7,4.3-2.6,6.4-.4.7-.8,1.3-1.2,1.9-3.3,5.3-6.3,10.7-9.9,15.8-2.7,3.9-6.1,7.2-9.2,10.9-1,1.2-2,2.4-2.9,3.7-.5.8-.3,2-.8,2.6-3,4.1-6.3,8-9.1,12.3a81,81,0,0,0-6.5,11.9c-2.5,5.8-4.5,11.8-6.7,17.7-.3.8-1,1.7-.7,2.3,1.8,5.1-.2,7.8-5.1,8.9-2,.4-4.1.7-6.6,1.1-9.3,9.2-22.4,9.1-35.2,12.5l5.2-18.4c-2.2,6.3-3.2,13.1-8.7,17.5l-1.5-.5,1.4-13.6-.6-.1c-.6,3.3-.8,6.7-1.9,9.9-.4,1.4-2.7,3.2-3.9,3.1-8.6-1-11.6-2.8-10.9-7.6a14.27,14.27,0,0,1,.8-2.2c1.7-9.3.3-17.4-5.7-25.4-2.2-2.9-4-7.2-6.2-10.8-7.8-13.1-15.3-26.3-25.8-37.7-4.4-4.8-10.2-9.4-12.1-15.2-2.8-8.8-5.1-18.2-2.7-28,3.1-12.9,11.2-22.7,19-32.6,15.3-19.7,33.1-37,55-49.2a57.92,57.92,0,0,1,38-7,89.13,89.13,0,0,1,38.5,16c11.6,8.3,21.2,18.9,25.4,33.2,1.9,6.6,4,13.2,5,19.9Zm-64.9-37.6c4.3,5.8,9,5.7,11.7.9Zm13.6-8.1c-8.7-5.9-11.4-5.7-14.4.7C-364.9,1960.8-360,1965.6-354.3,1966.8Z" transform="translate(1982.4 -928.3)"/><path d="M-351.9,2165.6c1.9,7.6,3.7,15.3,5.8,22.8,1.1,4.2,1.2,7.5-3.2,10.1-2.3,1.3-3.7,4.1-5.8,6a5.7,5.7,0,0,1-2.2,1.1c-2.2,2.6-3.7,4.7-5.6,6.3-4.6,3.9-4.4,9.6-6.2,14.6a28,28,0,0,0-1.8,8.1c-.5,9.3-8,12-14.7,14.1-6.4,2-12.4-1.1-16.3-6.7-4.4-6.3-8.5-12.9-12.5-19.5-1.6-2.6-3.3-3.9-6.3-3.4-3.2.5-5.1-1.1-6.7-3.8a5.26,5.26,0,0,0-4-2.2c-4.1.3-5.6-2.3-5.5-5.3.4-16.5-3.1-32.4-5.8-48.5-.5-3.1.6-6.8,1.9-9.8,2.2-5.3.7-10.3-1.5-14.6a238.09,238.09,0,0,0-16.3-27.6c-7.4-10.7-15.8-20.7-23.8-31-11.8-14.9-15.3-32-10.8-50,1.9-7.6,7-14.6,11.5-21.2a292,292,0,0,1,21.3-28.4,166.7,166.7,0,0,1,20.6-19.7c13.6-11.2,28.3-20.6,45.7-24.9a61.66,61.66,0,0,1,38.4,2.9,147,147,0,0,1,25.4,12.7,78.45,78.45,0,0,1,29.1,34.1c4.8,10.9,8.9,22.5,7.8,34.7-.6,6.6-1.2,13.5-5.4,19.5-2.7,3.7-2.8,9.2-4.9,13.4-5.5,11.5-10,23.6-18.3,33.5-1.7,2-3.6,3.7-5.4,5.5-2.3,3.8-4.5,7.8-6.9,11.7-5.9,9.3-11.9,18.6-17.7,27.5-.1-.2-.5-.6-.9-1.2-.4,5.3-.8,9.8-1.1,14.3a5.21,5.21,0,0,0,.5,2.8c4.3,5.4,2.7,10.5-.8,15.5-2.2,3.1-1.5,8.7,2.1,12.2A46.14,46.14,0,0,1-351.9,2165.6Zm-63-19.3-1.4,13.6,1.5.5c5.5-4.5,6.5-11.2,8.7-17.5l-5.2,18.4c12.8-3.4,26-3.3,35.2-12.5,2.5-.4,4.6-.7,6.6-1.1,4.9-1.1,7-3.8,5.1-8.9-.2-.6.4-1.5.7-2.3,2.2-5.9,4.2-11.9,6.7-17.7a81,81,0,0,1,6.5-11.9c2.8-4.2,6.1-8.1,9.1-12.3.5-.7.3-1.9.8-2.6a33.66,33.66,0,0,1,2.9-3.7c3.1-3.6,6.4-7,9.2-10.9,3.6-5.1,6.6-10.5,9.9-15.8a7.61,7.61,0,0,0,1.2-1.9c.9-2.1,1.8-4.2,2.6-6.4l1.5.5c-.2-1.4-.9-3.1-.5-4.2,3.1-8.1,6.7-16,9.5-24.2a29.24,29.24,0,0,0,1.3-12.8,136.67,136.67,0,0,0-5-19.8c-4.2-14.3-13.8-24.9-25.4-33.2a89.13,89.13,0,0,0-38.5-16,57.92,57.92,0,0,0-38,7c-21.9,12.2-39.6,29.5-55,49.2-7.8,9.9-15.9,19.7-19,32.6-2.3,9.8-.1,19.2,2.7,28,1.9,5.8,7.6,10.4,12.1,15.2,10.4,11.3,18,24.6,25.8,37.7,2.1,3.6,3.9,7.9,6.2,10.8,6.1,8,7.4,16.1,5.7,25.4-.1.8-.7,1.5-.8,2.2-.8,4.7,2.2,6.6,10.9,7.5,1.2.1,3.4-1.7,3.9-3.1,1-3.2,1.3-6.6,1.9-9.9Zm65.3,43.7-3.6-14.4-1.4.3c-2,5.3,0,12.5,5,14.1Zm-7,.4c-1.1-4.6-2.3-9-3-13.5-.9-5.7-1.3-11.4-1.9-17.1-.3-2.5-.4-4.6-4.2-3.1-5.8,2.4-11.9,3.9-17.8,5.9-7.7,2.6-15.2,6.3-23.1,7.8-6.1,1.2-12.8-.2-19.2-.5-2.2-.1-4.3-.6-7.2-1,1,2.9,1.7,4.2,1.9,5.5,1.1,7.7,2.1,15.3,2.9,23,.3,3,1.5,3.9,4.6,3.5a147.67,147.67,0,0,1,17.6-1.7,148.6,148.6,0,0,0,49.4-8.8Zm-16.8,21.6c5.1-1.3,2.9-4.1,2.8-6.3l-38.7,5.3c0,.2-.2,1.2.2,1.4,6.5,4,5.2,12.9,10.8,17.5,2.2,1.8,3.6,4.9,5.9,6.5,5.4,3.9,11.2,2.3,12.4-3,1.1-4.7,1.9-9.6,3.2-14.3.7-2.6,1.7-6.7,3.4-7.1Z" transform="translate(1982.4 -928.3)"/><path d="M-352.5,2163.4l.7-.2a19.42,19.42,0,0,1-.2,2.4Z" transform="translate(1982.4 -928.3)"/><path class="cls-3" d="M-359.7,2177c.7,4.5,2,8.8,3,13.5a149.16,149.16,0,0,1-49.4,8.9,147.67,147.67,0,0,0-17.6,1.7c-3.1.4-4.2-.5-4.6-3.5-.9-7.7-1.9-15.4-2.9-23-.2-1.4-.9-2.6-1.9-5.6,2.9.4,5,.9,7.2,1,6.4.3,13,1.7,19.2.5,7.9-1.5,15.4-5.2,23.1-7.8,5.9-2,12-3.5,17.8-5.9,3.8-1.6,3.9.6,4.2,3.1C-360.9,2165.6-360.6,2171.3-359.7,2177Z" transform="translate(1982.4 -928.3)"/><path d="M-356.1,1975.7c-2.7,4.8-7.4,5-11.7-.9Z" transform="translate(1982.4 -928.3)"/><path d="M-368.8,1967.5c3-6.4,5.7-6.6,14.4-.7C-360,1965.6-364.9,1960.8-368.8,1967.5Z" transform="translate(1982.4 -928.3)"/><path d="M-368.3,1844.9c6.3,20.5,5.9,40.6-6.3,59.1a189.65,189.65,0,0,1-12.7,16.8c-1.3,1.6-4.3,3.2-5.9,2.7-1.9-.6-4-3.3-4.4-5.4-1-5.5-1.2-11.1-1.7-16.7l-.7-.2c2.5-16.7,4.7-33.5,7.7-50.2,1-5.4,3.4-10.8,9.6-12.9C-375.1,1835.7-370.6,1837.3-368.3,1844.9Zm-14.4,53.1c8.8-13.8,10.9-28.6,6.8-44.3-.4-1.6-2-3-3-4.5-1.3,1.6-3.2,3-3.7,4.8a124.4,124.4,0,0,0-3,15c-1.6,12.1-2.8,24.2-4.2,36.3l1.8.6C-386.2,1903.4-384.4,1900.7-382.7,1898Z" transform="translate(1982.4 -928.3)"/><path class="cls-2" d="M-375.9,1853.8c4.1,15.7,2,30.5-6.8,44.3-1.7,2.7-3.5,5.3-5.3,8l-1.8-.6c1.4-12.1,2.7-24.2,4.2-36.3a124.4,124.4,0,0,1,3-15c.5-1.8,2.4-3.2,3.7-4.8C-377.9,1850.8-376.4,1852.1-375.9,1853.8Z" transform="translate(1982.4 -928.3)"/><path class="cls-3" d="M-409.3,2210.9l38.7-5.3c.1,2.2,2.3,5-2.8,6.3-1.7.4-2.7,4.5-3.4,7.1-1.3,4.7-2.1,9.5-3.2,14.3-1.2,5.3-7,6.9-12.4,3-2.3-1.7-3.7-4.7-5.9-6.5-5.7-4.6-4.4-13.4-10.8-17.5C-409.5,2212.2-409.3,2211.2-409.3,2210.9Z" transform="translate(1982.4 -928.3)"/><path d="M-410.2,2082.1c.4,1,.8,2,1.7,4.3l-10.7-2.5a52.7,52.7,0,0,1,7.9-.7,7.42,7.42,0,0,0-.5-2.5c-2.3-5.2.8-7.5,4.8-9.4s6.5.3,8.5,3.5c1,1.5,2.1,2.9,3.1,4.3,1.9,2.6,4,3.8,7.4,1.4-.8,1.2-1.6,3.2-2.5,3.3a6,6,0,0,1-4-1.9,43.63,43.63,0,0,1-4.1-5.5c-2.3-3.3-4.9-5.4-9.1-3.4C-412.1,2075.1-411.6,2078.5-410.2,2082.1Z" transform="translate(1982.4 -928.3)"/><path d="M-419.2,2083.9Z" transform="translate(1982.4 -928.3)"/><path d="M-419.2,2084c-.2,2-.3,3.8-.4,5.7l-1-.1c.1-1.9-.2-5.1.5-5.3A1.4,1.4,0,0,1-419.2,2084Z" transform="translate(1982.4 -928.3)"/><path d="M-478.9,1963.6c5.3,6.5,2.9,14.2-.5,21-2.2,4.5-11.4,5.2-16.5,1a100.67,100.67,0,0,1-29-38.4c-.9-2.1-1-4.5-1.4-6.7-.2-5.3,2.9-8.3,6.8-10.8,4.5-2.9,8.9-.7,11.7,2.2C-497.8,1942-488,1952.5-478.9,1963.6Zm-12.8,13.3c2.5,2.7,5,1.5,4.7-2-.2-3.2-1.1-7-3-9.4-5.8-7.2-12.4-13.7-18.5-20.6-1.7-2.2-3.4-4.4-4.9-6.8l-2.2,1.6c-.1,1.1-.5,2.3-.1,3.2,1.8,4.5,3.2,9.5,6,13.3a251.67,251.67,0,0,0,18,20.7Z" transform="translate(1982.4 -928.3)"/><path d="M-482.4,1459.9c2.2,11,.2,22-1.8,32.9-1.9,10.2-4,20.5-4.8,30.8-1.2,17-1.4,34.1-2.2,51.2-1.2,25.7-2.2,51.4-4,77-1.1,15.8-3.6,31.5-5.6,47.2-1.3,10-2.6,19.9-4.4,29.8-1.4,7.8-4,15.3-5.1,23.1-2,13.1-3.3,26.2-4.7,39.4-2,18.6-3.8,37.2-5.6,55.9-1.3,13.1-2.4,26.3-3.5,39.4-1.3,16.3-2.7,32.7-3.7,49-1,15-1.3,30.1-2.4,45.1-1.4,19.5-3,39-5.3,58.4-1,8.7-3.7,17.2-6.2,25.6-4.2,14.1-14.8,22.1-27.8,27.4a245.09,245.09,0,0,1-57,15.9c-18.6,2.7-37.3,5-56,7.1-20.9,2.3-41.8,4.4-62.8,5.9-14,1-28,.6-42,1.4-19.5,1.1-39,3.1-58.5,4.2-14.2.8-28.5.5-42.8,1.1-12.6.5-25.3,1.4-37.9,2.2-6,.4-12,.8-18.4,1.3,6.9,8.9,6.5,19.3,8.8,28.8a423.46,423.46,0,0,0,19.9,60.8c2.4,6,4.9,11.9,7.1,18,3.8,10.3,11.3,16.3,21.9,18.6,12.1,2.6,24.2,5,36.2,8.1,9.2,2.3,18.2,5.5,27.3,8.5,2.7.9,5.1,2.6,7.2,3.7-1,8-5.6,11.1-12,13-19.7,5.8-39.3,12.1-59,17.9-21.7,6.4-43.5,6.2-65.7,2.6-12.9-2.1-26.3-1.8-39.5-1.5-16.6.3-33.1,1.6-49.7,2.6-19.4,1.2-38.8,2.6-58.2,3.8-7.1.5-14.3,1-21.4,1.1-20.3.2-40.2,3.2-60.1,7-9.5,1.9-19.2,4.7-29.2,1.2-6.6-2.3-10.6-10.6-6.7-16.4,2.5-3.7,5.9-7.5,9.7-9.6,8.6-4.7,17.9-8.2,26.7-12.5,9.6-4.6,19.3-9.1,28.3-14.6,11.3-6.9,15-18.5,16.1-30.9,2.2-26.1,8.3-51.4,14.6-76.7,1.3-5.2,2.7-10.5,4.2-16.5l-311.5,27.4c-.2,5.7-2.9,9-7.7,8.7-15.4-.9-30.9-1.4-46.2-3.4-9.4-1.2-18.4-4.8-27.6-7.6-7.5-2.2-11.8-7.6-15.1-14.6-7.4-15.4-14.7-30.9-17.9-47.8a341.73,341.73,0,0,1-4.7-36.4c-1.2-17-1.5-34.1-2.3-51.1-.8-19.2,2.7-38,4.4-56.9,1.1-12.7.9-25.4,1.2-38.1.2-8.9.7-17.9.7-26.8.1-15.8-.5-31.5,0-47.3.6-19,2-38,2.9-57.1,1.1-21.2,1.8-42.5,3.1-63.7,2.1-32.8,4.5-65.6,6.8-98.4,1.2-17.7,2.9-35.4,3.7-53.2.9-20.4.4-40.8,1.5-61.2,1.2-22.4.6-45.2,8.2-66.8,1.4-3.9,5.4-7.6,9.1-9.9a175.7,175.7,0,0,1,23.5-12.4,205,205,0,0,1,62.5-16.6c16.8-1.7,33.4-4.5,50.1-6.5,11.8-1.4,23.7-2.6,35.6-3.1,15.9-.7,31.9-.8,47.8-.8,7.8,0,15.6,1.2,23.5,1.5,13.8.5,27.6,1,41.3,1.1,19.5.1,39,.2,58.4-.3,12.6-.3,25.2-1.7,37.8-2.7,3-.2,5.6-3.8,9.1-1.2,1.5-4.7,3.8.1,5.8-.4a46,46,0,0,1,9.1-1.9c3.1-.2,6.3.6,9.4.4,9.8-.5,19.5-1.2,29.3-1.8,15.4-1,30.7-2.1,46.1-2.8,7.2-.3,14.4.5,21.6.4,8.9-.2,17.7-.9,26.6-1.2,9.6-.3,19.1-.4,28.7-.4,10.9-.1,21.9,0,32.8-.1,9.2-.1,18.5-.2,27.7-.4,23.9-.5,47.7-.9,71.6-1.7,25.5-.8,51.1-2.3,76.6-2.9,16.9-.4,33.9.1,50.8.3,19.1.2,38.2,0,57.3.9,16,.8,32,2.6,48,4.6,11.8,1.4,23.5,3.9,35.3,5.7,14.5,2.2,26.7,9.2,38,18C-492.1,1430.1-485.5,1444.1-482.4,1459.9Zm-11.8,15.3c2.5-17.9-3.6-33.4-16.2-45.4-9.4-9-21.2-14.4-34.5-17.2a532.2,532.2,0,0,0-83.5-10.3c-19.3-1-38.6-.9-58-.8-28.7.2-57.5.9-86.2,1.6-22.6.5-45.2,1.3-67.7,1.9s-45.1,1.5-67.7,2c-33.2.6-66.3.6-99.5,1.3-23.7.5-47.4,1.6-71.1,3-17.2,1-34.3,3.3-51.6,4.6-15.6,1.1-31.2,2.1-46.8,2.3-23.1.4-46.2.3-69.3-.1-19.6-.3-39.2-1.9-58.8-1.8-19.4.2-38.8,1.3-58.1,3-20.4,1.8-40.7,5.1-61.1,7.2-26.5,2.7-50.9,11.3-73.8,24.7-2.7,1.6-5.6,4-6.8,6.7a46.81,46.81,0,0,0-4.2,14.7c-1.6,20.8-2.8,41.6-3.9,62.3-.6,12.3-.4,24.6-1.1,36.8-1.8,30.6-4.1,61.2-6.1,91.8-1.4,22.1-2.8,44.1-4,66.2-.5,8.5-.5,16.9-1.1,25.4-1.5,23.6-3.5,47.1-4.7,70.6-.7,15-.2,30.1-.4,45.2-.4,21.2-1.7,42.4-1.3,63.7.3,16.5-1.7,32.7-3.3,49-1.5,15.4-2.2,31-2.4,46.5-.1,10.2,1.9,20.5,1.7,30.8-.3,16.5,2.5,32.6,5.4,48.6,3.1,16.9,10.5,32.3,18.4,47.3a10.5,10.5,0,0,0,4,4.1c16,8.5,33.3,10.5,51.3,10.1.8-3.9-.3-8.2,5-8.4,13.9-.5,27.8-.7,41.7-1.5,22.7-1.4,45.4-3.3,68-5,17.5-1.4,35.1-2.7,52.6-4.4,19.3-1.8,38.5-4.1,57.8-5.8,13.7-1.2,27.5-1.9,41.2-3,14.7-1.2,29.4-2.6,44.1-3.8,9.6-.8,19.2-1.4,28.7-2.2,17.7-1.5,35.4-3.1,53-4.8q20.7-2.1,41.4-4.5c12.3-1.4,24.5-3.2,36.9-4.4,10.4-1,20.9-1.3,31.3-2.1,19.5-1.5,39-3.7,58.5-4.7,33.8-1.8,67.6-2.8,101.3-4.2,15.5-.6,31-1.3,46.6-2,6.6-.3,13.2-.5,19.8-1.1,16.5-1.6,32.9-3.4,49.4-5,14.7-1.4,29.4-2,44-4.1a271.48,271.48,0,0,0,58.6-15.1c10.7-4,20.1-9.8,23.7-21.6,2.2-7.4,4.7-14.8,5.8-22.5,1.9-13.4,3.2-26.9,4.1-40.4,1.7-24.6,2.7-49.2,4.3-73.8q1.8-28.95,4.2-57.9c1.6-18.5,3.5-36.9,5.5-55.3,2.5-22.7,4.8-45.3,7.8-67.9,1.6-12.4,4.8-24.5,6.7-36.9,2.8-18.3,5.8-36.6,7.2-54.9,1.9-23.4,2.3-46.9,3.3-70.3.7-16.2,1.4-32.5,2.2-48.7.3-6.3.3-12.8,1.2-19C-498.7,1502.1-496.1,1488.7-494.2,1475.2Zm-361.4,811.3c4.3-1.2,8.4-3,13.2-4.7-15.6-7.7-31.7-9.6-47.4-12.5-15.1-2.8-26.9-9.9-33.3-24.3-4.5-10.2-9.1-20.6-12.7-31.1-6.5-19.1-13.7-37.9-16.5-58.1-.5-3.3-1.3-7.3-3.5-9.4s-3.4-3.4-3.4-6.3c0-2.4-.9-4.7-1.6-7.8l-148.4,16c.4,3.5,1.6,6.9,1.1,10-1.7,10.1-4,20.1-6.2,30s-5,19.9-6.8,29.9c-2.4,13.3-3.6,26.8-6.3,40-2.4,11.7-10.6,20-20.6,25.2-14.6,7.6-29.9,13.7-44.8,20.7-4.4,2-8.3,5-12.5,7.5.2.7.3,1.4.5,2.1,3.9,0,8,.5,11.8-.1,13.8-2.3,27.5-5.8,41.5-7.2,21.1-2.2,42.3-3,63.5-4.3,16.5-1,33-2.2,49.5-3,18.4-.9,36.9-1.9,55.3-1.9,13,0,26.1,1.5,39.1,2.9,12.2,1.3,24.4,2.5,36.4-.2C-890.2,2296.2-872.9,2291.2-855.6,2286.5Z" transform="translate(1982.4 -928.3)"/><path class="cls-2" d="M-487.1,1974.9c.3,3.5-2.2,4.7-4.7,2a273.74,273.74,0,0,1-18-20.8c-2.9-3.8-4.2-8.8-6-13.3-.4-.9,0-2.1.1-3.2l2.2-1.6a77.63,77.63,0,0,0,4.9,6.8c6.1,6.9,12.7,13.5,18.5,20.6C-488.1,1967.9-487.3,1971.7-487.1,1974.9Z" transform="translate(1982.4 -928.3)"/><path class="cls-4" d="M-510.5,1429.8c12.6,12,18.7,27.5,16.2,45.4-1.9,13.6-4.5,27-6.4,40.5-.9,6.3-.9,12.7-1.2,19-.8,16.2-1.4,32.4-2.2,48.7-1,23.5-1.5,47-3.3,70.4-1.5,18.4-4.5,36.7-7.2,54.9-1.9,12.3-5,24.5-6.7,36.9-3,22.6-5.4,45.3-7.8,68-2,18.4-4,36.9-5.5,55.3-1.7,19.3-3,38.6-4.2,57.9-1.5,24.6-2.6,49.2-4.3,73.8-.9,13.5-2.2,27-4.1,40.4-1.1,7.6-3.6,15-5.8,22.5-3.6,11.8-13,17.5-23.7,21.6a274.32,274.32,0,0,1-58.6,15.1c-14.6,2.1-29.3,2.7-44,4.1-16.5,1.6-32.9,3.4-49.4,5-6.6.6-13.2.8-19.8,1.1-15.5.7-31,1.3-46.6,2-33.8,1.4-67.6,2.5-101.3,4.2-19.5,1-39,3.2-58.5,4.7-10.4.8-20.9,1.1-31.3,2.1-12.3,1.2-24.6,3-36.9,4.4q-20.7,2.4-41.4,4.5c-17.7,1.7-35.3,3.3-53,4.8-9.6.8-19.2,1.4-28.7,2.2-14.7,1.2-29.4,2.7-44.1,3.8-13.7,1.1-27.5,1.7-41.2,3-19.3,1.8-38.5,4-57.8,5.8-17.5,1.6-35,3-52.5,4.4-22.7,1.8-45.3,3.6-68,5-13.9.9-27.8,1-41.7,1.5-5.3.2-4.2,4.5-5,8.4-18,.4-35.3-1.6-51.3-10.1a10.5,10.5,0,0,1-4-4.1c-7.9-15.1-15.4-30.4-18.4-47.3-2.9-16.1-5.8-32.1-5.4-48.6.2-10.2-1.8-20.5-1.7-30.8.2-15.5.8-31.1,2.4-46.5,1.6-16.3,3.6-32.5,3.3-49-.4-21.2.9-42.4,1.3-63.7.3-15.1-.3-30.2.4-45.2,1.2-23.6,3.2-47.1,4.7-70.6.5-8.4.6-16.9,1.1-25.4,1.3-22.1,2.6-44.1,4-66.2,2-30.6,4.2-61.2,6.1-91.8.7-12.3.5-24.6,1.1-36.9,1.1-20.8,2.3-41.6,3.9-62.3a45.55,45.55,0,0,1,4.2-14.8c1.2-2.7,4.1-5.2,6.8-6.7,22.8-13.4,47.3-22,73.8-24.7,20.4-2.1,40.7-5.4,61.1-7.2,19.3-1.7,38.7-2.9,58.1-3,19.6-.2,39.2,1.4,58.8,1.7,23.1.3,46.2.4,69.3.1,15.6-.2,31.2-1.2,46.8-2.3,17.2-1.2,34.3-3.5,51.5-4.6,23.7-1.4,47.4-2.5,71.1-3,33.2-.8,66.3-.7,99.5-1.3,22.6-.4,45.1-1.3,67.7-2s45.1-1.4,67.7-1.9c28.7-.7,57.4-1.3,86.2-1.6,19.3-.2,38.7-.2,58,.8a532.2,532.2,0,0,1,83.5,10.3C-531.7,1415.4-519.9,1420.8-510.5,1429.8Zm-69.8,255.7c.9-22.5,1.5-45.1.9-67.6-.3-12-2.9-23.9-5.2-35.7-1.8-9.1-4.8-17.9-7.1-26.8-2-7.8-3.2-15.8-5.5-23.6-2.1-7.3-5.4-14.2-7.7-21.4-3.5-11.1-11-18.2-21.9-21a331.87,331.87,0,0,0-38.2-7.9c-22.1-3-44.3-5.5-66.5-7.2-21.3-1.6-42.6-2.3-63.9-2.8-14.8-.3-29.6.4-44.3.8-11,.3-21.9.6-32.9,1.3-24.6,1.5-49.2,3.2-73.9,4.7-10.6.7-21.2,1.1-31.8,1.7-17.5,1-35,2.8-52.5,3-27.4.3-54.8-.7-82.2-.6-20.3.1-40.6.8-60.8,1.7-24.5,1.1-49,2.7-73.5,4.3-25.5,1.7-50.9,3.7-76.4,5.8-21.8,1.9-43.9,1.9-64.9,10-11.5,4.5-21.2,11.3-31,18.2-1.5,1.1-2.5,3-3.6,4.7-8.7,13.5-12.5,28.9-15.2,44.3a449.17,449.17,0,0,0-6.2,51.8c-1.5,24.2-2.1,48.4-2.1,72.7,0,25.9,1.2,51.9,1.7,77.8.3,14.8.2,29.5.2,44.3v52c1.2,23.5.5,47.1,6,70,4.8,20,10.7,39.8,17,59.4,1.3,4.2,5.7,8.1,9.6,10.6,12.1,7.5,26.2,6.1,39.7,6.7,7.7.4,15.5-2.9,23.3-3.5,20.8-1.7,41.7-2.8,62.6-4.2,6-.4,11.9-.7,17.9-1.2l56.9-4.8c12-1.1,24-2.1,35.9-3.5,19.7-2.3,39.4-5.2,59.1-7.3,19.9-2.1,39.9-3.5,59.9-5.2,25.6-2.2,51.2-4.9,76.8-6.7,21.1-1.5,42.3-2.2,63.5-3,25.9-.9,51.6-4,77.2-7.7,18.7-2.7,37.4-4.9,56-7.6,22.3-3.1,44.5-6.6,66.8-9.7,17.2-2.3,34.6-3.9,51.8-6.4,9.6-1.4,19.6-2.5,28.4-6.2,22.1-9.3,31.5-29.2,36.1-50.8,3.3-15.9,3.2-32.6,4.2-49,.9-14.7,1.1-29.5,2.2-44.2,1-13.9,2.4-27.7,4-41.6,1.7-14.5,3.6-28.9,5.7-43.4.9-8.3,3.6-16.7,3.9-25.2Zm-416.6,424c22.7-12.9,34.2-49.1,21.9-70.7-4.8-8.6-11.1-15.8-19.8-20.2a79.65,79.65,0,0,0-39.2-8.8c-12.2.4-23.9,3.2-34.2,10.2-13,8.9-21.6,21.5-27.3,35.8-6.8,17-4.5,31.4,10.7,45.3,3.5,3.2,8.4,5.4,8.8,11.2.1.7,1.5,1.6,2.5,2,10.6,4.4,21.2,8.9,32.1,6.7,16.9,1.3,30.9-3.8,44.5-11.5Z" transform="translate(1982.4 -928.3)"/><path d="M-579.4,1617.9c.6,22.5,0,45.1-.9,67.6-.3,8.5-3,16.9-4.2,25.4-2.1,14.4-4,28.9-5.7,43.4-1.6,13.8-3,27.7-4,41.6-1,14.7-1.2,29.5-2.2,44.2-1,16.4-.9,33-4.2,49-4.5,21.6-13.9,41.5-36.1,50.8-8.8,3.7-18.8,4.8-28.4,6.2-17.2,2.5-34.5,4.1-51.8,6.4-22.3,3-44.5,6.5-66.8,9.7-18.7,2.6-37.4,4.9-56,7.6-25.6,3.7-51.3,6.8-77.2,7.7-21.2.7-42.4,1.5-63.5,3-25.6,1.8-51.2,4.5-76.8,6.7-20,1.8-40,3.1-59.9,5.2-19.7,2.1-39.4,5-59.1,7.3-11.9,1.4-23.9,2.5-35.9,3.5-19,1.7-37.9,3.3-56.9,4.8-6,.5-11.9.8-17.9,1.2-20.9,1.3-41.8,2.5-62.6,4.2-7.8.6-15.6,3.9-23.3,3.5-13.4-.6-27.5.8-39.7-6.7-4-2.5-8.3-6.4-9.7-10.6-6.3-19.6-12.2-39.4-17-59.4-5.5-23-4.8-46.6-6-70v-52c0-14.8.1-29.6-.2-44.3-.5-25.9-1.7-51.9-1.7-77.8,0-24.2.7-48.5,2.1-72.7a451.82,451.82,0,0,1,6.2-51.8c2.7-15.4,6.5-30.8,15.2-44.3,1.1-1.7,2.1-3.6,3.6-4.7,9.8-7,19.6-13.8,31-18.2,21-8.2,43.1-8.2,64.9-10,25.5-2.2,50.9-4.1,76.4-5.8,24.5-1.7,49-3.2,73.5-4.3,20.2-1,40.5-1.7,60.8-1.7,27.4-.1,54.8.9,82.2.6,17.5-.2,35-2,52.5-3,10.6-.6,21.2-1,31.8-1.7,24.6-1.5,49.2-3.3,73.9-4.7,11-.7,21.9-1,32.9-1.3,14.8-.4,29.6-1.1,44.3-.8,21.3.5,42.7,1.2,63.9,2.8,22.2,1.7,44.4,4.2,66.5,7.2a354.53,354.53,0,0,1,38.2,7.9c11,2.8,18.4,9.8,21.9,21,2.2,7.2,5.6,14.1,7.7,21.4,2.2,7.7,3.5,15.8,5.5,23.6,2.2,9,5.3,17.8,7.1,26.8C-582.3,1594-579.7,1606-579.4,1617.9Zm-18.6,100c2.2-18.2,6.3-36,6.2-54.6-.2-25.6.7-51.2-5-76.4-2.6-11.6-5.4-23.1-8.8-34.5-3.8-12.8-8.3-25.3-12.3-38.1-2.6-8.3-8.2-12.3-16.6-13.4-2.5-.3-4.9-1.8-7.4-2.5-3-.9-6.1-1.6-9.2-2.3-1.3-.3-2.6,0-3.9-.2-9.4-1.6-18.8-3.5-28.2-4.9-11.5-1.7-23-3.6-34.6-4.5-14.9-1.3-29.8-1.8-44.8-2.5-7.1-.3-14.6-1.9-21.2-.2-6.3,1.6-12.2.9-18.3.8-7.1-.2-14.3-.9-21.4-.6-13.2.7-26.4,2.1-39.7,2.9-3.8.2-7.6-.7-11.4-.7-5.3.1-10.6.5-15.8,1s-10.2,1.6-15.4,2c-4.4.4-8.8.1-13.1.4-11.8.8-23.5,1.8-35.2,2.6-6.6.4-13.2.6-19.9,1-19.8,1.2-39.7,3.2-59.5,3.7-19.6.5-39.2-.4-58.8-.8-15.9-.4-31.8-1.1-47.8-1.4-2.9-.1-5.8,1.4-8.7,1.6-9.6.5-19.3.6-28.9,1.2-19.9,1.2-39.7,2.5-59.6,3.8-12.1.8-24.1,1.3-36.2,2.2-15.7,1.1-31.3,2.4-47,3.8-14,1.2-28.1,1.9-41.9,4.2a125,125,0,0,0-30.8,8.8,53.8,53.8,0,0,0-20.3,15.7c-4.8,6.3-7.7,14.8-9.2,22.8-3.5,18.6-6.8,37.5-8.3,56.3-1.9,25.4-2.5,51-2.8,76.5-.2,22.8,1,45.6,1.3,68.4.3,20,.4,40,.5,60,.1,18.7,0,37.4,0,56.1h1.8c0,12.1-.7,24.3.2,36.4a198.77,198.77,0,0,0,5.4,31.6c3.7,15.6,8.3,30.9,12.6,46.3,1.3,4.5,4,8.7,8.5,9.7,14.7,3.3,29.4,7.8,44.5,1.7a8,8,0,0,1,1.5-.3l70-5.3c8.6-.7,17.1-1.2,25.7-2.1,18.7-1.9,37.4-4,56.2-5.8,9.6-.9,19.2-1.3,28.8-2.3,8.9-1,17.6-2.8,26.5-3.7,16-1.6,32-2.7,47.9-4.2,14.5-1.4,28.9-3.4,43.4-4.8,16.5-1.6,33-2.9,49.6-4.1,25.8-1.8,51.6-3.9,77.5-4.8,27.4-1,54.6-2.7,81.7-6.9,21.1-3.3,42.3-5.4,63.5-8.3,22.2-3,44.6-5.6,66.7-9.3,21.9-3.6,43.8-6.4,66-8,9.6-.7,19.2-3.5,26-10.8a60.85,60.85,0,0,0,16.1-37c1.6-20.5,1.8-41.1,3.2-61.6,1.2-17.7,3-35.3,4.9-52.9,1.7-17.2,3.7-34.5,5.8-51.7Z" transform="translate(1982.4 -928.3)"/><path class="cls-5" d="M-784.2,1846.5a29.4,29.4,0,0,1-1.7-12.1,134.74,134.74,0,0,1,5.7-28.1,203.14,203.14,0,0,1,10.6-26.7,179.53,179.53,0,0,1,11.8-21c2.6-3.9,6.6-8.4,11.6-7,3.7,1,5.8,4.1,7.3,7.6.7,1.6,1.2,3.2,1.8,4.8,1.7,4.8,2.6,9.9,4.2,14.8,3.9,11.8,11.1,21.7,18.6,31.4a7.71,7.71,0,0,0,2.1,1.4c6.6-6.4,6.1-14.8,7.2-22.7,1.7-12.9,7.5-23.3,19.1-31.5.8,2.4,1.9,4,1.8,5.6a121.17,121.17,0,0,1-1.1,14.7,11.8,11.8,0,0,1-.4,2,224.21,224.21,0,0,1-15.6,46.4c-3.2,6.9-7.6,13.3-11.5,19.9l-2.6-.4c-.8-3.6-2.2-7.2-2.4-10.9a41.15,41.15,0,0,0-9.8-24.5c-4.2-5.1-8.1-10.6-12.7-15.3-3.1-3.2-6.7-8.4-11.4-6.2-5,2.4-7.3,8-8.3,13.9-1.7,10.7-3.3,21.6-6.3,32-1.5,5.2-5.7,9.8-9.5,14C-779.2,1852.4-782.5,1851.5-784.2,1846.5Z" transform="translate(1982.4 -928.3)"/><path d="M-710.6,1845.5c-.5.4-1.1.9-1.7,1.3l-.5-.9c3.9-6.6,8.2-13,11.5-19.9a230.28,230.28,0,0,0,15.6-46.4,17.66,17.66,0,0,0,.4-2l.8.2c-.9,4.8-1.9,9.5-2.8,14.2-3.6,17.3-10.8,33.2-19.3,48.6A17.53,17.53,0,0,1-710.6,1845.5Z" transform="translate(1982.4 -928.3)"/><path class="cls-6" d="M-722.2,1625.3a8.31,8.31,0,0,1,.1,3.5c-.7,3.3-3.5,5.7-6.8,7.4-14.3,7.2-29.2,12.9-45.3,15.1-8.2,1.1-16.2,3-24.3,4.5-.2,0-.3.1-.5.2-10.5,1.8-12.5.7-13.5-9.6-.7-7.9-.4-15.9-.8-23.8-.6-11.6-1.6-23.2-2-34.8-.3-10.4-.3-20.8,0-31.1.2-7.2,4.8-11.7,11.6-12.9,15.5-2.7,31-3.2,45.6,4.2,6.7,3.4,10.7,9.6,10.9,16.1a17.66,17.66,0,0,1-2.2,9c-3.6,6.5-10.5,9.4-17.2,11.8-9,3.2-18.1,6.1-27.1,9.2-2.5,1.1-5,2.3-7.3,3.6,4.8,3.2,8,.8,11-.4,6.5-2.6,12.9-5.1,20.2-4.3a74.58,74.58,0,0,1,22.3,5.6,56.84,56.84,0,0,1,18.8,12.9C-725.3,1615.1-723.4,1620.5-722.2,1625.3Zm-41.1,1.7c3.3-6.1,1.7-11.5-4.9-13.4a25.09,25.09,0,0,0-6.1-1,27,27,0,0,0-16,4.9c-3.4,2.3-4.3,5.5-4.3,9.4a12.75,12.75,0,0,0,.1,1.9c.4,4.9,4,5.7,7.1,7,1.6.7,3.6.1,5.4.1,8,.5,14.9-1.8,18.7-8.9Zm-15.4-47.1c6.3-3.4,7.9-11.4,2.6-15.7-3.7-3-8.5-4.6-11.3-6.1-7.7.4-11.6,3.6-14.3,8.1-2.2,3.6-.1,11.9,2.8,15.3,3.4,4,7,4.8,11.6,2.1C-784.6,1582.1-781.4,1581.4-778.7,1579.9Z" transform="translate(1982.4 -928.3)"/><path d="M-728.7,1611.7a59,59,0,0,0-18.8-12.9l.9-2.1c2.5,1,4.9,2.1,7.3,3.2,7.8,3.7,14.3,9.4,17.7,17.9,1.7,4.3,2.3,8.1,1.7,11.4l-2.1-.3a8.22,8.22,0,0,0-.1-3.5C-723.4,1620.5-725.3,1615.1-728.7,1611.7Z" transform="translate(1982.4 -928.3)"/><path d="M-738.9,1759.1l1.3-.6a105.29,105.29,0,0,1,4.3,12.3c4,13.7,11.2,25.5,20.3,36.9,5.2-4.9,5.2-10.7,5.6-16.2.7-10.3,3.8-19.8,10.4-27.8,3.1-3.7,6.9-6.8,10.4-10.2,4.6,3.9,4.7,8.2,4.1,12.2s-1.3,8-2,12l-.8-.2a103.9,103.9,0,0,0,1.1-14.7c.1-1.6-1-3.2-1.8-5.6-11.6,8.2-17.3,18.6-19.1,31.5-1.1,7.9-.6,16.3-7.2,22.7a6,6,0,0,1-2.1-1.4c-7.5-9.7-14.6-19.6-18.6-31.4-1.6-4.9-2.6-9.9-4.2-14.8C-737.7,1762.4-738.2,1760.7-738.9,1759.1Z" transform="translate(1982.4 -928.3)"/><path d="M-746.7,1574.1c-2.9,6.8-9.8,10.1-16.4,12.9-1.6.7-3.3,1.2-4.5,1.7,7,2.7,14.1,5.1,21,7.9l-.9,2.1a74.58,74.58,0,0,0-22.3-5.6c-7.2-.7-13.7,1.7-20.2,4.3-3,1.2-6.1,3.6-11,.4,2.4-1.3,4.8-2.5,7.3-3.6,9-3.2,18.1-6,27.1-9.2,6.8-2.4,13.6-5.3,17.2-11.9a17.66,17.66,0,0,0,2.2-9h2.2A21.38,21.38,0,0,1-746.7,1574.1Z" transform="translate(1982.4 -928.3)"/><path d="M-780.2,1806.3l-1.2-.4c2.3-7.5,4.9-14.8,7.6-22.1,3.3-8.7,8-16.9,12.7-25a28.7,28.7,0,0,1,8.5-8.5c5.5-3.8,9.4-2.9,12.6,3.2a49,49,0,0,1,2.4,5.2l-1.3.6c-1.5-3.5-3.6-6.5-7.3-7.5-5.1-1.4-9,3.1-11.6,7a166.14,166.14,0,0,0-11.8,21A190.17,190.17,0,0,0-780.2,1806.3Z" transform="translate(1982.4 -928.3)"/><path d="M-780.2,1806.3a134.74,134.74,0,0,0-5.7,28.1,29.4,29.4,0,0,0,1.7,12.1c1.7,5,5,5.9,8.4,2,3.8-4.2,8-8.8,9.5-14,3-10.4,4.5-21.2,6.3-32,1-5.9,3.3-11.5,8.3-13.9,4.7-2.3,8.4,3,11.4,6.2,4.6,4.8,8.5,10.2,12.7,15.3a41.78,41.78,0,0,1,9.8,24.5c.2,3.7,1.6,7.3,2.4,10.9l2.6.4.5.9c-1.2.9-2.6,1.5-3.4,1.2-1.5-.6-2.8-3.1-3.2-5-1.1-5.7-.5-12-2.8-17-3.5-7.7-8.7-14.6-13.7-21.6a49.73,49.73,0,0,0-9.2-9.7c-5.4-4.5-9.7-3-11.4,4-1.7,6.7-2.9,13.5-4.1,20.4-1.7,10.3-3.8,20.5-10.8,28.9a28.48,28.48,0,0,1-2.3,2.6c-7.1,6.3-13.2,4.7-14.6-4.8a54.43,54.43,0,0,1,1-20.9c1.6-6.3,3.4-12.6,5.4-18.8Z" transform="translate(1982.4 -928.3)"/><path d="M-789.7,1631.9c7.6,3.9,19.6.7,24.3-6.6,2.8-4.2,1.3-7.9-3.5-8.9a28.1,28.1,0,0,0-5-.4c-.1-.4-.3-.7-.4-1.1l.1-2.2a25.09,25.09,0,0,1,6.1,1c6.6,1.9,8.2,7.2,4.9,13.4-3.8,7.1-10.7,9.4-18.5,9.1-1.8,0-3.9.5-5.4-.1-3.2-1.3-6.7-2.1-7.1-7.1a12.1,12.1,0,0,1-.1-1.9l2.2-.1A4.86,4.86,0,0,0-789.7,1631.9Z" transform="translate(1982.4 -928.3)"/><path d="M-790.2,1617.6a27,27,0,0,1,16-4.9l-.1,2.2c-4.8,1.9-9.9,3.3-14.5,5.8a7.35,7.35,0,0,0-3.6,6.3l-2.2.1C-794.5,1623.1-793.6,1619.8-790.2,1617.6Z" transform="translate(1982.4 -928.3)"/><path d="M-776.6,1568.2c-2.8-4.5-7.6-6.2-12.8-6.4-4.3-.2-9.8,4-10.6,8.1-1,4.8,3.5,12.1,7.7,11.6,5.8-.8,11.8-2.2,15.6-7.3A6.37,6.37,0,0,0-776.6,1568.2Zm-22.3,13.4c-2.9-3.4-5-11.7-2.8-15.3,2.7-4.5,6.6-7.8,14.3-8.1,2.8,1.5,7.6,3.1,11.3,6.1,5.2,4.2,3.7,12.2-2.6,15.7-2.8,1.5-5.9,2.2-8.6,3.8-4.6,2.5-8.2,1.8-11.6-2.2Z" transform="translate(1982.4 -928.3)"/><path class="cls-5" d="M-815.2,1817.5c3.3.5,5.7,4.6,5.7,8.9a11.14,11.14,0,0,1-1.4,5.4c-2.3,4-6.2,8.2-10.4,9.9a361.62,361.62,0,0,1-39.1,13.6c-4.7,1.3-10.2-.5-15.4-1-.6,0-1.2-.5-1.7-.4-14.8,3.2-23.7-8.2-25.7-18.8a56.73,56.73,0,0,1,2.6-30.8,66.41,66.41,0,0,1,9-16,94.4,94.4,0,0,1,16.2-17.2c9.9-7.9,22-8,34-7.1,7,.5,13.7,2.1,18.9,7.4a9.51,9.51,0,0,1-.1,13.5l-.4.4a26.26,26.26,0,0,1-13.4,5.6,76.3,76.3,0,0,1-11.7.4c-21-.6-39.2,17.3-39.1,38,.1,9.4,5.5,16.5,14.8,17.7,9.7,1.2,19.3.4,28.2-3.8a21,21,0,0,0,6.2-4.8c3.8-4,3.2-8.5-2.1-10a33,33,0,0,0-6.9-1.1c-3-.2-6.1-.2-9.2-.4a35.77,35.77,0,0,1-4.3-.8c.4-1.5.4-3.8,1.4-4.4a74.13,74.13,0,0,1,12.6-6.3c2-.8,4.6-.1,6.9-.1v-.5C-831.3,1815.5-823.2,1816.2-815.2,1817.5Z" transform="translate(1982.4 -928.3)"/><path d="M-759.7,1651.2c-16.2,3.8-32.8,6.2-49.3,8.7-4.6.7-5.7-3.6-5.9-7-.6-10-.6-20-1.1-29.9-.8-16.1-2-32.1-2.7-48.2a144.56,144.56,0,0,1,.6-17.4c.9-13,9-16.4,19.1-17.7,12.7-1.7,25.5-1.1,37.8,3.3,9.9,3.6,16.1,11.9,16.5,21.2h-2.2c-.2-6.5-4.2-12.6-10.9-16.1-14.5-7.4-30.1-6.9-45.6-4.2-6.8,1.2-11.3,5.7-11.6,12.9-.3,10.4-.4,20.8,0,31.1.4,11.6,1.4,23.2,2,34.8.4,7.9.1,15.9.8,23.8.9,10.3,2.9,11.4,13.5,9.6.2,0,.3-.1.5-.2,8.1-1.5,16.1-3.4,24.3-4.5,16.1-2.2,30.9-7.9,45.3-15.1,3.3-1.7,6.2-4.1,6.8-7.4l2.1.3c-.9,4.7-4.2,8.3-10.2,10.9C-739.9,1644.2-749.6,1648.8-759.7,1651.2Z" transform="translate(1982.4 -928.3)"/><path d="M-809.5,1826.3c0-4.3-2.4-8.3-5.7-8.9-8-1.3-16.1-1.9-24.1-2.8v.5c-2.3,0-4.9-.6-6.9.1a74.13,74.13,0,0,0-12.6,6.3c-1,.6-.9,2.9-1.4,4.4,1.4.3,2.8.6,4.3.8,3,.3,6.1.2,9.2.4l-.1,2.1c-1.6-.1-3.2,0-4.8,0a13.8,13.8,0,0,0-2,.3c-3.5.4-7.4,2.5-9.9-1.8-1.5-2.5,1.8-8.9,5.4-11.4,6.8-4.8,14.5-5.2,22.3-4.8,6.8.4,13.4,1.8,20.2,2.6,4.6.6,6.9,3.1,7.7,7.7a21.83,21.83,0,0,1,.4,4.4Z" transform="translate(1982.4 -928.3)"/><path class="cls-4" d="M-842.3,2281.8c-4.8,1.8-9,3.6-13.2,4.7-17.3,4.7-34.6,9.6-52.1,13.6-12,2.7-24.2,1.6-36.4.2-13-1.4-26-2.9-39.1-2.9-18.4-.1-36.9,1-55.3,1.9-16.5.8-33,1.9-49.5,3-21.2,1.3-42.4,2.2-63.4,4.3-13.9,1.4-27.6,4.9-41.5,7.2-3.8.6-7.9.1-11.8.1-.2-.7-.3-1.4-.5-2.1,4.2-2.5,8.1-5.4,12.5-7.5,14.9-7,30.3-13.1,44.8-20.7,10.1-5.3,18.3-13.5,20.6-25.2,2.7-13.2,3.9-26.8,6.3-40,1.8-10.1,4.6-19.9,6.8-29.9s4.4-20,6.2-30.1c.5-3.1-.7-6.4-1.1-9.9l148.4-16c.7,3,1.5,5.4,1.6,7.8,0,2.9,1.3,4.3,3.4,6.3s3.1,6.1,3.5,9.4c2.8,20.1,10,39,16.5,58.1,3.6,10.6,8.2,20.9,12.7,31.1,6.4,14.4,18.2,21.4,33.3,24.3C-874,2272.2-857.9,2274.1-842.3,2281.8Z" transform="translate(1982.4 -928.3)"/><path d="M-847.4,1793.8c-10.7-.6-18.9,3.8-26.2,10.7a34.24,34.24,0,0,0-10.5,23.9c-.4,7.9,4.2,13.4,12.1,15,9.8,2.1,19.1.1,28-3.8,2.4-1,4.1-3.6,6.1-5.6-2.5-3.7-5.7-4.6-9-4.8l.1-2.1a32,32,0,0,1,6.9,1.1c5.3,1.6,5.9,6,2.1,10a22,22,0,0,1-6.2,4.8c-9,4.2-18.6,5-28.2,3.8-9.3-1.2-14.7-8.3-14.8-17.7-.2-20.7,18.1-38.6,39.1-38a65.43,65.43,0,0,0,11.7-.4l.3,2.4A49.09,49.09,0,0,1-847.4,1793.8Z" transform="translate(1982.4 -928.3)"/><path d="M-841.3,1763.9c-12-.8-24.1-.7-34,7.1a91.08,91.08,0,0,0-16.2,17.2,66.41,66.41,0,0,0-9,16l-2.1-.8a92.68,92.68,0,0,1,13.7-23.3c12.7-16,28.8-21.5,48.1-19.8,5.2.5,10.4,2.7,15.4,4.8,6.6,2.7,9,8.4,8,15-1,6.2-5.5,10.3-11.4,11.7-2.3.5-4.8,1-7.2,1.3l-.3-2.4a25.43,25.43,0,0,0,13.4-5.6,9.53,9.53,0,0,0,.9-13.5l-.4-.4C-827.6,1766-834.3,1764.4-841.3,1763.9Z" transform="translate(1982.4 -928.3)"/><path d="M-810.9,1831.8a11.43,11.43,0,0,0,1.4-5.4l1.9-.1c.1,7.6-3.5,13.9-11,17.5-5.8,2.7-12,4.4-18.1,6.5-8.4,2.9-16.7,7.3-25.3,8-12.1,1.1-24.9,1.8-35.5-6.9-7-5.8-9-13.8-9.4-22a63.09,63.09,0,0,1,4.2-25.8l2.1.8a55.8,55.8,0,0,0-2.6,30.8c2,10.6,10.9,22,25.7,18.8.5-.1,1.1.3,1.7.4,5.2.4,10.7,2.3,15.4,1a384,384,0,0,0,39.1-13.5C-817.1,1840-813.2,1835.8-810.9,1831.8Z" transform="translate(1982.4 -928.3)"/><path class="cls-5" d="M-926.9,1755.3l.5.1c-1.8,8.7-3.2,17.5-5.4,26.1-4.9,19.2-6.6,38.4-3.6,58,.9,6,2.5,12.1,2.1,18.1-.3,5.6-2.5,11.2-4.6,16.4-.7,1.6-3.9,2.8-6.2,3.1-10.5,1.4-18.3-4.7-26.1-10.2-1.3-.9-1.7-4.8-.9-6.5,3.4-7.5,7.2-14.8,11.2-22,4.9-8.9,4.8-18.8,5.7-28.4,1.2-13.8,1.2-27.9,3.6-41.5a37.65,37.65,0,0,1,2.5-8.7,23.5,23.5,0,0,1,11.9-12.7c6.6-2.9,9.3-1.1,9.3,6.1Z" transform="translate(1982.4 -928.3)"/><path d="M-924.4,1753.9c-.1.6-.2,1.2-.3,1.9l-1.7-.3-.5-.1v-2c0-7.2-2.7-9-9.3-6.1a22.5,22.5,0,0,0-11.9,12.7l-1.1-.4a75.55,75.55,0,0,1,4.5-9c2.2-3.9,8.4-6,13.2-7.6C-927.2,1741.5-923.3,1747.5-924.4,1753.9Z" transform="translate(1982.4 -928.3)"/><path d="M-956.4,1617.1a47.17,47.17,0,0,1-9.7,2.3l-.4-2.5a32.76,32.76,0,0,0,10.1-3.5c4.7-2.6,4.1-7.8,3.4-12-.7-3.8-4.4-4.2-7.9-4.4a36.59,36.59,0,0,0-23.3,6.9,87.06,87.06,0,0,1-9.8,5.8l-1.3-2.6a17.74,17.74,0,0,0,3.3-1.9c9-6.4,18-12.3,29.8-11.8,6.5.3,10.6,2.4,11.8,6.9C-948.8,1607.2-950.9,1615-956.4,1617.1Z" transform="translate(1982.4 -928.3)"/><path class="cls-6" d="M-951,1644.7c.1,8.8-4.9,16.6-13.8,18.3-11.5,2.3-23.2,3-34.8,4.5l-.1-1c-7.4,0-14.8-.4-22.1.1-8.6.6-12.4-4.1-14.1-11-.1-.4-.2-.9-.3-1.3-4.5-22.5-8.8-45-7.9-68.1.3-9.1,4.7-15.3,13.3-18.3,14.8-5.1,29.5-10.6,44.6-14.8,5.5-1.5,11.8-.2,17.7.4,1.1.1,2.8,3.1,2.7,4.7a10.92,10.92,0,0,1-6.3,10c-8.3,4-16.9,7.5-25.2,11.6-4.3,2.2-10.2,4.4-11.7,8.1a30.49,30.49,0,0,0-2.2,13,23.62,23.62,0,0,0,2.1,8.3c1.7,3.8,5.2,5,8.8,3.4,2.1-.9,4.1-1.9,6.1-2.9a74.24,74.24,0,0,0,9.8-5.8,36.77,36.77,0,0,1,23.3-6.9c3.5.2,7.2.6,7.9,4.4.8,4.3,1.3,9.5-3.4,12a33.69,33.69,0,0,1-10.1,3.5,7.72,7.72,0,0,1-1.5.2,97.37,97.37,0,0,0-32.6,9.6c-3.2,1.6-6.3,4.1-5.1,8,.3.9.6,1.8,1,2.7a17.69,17.69,0,0,0,4.7,7c5.4,4.1,12,3.2,18.2,1.4,7.8-2.3,15.4-4.9,23.1-7.2,5.5-1.6,7.4-.7,7.8,4.4A9.15,9.15,0,0,1-951,1644.7Z" transform="translate(1982.4 -928.3)"/><path d="M-953.6,1774.9a69.15,69.15,0,0,1,4.3-15.4l1.1.4a43.34,43.34,0,0,0-2.5,8.7c-2.4,13.6-2.4,27.7-3.6,41.5-.8,9.7-.7,19.5-5.7,28.4-4,7.2-7.8,14.5-11.2,22-.8,1.8-.4,5.6.9,6.5,7.8,5.5,15.7,11.6,26.1,10.2,2.2-.3,5.5-1.4,6.2-3.1,2.2-5.2,4.3-10.8,4.6-16.4.4-6-1.2-12.1-2.1-18.1-3-19.6-1.3-38.9,3.6-58,2.2-8.6,3.6-17.4,5.4-26.1l1.7.3c-1.1,6.7-2.4,13.4-3.9,20-3.6,16.8-6.9,33.7-5.4,51,.8,9.7,2.2,19.4,3.3,29.1.9,7.8-1.5,14.9-5.5,21.2-1.4,2.3-5.8,2.8-8.8,4.1-.2-.3-.3-.7-.5-1l-17.3-1.8c-.7-.1-2-.7-2-1.1.1-4.4-3.8-5-6.2-6.9-4.5-3.4-5.5-6.6-2.8-11.6,4-7.8,8.8-15.2,12.4-23.1a57.19,57.19,0,0,0,4.3-17.2C-955.7,1804-955.7,1789.3-953.6,1774.9Z" transform="translate(1982.4 -928.3)"/><path d="M-975,2038.8c12.3,21.6.7,57.8-21.9,70.7-13.6,7.7-27.6,12.8-44.4,11.5-10.9,2.1-21.5-2.3-32.1-6.7-1-.4-2.5-1.3-2.5-2-.4-5.8-5.3-8-8.8-11.2-15.2-13.9-17.5-28.3-10.7-45.3,5.7-14.2,14.2-26.9,27.3-35.8,10.3-7,22-9.7,34.2-10.2a80.76,80.76,0,0,1,39.2,8.8C-986.1,2023-979.9,2030.2-975,2038.8Zm-12.4,38.5c5.6-16.2,3.2-29.6-9.3-41.5-7.4-7.1-16.3-10.2-26-12.2-14-2.9-27.5-1.6-39.2,7.3-10.3,7.8-17,18.5-21.5,30.4-1.4,3.8-1.2,8.3-1,12.5.4,8.9,7.2,14.1,12.6,19.9,3.3,3.5,6.3,7.8,10.4,9.6,7.1,3.2,14.8,4.7,20.7,6.4,6.5-1,11-1.3,15.3-2.3,17.4-4.1,31.6-11.6,38-30.1Z" transform="translate(1982.4 -928.3)"/><path d="M-1000.7,1626.7a98.06,98.06,0,0,1,32.6-9.6c.5-.1,1-.1,1.5-.2l.4,2.5a64.37,64.37,0,0,0-8.5,1.8,218.67,218.67,0,0,0-24.8,8.3c-3.1,1.3-4,4.4-3.1,7.4l-2.4.7c-.4-.9-.7-1.8-1-2.7C-1007,1630.8-1003.9,1628.3-1000.7,1626.7Z" transform="translate(1982.4 -928.3)"/><path class="cls-7" d="M-996.7,2035.8c12.5,11.9,14.9,25.2,9.3,41.5-6.4,18.6-20.6,26-38,30-4.3,1-8.8,1.4-15.3,2.3-5.8-1.7-13.6-3.2-20.7-6.4-4.1-1.8-7.2-6.2-10.4-9.6-5.5-5.8-12.3-10.9-12.6-19.9-.2-4.2-.4-8.7,1-12.5,4.5-11.9,11.2-22.6,21.5-30.4,11.7-8.8,25.2-10.1,39.2-7.3C-1013,2025.5-1004.1,2028.7-996.7,2035.8Z" transform="translate(1982.4 -928.3)"/><path class="cls-5" d="M-992.7,1767.3c.7,14.8-4.3,21.2-17.5,23.8-7,1.4-9.8-1.4-8.1-8.2,2.4-9.7-4.7-18.3-17.2-18.2-6.9,0-13.9,1.6-20.7,3.4l-3.8,1.1a54.26,54.26,0,0,0-16.9,7.8c-11.6,8.8-10.3,23.6.7,33,9.8,8.4,21.1,7.6,32.3,8.9,6.4.7,12.9,1.1,19.1,2.4,4.6,1,7.3,4.3,9.4,9.1,4.8,10.6,2.8,20.8.4,31-1.6,6.7-6.8,11-12.8,13.8a79,79,0,0,1-19.5,6.7,53.86,53.86,0,0,1-12,.8,72.09,72.09,0,0,1-22.4-5c-8.9-3.6-10.6-17.4-3.8-20.2a28.76,28.76,0,0,1,14.8-1.7c11.8,1.8,25.2-4,30.8-14.6,1.6-3-.8-10-4.5-12.8a14.94,14.94,0,0,0-5.7-3c-8.9-1.6-18-2.7-26.9-4.2l-.4-.1c-7-1.2-14.1-2.2-20.9-4.2-6.6-1.9-9.9-10.7-7.8-19.4,3.6-14.7,11.4-26.5,23.9-35.2,12.3-8.5,24.8-16.2,39.5-20,9-2.3,17.4-.7,25.8,1.8,4.3,1.2,8.2,3.6,12.4,5.1C-995.2,1752.7-992.3,1759.6-992.7,1767.3Z" transform="translate(1982.4 -928.3)"/><path d="M-948.7,1642.8c1.3,15.7-9.2,23.6-22.4,25-9.4,1-18.9,1.3-28.4,1.4v-1.8c11.6-1.4,23.4-2.2,34.8-4.4,8.9-1.8,13.9-9.5,13.7-18.3a9.7,9.7,0,0,0-.1-1.7Z" transform="translate(1982.4 -928.3)"/><path d="M-995.4,1607l1.3,2.6c-2,1-4.1,2-6.1,2.9-3.5,1.6-7,.4-8.8-3.4a23.62,23.62,0,0,1-2.1-8.3l2.9-.2a16.23,16.23,0,0,0,1.6,6.1,6.08,6.08,0,0,0,5.1,2.5A40.1,40.1,0,0,0-995.4,1607Z" transform="translate(1982.4 -928.3)"/><path d="M-1002.5,1636.8a10,10,0,0,0,4.7,5.6c5,2.7,10,1.5,14.9,0,8.6-2.5,17-5.2,25.6-7.6,5.2-1.5,7.6.6,8.3,6a15,15,0,0,1,.2,2l-2.3.2c-.4-5-2.2-6-7.8-4.4-7.7,2.3-15.4,4.9-23.1,7.2-6.2,1.8-12.8,2.8-18.2-1.4a15.82,15.82,0,0,1-4.7-7Z" transform="translate(1982.4 -928.3)"/><path d="M-997.2,1583.1a18.51,18.51,0,0,0-11.1,17.5l-2.9.2a29,29,0,0,1,2.2-13c1.5-3.7,7.4-6,11.7-8.1,8.2-4.1,16.8-7.6,25.2-11.6a10.92,10.92,0,0,0,6.3-10h2.5c-.1,5.3-2.2,10.2-7.4,12.8C-979.4,1575.3-988.2,1579.4-997.2,1583.1Z" transform="translate(1982.4 -928.3)"/><path d="M-1035.9,1655.6c1.7,6.9,5.5,11.6,14.1,11,7.3-.5,14.7-.1,22.1-.1l.1,1v1.8l-16.8.3a87,87,0,0,1-11.4-.5c-3.6-.3-6.9-1.3-7.9-5.5-.6-2.6-1.2-5.1-1.9-7.6Z" transform="translate(1982.4 -928.3)"/><path d="M-1047.6,1596.5c.6-6.3,1.1-11.4,1.6-16.4a15.78,15.78,0,0,1,8.6-12.6,148.6,148.6,0,0,1,21.2-9.4,269.75,269.75,0,0,1,31.8-9.4c5.3-1.1,11.3,0,16.8,1.2,1.8.4,4,4.1,4.2,6.3a12,12,0,0,1,0,1.9h-2.5c0-1.6-1.6-4.5-2.7-4.7-5.9-.6-12.3-1.9-17.7-.4-15,4.2-29.7,9.7-44.5,14.8-8.6,3-12.9,9.2-13.3,18.3-.9,23.1,3.4,45.6,7.9,68.1.1.5.2.9.3,1.3l-1.6.4c-2.2-9-4.5-18-6.2-27.1C-1045.6,1617.9-1046.4,1606.6-1047.6,1596.5Z" transform="translate(1982.4 -928.3)"/><path d="M-1076.3,1810.1c-10.9-9.5-12.3-24.2-.7-33,4.8-3.7,11-6.2,16.9-7.8l3.8-1.1.3,1.2a58.11,58.11,0,0,0-20.1,9.9c-8.3,6.3-7.9,18.7-.8,26.3,7.7,8.3,17.6,8.9,27.7,9.8q12.3,1.2,24.6,3c5.1.7,8.4,3.8,10.6,8.5,5.6,11.9,4.6,24,1.3,35.9-2.5,9.1-9.8,14.7-18.6,17.2-5.2,1.5-10.4,3-15.7,4.1l-.4-2.1a78.23,78.23,0,0,0,19.4-6.7c6-2.9,11.2-7.2,12.7-13.8,2.5-10.2,4.4-20.5-.4-31-2.2-4.8-4.8-8.1-9.4-9.1-6.3-1.3-12.7-1.7-19.1-2.4C-1055.2,1817.7-1066.6,1818.5-1076.3,1810.1Z" transform="translate(1982.4 -928.3)"/><path d="M-1059.1,1885.6c-9,.3-18.6-1.1-26.4-6.7-5.9-4.3-8.6-13.3-5.9-19.5,3.1-7.2,9.6-7.2,16-6.9,4.9,0,9.8.2,14.7-.1,7.5-.5,12-6.1,16.6-11,3.4-3.6,2.7-8.1-2-10.1a96.48,96.48,0,0,0-19.6-6c-3.9-.8-7.9-1.5-11.9-2.2l.3-1.9.4.1c8.9,1.5,18,2.6,26.9,4.2,2,.3,4,1.7,5.7,3,3.7,2.8,6.1,9.8,4.5,12.8-5.7,10.6-19,16.5-30.8,14.6a27.74,27.74,0,0,0-14.8,1.7c-6.7,2.8-5,16.7,3.8,20.2a71.46,71.46,0,0,0,22.4,5,48.51,48.51,0,0,0,12-.8l.4,2.1A87.81,87.81,0,0,1-1059.1,1885.6Z" transform="translate(1982.4 -928.3)"/><path d="M-1098.2,1817c6.8,2,13.9,3,20.9,4.2l-.3,1.8c-6.6-1.1-13.2-2.1-19.8-3.6-7.7-1.8-11.8-5.6-11.8-14.8,0-11.5,4-21.2,10.7-30.3,9.5-12.8,22.8-20.5,36.4-27.7,6.6-3.5,13.8-6.7,21.1-7.9a52.23,52.23,0,0,1,21.2,1.1c7.4,1.9,14.5,5.5,21.4,9.1,6.6,3.4,7.4,10.3,7.9,16.8.7,8,.8,16.3-5.9,22.2-6.5,5.8-14.2,7.7-22.6,4.9-1.3-.4-2.4-2.4-3-3.9-.4-1.1,0-2.6.2-3.9,2.1-10.5-1.8-17-12.4-17.7a68.06,68.06,0,0,0-22,2.1l-.3-1.2c6.8-1.8,13.8-3.4,20.7-3.4,12.5-.1,19.6,8.5,17.2,18.2-1.7,6.8,1.2,9.6,8.1,8.2,13.2-2.6,18.2-8.9,17.5-23.8.4-7.7-2.5-14.7-11.6-18-4.2-1.5-8.1-3.9-12.4-5.1-8.4-2.4-16.8-4.1-25.8-1.8-14.7,3.8-27.2,11.5-39.5,20-12.6,8.7-20.3,20.5-23.9,35.2C-1108,1806.2-1104.8,1815.1-1098.2,1817Z" transform="translate(1982.4 -928.3)"/><path class="cls-5" d="M-1120.4,1866.2c.4,3.6-.2,8.3-2.4,11a20,20,0,0,1-11,6.9c-13.8,2.8-27.5,6.4-41.4,8.8a180.83,180.83,0,0,1-22,2.6,40.09,40.09,0,0,1-9.8-.2,8.44,8.44,0,0,1-4.8-3.7c-5.1-8.3-6.2-17.8-6.7-27.2-.7-14.7-1-29.4-.4-44.1a45.73,45.73,0,0,1,.5-5.2c1-5.2,2.3-10.4,3.8-15.5,2.3-8.4,9-11.6,17-11.6,12.4,0,23.7-4.3,34.9-8.7,8.5-3.3,16.8-7.1,26.3-6.4,5.5.5,7.7,2.1,7.2,6a17.79,17.79,0,0,1-1,3.8c-3.3,9.4-10,14-19.6,15.9q-19,3.9-37.8,9.6c-11.3,3.4-13.9,13-7.1,22.8,3.3,4.8,7.6,4.8,12.3,3.6,13.3-3.5,26.5-7.2,39.8-10.6,5.4-1.4,11.1-3.1,15.9,3a23.59,23.59,0,0,1-9.3,8.7,39.55,39.55,0,0,1-6.4,2.7c-.9.3-1.8.6-2.6.8-11.5,3.5-23.2,6.2-34.7,9.4a12.59,12.59,0,0,0-9.1,15.3c.1.2.1.4.2.6,1.6,5.2,6.7,6.6,11,6.2l2.5-.3c8.8-1,17.5-2.9,26.3-4.3,6.8-1.1,13.6-2.5,20.5-3C-1125.7,1863.2-1120.6,1864.9-1120.4,1866.2Z" transform="translate(1982.4 -928.3)"/><path class="cls-6" d="M-1120.4,1557.1c0,6.9.3,14.2-1.7,20.6-6.7,21.3-14.9,42.2-27,61-5.4,8.4-13.1,15.3-19.9,22.8-.8.9-2.2,1.3-4.2,2.4-2-7-3.5-13.4-5.8-19.5-1.1-3-2.3-6.1-3.7-9s-2.9-6-4.5-8.9a12.46,12.46,0,0,0-17-4.7,14.29,14.29,0,0,0-2,1.4,26.53,26.53,0,0,0-9,14.4c-3.4,13.2-5,27.1-13.1,38.8a13.25,13.25,0,0,1-1.6,2.5c-1.9,1.8-4.3,5.1-5.8,4.7-2.4-.6-4.3-3.6-6.4-5.6-1.7-1.6-3.7-2.9-5-4.7l-18.3-26.7c-6-8.9-12-17.9-17.7-27.1-5.1-8.3-8.3-17.8-11.5-27.1-1.4-3.9-1.2-8.5-1-12.8.7-12.1,10.7-13.8,19.4-9.2,8,4.2,12,12.2,16,19.8,5.6,10.5,10.5,21.4,15.8,32.1a5.85,5.85,0,0,0,1,1.7l7.5,6.6c2.2-3.1,5.7-6,6.4-9.4a160.9,160.9,0,0,0,2.1-24v-.8c.4-16.9,9.4-28.1,23.5-35.8,4.3-2.3,14.4.7,16.8,5.3a104.36,104.36,0,0,1,6,15.2c2.8,8.5,5,17.1,8.2,25.5,2.1,5.5,7.4,6.2,10.8,1.2a221.85,221.85,0,0,0,11.3-19.6c5.8-10.8,11.4-21.6,17.2-32.4a4.9,4.9,0,0,1,1.7-1.8c2.4-1.2,5.1-3.4,7.3-3,1.4.2,3.3,2.6,3.9,4.6A5.56,5.56,0,0,1-1120.4,1557.1Z" transform="translate(1982.4 -928.3)"/><path d="M-1221.2,1814.8c.6-3.8,1.4-7.6,2.3-11.4,3.4-13.6,9-19.5,22.3-19.2,12.1.3,23.3-4,34.3-8.7,8.6-3.6,17-7.2,26.7-6.2,7,.7,9.2,3.2,8.3,10l-2-.3c.5-3.9-1.6-5.5-7.2-6-9.5-.8-17.8,3-26.3,6.4-11.3,4.4-22.5,8.7-34.9,8.7-8,0-14.7,3.2-17,11.6a118.27,118.27,0,0,0-3.8,15.6Z" transform="translate(1982.4 -928.3)"/><path d="M-1188.2,1811.2c-3.8,1-6.5,3.2-6.9,7.4-.5,4.8.8,9.6,4.8,11.8,2.7,1.5,7.1,1,10.4.2,13.5-3.3,26.8-7.2,40.2-10.8,4.4-1.2,8.5-1.4,12.6,1.9s3.9,6.7,1,9.2a71.39,71.39,0,0,1-8.2,6.3l-1.8-1.6a21.69,21.69,0,0,0,9.3-8.7c-4.7-6.1-10.4-4.4-15.9-3-13.3,3.4-26.5,7.1-39.8,10.5-4.7,1.2-9.1,1.2-12.3-3.6-6.8-9.8-4.2-19.4,7.1-22.8,12.4-3.7,25.1-7,37.8-9.6,9.7-2,16.3-6.6,19.6-15.9a16.37,16.37,0,0,0,1-3.8l2,.3-.1.4c-2,13-10.2,19.9-24.9,22.7C-1164.3,1804.6-1176.2,1808.1-1188.2,1811.2Z" transform="translate(1982.4 -928.3)"/><path d="M-1136,1835.8l1.8,1.6a35.6,35.6,0,0,1-7,3.6l-.3.1-.9-2.6A39.55,39.55,0,0,0-1136,1835.8Z" transform="translate(1982.4 -928.3)"/><path d="M-1157.5,1892c-5.7,1.1-11.5,2.2-17.2,3.2l-.4-2.2c13.9-2.5,27.6-6.1,41.4-8.8a20.76,20.76,0,0,0,11-6.9c2.2-2.7,2.8-7.4,2.4-11-.2-1.3-5.3-3-8-2.9-6.9.5-13.7,1.9-20.5,3-8.8,1.4-17.5,3.3-26.3,4.3l-.3-2.4c.3,0,.6-.1.9-.1,11-2.2,22-4.3,32.9-7.2a37.46,37.46,0,0,1,19.1-.2,8.23,8.23,0,0,1,4.8,4.7c2.6,7.8-1.8,17.3-9.8,19.7C-1137.4,1887.9-1147.5,1890-1157.5,1892Z" transform="translate(1982.4 -928.3)"/><path d="M-1172.7,1606.8c-3.2-8.3-5.4-17-8.2-25.4l1.8-.6c1,3.1,2,6.2,3.1,9.3,1.7,4.8,3.1,9.8,5.2,14.4,1.5,3.3,4.6,4.5,7,1.2a143,143,0,0,0,10.1-16.3c6.2-11.6,12-23.4,18.2-35.1a15,15,0,0,1,4.3-4.7c5.5-4.2,10-2.6,12.4,4l.6,1.8-2.2.6c-.7-2-2.5-4.4-3.9-4.6-2.2-.4-4.9,1.8-7.3,3a4.21,4.21,0,0,0-1.6,1.9c-5.8,10.8-11.4,21.6-17.2,32.4-3.6,6.6-7,13.4-11.3,19.6C-1165.3,1612.9-1170.6,1612.3-1172.7,1606.8Z" transform="translate(1982.4 -928.3)"/><path d="M-1177.7,1870.9c-4.3.4-9.4-1-11-6.2a12.53,12.53,0,0,1,8.3-15.7c.2-.1.4-.1.6-.2,11.5-3.2,23.3-5.9,34.7-9.4.9-.3,1.8-.6,2.6-.8l.9,2.6c-11.6,4-23.6,6.8-35.4,10.1a11.34,11.34,0,0,0-4.1,1.6c-3,2.6-6.1,5.4-4.5,10.1,1.1,3.1,5.7,5.7,10,5.2l.3,2.4A19.67,19.67,0,0,1-1177.7,1870.9Z" transform="translate(1982.4 -928.3)"/><path d="M-1182.7,1635.5c1.3,3,2.5,6,3.7,9,2.3,6.1,3.7,12.5,5.8,19.5,1.9-1.1,3.3-1.5,4.2-2.4,6.8-7.5,14.4-14.4,19.9-22.8,12.2-18.8,20.3-39.7,27-61,2-6.4,1.7-13.7,1.7-20.6a5.85,5.85,0,0,0-.2-1.3l2.2-.6c2.5,8.3,1.2,16.5-1.4,24.5-7.1,21.8-15.6,43.1-28.1,62.3-5.7,8.8-13.8,16-21.2,23.5-3.2,3.2-6.2,1.8-7.5-2.8-2.4-8.6-4.7-17.2-7.3-25.7l-.3-.9Z" transform="translate(1982.4 -928.3)"/><path d="M-1220.9,1871.1c-.7-4.9-.9-9.9-1.3-14.9a163.92,163.92,0,0,1,1-41.4l2.8.4a45.73,45.73,0,0,0-.5,5.2c-.5,14.7-.3,29.4.4,44.1.5,9.4,1.6,18.9,6.7,27.2a8.44,8.44,0,0,0,4.8,3.7,40.29,40.29,0,0,0,9.8.2,180.83,180.83,0,0,0,22-2.6l.4,2.2c-7.7,1.3-15.5,2.6-23.3,3.8a29.42,29.42,0,0,1-11.8-.6c-2.1-.6-3.8-3.4-5.2-5.4C-1219.5,1886.3-1219.8,1878.5-1220.9,1871.1Z" transform="translate(1982.4 -928.3)"/><path class="cls-1" d="M-1229.9,1684.6a86.23,86.23,0,0,0,13.8-29.4c1.9-8,3.6-16.2,7-23.6,5-10.8,17.3-11.3,21.4-1.3.9,2.1,2.5,4,3.4,6l.3.9c2.6,8.5,4.9,17.1,7.3,25.7,1.3,4.5,4.3,6,7.5,2.8,7.4-7.5,15.5-14.8,21.2-23.5,12.5-19.2,21-40.5,28.1-62.3,2.6-8,3.9-16.2,1.4-24.5l-.6-1.8c-2.4-6.6-6.9-8.2-12.4-4a16,16,0,0,0-4.3,4.7c-6.1,11.7-12,23.5-18.2,35.1a130.1,130.1,0,0,1-10.1,16.3c-2.4,3.4-5.5,2.1-7-1.2-2.1-4.7-3.5-9.6-5.2-14.4-1.1-3.1-2-6.2-3.1-9.3-1.8-5.5-3.6-11-5.8-16.4s-13.2-9.4-18.4-7.2c-13,5.6-27,19.8-25.8,40.2-.6,5.7-.9,13.3-2.2,20.8-.5,2.9-3.1,5.4-4.7,8-2.2-2.2-5.2-4-6.6-6.7-4.8-9.1-8.7-18.5-13.4-27.6-4.9-9.4-9.3-19.3-19.3-24.5-5.9-3.1-12.3-3.9-18.1.7-4.6,3.7-5.3,9-5,14.3.8,13.3,5.5,25.5,12.6,36.7,6.2,9.7,12.7,19.2,19.2,28.8.8,1.2,1.6,2.3,2.3,3.5,7.3,10.8,14.6,21.7,22.2,32.4C-1238.3,1689.4-1233.7,1689.9-1229.9,1684.6Zm638-21.3c.1,18.6-4,36.4-6.2,54.6-2.1,17.2-4.1,34.5-5.9,51.8-1.8,17.6-3.7,35.2-4.9,52.9-1.4,20.5-1.6,41.1-3.2,61.6a60.85,60.85,0,0,1-16.1,37c-6.8,7.4-16.4,10.2-26,10.8a664,664,0,0,0-66,8c-22.1,3.7-44.4,6.3-66.7,9.3-21.2,2.8-42.4,5-63.5,8.3-27.1,4.2-54.3,5.9-81.7,6.9-25.8.9-51.7,3-77.5,4.8-16.5,1.1-33.1,2.5-49.6,4.1-14.5,1.4-28.9,3.3-43.4,4.8-16,1.6-32,2.6-47.9,4.2-8.9.9-17.6,2.8-26.5,3.7-9.6,1-19.2,1.4-28.8,2.3-18.7,1.8-37.4,3.9-56.2,5.8-8.5.8-17.1,1.4-25.7,2.1l-70,5.3a3.19,3.19,0,0,0-1.4.3c-15.1,6.1-29.9,1.5-44.5-1.7-4.4-1-7.2-5.2-8.5-9.7-4.3-15.4-8.8-30.8-12.6-46.3a198.57,198.57,0,0,1-5.3-31.6c-.9-12.1-.2-24.3-.2-36.4h-1.8c0-18.7.1-37.4,0-56.1-.1-20-.2-40-.5-60-.4-22.8-1.5-45.6-1.3-68.4.2-25.5.8-51.1,2.8-76.5,1.4-18.9,4.7-37.7,8.3-56.3,1.5-8,4.3-16.5,9.2-22.8a54.57,54.57,0,0,1,20.3-15.6c9.6-4.4,20.3-7.1,30.8-8.8,13.8-2.3,27.9-3,41.9-4.2,15.7-1.4,31.3-2.7,47-3.8,12.1-.9,24.1-1.5,36.2-2.2,19.9-1.2,39.7-2.6,59.6-3.8,9.6-.6,19.3-.7,28.9-1.2,2.9-.2,5.8-1.7,8.7-1.6,15.9.3,31.8,1,47.8,1.4,19.6.5,39.2,1.3,58.8.9,19.9-.5,39.7-2.4,59.5-3.7,6.6-.4,13.2-.6,19.9-1,11.8-.8,23.5-1.8,35.2-2.6,4.4-.3,8.8,0,13.1-.4,5.2-.4,10.2-1.5,15.4-2s10.5-.9,15.8-1c3.8-.1,7.6.9,11.4.7,13.2-.8,26.4-2.2,39.7-2.9,7.1-.4,14.2.4,21.4.6,6.1.2,11.9.8,18.3-.8,6.6-1.7,14.1-.2,21.2.2,14.9.7,29.9,1.2,44.8,2.5,11.6,1,23.1,2.8,34.6,4.5,9.4,1.4,18.8,3.3,28.2,4.9,1.3.2,2.6,0,3.9.2,3.1.7,6.2,1.4,9.2,2.3,2.5.7,4.9,2.2,7.4,2.5,8.4,1.1,14,5.1,16.6,13.4,4,12.7,8.5,25.3,12.3,38.1,3.3,11.4,6.2,22.9,8.8,34.5C-591.1,1612.1-592,1637.7-591.9,1663.3Zm-90.5,102.5c.6-4,.6-8.3-4.1-12.2-3.5,3.4-7.4,6.5-10.4,10.2-6.6,8-9.7,17.5-10.4,27.8-.4,5.5-.4,11.3-5.6,16.2-9.1-11.4-16.4-23.2-20.3-36.9a105.29,105.29,0,0,0-4.3-12.3c-.8-1.8-1.6-3.5-2.4-5.2-3.1-6.1-7.1-7-12.6-3.2a29.92,29.92,0,0,0-8.5,8.5c-4.7,8.1-9.4,16.3-12.7,25-2.7,7.3-5.3,14.7-7.6,22.1-2,6.2-3.8,12.5-5.4,18.8a54.52,54.52,0,0,0-1,20.9c1.4,9.6,7.4,11.2,14.6,4.8a28.48,28.48,0,0,0,2.3-2.6c7-8.4,9.1-18.5,10.8-28.9,1.1-6.8,2.4-13.7,4.1-20.4,1.8-7,6.1-8.5,11.4-4a49.73,49.73,0,0,1,9.2,9.7c4.9,6.9,10.1,13.9,13.7,21.6,2.3,5,1.7,11.4,2.8,17,.4,1.9,1.7,4.4,3.2,5,.8.3,2.1-.3,3.4-1.2.6-.4,1.2-.9,1.7-1.3a17.65,17.65,0,0,0,4-5c8.5-15.4,15.7-31.3,19.3-48.6,1-4.7,2-9.5,2.8-14.2.7-3.7,1.4-7.6,2-11.6ZM-720,1629.2c.6-3.3,0-7.1-1.7-11.4-3.4-8.6-9.8-14.2-17.7-17.9-2.4-1.1-4.8-2.2-7.3-3.2-6.9-2.8-14-5.2-21-7.9,1.2-.5,2.9-1,4.5-1.7,6.6-2.8,13.6-6.1,16.4-12.9a22.43,22.43,0,0,0,1.9-9.9c-.4-9.3-6.6-17.7-16.5-21.2-12.3-4.4-25.1-5.1-37.8-3.3-10.1,1.4-18.2,4.8-19.1,17.7a168.61,168.61,0,0,0-.6,17.4c.7,16.1,1.9,32.2,2.7,48.2.5,10,.5,20,1.1,29.9.2,3.4,1.3,7.8,5.9,7,16.5-2.5,33.1-4.9,49.3-8.7,10.2-2.4,19.8-7,29.5-11.1,6.2-2.7,9.5-6.4,10.4-11Zm-98.5,214.5a18.29,18.29,0,0,0,11-17.5,31.28,31.28,0,0,0-.4-4.4c-.8-4.5-3.1-7.1-7.7-7.7-6.7-.8-13.4-2.3-20.2-2.6-7.7-.4-15.5,0-22.3,4.8-3.6,2.5-6.9,8.8-5.4,11.4,2.5,4.2,6.4,2.1,9.9,1.8l2-.3c1.6,0,3.2-.1,4.8,0,3.3.2,6.5,1.1,9,4.8-2,1.9-3.7,4.5-6.1,5.6-8.9,3.8-18.2,5.8-28,3.8-7.8-1.7-12.4-7.1-12.1-15a34.43,34.43,0,0,1,10.5-23.9c7.2-6.9,15.5-11.3,26.2-10.7a55.48,55.48,0,0,0,11.5-.6c2.4-.3,4.8-.8,7.2-1.3,5.9-1.3,10.4-5.4,11.4-11.7,1-6.6-1.4-12.3-8-15-5-2-10.2-4.3-15.4-4.8-19.3-1.7-35.5,3.8-48.1,19.8a91,91,0,0,0-13.7,23.3,63.09,63.09,0,0,0-4.2,25.8c.4,8.2,2.4,16.2,9.4,22,10.6,8.8,23.4,8,35.5,6.9,8.6-.8,16.9-5.2,25.3-8,5.8-2,12.1-3.7,17.9-6.5Zm-105.9-89.8c1-6.4-2.8-12.4-7.2-11-4.8,1.5-11,3.7-13.2,7.6a75.55,75.55,0,0,0-4.5,9,62.93,62.93,0,0,0-4.3,15.4c-2.1,14.4-2,29.1-3.5,43.7a57.19,57.19,0,0,1-4.3,17.2c-3.5,8-8.3,15.4-12.4,23.1-2.6,5-1.6,8.2,2.8,11.6,2.5,1.9,6.4,2.6,6.2,6.9,0,.3,1.3,1,2,1.1,5.8.7,11.5,1.2,17.3,1.8.2.3.3.7.5,1,3-1.3,7.4-1.8,8.8-4.1,4-6.3,6.3-13.5,5.5-21.2-1.1-9.7-2.5-19.4-3.3-29.1-1.4-17.3,1.8-34.2,5.4-51,1.4-6.7,2.8-13.3,3.9-20C-924.6,1755.1-924.5,1754.5-924.4,1753.9Zm-46.7-86c13.2-1.4,23.7-9.3,22.4-25a13.55,13.55,0,0,0-.2-2c-.8-5.5-3.1-7.5-8.3-6-8.6,2.4-17.1,5.1-25.6,7.6-4.9,1.4-9.9,2.7-14.9,0a10,10,0,0,1-4.7-5.6c-.9-3,0-6.1,3.1-7.4a212.22,212.22,0,0,1,24.8-8.3c2.8-.7,5.6-1.3,8.5-1.8a52.7,52.7,0,0,0,9.7-2.3c5.5-2.1,7.7-9.8,5.9-16.9-1.2-4.5-5.3-6.6-11.8-6.9-11.8-.6-20.8,5.4-29.8,11.8a21.69,21.69,0,0,1-3.3,1.9,31.38,31.38,0,0,1-6.1,2.1,6,6,0,0,1-5.1-2.4,16.23,16.23,0,0,1-1.6-6.1,18.3,18.3,0,0,1,11.1-17.5c9-3.7,17.8-7.8,26.5-12.2,5.2-2.6,7.3-7.5,7.4-12.8v-1.9c-.2-2.3-2.3-6-4.2-6.3-5.5-1.2-11.5-2.3-16.8-1.2a269.75,269.75,0,0,0-31.8,9.4,148.6,148.6,0,0,0-21.2,9.4,15.71,15.71,0,0,0-8.6,12.6c-.5,5.1-1,10.2-1.6,16.4,1.2,10.1,2,21.4,4,32.4,1.6,9.1,3.9,18.1,6.2,27.1.6,2.5,1.3,5.1,1.9,7.6,1,4.2,4.3,5.2,7.9,5.5a108.69,108.69,0,0,0,11.4.5c5.6-.2,11.2-.2,16.8-.3,9.1-.2,18.6-.5,28-1.4Zm-25.1,120c6.7-5.9,6.5-14.2,5.9-22.2-.5-6.5-1.4-13.4-7.9-16.8-6.9-3.6-14-7.2-21.4-9.1a52.23,52.23,0,0,0-21.2-1.1c-7.3,1.2-14.5,4.4-21.1,7.9-13.6,7.2-26.9,14.9-36.4,27.7-6.7,9.1-10.7,18.8-10.7,30.3,0,9.2,4.1,13,11.8,14.8,6.5,1.5,13.2,2.5,19.8,3.6,4,.7,7.9,1.3,11.9,2.2a96.48,96.48,0,0,1,19.6,6c4.7,2,5.4,6.5,2,10.1-4.6,4.9-9.1,10.5-16.6,11-4.9.3-9.8.1-14.7.1-6.4-.3-13-.3-16,6.9-2.7,6.2,0,15.3,5.9,19.5,7.9,5.7,17.4,7,26.5,6.7a83,83,0,0,0,12.2-1.5c5.3-1.1,10.6-2.6,15.7-4.1,8.8-2.5,16-8.1,18.5-17.2,3.3-11.9,4.3-24.1-1.3-35.9-2.3-4.8-5.6-7.8-10.6-8.5q-12.3-1.8-24.6-3c-10.1-.9-19.9-1.5-27.7-9.8-7.1-7.6-7.5-20,.8-26.3a58.11,58.11,0,0,1,20.1-9.9,65.33,65.33,0,0,1,22-2c10.5.7,14.4,7.1,12.4,17.7-.3,1.3-.7,2.8-.2,3.9.6,1.5,1.7,3.5,3,3.9C-1010.5,1795.6-1002.7,1793.7-996.2,1787.9Zm-131.5,97.1c8-2.4,12.4-11.8,9.8-19.7a8.23,8.23,0,0,0-4.8-4.7,37.47,37.47,0,0,0-19.1.2c-10.8,2.8-21.9,4.9-32.9,7.2a2.77,2.77,0,0,1-.9.1c-4.2.4-8.9-2.1-10-5.2-1.6-4.7,1.4-7.5,4.5-10.1a9.79,9.79,0,0,1,4.1-1.6c11.8-3.3,23.8-6.1,35.4-10.1l.3-.1a35.23,35.23,0,0,0,7-3.5,71.39,71.39,0,0,0,8.2-6.3c2.9-2.5,3-6-1-9.2s-8.3-3.1-12.6-1.9c-13.4,3.5-26.8,7.4-40.2,10.8-3.3.8-7.7,1.3-10.4-.2-4-2.2-5.3-7-4.8-11.8.4-4.2,3.1-6.5,6.9-7.4,12-3.1,23.8-6.7,36-8.9,14.8-2.8,23-9.6,24.9-22.7l.1-.4c.9-6.8-1.4-9.2-8.3-10-9.7-1-18.2,2.6-26.7,6.2-11,4.6-22.2,9-34.3,8.7-13.3-.3-18.9,5.6-22.3,19.2a115,115,0,0,0-2.3,11.4,163.92,163.92,0,0,0-1,41.4c.4,5,.6,10,1.3,14.9,1.1,7.5,1.4,15.2,5.9,21.8,1.4,2.1,3.1,4.9,5.2,5.5a29.24,29.24,0,0,0,11.8.6c7.8-1.2,15.5-2.4,23.3-3.8,5.8-1,11.5-2,17.2-3.2C-1147.5,1890-1137.4,1887.9-1127.7,1885Zm-125.2.7c13.4-15.3,22.7-32.5,21.7-53.6-.1-1.9-.2-3.9-.3-5.8a139.52,139.52,0,0,0-2.4-22.3c-4.3-21.3-24-31.5-44.9-29.2a119.88,119.88,0,0,0-45.5,14.3,6.7,6.7,0,0,0-2.7,4.6c-.2,11.3-.7,22.6.1,33.8.5,7.3,1.2,14.5,1.9,21.8,1,9.5,2.1,19.1,3,28.7,1.2,13,2.2,26.1,3.3,40.1,4.9-1.3,9.5-2.2,13.9-3.9,7.6-2.8,15-6,22.4-9.2C-1271.3,1900.1-1260.8,1894.6-1252.9,1885.7Z" transform="translate(1982.4 -928.3)"/><path d="M-1227.2,1596.7v.8l-2-.1c-1.3-20.5,12.8-34.6,25.8-40.2,5.2-2.3,16.3,1.9,18.4,7.2s4,10.9,5.8,16.4l-1.8.6a104.36,104.36,0,0,0-6-15.2c-2.4-4.6-12.5-7.7-16.8-5.3C-1217.8,1568.6-1226.8,1579.7-1227.2,1596.7Z" transform="translate(1982.4 -928.3)"/><path class="cls-5" d="M-1233.8,1826.3a70.91,70.91,0,0,1-1.2,19.5c-3.6,16.3-11.1,30.6-24.3,41.6-12.4,10.3-27.1,16.2-41.9,21.9-4.6,1.8-8.8,5.6-14.7,3.6-1.1-11.8-2.2-23.7-3.4-35.5-1-9.5-2.5-18.9-3.4-28.4-.3-3.2-.6-6.3-.8-9.5-.8-14.8-.5-29.8-.5-44.6a4.41,4.41,0,0,1,2-3c17.3-9.3,35.6-15.2,55.6-12.8a35.36,35.36,0,0,1,31,30.8C-1234.8,1815.2-1234.1,1820.8-1233.8,1826.3Zm-23.1,4.9a27.28,27.28,0,0,0,1.9-10.6c-.4-8.1-5.5-14.3-14.3-16-11-2.2-21.2-.5-30.4,6.7-2.9,2.3-5.2,4.3-5.2,8v4.5c-.1,8.6-.1,17.2,0,25.9.2,12.3.7,24.6,1,36.9a60,60,0,0,1-.5,7.4l1.5.6a12.71,12.71,0,0,0,2.7-1.8c2.5-3,4.4-6.5,7.3-9C-1276.2,1869.5-1264.6,1851.6-1256.9,1831.2Z" transform="translate(1982.4 -928.3)"/><path d="M-1242.3,1683.7c-7.5-10.7-14.8-21.5-22.2-32.4-.8-1.2-1.6-2.3-2.3-3.5l1.6-1.1,18.3,26.7c1.2,1.8,3.3,3.2,5,4.7,2.1,2,3.9,5,6.4,5.6,1.5.4,3.9-2.9,5.8-4.7a21.28,21.28,0,0,0,1.6-2.5c8.1-11.6,9.7-25.5,13.1-38.8a26.18,26.18,0,0,1,9-14.4,12.5,12.5,0,0,1,17.6,1.3,14.29,14.29,0,0,1,1.4,2,74.22,74.22,0,0,1,4.5,8.9l-1.6.7c-.9-2.1-2.5-3.9-3.4-6-4.1-10-16.4-9.5-21.4,1.3-3.4,7.4-5.1,15.6-7,23.6a84.63,84.63,0,0,1-13.9,29.4C-1233.7,1689.9-1238.3,1689.4-1242.3,1683.7Z" transform="translate(1982.4 -928.3)"/><path d="M-1229.4,1621.4c-.6,3.4-4.2,6.3-6.4,9.4l-7.5-6.6a5.85,5.85,0,0,1-1-1.7c-5.2-10.7-10.2-21.5-15.8-32.1-4-7.6-8-15.7-16-19.8-8.7-4.5-18.7-2.9-19.4,9.2-.2,4.2-.4,8.9,1,12.8,3.3,9.3,6.4,18.8,11.6,27.1,5.7,9.2,11.6,18.1,17.7,27.1l-1.6,1.1c-6.5-9.5-13-19.1-19.2-28.8-7.1-11.2-11.8-23.3-12.6-36.7-.3-5.3.4-10.6,5-14.3,5.8-4.6,12.2-3.7,18.1-.7,10,5.2,14.5,15.2,19.3,24.5,4.7,9.1,8.7,18.6,13.4,27.6,1.4,2.7,4.4,4.5,6.6,6.7,1.6-2.7,4.2-5.2,4.7-8,1.3-7.5,1.7-15.2,2.2-20.8l2,.1A137,137,0,0,1-1229.4,1621.4Z" transform="translate(1982.4 -928.3)"/><path d="M-1304.9,1819.2c0-3.7,2.3-5.7,5.2-8,9.2-7.2,19.5-8.9,30.4-6.7,8.8,1.8,13.9,7.9,14.3,16.1l-2.1.1a9.24,9.24,0,0,0-3.8-7.4c-12.3-9.4-24-7.8-35.6-.8-4.2,2.5-6.8,6-6.8,11.3h-1.8C-1305,1822.2-1304.9,1820.8-1304.9,1819.2Z" transform="translate(1982.4 -928.3)"/><path d="M-1304,1886.5c-.3-12.3-.8-24.6-1-36.9-.1-8.6-.1-17.2,0-25.9h1.8v1c.7,12.3.7,24.6,1.1,36.8.3,8.1.9,16.1,1.4,24.2l1.3.8c7.2-7.7,15-14.9,21.4-23.2,8.8-11.4,16.7-23.5,20.3-37.8a19.93,19.93,0,0,0,.6-4.9l2.1-.1a27.52,27.52,0,0,1-1.8,10.6c-7.8,20.4-19.3,38.3-36.1,52.6-2.9,2.5-4.8,6-7.3,9a12.71,12.71,0,0,1-2.7,1.8l-1.5-.6C-1304.3,1891.5-1304,1889-1304,1886.5Z" transform="translate(1982.4 -928.3)"/><path d="M-1231.5,1826.2c.1,2,.2,3.9.3,5.8,1,21.1-8.3,38.4-21.7,53.6-7.8,9-18.4,14.4-29.2,19.1-7.4,3.2-14.9,6.4-22.4,9.2-4.4,1.6-9,2.5-13.9,3.9-1.2-14-2.1-27-3.3-40.1-.9-9.6-2-19.1-3-28.7l2.1-.2c1,9.5,2.4,18.9,3.4,28.4,1.3,11.8,2.3,23.7,3.4,35.5,5.9,2,10.1-1.8,14.7-3.6,14.8-5.6,29.5-11.6,41.9-21.9,13.2-10.9,20.7-25.2,24.3-41.5a70.91,70.91,0,0,0,1.2-19.5Z" transform="translate(1982.4 -928.3)"/><path d="M-1324.8,1849.1c-.8-7.2-1.4-14.5-1.9-21.8-.8-11.2-.3-22.6-.1-33.8a6,6,0,0,1,2.7-4.6,121.66,121.66,0,0,1,45.5-14.3c20.9-2.2,40.6,8,44.9,29.2a168.53,168.53,0,0,1,2.4,22.4l-2.3.1c-.3-5.5-1-11.1-1.7-16.6a35.36,35.36,0,0,0-31-30.8c-19.9-2.5-38.2,3.5-55.6,12.8a4.41,4.41,0,0,0-2,3c0,14.9-.3,29.8.5,44.6.2,3.2.4,6.3.8,9.5Z" transform="translate(1982.4 -928.3)"/><path class="cls-8" d="M-1624.2,1893.5c.7,10.8.3,11.1-10.7,10.3a16.17,16.17,0,0,0-7.8,1.4c5.6,3,11.3,1.6,17.1,1.4,1.7,3.8,1.5,4.2-2.2,5.3s-7.5,2.6-11.2,3.9l.7,2.4-.5,2c-8-1.9-16.1-3.7-24.2-5.5-1.9-.4-3.9.1-5.9.2v1.7c7.6,1.8,15.2,3.6,22.9,5.3,6.3,1.5,12.6,2.9,18.8,4.5.8.2,1.8,1.9,1.8,3,.2,4,.1,8,.2,12,0,2.5-.8,3.3-3.6,3.2a113.41,113.41,0,0,0-15.4.7c-1,.1-1.9,1.1-2.9,1.7l.5,1.4,19.9-1.1a6.12,6.12,0,0,1,.5,1.2c1.2,14.6,1.2,14.5-13.5,14.9-2.4.1-4.7,1-7.1,1.6,2.3.6,4.6,1.7,6.9,1.8,4.1.2,8.2-.3,12.3-.5a4.53,4.53,0,0,1,.3,1.6c-.7,4.9-1.4,9.8-2.2,14.7-7.1-.4-13.8.3-19.7,3.7l.3,1.8,19.2-3.3c-.5,4.3-.9,7.8-1.3,11.2l-16.4,4.9.5,2.2q3.75-.45,7.5-1.2a76.79,76.79,0,0,0,7.9-3.2v21.6c-16.9,0-33.8-.9-50.7,0v2.8h50.2v8.2h-12.2c-.1.6-.1,1.2-.2,1.8,1.9.3,3.8.8,5.7,1s3.9.3,6.4.5c0,3,.2,5.8,0,8.5-.4,3.8-3.6,2.3-5.8,2.8a2.2,2.2,0,0,1-.8.1c-2.4,0-5.4-2-7.6,2.9l7.8-.4,5.8-.3c1.2,4.7-.6,6.5-5.3,5.7a55.83,55.83,0,0,0-5.9-.9,17.73,17.73,0,0,0-4,.8,13.4,13.4,0,0,0,.1,2l14.6,1.3c.7,7.6.6,7.7-8.1,8.8-2,.2-4-.1-6,.2-1.4.2-2.7,1.2-4,1.9l.8,2.1,16-2.7a3.18,3.18,0,0,1,.3.9c-1.6,12.8.3,11.3-12.2,9.1-11.1-1.9-22.1-4.2-33.1-6.2a39,39,0,0,0-5.9-.1l-.4,1.9a23.22,23.22,0,0,0,3.9,1.8c13.9,2.4,27.7,4.9,41.6,6.9,4.5.6,3.7,3.3,3.5,6.1-.2,3.6-2.2,3.1-4.9,2.7a93.93,93.93,0,0,0-11.9-1c-1.1,0-2.2.9-3.3,1.3.1.5.2,1.1.3,1.6,4.8.4,9.7.7,14.4,1.3a17.51,17.51,0,0,1,4.3,1.7c-1.3,2.5,1.3,6.8-3.1,7.8-3.2.8-6.5,1.1-9.7,1.6-1.5.2-2.9.6-4.3.9.1.8.2,1.5.3,2.2l15.4-1.6c-.7,3.3-1.4,6.8-2.1,9.9-6.2.6-11.9-.4-17.3,1,.1.7.1,1.4.2,2.1h15.4c-.6,7.8-2.3,9.6-9.3,9.7a27.85,27.85,0,0,0-5,.1c-1,.2-1.9,1.2-2.9,1.8,1,.5,2,1.4,3.1,1.5a58.28,58.28,0,0,0,5.9-.3c1.8-.1,3.6-.3,6.4-.5,1,5.3,2.1,10.5,3.2,16.1-13.7.8-26.4.3-38.9-2.6-.8-.2-1.7-.8-2.4-.6a30.21,30.21,0,0,0-3.6,1.8c.9.7,1.8,2,2.8,2.1,7.6.9,15.2,1.8,22.8,2.4,5.1.4,10.3.1,15.5.1,2.6,0,4.6.5,4.1,4a13.53,13.53,0,0,0,.3,4.9c1.2,6.6.8,9-8.1,6.4-3.3-.9-6.7-1.9-10.1-2.5-1.1-.2-2.3.7-3.5,1.1l.2,1.5c5.4,1.1,10.8,2.8,16.2,3.1s5.9,3.2,5.5,7.2c-.2,2-.6,3.9-1,6.9h-19.5v1.7c6.3,3.4,12.8.6,19.4-.1V2196c-3.4,0-6.3.1-9.2,0-2.4-.1-4.8-.4-7.2-.6-.1.9-.1,1.9-.2,2.8l7.2.5,9.3.6c.1.9.2,2,.3,3.1.5,3.9-.3,5.9-3.6,5.6a7.85,7.85,0,0,1-2.2-.5c-2.1-.6-4.6-.1-6.9-.1a24.37,24.37,0,0,0-.1,2.7l9.1.8,3.1.3v21c-14.1-1.1-27.7-2.2-41.2-3.1-.4,0-.8,1.1-1.9,2.7,6.8.7,12.7,1.5,18.7,2s12.2.7,18.3,1c5.7.3,6.5,1.3,6,6.7a73.6,73.6,0,0,0-.1,10.5c.2,3.5-1.5,4.8-4.6,4.9-3.5.2-7,.1-10.5.4-1.1.1-2,1.1-3.1,1.8,1,.6,1.9,1.7,2.9,1.6,3.5-.2,6.9-.9,10.4-1,1.5,0,4.2.8,4.4,1.7.6,2.6,1.3,5.9-3,6.5a66.79,66.79,0,0,0-7.8,1.3c-1.5.4-2.7,1.6-4.1,2.5a9.14,9.14,0,0,0,.7,1.4l14-3a64.72,64.72,0,0,1,.3,8.8c-.1.9-2,2-3.2,2.2a3.4,3.4,0,0,1-1,.1,40.08,40.08,0,0,0-4.9-.1c-1.3.2-2.5,1.2-3.8,1.9l.7,1.7c2.7-.3,5.4-.5,8.1-.8,2.9-.4,4.4.6,4.5,3.7.2,6.9.4,13.9,1,20.8.3,4-1.3,6-5.1,6.3-11.9,1.1-23.7,2.1-35.6,3.2-9.1.8-18.2,1-27.3,2.3-9.7,1.4-19.2-.2-28.7-1.5a59.19,59.19,0,0,0-8.4-.5c-3.1.1-4.1-1.3-4.1-4.2.1-20.3.3-40.5.3-60.8,0-16.2-.2-32.4-.4-48.6-.2-18-.3-35.9-1-53.8-.6-14.4-2-28.7-3.1-43-1.2-16.3-3.1-32.5-3.6-48.8-.8-25.1-1.6-50.2-.7-75.3.8-21.2,4.4-42.3,6.2-63.4,1.5-18.3,2.1-36.7,3.1-55.1.1-2.3,0-4.6,0-7.8,25,8.8,50,6.5,74.8,6.1,15.8-.2,31.6-2,47.4-3.1a13.52,13.52,0,0,1,2.9.5c.3,2.8.7,5.7,1,8.7-5.8,2.6-12.1-2.3-17.5,1v1.6c3.8.5,7.7,1.4,11.5,1.4,4.8,0,6,2.3,5.7,6.5-.1,2.5,0,4.9,0,8h-19.4l-.4,2a91.25,91.25,0,0,0,9.1,1.7c3.4.3,6.9.1,10.1.1C-1624.5,1892.9-1624.2,1893.2-1624.2,1893.5Z" transform="translate(1982.4 -928.3)"/><path class="cls-8" d="M-1624.9,1918.1c.5,4.1-.9,5.3-5.1,4.3l-8.7-2.1.5-2,12.9-3.1A25.35,25.35,0,0,0-1624.9,1918.1Z" transform="translate(1982.4 -928.3)"/><path d="M-1629.5,1984.8l-19.2,3.3-.3-1.8c6-3.4,12.6-4.1,19.7-3.7Z" transform="translate(1982.4 -928.3)"/><path d="M-1638.7,2046.2l.1,2.5-7.8.4C-1644.1,2044.2-1641.1,2046.2-1638.7,2046.2Z" transform="translate(1982.4 -928.3)"/><path d="M-1642.2,2183.8v1.6c-6.6.7-13.1,3.5-19.4.1v-1.7Z" transform="translate(1982.4 -928.3)"/><path d="M-1645.6,2208.3l-.1,2.9-9.1-.8c0-.9.1-1.8.1-2.7,2.3,0,4.8-.5,6.9.1A17.42,17.42,0,0,0-1645.6,2208.3Z" transform="translate(1982.4 -928.3)"/><path d="M-1647.3,2284.1c-2.7.3-5.4.6-8.1.8l-.7-1.7c1.2-.7,2.5-1.7,3.8-1.9,1.6-.2,3.3.2,4.9.1Z" transform="translate(1982.4 -928.3)"/><path d="M-1651.5,2196.2l-.2,2.7-7.2-.5c.1-.9.1-1.9.2-2.8A58.26,58.26,0,0,0-1651.5,2196.2Z" transform="translate(1982.4 -928.3)"/><path d="M-1631.9,2023.2h-50.2v-2.8c16.9-1,33.8,0,50.7,0v-21.6a76.79,76.79,0,0,1-7.9,3.2,48.76,48.76,0,0,1-7.5,1.2l-.5-2.2,16.4-4.9c.4-3.4.8-6.9,1.3-11.2l.2-2.2c.7-4.9,1.5-9.8,2.2-14.7a4.15,4.15,0,0,0-.3-1.6c-4.1.2-8.2.7-12.3.5-2.3-.1-4.6-1.2-6.9-1.8,2.4-.6,4.7-1.5,7.1-1.6,14.8-.4,14.8-.4,13.5-14.9a6.12,6.12,0,0,0-.5-1.2l-19.9,1.1-.5-1.4c1-.6,1.9-1.6,2.9-1.7,5.1-.5,10.3-.7,15.4-.7,2.8.1,3.6-.7,3.6-3.2,0-4,.1-8-.2-12-.1-1.1-1-2.8-1.8-3-6.2-1.7-12.5-3.1-18.8-4.5-7.6-1.8-15.2-3.6-22.9-5.3V1915c2-.1,4.1-.7,5.9-.2,8.1,1.8,16.1,3.5,24.2,5.5l8.7,2.1c4.2,1.1,5.6-.2,5.1-4.3-.1-.9-.3-1.9-.4-2.9l-12.9,3.1-.7-2.4c3.7-1.3,7.4-2.7,11.2-3.9s3.9-1.5,2.2-5.3c-5.8.1-11.5,1.6-17.1-1.4a17.19,17.19,0,0,1,7.8-1.4c11,.8,11.3.5,10.7-10.3,0-.3-.3-.5-.7-1.3-3.2,0-6.7.2-10.1-.1a91.25,91.25,0,0,1-9.1-1.7l.4-2h19.4c0-3.1-.1-5.6,0-8,.3-4.1-.9-6.5-5.7-6.5-3.8,0-7.7-.9-11.5-1.4V1871c5.4-3.3,11.7,1.6,17.5-1-.3-3-.7-5.9-1-8.7a16,16,0,0,0-2.9-.5c-15.8,1.1-31.6,2.9-47.4,3.1-24.8.3-49.8,2.7-74.8-6.1,0,3.2.1,5.5,0,7.8-1,18.4-1.6,36.8-3.1,55.1-1.7,21.2-5.4,42.2-6.2,63.4-.9,25.1-.1,50.2.7,75.3.5,16.3,2.3,32.5,3.6,48.8,1.1,14.3,2.5,28.7,3.1,43,.7,17.9.8,35.9,1,53.8.2,16.2.4,32.4.4,48.6,0,20.3-.2,40.5-.3,60.8,0,2.8,1,4.3,4.1,4.2a47.38,47.38,0,0,1,8.4.5c9.5,1.3,19,2.9,28.7,1.5,9-1.2,18.2-1.5,27.3-2.3,11.9-1,23.7-2.1,35.6-3.2,3.8-.4,5.4-2.4,5.1-6.3-.5-6.9-.8-13.9-1-20.8-.1-3.1-1.6-4.1-4.5-3.7l-.1-2.7a3.4,3.4,0,0,0,1-.1c1.2-.2,3.1-1.4,3.2-2.2a64.72,64.72,0,0,0-.3-8.8l-14,3a9.14,9.14,0,0,0-.7-1.4c1.4-.8,2.6-2.1,4.1-2.5a52.9,52.9,0,0,1,7.8-1.3c4.3-.7,3.5-4,3-6.5-.2-.9-2.9-1.8-4.4-1.7-3.5.1-6.9.8-10.4,1-.9,0-1.9-1.1-2.9-1.6,1-.6,2-1.7,3.1-1.8,3.5-.3,7-.2,10.5-.4,3.1-.1,4.8-1.5,4.6-4.9a73.6,73.6,0,0,1,.1-10.5c.5-5.5-.3-6.5-6-6.7-6.1-.3-12.2-.5-18.3-1s-11.9-1.2-18.7-2c1.1-1.5,1.5-2.7,1.9-2.7,13.6,1,27.1,2,41.2,3.1v-21l-3.1-.3.1-2.9c3.2.3,4.1-1.7,3.6-5.6-.2-1.1-.2-2.2-.3-3.1l-9.3-.6.2-2.7c2.9.1,5.9,0,9.2,0V2184h0c.5-3,.8-4.9,1-6.9.4-4-.1-6.9-5.5-7.2s-10.8-2-16.2-3.1l-.2-1.5c1.2-.4,2.4-1.3,3.5-1.1a87.6,87.6,0,0,1,10.1,2.5c8.9,2.6,9.3.2,8.1-6.4a13.53,13.53,0,0,1-.3-4.9c.5-3.5-1.4-4-4.1-4-5.1,0-10.3.2-15.5-.1-7.6-.5-15.2-1.4-22.8-2.4-1-.1-1.9-1.4-2.8-2.1a20.17,20.17,0,0,1,3.6-1.8c.7-.2,1.6.4,2.4.6,12.5,3,25.2,3.4,38.9,2.6-1.1-5.6-2.1-10.8-3.2-16.1-2.8.2-4.6.4-6.4.5a29.2,29.2,0,0,1-5.9.3c-1.1-.1-2.1-1-3.1-1.5,1-.6,1.8-1.6,2.9-1.8a27.85,27.85,0,0,1,5-.1c7-.2,8.7-1.9,9.3-9.7h-15.3a14.92,14.92,0,0,0-.2-2.1c5.4-1.4,11.2-.4,17.3-1,.7-3.1,1.4-6.5,2.1-9.9l-15.4,1.6c-.1-.8-.2-1.5-.3-2.2,1.5-.3,2.9-.7,4.3-.9,3.2-.6,6.5-.8,9.7-1.6,4.4-1.1,1.8-5.3,3.1-7.8-1.4-.6-2.8-1.6-4.3-1.7-4.8-.6-9.6-.9-14.4-1.3-.1-.5-.2-1.1-.3-1.6,1.1-.5,2.2-1.4,3.3-1.3a95.5,95.5,0,0,1,11.9,1c2.6.4,4.7.9,4.9-2.7.2-2.8.9-5.4-3.5-6.1-13.9-2-27.8-4.5-41.6-6.9a13.84,13.84,0,0,1-3.9-1.8l.4-1.9a29,29,0,0,1,5.9.1c11,2,22,4.3,33.1,6.2,12.6,2.1,10.6,3.7,12.2-9.1a3.18,3.18,0,0,0-.3-.9l-16,2.7-.8-2.1c1.3-.6,2.6-1.6,4-1.9,2-.3,4,.1,6-.2,8.8-1.1,8.8-1.3,8.1-8.8l-14.6-1.3a13.4,13.4,0,0,0-.1-2,17.73,17.73,0,0,1,4-.8c2,.2,3.9.5,5.9.9,4.7.8,6.5-1.1,5.3-5.7l-5.8.3-.1-2.5a2.2,2.2,0,0,0,.8-.1c2.2-.6,5.4,1,5.8-2.8a80.28,80.28,0,0,0,0-8.5c-2.4-.2-4.4-.2-6.4-.5s-3.8-.7-5.7-1a11,11,0,0,1,.2-1.8h12.2v-8.6Zm21.8-138.7h1.3c-.8,25.5-1.3,51.1-2.6,76.6-.5,10.7-2.9,21.3-3.6,32.1-1.1,15.4-1.2,30.8-2.2,46.2-.8,12.5-2,25-3.3,37.5-1.3,11.6-3,23.2-4.6,34.8a39,39,0,0,1-1.8,6.7c-3.1,7.8-1.4,15.6-.2,23.4,2.2,14.8,1.6,29.6,1.2,44.5q-1,35.1-1.3,70.2c-.2,19.7.1,39.5.3,59.2,0,6.5-3.7,10.7-10.3,11.4-15.6,1.6-31.2,3.6-46.9,4.6-16,1-32,1.2-48.1,1.3-8.3.1-16.5-.8-24.8-.8-4.8,0-7.8-1.8-8.1-6.6-.5-6.6-.9-13.2-.8-19.8.3-17.3,1-34.6,1.2-51.9.2-14.1.1-28.2-.2-42.3-.2-7-1.3-14-1.5-21-.2-7.6.6-15.3.2-22.9-1.2-20.2-2.8-40.5-4.2-60.7l-1.2-17.4c-1-13.6-2.4-27.1-2.9-40.7-.5-14.9-1-29.9-.1-44.8,1.6-25.6,3.9-51.1,6.6-76.6,2.2-21.3,5-42.5,4.8-63.9,0-5.3-1.4-11.8,4.1-15.6,3-2,7.6-4.3,10.3-3.3,12.4,4.7,25.2,5.6,38.2,5.5,15.8-.1,31.7.4,47.5-.4,14.7-.7,29.3-2.6,44-4,4.4-.4,9,2.8,9.1,7.2C-1609.9,1863.7-1610.1,1874.1-1610.1,1884.5Z" transform="translate(1982.4 -928.3)"/></svg>