<svg id="future2_画像" data-name="future2 画像" xmlns="http://www.w3.org/2000/svg" width="2555.2" height="2555.2" viewBox="0 0 2555.2 2555.2"><defs><style>.cls-1{fill:#fff;}.cls-2{fill:#ffd6dd;}.cls-3{fill:#00870a;}.cls-4{fill:#fc9;}</style></defs><circle class="cls-1" cx="1277.6" cy="1277.6" r="1277.6"/><path class="cls-2" d="M-2197.3,1892.3c4.2,10.9,4.4,22.1,2.6,33.5-.2,1.3,0,2.7-.2,4a38.09,38.09,0,0,1-1.3,4.5l-65.2-60c8.6-2.9,15.4-6.3,23.3-5.7,14.1,1.1,25.2,9.1,36.6,16.3C-2199.4,1886.2-2198.3,1889.7-2197.3,1892.3Z" transform="translate(3399 -734.5)"/><path d="M-2293.8,1867.9c2,3.4,3.8,7,6.2,11.7l-30.3,2.6v-1.1c7-4.7,14.1-9.4,21.2-13.9A3.1,3.1,0,0,1-2293.8,1867.9Z" transform="translate(3399 -734.5)"/><path class="cls-3" d="M-1329.2,1599c.1,1.3-1,3.6-2.1,3.9-12.3,4.1-24.5,8.6-37.1,11.5s-25.5,4.1-38.2,6.3c-7.8,1.4-15.5,3.5-23.3,5.1-8,1.6-16.2,2.8-24.2,4.5-10.1,2.2-20.1,5-30.3,7.2-11.4,2.5-22.9,4.6-34.2,7.1-15.1,3.3-30.1,6.5-45,10.5-11.5,3.1-22.6,7.7-34.1,11-14.1,4.1-28.6,7.1-42.7,11.6-18.6,5.9-37.7,10.3-56.4,15.9-11.6,3.5-23,7.9-34.5,11.5s-23.2,6.8-34.8,10.4c-2.9.9-5.4,3.1-8.2,4-.9.3-1.9.4-3,.7-7.9,2.4-16.1,3.9-24,6.3-11.5,3.4-22.9,7.2-34.3,10.9-8.5,2.8-16.9,6-25.4,8.6-10.4,3.1-21,5.5-31.5,8.3-12,3.3-23.9,6.5-35.7,10.3-13.8,4.4-27.4,9.2-41.1,14-14.1,5-28,10.5-42.2,15.4-6.3,2.2-13.3,2.9-19.5,5.4-8.6,3.5-16.6,8.4-25.1,12.3-3.4,1.6-7.4,2-11,3.1-21.1,6.3-42.1,12.8-63.2,19-8.4,2.5-17.3,3.4-25.3,6.7-7.2,3-12.1-1.5-16.9-4a64.52,64.52,0,0,0-37.3-7.5,116.12,116.12,0,0,1-11.8.1l-.1-.7c6.6-2.7,13.1-5.5,19.8-8.1,11.8-4.7,23.6-9.4,35.5-13.8,10.5-3.9,21.2-7.3,31.6-11.3,11.4-4.4,22.6-9.6,34-14,13.2-5.2,26.6-10,39.9-14.9,12.6-4.6,25.1-9.1,37.8-13.4,8.5-2.8,17.3-4.9,25.9-7.6,15.7-4.8,31.5-9.6,47.1-14.8,11-3.6,21.8-7.5,32.6-11.6,5.2-2,10.2-4.8,15.4-6.9,2.2-.9,4.9-.7,7.2-1.5,14.6-5.1,29.1-10.2,43.6-15.5,16.5-6,32.8-12.7,49.4-18.2,21.1-7,42.6-13,63.8-19.5,16.9-5.2,33.9-10.6,50.7-16h0c.4.2.5.2.4-.1l15.4-4.9c.4-.1.5-1,.9-1.5s1.3-1.5,1.6-1.4c7,3.4,12.8-1.5,19-3,10.1-2.5,20.3-5.2,29.8-9.4,7.2-3.2,14.8-3.7,22-6.1,7.9-2.7,16.1-4.3,24.1-6.6s15.9-4.9,24-7.1c15.3-4.1,30.6-8,46-11.7,6.7-1.6,13.6-2.1,20.4-3.4,12-2.3,24-5,36-7.4,8-1.6,16-2.7,24-4.4,6-1.3,11.9-3.4,17.9-4.9,16.5-4.4,33.1-8.4,50.4-9.1,3.8-.2,7.6-1.8,11.4-2.5,3.5-.7,5.6.1,7.2,4.3A163.85,163.85,0,0,1-1329.2,1599Z" transform="translate(3399 -734.5)"/><path d="M-2029.1,1972.1a.37.37,0,0,1,.2-.5h.7a53.79,53.79,0,0,1,5.2,6.4c2.2,3.4,4,7,6,10.5,3.5,6,5.9,13.3,10.8,17.7,7.9,7,17.3,12.4,26.5,17.6,7,3.9,14.6,6.8,22.1,9.6a160.93,160.93,0,0,0,44.9,9.7c4.1.3,8.7-2.2,12.7-4.3,6.7-3.5,8-10.4,9.2-17.1.6-3.4,1.8-6.7,1.7-10.1-.1-3.6-1.7-7.2-2-10.8-.6-9.2-.4-18.5-1.3-27.6-.9-9.6-2.2-19.1-3.9-28.6a46.45,46.45,0,0,0-4.3-13.2,305.13,305.13,0,0,0-16.3-28.3,116.85,116.85,0,0,0-17.2-20.6c-8.3-7.6-17.9-13.8-26.7-20.8-5.7-4.5-10.7-9.9-16.7-14.1-8.7-6.2-17.9-11.6-26.8-17.3-7.5-4.8-15.1-9.7-22.6-14.6-3.5-2.3-8.2-.5-8.6,1.7-1.2,6.5-6.4,6.1-10.4,7.2-17.2,4.6-34.6,8.5-51.8,13.2-11.8,3.2-23.4,7.2-35.1,11-2.7.9-5.3,2.1-8.5,3.4,9.4,5.7,18.2,10.9,26.9,16.5,9.4,6,18.2,12.9,27.9,18.4,5.8,3.3,8.3,10.4,15.3,12,.4.1.8.6,1.1,1,3.5,4.4,7.4,8.6,10.3,13.4,6.6,10.7,12.6,21.6,18.9,32.4,3.1,5.4,6.5,10.6,9.7,15.9,1,1.7,1.9,3.5,2.8,5.2l-2.5-.4c.4,1.5.7,2.8,1.1,4l-.1,1.2Zm-96,168.8c-.9-3.4-3-6.6-3.8-10-1.8-7.7-5.3-14.9-6.6-22.7-1.5-8.8-2.3-17.6-3.4-26.5-1.7-13.4-2.3-27.1-5.3-40.2a422.93,422.93,0,0,0-15.1-50.4c-4.9-13.2-15.5-22.5-27-30.6a289.25,289.25,0,0,1-24.9-19.2c-12.6-11-24.8-22.4-37-33.8-7-6.6-13.6-13.5-20.3-20.4-1.1-1.2-1.8-2.8-3.1-3.8-1.6,7.3-3.9,8.5-10.9,8.7-9,.2-18,1.6-27,2.1-11.5.6-23.1.9-34.6,1.2a6.48,6.48,0,0,1-6.9-6v-.4c-.1-1.8,2.8-4.3,4.9-5.6,11.6-7.1,22.9-14.8,35.1-20.7,9.6-4.6,13.7-14.9,23-19.6,7.1-3.6,13.6-8.3,21-13-4.3-.7-8-.7-11.3-1.8-5.5-2-11.5-3.8-15.6-7.5-2.9-2.6-4.9-8.4-4.2-12.3a36.6,36.6,0,0,1,7.1-15.8c9.3-12.1,22.8-18.7,36.1-25,16.2-7.8,33.3-13.8,49.6-21.5,12-5.7,23.3-12.8,31.6-23.9,6.7-9.1,14.4-17.4,21.2-26.5,6.5-8.8,12.3-18.1,18.5-27.1,10.7-15.6,22.2-30.8,32.1-46.9s18.3-33.1,27.1-49.9c8.4-16.1,19.1-30.1,35.3-38.8,7.4-4,16-4.6,24.1-3.1a337.2,337.2,0,0,1,35.6,9c5.5,1.7,10.6,4.8,15.6,7.8,11.4,6.9,23.5,11.8,36.1,16,6.1,2.1,12,5.1,17.9,7.7,5.7,2.4,11.5,4.5,17,7.2,8.3,4.1,16.4,8.5,24.6,12.8,4.2-8.4,11.9-11.7,20.2-13.9,6.5-1.8,13.2-3.8,19.8-3.6,8.8.2,17.8,1.1,25.9,5.7a17.79,17.79,0,0,0,6,1.6c17,2.5,31.5,11.4,46.9,18.2,11.2,5,22.3,10.2,33.5,15.4,1.1.5,11.1,9.4,19.1,17l-7.9,2.3c-14.8-6.9-33.3-15.5-39.6-18.4-4.5-2.1-9.3-3.4-13.9-5.4-2.3-1.1-4.1-3.2-6.4-4.5-1.2-.7-2.8-.4-4.1-.8-8.8-3.2-17.6-6.6-26.4-9.9-6-2.2-12-4.7-18.2-6.3a160.73,160.73,0,0,0-19.4-3.4c-1.7-.2-3.8.8-5.5,1.5-6.8,2.9-13.6,5.9-21.3,9.2,27,20.7,56.4,36.5,81.9,60.6,7.1-2,16.3-4.3,25.4-7.2,9.4-2.9,18.5-6.7,27.9-9.5,6.4-2,12.9-3.9,19.4-5.8,7.8,3.7,14.6,6.9,17.9,8.5q-25.35,8.1-50.7,16c-21.2,6.6-42.7,12.6-63.8,19.5-16.7,5.5-32.9,12.2-49.4,18.2-14.5,5.3-29,10.4-43.6,15.5-2.3.8-4.9.6-7.2,1.5-5.2,2.1-10.1,5-15.4,6.9-10.8,4.1-21.6,8-32.6,11.6-15.6,5.1-31.4,9.9-47.1,14.8-8.6,2.6-17.3,4.8-25.9,7.6-12.7,4.2-25.3,8.8-37.8,13.3-13.3,4.8-26.7,9.7-39.9,14.9-11.4,4.5-22.6,9.6-34,14-10.4,4.1-21.2,7.4-31.6,11.3-11.9,4.5-23.7,9.2-35.5,13.8-6.6,2.6-13.2,5.4-19.8,8.1l.1.7a116.12,116.12,0,0,0,11.8-.1,65.32,65.32,0,0,1,37.3,7.5c4.7,2.5,9.6,7,16.9,4,8-3.3,16.9-4.2,25.3-6.7,21.1-6.2,42.1-12.7,63.2-19,3.7-1.1,7.6-1.5,11-3.1,8.5-3.9,16.5-8.7,25.1-12.3,6.2-2.5,13.1-3.2,19.5-5.4,14.1-4.9,28.1-10.4,42.2-15.4,13.6-4.9,27.3-9.7,41.1-14.1,11.8-3.8,23.8-7,35.7-10.3,10.5-2.9,21.1-5.3,31.5-8.3,8.6-2.5,16.9-5.8,25.4-8.6,11.4-3.7,22.8-7.5,34.3-10.9,7.9-2.3,16.1-3.9,24-6.3,1-.3,2-.5,3-.7,2.9-.9,5.4-3.1,8.2-4,11.6-3.6,23.3-6.8,34.8-10.4s22.9-8.1,34.5-11.5c18.7-5.6,37.8-10,56.4-15.9,14-4.5,28.5-7.4,42.7-11.6,11.5-3.3,22.6-7.9,34.1-11,14.9-4,30-7.2,45-10.5,11.4-2.5,22.9-4.6,34.2-7.1,10.1-2.2,20.1-5,30.3-7.2,8-1.7,16.1-2.9,24.2-4.5,7.8-1.6,15.5-3.7,23.3-5.1,12.7-2.3,25.7-3.4,38.2-6.3s24.8-7.5,37.1-11.5c1-.3,2.2-2.6,2.1-3.9-1.3-12.5-3.5-24.7-8-36.6-1.6-4.2-3.7-4.9-7.2-4.3-3.8.7-7.6,2.3-11.4,2.5-17.2.7-33.8,4.7-50.4,9.1-6,1.6-11.8,3.6-17.9,5-7.9,1.7-16,2.8-24,4.4-12,2.4-24,5.1-36,7.4-6.8,1.3-13.7,1.8-20.4,3.4-15.4,3.6-30.7,7.6-46,11.7-8.1,2.1-16,4.8-24,7.1s-16.2,4-24.1,6.6c-7.2,2.4-14.8,2.9-22,6.1-9.5,4.2-19.7,6.9-29.8,9.4-6.2,1.5-12,6.4-19,3-.3-.1-1.1.8-1.6,1.4s-.5,1.3-.9,1.5l-15.4,4.9c-.5-1.1-5.1-5.6-10.5-10.7l26.4-7.8c15.3-4.6,30.5-9.8,45.9-14.2,8.9-2.6,18.2-3.9,27.1-6.2,7.8-2,15.4-4.8,23.2-7,12.3-3.5,24.6-7.2,37.1-10,18.3-4.3,36.8-7.9,55.3-11.9,15-3.2,30-6.6,45-9.8,11-2.4,21.9-4.7,32.9-7.2,8.9-2,17.6-4.6,26.6-6.3,11.8-2.2,23.6-3.7,35.5-5.4,3.2-.4,8.9,5.3,10.8,9.2,6.8,14.2,8.8,29.8,12.9,44.8,2.1,7.5-3.1,14.5-10.5,16-4,.9-7.7,3.5-11.7,4.7-8.2,2.5-16.5,4.9-24.9,6.8-8.7,2-17.6,3.5-26.4,5-15.9,2.8-31.8,5.2-47.6,8.2-10.5,2-20.8,4.9-31.1,7.2-23,5.2-46,10-68.9,15.6-16.8,4.2-33.3,9.4-50,14.3-6.8,2-13.6,4.2-20.4,6.2-1.2.4-2.3.8-3.6,1.2,2.2,5.8,5,11.1,6.2,16.7a256.92,256.92,0,0,1,4.3,30.3c1.4,17.3,2.7,34.6,2.9,51.9.3,18.6-.7,37.3-.8,55.9-.1,11.5.6,23.1.9,34.6.4,15.5.3,31,1.2,46.5.5,8.9,2.8,17.8,3.7,26.7,1.1,10.2,1.6,20.5,2.5,30.7.3,3.9,1.2,7.7,1.6,11.6,1.1,10.8,2,21.5,3.2,32.3.4,3.4,1.8,6.6,2.2,9.9,1.3,9.2,2.3,18.5,3.7,27.7.7,4.8,2.1,9.4,3.1,14.2,1.9,9.1,3.4,18.3,5.8,27.3,3.5,12.9,7.9,25.5,11.5,38.4,4.3,15.4,12.1,29,20.4,42.4a201.5,201.5,0,0,0,12.1,17c9.5,12.3,18.8,24.7,29,36.4,9.1,10.5,19,20.4,29.1,30,18,17,36.6,33.3,54.7,50.2,21.6,20.1,45.5,37.3,70.1,53.4,8.5,5.6,18.5,8.8,27.5,13.8,9.4,5.2,18.4,11.2,27.8,16.7,4.9,2.9,10.7,4.6,15,8.2,8.1,6.9,18.8,7.7,27.4,13.1a80.92,80.92,0,0,0,8.4,4v13c-10.2-4.6-20.6-9.1-30.7-14-6.4-3.1-12.7-6.6-18.8-10.2-12.2-7.2-24.1-14.7-36.3-21.6-2.4-1.3-5.9-.5-8.7-1.4a35.1,35.1,0,0,1-9.2-4.3c-10.7-7.3-21.4-14.6-31.6-22.4-16-12.3-32.1-24.5-47.4-37.6-17.5-14.9-34.4-30.5-51.1-46.4-14.1-13.7-28.4-27.4-41.2-42.3-11.8-13.7-21.8-29-32.3-43.8a169,169,0,0,1-13.6-21.8c-4-7.9-6.8-16.5-10-24.8-2.3-6-4.9-11.9-6.4-18-3.8-15.5-7-31.1-10.4-46.6-1.5-6.8-2.9-13.6-4.1-20.5-1.1-6.4-1.9-13-2.9-19.4-.7-4.8-1.5-9.6-2.2-14.4-1.4-9.5-3-18.9-4.2-28.4-1.6-12.7-2.9-25.3-4.3-38-1.8-16.9-4-33.7-5.1-50.7-1-15-.6-30-1-45-.2-7.5-1.2-14.9-1-22.4.2-10,1.4-19.9,1.7-29.8.3-9,.2-18.1.1-27.1-.1-8.6-.4-17.3-1-25.9-.7-8.8-2-17.6-2.8-26.4-.4-4.6.2-9.3-.3-13.9-1.3-10.3-3.2-20.5-8.5-29.6a5.68,5.68,0,0,0-5-2.1c-17.7,4.8-35.3,9.6-52.9,14.8-16.4,4.9-32.7,10.5-49.1,15.6-18.5,5.8-37.2,11.2-55.7,17-21.5,6.8-42.8,14.2-64.3,20.8-18.1,5.5-36.6,9.8-54.8,15.3-18,5.4-35.7,11.5-53.5,17.5-14.8,5-29.4,10.3-44.1,15.5a88.08,88.08,0,0,0-8.4,4,28.48,28.48,0,0,0,2.6,2.3c10.2,6.6,20.6,12.7,30.4,19.8,9.5,6.9,18.3,15,27.5,22.3a214,214,0,0,0,17.5,12.5c9.8,6.2,17.5,14.7,23.8,24.1,6.6,9.9,11,21.3,17.3,31.4,5.7,9.2,8,19.1,9.4,29.4,1.3,9.5,2.3,19.1,2.9,28.7.4,6-.1,12.1,0,18.1.1,4.2.9,8.4.9,12.6,0,2-1.3,4-1.5,6s.6,4.2.5,6.4a59.69,59.69,0,0,1-.9,6.1l-2.1-2.6c.3,8.6-4,14.6-8.8,20.3a27.68,27.68,0,0,1-18.4,9.9,41.61,41.61,0,0,1-12.7-.7c-9.3-1.7-18.6-3.7-27.8-5.9-13.1-3.2-25.7-8-37.2-15.3-6.1-3.9-12.6-7.1-18.7-11a48.71,48.71,0,0,1-20-24.3c-5.8-15.4-14.8-29-23.9-42.6-4.4-6.4-7.8-13.5-11.5-20.4-7.4-13.7-16.4-26.2-29.4-35-17-11.6-34.1-23.3-51.9-33.7-14.3-8.4-29.7-15.1-44.8-22a31.36,31.36,0,0,0-13.9-2.3c-10.7.6-21.3,2-31.9,3.3a205.27,205.27,0,0,0-23.3,3.7c-6.7,1.6-9.6,6-9.3,12,7.7-2.3,15.3-5.4,23.2-6.6,5.3-.8,11.2.4,16.5,2,11.8,3.6,22.3,9.8,32.3,17,7.8,5.6,10.6,14,12.7,22.6,3.5,14.1,2.4,28.4-1.1,42.4-1,3.8.3,5.5,2.8,7.3,10.4,7.6,20.5,15.7,27.3,26.7,4.4,7.2,7.4,15.2,11,22.9a100.34,100.34,0,0,1,5,11.7,105.6,105.6,0,0,1,4,16.6c2.6,17.4,4.5,34.8,7.2,52.2,2.2,14.2,5,28.2,8,42.2a154.41,154.41,0,0,0,6.2,23.1c1.9,4.8,5.8,8.8,8.8,13.2,7,10.2,17.1,16.9,26.3,24.8,10,8.6,22.3,12.9,32.9,20,8.9,5.9,19.3,6.6,28.2,11.5a92.36,92.36,0,0,0,14.4,6.3c5.7,1.9,11.6,3.1,17.3,4.8,4.3,1.2,8.5,2.4,12.7,3.9,9.3,3.2,18.7,6.4,27.9,9.8,14.1,5.3,28.1,10.7,42.1,16.1,14.9,5.8,29.7,11.5,44.6,17.4,19.6,7.8,39,16.3,58.8,23.4,19.1,6.8,33,19.5,44,35.5s20.8,32.6,30.2,49.5a339.52,339.52,0,0,1,20,41.7,517.11,517.11,0,0,0,28.5,59.6c6.1,11.3,13.5,21.8,20.1,32.8,5.3,8.9,10,18,15.4,26.8,2.8,4.5,6.9,8.3,10,12.7,6.5,9.4,12.9,18.8,18.9,28.5,8.9,14.4,17.7,28.9,26,43.7,1.9,3.3,3.8,7.8.6,12a2.38,2.38,0,0,0-.3,2.3c3,5.6,6,11.2,9.3,16.5.8,1.2,3,2,4.6,2.1,15.4.5,30.8.6,46.3,1.1,6.3.2,12.6,1.6,18.8,1.6,10.9,0,22.8,2,32.3-1.8,10-4,19.8-3.7,29.6-4.4,6.5-.5,10.7-2.5,14.7-6.8,7.4-8.2,14.6-16.6,22.4-24.3,14-14,28.6-27.4,42.7-41.2,8.3-8.2,16.2-16.8,24.5-25,7.3-7.3,15-14.1,22.3-21.4,7.7-7.7,15.6-15.4,22.7-23.7,7.9-9.2,15.3-18.9,22.7-28.6,8.6-11.3,17-22.7,25.3-34.1,2.1-2.9,3.6-6.1,5.4-9.1v18a.75.75,0,0,0-.5.1c-8.3,11.3-16.5,22.7-25.1,33.8-7.2,9.2-14.6,18.2-22.4,26.8-7.4,8.2-15.4,16-23.3,23.8-6.4,6.4-13.3,12.3-19.6,18.8-8.9,9-16.9,19.2-26.6,27.3a354.46,354.46,0,0,0-36,34.4c-9.6,10.5-19.5,20.8-29.2,31.2-1.5,1.6-2.9,3.3-4.8,5.4a25.19,25.19,0,0,0,2.9.3c14.3-.7,28.6-1.3,42.9-2,5.9-.3,11.9-.6,17.8-1l58.3-3.9c5.8-.4,11.6-.6,17.4-1.1,16.1-1.3,32.2-2.6,48.3-4v18h-342.8l-7.5-13.8c-3.7,1.5-6,.4-7.6-3.4-4.2-9.9-8.3-19.8-13.2-29.3-6.3-12.3-13.4-24.2-20.1-36.4-2.5-4.6-4.4-9.4-7.1-13.9-1.8-3.1-4.5-5.8-6.6-8.8-.9-1.2-2-3.8-1.6-4.2,3.3-3.1.5-4.9-.9-7.4-9.3-16.2-18.3-32.6-27.7-48.8-4.3-7.4-8.9-14.7-13.7-21.8-9-13.4-14.9-28.4-20.9-43.3-7.7-19-15.6-37.8-26.8-55.1-8-12.3-14.8-25.4-22.8-37.8a94,94,0,0,0-28.9-29.3c-7.1-4.5-15.4-7.2-23.3-10.2-22.8-8.9-45.8-17.3-68.6-26.4-7.9-3.1-15.1-8-23-11.2-9.2-3.7-18.7-6.3-28.1-9.6-18.9-6.5-37.8-13.2-56.8-19.6-15.6-5.3-31.5-9.9-46.9-15.8a230.91,230.91,0,0,1-32.4-15.8c-4.3-2.5-8.9-4.8-12.8-8.4-4.1-3.9-9.2-6.6-13.5-10.3-13.1-12.6-25.7-25.5-30.7-43.9Zm333.5-480.8c-1.6-1.5-2.7-2.6-3.9-3.6-5-4.2-9.8-8.8-15.2-12.5-4.7-3.2-10.5-4.7-15.2-8-7.8-5.4-15-11.6-22.6-17.4a93.76,93.76,0,0,0-11.7-8.1c-9.2-5.2-18.6-9.9-27.9-14.9-5.2-2.8-10.2-6.1-15.7-8.5-8.8-3.9-17.8-7.2-26.8-10.8-2.8-1.1-5.6-2.4-8.5-3.5-5.3-2-10.8-3.7-16-6-5.7-2.4-11.2-5-16.7-7.9-3.8-2-7.3-4.6-11.2-7.1-1,0-2.5.4-3.7-.1-4-1.5-7.8-4-11.9-4.9a108.5,108.5,0,0,0-20.5-2.6c-7.7-.2-15.3.6-21.7,6.1a83.26,83.26,0,0,0-18.2,22.3c-6.6,11.9-12.3,24.3-19.2,36-10.3,17.4-21,34.7-32.3,51.5-11.6,17.2-24,33.8-36.2,50.6-6.8,9.2-13.5,18.7-21.4,27-12.3,13-27.4,21.9-44.2,28.1-11.2,4.1-22.2,8.8-33.1,13.7-7.4,3.3-14.7,7.2-21.8,11.2-6.2,3.5-12.3,7.2-15.6,14.1-2.4,4.9-1.8,7.3,3.1,9.5,6.5,3,13.4,2.9,20.3,1.7,4.1-.7,7.7-.1,9.1,4.6,4.1-1.8,8-3.8,12-5.1,2-.6,4.4-.1,6.6,0s4.5.9,6.4.2c6.2-2,12.2-4.6,18.3-6.9,18.3-6.9,36.6-13.7,54.8-20.6,12.6-4.8,25.2-9.9,37.7-14.8,7.7-3,15.4-6.1,23.1-9.2-2.6-4.5-1.9-7.8,2.4-11.1,12.1-9.2,24.4-18.1,36.2-27.6,5.7-4.6,11.6-9.3,13.9-17.2-2-.7-3.6-1.3-5.3-1.8-3.6-1.1-4.7-3.8-4.2-7.1.5-3.1,2.9-4.1,5.9-3.8,10.9,1,21.2,3.7,30.7,9.3,6.7,4,13.7,7.6,20.6,11.2,6.4,3.3,8.5,6.1,7.6,12.4,64.9-21.2,127.8-45.7,192-68.4Zm-145.4-93.7c-1.2-4-9.3-5.4-15.6-3.3Zm-55.7,164-9.8-5.6c-6.2-3.5-12.4-7.2-18.8-10.4-3-1.5-5.6-1.6-7.1,3a21.71,21.71,0,0,1-6.3,9.2c-10.5,9.3-21.4,18.3-33.1,28.2,9.9-3.2,18.7-6.2,27.6-9,12.3-3.8,24.7-7.4,37-11.3,3.4-1,6.5-2.5,10.5-4.1Zm-202,195.4c1.8-11.4,1.6-22.6-2.6-33.5-1-2.7-2.1-6.1-4.2-7.4-11.4-7.2-22.5-15.2-36.6-16.3-7.9-.6-14.7,2.8-23.3,5.7l65.2,60a38.09,38.09,0,0,0,1.3-4.5c.2-1.3,0-2.7.2-4Zm-88-60.6c1.7-5.1,3-9.3,4.6-14.1a42.52,42.52,0,0,0-4.7,3.1c-1.2,1-2.7,2.3-4.4,3.7,1.3,2.2,2.7,4.4,4.5,7.3Zm-5,14.3c-2.4-4.7-4.1-8.2-6.2-11.7a3,3,0,0,0-3-.7c-7.1,4.5-14.2,9.2-21.2,13.9v1.1Z" transform="translate(3399 -734.5)"/><path d="M-1687,1641.6l-.4.1h0c-3.3-1.6-10.1-4.8-17.9-8.5l7.9-2.3C-1692.1,1636-1687.6,1640.5-1687,1641.6Z" transform="translate(3399 -734.5)"/><path class="cls-4" d="M-1752.6,1648.6c-9.1,2.8-18.3,5.2-25.4,7.2-25.6-24.1-54.9-40-81.9-60.6,7.6-3.3,14.4-6.3,21.3-9.1,1.8-.7,3.8-1.7,5.5-1.5a160.73,160.73,0,0,1,19.4,3.4c6.2,1.6,12.2,4.1,18.2,6.3,8.8,3.2,17.6,6.6,26.4,9.9,1.3.5,3,.2,4.1.9,2.2,1.3,4.1,3.4,6.4,4.5,4.5,2.1,9.4,3.3,13.9,5.4,6.2,2.9,24.8,11.5,39.6,18.4-6.5,1.9-12.9,3.8-19.4,5.8C-1734.1,1641.9-1743.3,1645.6-1752.6,1648.6Z" transform="translate(3399 -734.5)"/><path class="cls-4" d="M-1240.4,2437.1v2c-1.8,3-3.4,6.3-5.4,9.1-8.3,11.4-16.7,22.8-25.3,34.1-7.4,9.7-14.7,19.4-22.7,28.6-7.1,8.3-15,16-22.7,23.7-7.3,7.3-15,14.2-22.3,21.4-8.3,8.2-16.2,16.9-24.5,25-14.1,13.8-28.7,27.3-42.7,41.2-7.8,7.8-15,16.2-22.4,24.3-4,4.4-8.2,6.3-14.7,6.8-9.8.8-19.6.4-29.6,4.4-9.5,3.8-21.4,1.8-32.3,1.8-6.3,0-12.6-1.4-18.8-1.6-15.4-.5-30.8-.7-46.3-1.2-1.6-.1-3.8-.9-4.6-2.1-3.4-5.3-6.3-10.9-9.3-16.5a3.06,3.06,0,0,1,.3-2.3c3.3-4.2,1.3-8.7-.6-12-8.3-14.8-17.1-29.3-26-43.7-6-9.7-12.4-19.1-18.9-28.5-3.1-4.4-7.2-8.2-10-12.7-5.4-8.8-10.2-17.9-15.4-26.8-6.6-11-14-21.6-20.1-32.8a517.11,517.11,0,0,1-28.5-59.6,339.52,339.52,0,0,0-20-41.7c-9.4-16.9-19.3-33.5-30.2-49.5s-24.9-28.8-44-35.5c-19.9-7-39.2-15.6-58.8-23.4-14.8-5.9-29.7-11.6-44.6-17.4-14-5.4-28-10.9-42.1-16.2-9.2-3.5-18.6-6.6-27.9-9.8-4.2-1.4-8.5-2.7-12.7-3.9-5.8-1.6-11.7-2.8-17.3-4.8a92.36,92.36,0,0,1-14.4-6.3c-9-4.9-19.4-5.6-28.2-11.5-10.6-7.1-22.9-11.4-32.9-20-9.2-7.9-19.3-14.6-26.3-24.8-3-4.4-7-8.4-8.8-13.2a156.36,156.36,0,0,1-6.4-23.2c-2.9-14-5.8-28.1-8-42.2-2.7-17.3-4.6-34.8-7.2-52.2a105.6,105.6,0,0,0-4-16.6,100.34,100.34,0,0,0-5-11.7c-3.6-7.7-6.6-15.7-11-22.9-6.8-11.1-16.9-19.2-27.3-26.7-2.5-1.8-3.7-3.6-2.8-7.3,3.5-14,4.7-28.2,1.1-42.4-2.1-8.5-4.9-17-12.7-22.6-10-7.2-20.5-13.4-32.3-17-5.2-1.6-11.2-2.8-16.5-2-7.9,1.2-15.5,4.3-23.2,6.6-.3-6,2.6-10.5,9.3-12a230.39,230.39,0,0,1,23.3-3.7c10.6-1.3,21.2-2.7,31.9-3.3a31.6,31.6,0,0,1,13.9,2.3c15.1,6.9,30.5,13.6,44.8,22,17.8,10.4,34.8,22.1,51.9,33.7,13,8.8,22,21.3,29.4,35,3.7,6.9,7.2,13.9,11.5,20.4,9.2,13.5,18.1,27.2,23.9,42.6a48.29,48.29,0,0,0,20,24.3c6.1,3.9,12.6,7.1,18.7,11a122.34,122.34,0,0,0,37.2,15.3c9.2,2.3,18.5,4.2,27.8,5.9a41.79,41.79,0,0,0,12.7.7,27.68,27.68,0,0,0,18.4-9.9c4.9-5.8,9.1-11.8,8.8-20.3l2.1,2.6c.4-2,.7-4.1.9-6.1,0-2.1-.7-4.3-.5-6.4s1.5-4,1.5-6c0-4.2-.8-8.4-.9-12.6-.2-6,.4-12.1,0-18.1-.7-9.6-1.6-19.2-2.9-28.7-1.4-10.3-3.7-20.2-9.4-29.4-6.3-10.1-10.7-21.5-17.3-31.4-6.3-9.4-14-17.9-23.8-24.1a179.38,179.38,0,0,1-17.5-12.5c-9.3-7.3-18-15.4-27.5-22.3-9.8-7.1-20.2-13.2-30.4-19.8a28.48,28.48,0,0,1-2.6-2.3,88.08,88.08,0,0,1,8.4-4c14.7-5.3,29.4-10.5,44.1-15.5,17.8-6,35.5-12.1,53.5-17.5s36.6-9.8,54.8-15.3c21.6-6.5,42.8-14,64.3-20.8,18.5-5.8,37.1-11.2,55.7-17,16.4-5.1,32.6-10.7,49.1-15.6,17.5-5.3,35.2-10.1,52.9-14.8a5.68,5.68,0,0,1,5,2.1c5.3,9.1,7.2,19.3,8.5,29.6.6,4.6-.1,9.3.3,13.9.8,8.8,2.1,17.6,2.8,26.4.6,8.6.9,17.2,1,25.9.2,9,.2,18.1-.1,27.1-.3,10-1.5,19.9-1.7,29.8-.2,7.5.8,14.9,1,22.4.4,15,0,30.1,1,45.1,1.1,16.9,3.3,33.8,5.1,50.7,1.3,12.7,2.7,25.4,4.3,38,1.2,9.5,2.8,19,4.2,28.4.7,4.8,1.5,9.6,2.2,14.4,1,6.5,1.7,13,2.9,19.4,1.2,6.9,2.7,13.7,4.1,20.5,3.4,15.6,6.7,31.2,10.4,46.6,1.5,6.2,4.1,12.1,6.4,18,3.2,8.3,6,16.9,10,24.8a169.73,169.73,0,0,0,13.7,21.8c10.5,14.8,20.5,30.1,32.3,43.8,12.8,14.9,27.1,28.7,41.3,42.2q24.9,23.85,51.1,46.4c15.3,13.1,31.4,25.4,47.4,37.6,10.2,7.9,21,15.1,31.6,22.4a33.66,33.66,0,0,0,9.2,4.3c2.8.9,6.3,0,8.7,1.4,12.2,7,24.2,14.5,36.3,21.6,6.2,3.6,12.4,7.1,18.8,10.2C-1261,2428-1250.6,2432.4-1240.4,2437.1Z" transform="translate(3399 -734.5)"/><path class="cls-4" d="M-1795.6,1656.4c1.2,1,2.3,2.1,3.9,3.6-64.1,22.7-127.1,47.2-191.8,68.4.9-6.3-1.1-9.1-7.6-12.5-6.9-3.6-13.9-7.2-20.6-11.2-9.5-5.6-19.8-8.3-30.7-9.3-3-.3-5.4.7-5.9,3.8-.6,3.3.5,6,4.2,7.1,1.7.5,3.3,1.1,5.3,1.8-2.3,7.9-8.2,12.6-13.9,17.2-11.8,9.5-24.1,18.5-36.2,27.6-4.4,3.3-5,6.6-2.4,11.1-7.7,3.1-15.4,6.1-23.1,9.2-12.6,5-25.1,10-37.7,14.8-18.2,6.9-36.5,13.7-54.8,20.6-6.1,2.3-12.1,4.9-18.3,6.9-1.9.6-4.3-.2-6.4-.2s-4.6-.7-6.6,0c-4,1.3-7.8,3.3-12,5.1-1.4-4.7-4.9-5.3-9.1-4.6-6.9,1.2-13.8,1.3-20.3-1.7-4.9-2.3-5.5-4.6-3.1-9.5,3.3-6.8,9.4-10.6,15.6-14.1,7.1-4,14.4-7.9,21.8-11.2,10.9-4.9,21.9-9.5,33.1-13.7,16.8-6.2,32-15.1,44.2-28.1,7.8-8.3,14.6-17.7,21.3-27,12.3-16.7,24.7-33.3,36.2-50.6,11.3-16.8,21.9-34.1,32.3-51.5,6.9-11.7,12.6-24,19.2-35.9a80,80,0,0,1,18.2-22.3c6.4-5.5,14-6.2,21.7-6.1a110.59,110.59,0,0,1,20.6,2.6c4.1.9,7.9,3.4,11.9,4.9a11.63,11.63,0,0,0,3.7.1c3.9,2.5,7.4,5.1,11.2,7.1,5.4,2.9,11,5.5,16.7,7.9,5.2,2.2,10.7,3.9,16,6,2.9,1.1,5.6,2.4,8.5,3.5,8.9,3.6,18,6.9,26.8,10.8,5.4,2.4,10.4,5.7,15.7,8.5,9.3,5,18.7,9.7,27.9,14.9a93.76,93.76,0,0,1,11.7,8.1c7.6,5.7,14.8,12,22.6,17.4,4.7,3.2,10.4,4.8,15.2,8C-1805.4,1647.6-1800.6,1652.2-1795.6,1656.4Z" transform="translate(3399 -734.5)"/><path d="M-1988.4,1359.4l.9,1.3-5.9,9.2c-8.9,13.7-21.9,23.5-33.6,34.5-15.9,15-32.2,29.4-47.7,44.8-7.6,7.6-13.6,16.7-20.1,25.3-5.6,7.4-11.1,15-16.2,22.7a186.8,186.8,0,0,0-20.2,41.4q-9.3,26.55-18.9,53c-5.8,15.9-13.2,30.9-24.7,43.7-2.4,2.7-3.4,7.1-4,10.9-1.7,9.9-2.3,19.9-4.4,29.7-1.3,5.8-4.4,11.2-7.2,16.5-1.9,3.6-9.5,4-15,2.3-8.4-2.5-14.2-9.8-9.9-20.1a182.49,182.49,0,0,1,22.1-38.3c1.2-1.7,2.3-4.2,2.1-6.1-.7-7.4-2-14.8-3.1-22.2l-1.4-.1c-1.8,3.5-3.4,7-5.3,10.4-6,11.1-11.7,22.4-18.2,33.2s-14.2,21.1-24.8,28.8c-9.8,7.1-26,7.2-32.2-6.9a45.85,45.85,0,0,0-3.3-5.2c-14.7,8.7-21.6,21.8-24.5,37.6-.6,3.4-.4,6.9-1.2,10.3-.4,2-1.6,4.9-3.1,5.3-4.9,1.5-10.3-.5-10.6-3.8a161.7,161.7,0,0,1-.6-22c.5-8.7,2-17.2,3.1-25.9l-1.4-.6c-1.6,1.9-3.3,3.7-4.7,5.7-9.1,12.3-18.5,24.5-27.1,37.3-4.8,7.1-8.4,14.9-12.2,22.6-6.1,12.3-13.1,24-22.7,34-6,6.2-15.7,7.9-22.1,2.5-4.2-3.5-6.9-9.3-9.1-14.6-2.4-5.6-3.3-11.8-5.2-18.8-3.2,3.8-6.6,6.9-8.8,10.7-5.7,9.5-13.6,16.8-21.7,24.1-6.5,5.8-12.9,11.8-19.5,17.5-5.7,4.9-11.3,10-19.1,11.6-7.2,1.5-13.8-1.7-16.8-8.6-4.3-9.9-4.3-20.4-4-30.9.1-3.9.7-7.8,1.1-11.7l-1.8-1.6c-1,1.6-1.9,3.3-3.1,4.9-14.4,18.9-28.5,38-43.3,56.7-6.1,7.7-13.9,13.9-20.2,21.5q-9.6,12-18,24.9c-4.8,7.2-9,14.8-13.6,22.1-7.2,11.4-22.9,8.4-28,1.1-3.6-5.2-6.4-11-9.2-15.9-5.2,7.7-11,16.5-17,25.2-6.7,9.6-14.1,18.8-23.8,25.4a29.16,29.16,0,0,1-13.1,4.7c-12.4,1.4-18.9-8.1-16.6-18.9,3-14.3,6.5-28.6,9.5-42.9.6-2.8.1-5.8.1-9.6-10.7,5.1-20.7,9.7-30.6,14.6-1.2.6-2.1,2.8-2.1,4.3a81.12,81.12,0,0,0,.9,9.8c2,14.1-3.3,26.5-9.3,38.6a94.15,94.15,0,0,1-5.8,9.6c-5.2,7.6-12.4,11.9-21.8,11.6a7.92,7.92,0,0,1-4-1c-1.8-1.3-5-4-4.8-4.4,1.6-2.7,4.2-7.2,6-7,10.2,1.2,12.8-6.8,16.3-13,4.2-7.3,7.8-15.2,7.5-23.9a120.8,120.8,0,0,0-2.2-21.6c-1-4.8-.5-8.9,4.1-10.9q22.65-9.9,45.4-19.8c6.1-2.6,11.8-1.8,14.9,7,3.2,9.4,1.4,18.3-.6,27.3-2.3,10.5-5.1,20.9-7.5,31.3-.3,1.4,0,3,0,6.2,4.2-2.9,8.1-4.6,10.6-7.5a331.77,331.77,0,0,0,22-28.1c7.2-10.4,13-21.8,19.9-32.4a172.83,172.83,0,0,1,14.4-18.5c3.5-4.1,7.5-4.7,10.4-2.3s3.3,7.3,1.2,11.4c-4.6,8.8-7.6,18.2-7.7,28.1-.1,6.2,2.4,11.3,8.2,14.5,5.3-8,10.6-15.7,15.5-23.7,9.4-15.2,21.4-28.1,33.6-41,11.3-11.9,20.6-25.6,30.6-38.6,5.6-7.2,10.9-14.6,17.1-23-6.5,1.2-11.6,2.4-16.7,2.8a17.79,17.79,0,0,1-8.8-1.7c-1.6-.8-3.5-3.8-3.1-5.2.6-2.1,2.8-5.1,4.7-5.4a232.46,232.46,0,0,1,27.6-4.1c5.9-.4,9.1-3.3,12.2-7.8,6.8-9.9,14.1-19.6,21.3-29.2,2.6-3.4,6.1-3,9.3-.9,2.8,1.9,3.2,7.1,1.4,10.2-4.3,7.5-8.4,15-12.6,22.5.3.4.7.8,1,1.2,3.5-.6,7-1.2,10.5-1.7,4.5-.6,9.1-1.2,13.6-1.5a4.9,4.9,0,0,1,3.7,1.8c1.4,1.8,3.4,4.7,2.8,6.1-.8,1.8-3.7,3.4-6,3.9-8.8,2-17.6,3.4-26.4,5.2a3.81,3.81,0,0,0-2.3,2.9c-.9,9.3-1.8,18.7-2.2,28.1a49.37,49.37,0,0,0,1,10.8c.7,3.9,2.8,4.9,6,2.5,6.8-5.3,13.3-11,19.9-16.6,3.9-3.3,8.2-6.2,11.5-10,5.4-6.1,10-13,15.5-19.1,7.2-8.1,15.1-15.7,22.4-23.8,2.2-2.4,3.6-5.4,5.5-8.1s3.4-5.8,5.9-7.5c5-3.5,10.2-.8,9.9,5.3-.2,4-1.6,8-3,11.8-4.6,12.8-6.1,25.5.4,38.1,2.4,4.7,4.4,4.8,7.9.5,9.3-11.2,15.6-24.1,21.9-37.1a207.73,207.73,0,0,1,30.9-46.1,245.47,245.47,0,0,1,17.9-18.9c2.1-1.9,5.7-2.9,8.7-3,6.3,0,8.1,2.9,10.4,13.2a19.4,19.4,0,0,1,.2,3.4c4.3-3.3,7.8-6.8,12-9.1a47.34,47.34,0,0,1,14-5.2c2.2-.4,5.6,1.6,7.4,3.5,2.4,2.5,4.1,5.9,5.8,9.1,3.7,6.8,8.6,7.5,13.6,1.5,5.3-6.3,11.4-11.9,15.4-19.3,8.1-14.8,16.6-29.4,25.7-45.4-4.3,1.6-7.1,2.9-10.1,3.8-4.7,1.4-10.1-1-12.9-4.9-4.2-5.8-5.6-12.6-6-19.4-.9-17.2-.2-34.2,7.8-50,2.4-4.6,4.2-9.9,9.5-11.8,2.6-1,6.3-1.3,8.7-.1,1.3.7,1,4.8,1.4,7.3h0v.1c-2.4,3.6-5.4,6.8-7,10.7a89.57,89.57,0,0,0-6.3,49.3c.3,2.2,1.8,4.2,2.9,6.7,4.1-4.8,7.3-9.2,11.2-13,4.6-4.6,5.6-9.2,4.3-15.7-2-10-5.7-19.9-4.6-30.5.3-2.5-.3-5-.4-7.6h0a22.54,22.54,0,0,0,2.4-3c1.7-2.9,3.4-5.4,7.4-5.6,4.3-.2,6.9,1.9,8.7,5.3,4.9,8.9,6.5,18.7,7.5,28.7a48.11,48.11,0,0,1-3.3,22.5c-1.4,3.7.4,8.8,1.4,13,2.2,9.1,4.8,18.1,7.7,28.5,4.1-7.7,8.6-14.4,11.5-21.7,6.1-15.2,11.4-30.7,17-46.1,2.8-7.8,5.1-15.7,8.4-23.3,4.4-10.2,8.6-20.7,14.6-29.9,11.2-17,23.1-33.7,35.7-49.7,6.6-8.4,15.4-15.1,23.2-22.6,8.2-7.8,16.4-15.7,24.7-23.5,9.2-8.5,18.4-16.9,27.9-25.1a205.64,205.64,0,0,1,18.9-14.5C-1994.5,1359.9-1991.2,1360-1988.4,1359.4Zm-211.5,323.3c1.8-6.4,3.6-12.8,5.4-19.3l-1.5-.4c-2.7,6.2-7.8,11.7-5.5,19.4Z" transform="translate(3399 -734.5)"/><path d="M-2028.8,1970.5a6.07,6.07,0,0,0,.7,1h-.6A3.4,3.4,0,0,1-2028.8,1970.5Z" transform="translate(3399 -734.5)"/><path d="M-2210.3,1528.3Z" transform="translate(3399 -734.5)"/><path d="M-2375.2,1664.7c2.2,1.9,3.5,5,5.2,7.5-3.2,1.1-7.1,3.9-9.7,3.1a197.32,197.32,0,0,1-26.8-11.3c-1.8-.9-3.2-4.8-2.8-7,.3-2,3.3-3.6,5.2-5.5,7.3,2.9,13.5,5.2,19.6,7.9A35.6,35.6,0,0,1-2375.2,1664.7Z" transform="translate(3399 -734.5)"/><path d="M-2609.1,1739.1c3.3,3.5-.2,8.5-6.7,8.5a8,8,0,0,1-3.7-1.1c-6.1-4.3-12.2-8.7-18-13.4-1.2-1-2.2-4-1.6-5.2,1.4-2.7,3.2-6.2,7.4-5.2C-2622.1,1725.2-2615.5,1732.3-2609.1,1739.1Z" transform="translate(3399 -734.5)"/><path d="M-2759.5,1723.3c2.5,2.1,2.5,8.7.9,11.7-4.9,9.4-9.9,18.9-13.8,28.7-5.5,13.8-10.2,27.8-14.8,41.9-4.1,12.7-7.6,25.6-11.4,38.4-2.4,8-5.1,15.8-6.9,23.9-2.4,10.5-4.9,21.1-5.8,31.8-1.2,13.6-1.1,27.3-1.1,40.9,0,4.3,1.5,8.6,1.7,12.9.1,2.5,1.9,5.9-3,7-11,2.5-11.2,2.8-12.8-2.7-3.5-11.5-6.9-22.9-9.9-34.5-4.2-16.2-8.5-32.4-11.8-48.9-3-14.8-4.9-29.8-7.2-44.7-.9-6-1.7-11.9-2.7-18.9-2.8,7-5.5,13.4-8,19.9-5.6,15-11.6,29.8-16.2,45-3.9,12.8-6,26.2-9,39.3-3.3,14.2-5,28.5-4,43.1a94.41,94.41,0,0,0,2,14c.6,3-.8,4.4-2.9,6-5.7,4.3-11.8,3.1-13.5-3.7-3.9-15.2-7.3-30.4-10.7-45.6-3.1-14-6.1-28-8.9-42.1-2.1-10.9-3.9-21.9-5.9-32.8-2-10.7-4.3-21.3-6.3-32-2.4-13.1-4.5-26.3-6.7-39.4-.8-4.7-1.4-9.4-2.4-15.4-3.8,7.4-7,13.9-10.4,20.2-4.1,7.7-8.4,15.4-12.7,23-2.2,3.8-8.5,4.9-12.9,2.3a32.48,32.48,0,0,1-15.2-18.9c-1.2-3.8-.6-7.3,3.9-9.4,4.8-2.2,7,.2,9,3.9,1.7,3.1,3.4,6.2,5.8,10.6,3.6-6.2,7-11.4,9.8-16.9,7.2-14.3,14.1-28.7,21.1-43,1.8-3.6,4.9-5.8,8.7-5.2s5.8,3.9,6.3,7.7c1,7.6,1.9,15.3,3,22.9,1.4,10.5,2.7,21,4.5,31.4,3,17.2,6.1,34.4,9.5,51.6,2.3,11.8,5.2,23.5,7.6,35.4,1.6,8,2.9,16.2,4.4,24.3.3,1.6.8,3.1,1.2,4.7l.9.1c.9-4.9,2-9.7,2.8-14.6,3.3-19.9,10.3-38.7,17.7-57.3,7.1-17.8,12.8-36.2,19.4-54.3,2.2-6.1,4.6-12.2,8.1-17.6,1.7-2.6,6-4.5,9.2-4.8,1.3-.1,4.1,4.9,4.4,7.8,1.1,10.7,1,21.6,2.3,32.3,2,17.4,4.7,34.7,7.4,52,1.6,10.1,3.6,20.1,5.5,30.1.5,2.7,1.5,5.3,2.6,9.3.9-4.8,1.8-8.2,2.3-11.7a250,250,0,0,1,11.6-45.8c4-11.3,6.8-22.9,10.5-34.3,2.5-7.7,5.8-15.1,8.6-22.7,4.5-12.6,8.5-25.4,13.5-37.8,2.4-6.1,6.4-11.8,10-17.3C-2768.7,1722.4-2761.4,1721.6-2759.5,1723.3Z" transform="translate(3399 -734.5)"/></svg>