<svg id="future1_画像" data-name="future1 画像" xmlns="http://www.w3.org/2000/svg" width="1568.6" height="1568.6" viewBox="0 0 1568.6 1568.6"><defs><style>.cls-1{fill:#fff;}.cls-2{fill:#33a3d4;}.cls-3{fill:#3346f2;}.cls-4{fill:#f4be9b;}.cls-5{fill:#dd4b25;}.cls-6{fill:none;stroke:#000;stroke-miterlimit:10;stroke-width:14px;}</style></defs><circle class="cls-1" cx="784.3" cy="784.3" r="784.3"/><path d="M-491.7,1034.1c-2.6-4.4-4.8-10-4.7-13.6.8-17.8,2-35.7,2.9-53.5.4-8.3.6-16.6,1.1-24.9.9-15.5,2.1-31,3-46.6.9-16.5,1.6-33,2.4-49.4.6-12.7,1.1-25.4,1.5-38,0-1.1-1.2-3.2-2-3.3a68.14,68.14,0,0,0-10.1-.2c-8.5.2-16.9.8-25.3.8-6,.1-12.4-1.8-18-.4-20.9,5.2-42.1,2.5-63.2,4.2-11.3.9-22.7-.1-34.1-.2-7.3-.1-14.7-.7-22-.3-3,.2-5.9,2.8-8.9,4-1,.4-3.1.4-3.4-.2-2.6-5-7.1-4.1-11.3-4-5,.2-9.9.7-14.9,1.1,0,7.4.2,14.8,0,22.2-.5,13-1.4,26.1-1.9,39.2-.2,6.4.4,12.9.2,19.3-.2,10.5-.5,21.1-1.1,31.6-.7,10.1-2.1,20.1-2.8,30.1-1.1,16.4-2.1,32.9-2.7,49.4-.4,10.8-.2,21.6-.1,32.7v6.9h-11.1c.4-18.5.3-37,1.2-55.4,1.1-21.3,3.5-42.5,4.7-63.7.7-11.7-.2-23.5.2-35.2.7-17.5,2.1-35,3-52.5a156.87,156.87,0,0,0-.1-19.4c-.6-8.5,4-13.6,12.7-13.8,7.5-.1,15.1-.9,23.3-1.5,0-12.4-.1-24.9.1-37.3,0-3.7-.5-8.6,1.6-10.7,4-4,10-4.8,15.8-3.3.6.2,1.2.2,2.1.4-4.8-15.6,1.2-29.3,6.6-42.9,2.4-5.9,5.3-12,9.3-16.8,5.6-6.8,12.5-12.5,18.7-18.8,2.7-2.8,5.1-5.9,8-8.5,13.6-12.7,16.1-28.8,14.8-46.3-1.2-15.5-1-31,2.2-46.3,1.3-6.2,2.5-12.5,4.9-18.4,4.5-10.8,20.2-14.3,27.8-2.7,2.5,3.8,5.1,7.5,8,11.7,16.3-24.5,31-49.3,34-78.7,2.5-25.2,5.2-50.8-2.8-75.7l-1.3-.1c-2.8,7.3-5.2,14.8-8.5,21.8-6.1,13-12.8,25.7-18.9,38.8-4.4,9.4-8.3,19-12.3,28.6-1.8,4.2-4.7,5.5-9.2,5.1a11.74,11.74,0,0,0-7.3,2.5c-9.2,6.7-18.2,13.7-27.3,20.6-7.7,5.9-15.2,12-22.9,17.9-2.3,1.8-5,3.2-7.4,5-11.5,8-21.1,18-29.9,28.7-3.1,3.8-10.2,5.2-14.6,2.9-8.2-4.2-16.7-7.7-24.7-12.3-8.7-4.9-18.3-7.3-26.9-12.5s-17.6-9.8-26.6-14.3c-16.7-8.5-33.5-16.7-50.2-25.1a45.23,45.23,0,0,1-7.6-4.6,8,8,0,0,1-3-4.8c-1.2-14-2.1-28.1-3.2-42.1-1.2-15.2-2.6-30.3-3.8-45.5-.8-9.7-.9-19.5-2.3-29.2-2.4-16.9-5.5-33.7-8.4-50.6-2.4-13.8-4.7-27.6-7.5-41.3-4.3-20.2-5.3-41.1-12.3-60.8a35.48,35.48,0,0,1-1.5-10.2c-.1-6.1,2.6-8.4,8.7-7.4,10,1.6,20,3.7,30,5.3,17.6,2.7,35.2,5.5,52.9,7.7,12.8,1.6,25.7,2.7,38.5,3.6,6.6.5,13.2-.3,19.8-.1,9.1.3,18.3.4,27.3,1.7,18.5,2.8,37,1.8,55.5,1.8,12.8,0,25.5-.1,38.3,0,20.9.2,41.8.7,62.6.6,10.4,0,20.8-.9,31.2-1.9,4.9-.5,9.7-2.2,14.5-3,2.3-.4,5.4-.7,6.8.5a7.4,7.4,0,0,1,2.6,8.2c-6.6,22.4-12.8,44.9-19.3,67.3-1,3.3-3.4,6.3-4.4,9.6-1.3,4.3-1.5,9-2.7,13.4-2.3,8.8-4.8,17.6-7.3,26.4-.8,3,.2,5.2,1.8,8a106.45,106.45,0,0,1,9.5,20.9c8.2,25.3,10.9,51.5,12.3,78,.5,10.3,2.9,20.6,3.4,30.9,1,17,3.2,34-1,51.2-3.9,15.5-7.9,31.2-7.5,47.4.1,3.8-2.1,8.4-.6,11.1,2.7,4.8,1.4,9.4,1.6,14,.7,16-2.2,31.6-11.1,45-11.7,17.6-24.8,34.4-37.2,51.6-5.5,7.7-10.9,15.4-16.4,23.1a3.36,3.36,0,0,0-.5,1.4c-2.8,11.8-5,10.6,6.9,10.8,15.1.2,30.2.8,45.3,1.2,6.6.2,13.2.7,19.7.5,6.8-.2,11.3,3,10.2,10.5-1.7,10.8-2.6,21.6-4.3,32.4-2.9,18.5-2.1,37.2-2.9,55.9-.7,15.8-1.8,31.7-2.8,47.5-.7,10.6-1.3,21.2-1.9,31.7-1.1,17.5-2.5,35-3.3,52.5-.9,19.2-1.3,38.4-1.9,58C-486.9,1041-489.4,1038-491.7,1034.1Zm11.3-266.8c.5-3.1-.7-4.6-4-4.6-16.5-.1-32.7-3.9-49.3-2.4-13.5,1.2-27.2.4-40.8.3-11.4-.1-22.8-.5-34.2-1-11-.5-21.9-1.5-32.9-2-6.4-.3-12.8-.1-19.5-.1v41.9c10.9,1.2,21.5-1,31.5,3,0-.4-.1-1.2-.1-2.7,14.9,0,29.7.4,44.5-.1,13.9-.5,27.7-1.9,41.5-2.7,8.9-.5,17.8-.8,26.7-1,8.5-.2,17.1.1,25.6-.2,3-.1,6.4-.9,7.1-4.9,1.3-7.9,2.6-15.7,3.9-23.5Zm-2.9-522.4h-3.1c-15.9,1-31.8,2.6-47.7,2.9-20.4.3-40.8-.7-61.2-.8-14.6,0-29.2.9-43.8.7-13.6-.1-27.1-1.2-40.7-1.8-16.9-.7-33.8-1-50.6-2-18.3-1.1-36.7-2.4-54.9-4.3-12.6-1.3-25.1-3.7-37.6-5.7-7.7-1.3-15.4-3-23.7-4.6.4,1.8.7,3,.9,4.2,2.5,10.7,5.3,21.4,7.3,32.2,3.9,20.7,7.2,41.6,10.9,62.4,1.9,10.9,4.6,21.6,6.2,32.5,1.8,12.8,3,25.6,4.1,38.4,1.5,16.6,2.6,33.3,3.9,50,1.2,15.3,2.4,30.7,3.9,46a7.38,7.38,0,0,0,3.1,4.6c4.4,2.6,9.1,4.7,13.6,7,19.4,10.1,38.7,20.3,58.1,30.3,11.6,6,23.4,11.8,35.1,17.6,6.6,3.2,13.4,6,19.8,9.6,2.8,1.6,4.2,1.9,6.6-.6,6.5-6.7,13.1-13.4,20.2-19.4,5.7-4.9,12.3-8.8,18.3-13.3,10.8-8.3,21.4-16.7,32.2-25.1,5.9-4.7,11.8-9.3,17.8-13.9,4.5-3.5,6.9-10.1,14.3-9.3.6.1,1.6-1.5,2.1-2.5,11.7-25.4,25.5-49.8,35.1-76.1,1.5-4.2,3.1-9.8,10-8.3-.1-11.3.3-21.6,5.1-32.1,6-13.1,9-27.6,13.1-41.5,3.4-11.4,6.7-22.9,9.9-34.4,3.9-14.1,7.7-28.2,11.7-42.7Zm-7.8,314.2c4-14.5,4.7-29.4,3.4-44.3-1.4-16.8-3.5-33.5-5.2-50.2-1.3-12.5-1.4-25.3-3.8-37.7-3-15.8-7.7-31.4-11.7-47a20.16,20.16,0,0,0-1.8-3.2l-1.9.5c.4,7.1.4,14.3,1.2,21.4,1,8.8,3.3,17.4,4,26.2.7,10,.3,20.1.1,30.2-.1,6.8-.2,13.7-1.3,20.3-2.7,16.2-6.1,32.3-13.7,47.2s-14.6,30-26.5,42.1a5.06,5.06,0,0,0-.9,4.1c.7,2.3,2.7,4.2,3.1,6.5,1,5.3,2.1,10.7,1.8,16-.2,4.9-3,9.8-3.2,14.7-.5,14.9-.6,29.8-.2,44.6.1,4-.3,7.3-2.8,10-1.2,1.3-3.5,1.7-5.2,2.4-.6-1.8-1.6-3.6-1.7-5.4-.3-8.9-.2-17.8-.6-26.7-.5-10.2-1.9-20.3,1.1-30.3,1.2-4,2.9-8.7,2-12.4-3-12.3-9.2-23.2-17.1-33-4-5.1-8-4.5-9.7,1.9s-2.3,13-3.1,19.6c-.8,6.9-1.8,13.8-1.9,20.7-.2,10.4-.2,20.8.3,31.1.5,9.2-2.4,17.4-6.8,25.1-6.3,10.8-15.2,19.7-24.8,27.7a76,76,0,0,0-25.5,41.3c-2.1,8.4-3,17.2-4.5,25.4,27.9.4,56.5,4.9,83.8,2.9,3.3-7.7,5-15,9.1-20.7,9.5-13.4,20.1-26.1,30.2-39.1,12.5-16,26.8-31.2,28.9-52.9.7-7.8,2-15.8,1-23.5A138.68,138.68,0,0,1-491.1,559.1Z" transform="translate(1716.7 362.9)"/><path d="M-484.7,137.1c4.8.7,5.8,4.2,5.7,7.8a44.83,44.83,0,0,1-2.6,13c-.9,2.4-3.2,5.3-5.4,5.9-8,1.9-16.2,3-24.3,4.3-1.5.2-3,.6-4.1.8,8.7,14.8,17.2,29.3,25.7,43.8,2.6,4.4,1.5,6.2-3.5,7.4-14.5,3.4-28.9,1.5-43.4-.2-8.8-1-17.8-.7-26.8-1-7.1-.3-14.3-.4-21.4-.9-3.8-.3-6.3-2.4-5.8-6.9.2-1.7-.4-3.5-.8-6.8-9.4,5.3-18.3,10-26.9,15.3-4.4,2.7-16.6,3.9-21.1,1.6a36.71,36.71,0,0,0-9.8-2.8c-15.1-2.6-30.2-4.9-45.3-7.5-2-.3-4.7-2.2-5-3.8s1.8-4.6,3.4-5.1a213.08,213.08,0,0,1,23.3-6.7c8.2-1.8,16.6-2.9,25-4.3l.7-2c-4-4.5-7.6-9.3-11.9-13.4-8.3-7.9-15.6-17-25.8-22.8-3.8-2.1-3-6.8,1.7-8.8a114.61,114.61,0,0,1,20.6-6.5c17.2-3.8,34.5-7,51.8-10.4a36.4,36.4,0,0,1,7.4-.7c5.5.2,8.3,5.1,6.9,11.8-.6,2.6-.5,5.8-2,7.7-4.2,5.5-11,5.7-17.1,7.3-2.3.6-4.7,1.1-8.4,1.9,5.7,8.1,10.5,15.7,16,22.6s11.8,13.3,17.8,20c6.3-8.1,15.8-5,24.4-5.5,5.5-.3,11-.1,17.3-.1-1.9-4.5-3.8-9.2-5.9-13.8-3-6.4-5.8-13-9.5-19-3.9-6.3-4-14.9-12-18.9-3.3-1.6-1.8-5.1.9-6.8a13.45,13.45,0,0,1,7-2.2c19.9.4,39.9.8,59.8,1.9C-500.4,133.7-492.6,136-484.7,137.1Zm-17.1,21.3c9-2,10.6-2.9,10.5-12.9-22.9-5.1-45.9-5.8-69.7-3.6,8.9,17.8,18.4,34.6,27.9,51.4a36.69,36.69,0,0,1,2.6,4.8c1.1,3,.2,4.9-3.2,5-4.9.3-9.9.7-14.8.8-9.2.2-18.4.2-27.6.5-1.1,0-2.1,1.3-3.1,2,1,.6,2.1,1.5,3.2,1.6a98.18,98.18,0,0,0,10.9.6c14.3-.1,28.5.3,42.7,3.1,5.9,1.2,12.3.2,18.8.2-2.6-6.2-4.4-11.7-7.2-16.6-6.1-10.5-12.5-20.8-22.6-28.3-1.7-1.3-2.1-4.3-3.2-6.6,2.9-1.3,5.9-3.9,8.6-3.6C-519.4,157.8-511,160.5-501.8,158.4Zm-106.1,44.1c4.3-1.9,5-3.8,2.1-7.6-2.1-2.8-5.2-4.9-7.2-7.7-7.9-10.7-15.5-21.6-23.2-32.4-2.3-3.1-.9-5.9,1.7-7.4,2.4-1.4,5.5-1.7,8.4-2.3,5.8-1.1,11.7-1.9,17.5-3.2,1.1-.3,1.7-2.6,2.5-4-1.3-.5-2.8-1.7-4-1.5-12.9,2.6-25.8,5.4-38.7,8.2-6.6,1.4-13.2,3-19.8,4.4,11.3,12.9,22,25,32.6,37.2,8.3,9.6,4,9.4-4.2,12.5a7.72,7.72,0,0,1-1.5.2l-22,5.7c0,.3.1.6.1.9,8.4,1.2,16.9,1.8,25.1,3.6,10.1,2.3,18.9-.2,27.4-5.1C-610,203.5-609,203-607.9,202.5Z" transform="translate(1716.7 362.9)"/><path class="cls-2" d="M-486.4,244.9h3.1c-4,14.5-7.8,28.5-11.7,42.6-3.2,11.5-6.5,22.9-9.9,34.4-4.1,13.9-7.1,28.5-13.1,41.5-4.8,10.5-5.2,20.8-5.1,32.1-6.9-1.5-8.5,4.1-10,8.3-9.7,26.3-23.4,50.8-35.1,76.1-.5,1-1.5,2.6-2.1,2.5-7.4-.8-9.8,5.8-14.3,9.3-6,4.6-11.9,9.3-17.8,13.9-10.7,8.4-21.3,16.8-32.2,25.1-6,4.6-12.5,8.5-18.3,13.3-7.1,6.1-13.7,12.7-20.2,19.4-2.4,2.5-3.8,2.2-6.6.6-6.4-3.6-13.2-6.3-19.8-9.6-11.7-5.8-23.5-11.6-35.1-17.6-19.4-10-38.8-20.2-58.1-30.3-4.5-2.4-9.2-4.4-13.6-7a7.13,7.13,0,0,1-3.1-4.6c-1.5-15.3-2.7-30.7-3.9-46-1.3-16.7-2.4-33.3-3.9-50-1.1-12.8-2.3-25.7-4.1-38.4-1.6-10.9-4.2-21.7-6.2-32.5-3.7-20.8-7-41.6-10.9-62.4-2-10.8-4.9-21.5-7.3-32.2-.3-1.2-.5-2.5-.9-4.2,8.3,1.6,15.9,3.3,23.7,4.6,12.5,2.1,25,4.4,37.6,5.7,18.3,1.9,36.6,3.2,54.9,4.3,16.9,1,33.8,1.3,50.6,2,13.6.6,27.1,1.6,40.7,1.8,14.6.2,29.2-.8,43.8-.7,20.4.1,40.8,1.1,61.2.8C-518.2,247.6-502.3,245.9-486.4,244.9Zm-103,77c2.9-8.1,1.5-16,.9-24-.3-4.4-4.9-7.8-7.2-5.4-4,4.1-8.3,2.3-12.6,2.5-14.9.7-29.8,1.5-44.7,1.9-10.5.3-21,0-31.5,0-20,.2-40,1.5-59.6-3.8-6.1-1.6-9.5.5-10,6.2-.9,10.1-1.6,20.1-2.1,30.2-.2,4.9,1,5.5,6,4.7,4.5-.7,9.2-1.6,13.8-1.4,14.6.7,29.2,2,43.8,3,8,.5,16.1.9,24.1,1.3l.8,1a38.69,38.69,0,0,1-5.9,4.8c-16.5,10-35,15.4-53,21.9a133.84,133.84,0,0,0-16.1,6.8c-1.5.8-2.8,3.2-3,5-.3,3.2.5,6.6.5,9.8.1,8.7.5,9.1,9.4,9.2,9.3.2,18.6.3,27.8,1,13.7,1,27.4,2.4,41,3.9,8.1.9,16.2,2.4,23.8,3.6,0,8.6-.4,15.9.2,23.1.4,5.2-1.4,8.4-5.5,11-5.3,3.3-10.6,6.6-15.8,10-4.8,3.2-9.6,2.7-14.5.2-5.2-2.7-10.4-5.7-15.8-8-3.2-1.4-4.7-3.6-4.7-6.8-.1-5.6.2-11.2.1-16.8,0-1.4-.6-3.7-1.5-4-3.1-1.1-6.5-2.2-9.7-2-10.1.6-20.3,1.5-30.3,2.8-4,.5-8.5,1.7-7.3,7.7,2.2,12,4.4,23.9,6.7,35.9a6,6,0,0,0,2.4,3.8c8.9,4.9,17.7,10,26.9,14.3,10.6,4.9,21.9,8.3,32.2,13.8,6.2,3.3,10.5,2.1,15.5-.9a88.28,88.28,0,0,1,10.5-5.6c12.3-5.5,24.7-10.7,37-16.3a8.92,8.92,0,0,0,4.4-5.3c4.1-18.2,7.7-36.5,11.8-54.7,2.1-9.1,5.2-17.9,7.7-26.9,1-3.7-1.2-5.7-4.5-6-2.9-.2-5.9.5-8.9.6-7.3.1-14.6,0-21.9,0-.1-.5-.3-1.1-.4-1.7,1.2-1,2.3-2,3.5-2.9,10.3-7.5,20.5-15,30.9-22.3,3.1-2.2,3.9-4.8,3.8-8.4-.1-5.4-.8-11.5,1-16.8Z" transform="translate(1716.7 362.9)"/><path class="cls-3" d="M-487.5,804.8c.8.1,2,2.2,2,3.3-.4,12.7-.9,25.4-1.5,38-.8,16.5-1.5,33-2.4,49.4-.9,15.5-2,31-3,46.6-.5,8.3-.6,16.6-1.1,24.9-.9,17.8-2,35.7-2.9,53.5-.2,3.6,2.1,9.2,4.7,13.6H-707.2c-.1-11-.2-21.9.1-32.7.5-16.5,1.6-32.9,2.7-49.4.7-10.1,2.2-20.1,2.8-30.1.7-10.5.9-21,1.1-31.6.1-6.4-.5-12.9-.2-19.3.5-13.1,1.4-26.1,1.9-39.2.3-7.4,0-14.8,0-22.2,5-.4,10-.9,14.9-1.1,4.2-.2,8.7-1,11.3,4,.3.5,2.4.6,3.4.2,3-1.2,5.9-3.8,8.9-4,7.3-.5,14.6.2,22,.3,11.4.2,22.8,1.2,34.1.2,21-1.7,42.3.9,63.2-4.2,5.6-1.4,12,.5,18,.4,8.4-.1,16.9-.6,25.3-.8A69.49,69.49,0,0,1-487.5,804.8Z" transform="translate(1716.7 362.9)"/><path class="cls-4" d="M-487.7,514.8c1.2,14.9.6,29.7-3.4,44.3a137,137,0,0,0-3.7,55.5c1.1,7.6-.2,15.7-1,23.5-2,21.7-16.3,36.8-28.9,52.9-10.1,13-20.7,25.6-30.2,39.1-4,5.7-5.8,13-9.1,20.7-27.3,2.1-55.9-2.5-83.8-2.9,1.4-8.3,2.3-17,4.5-25.4,4.1-16.4,12.4-30.3,25.5-41.3,9.5-8,18.4-16.8,24.8-27.7,4.5-7.6,7.3-15.8,6.8-25.1-.5-10.3-.6-20.7-.3-31.1.2-6.9,1.1-13.8,1.9-20.7.8-6.6,1.4-13.2,3.1-19.6s5.6-6.9,9.7-1.9c7.9,9.9,14.2,20.8,17.1,33,.9,3.8-.8,8.4-2,12.4-3,10.1-1.6,20.2-1.1,30.3.4,8.9.3,17.8.6,26.7.1,1.8,1.1,3.6,1.7,5.4,1.8-.8,4-1.1,5.2-2.4,2.5-2.7,3-6,2.8-10-.5-14.9-.4-29.8.2-44.6.2-4.9,3-9.8,3.2-14.7.3-5.3-.8-10.7-1.8-16-.4-2.3-2.4-4.2-3.1-6.5a5.06,5.06,0,0,1,.9-4.1c11.9-12.1,18.9-27.2,26.5-42.1s11-31,13.7-47.2c1.1-6.7,1.1-13.6,1.3-20.3.2-10.1.6-20.2-.1-30.2-.6-8.8-2.9-17.4-4-26.2-.8-7.1-.8-14.2-1.2-21.4l1.9-.5a20.16,20.16,0,0,1,1.8,3.2c4,15.6,8.7,31.2,11.7,47,2.3,12.3,2.5,25.1,3.8,37.7C-491.2,481.3-489.1,498-487.7,514.8Z" transform="translate(1716.7 362.9)"/><path d="M-491.3,145.5c0,10-1.6,10.9-10.5,12.9-9.2,2.1-17.6-.6-26.4-1.6-2.7-.3-5.7,2.3-8.6,3.6,1,2.2,1.4,5.3,3.2,6.6,10.1,7.5,16.5,17.8,22.6,28.3,2.8,4.9,4.5,10.4,7.2,16.6-6.5,0-12.9,1-18.8-.2-14.2-2.9-28.3-3.2-42.7-3.1a99.53,99.53,0,0,1-10.9-.6c-1.1-.1-2.1-1.1-3.2-1.6,1-.7,2-1.9,3.1-2,9.2-.3,18.4-.3,27.6-.5,4.9-.1,9.9-.5,14.8-.8,3.4-.2,4.3-2.1,3.2-5a27.73,27.73,0,0,0-2.6-4.8c-9.5-16.8-19-33.6-27.9-51.4C-537.2,139.7-514.2,140.3-491.3,145.5Z" transform="translate(1716.7 362.9)"/><path d="M-588.4,298c.6,8,1.9,15.8-.9,24-1.8,5.2-1.1,11.4-1.1,17.2,0,3.6-.8,6.2-3.8,8.4-10.4,7.3-20.6,14.8-30.9,22.3-1.2.9-2.4,1.9-3.5,2.9.1.6.3,1.1.4,1.7,7.3,0,14.6.1,21.9,0,3,0,6-.8,8.9-.6,3.3.3,5.6,2.3,4.5,6-2.5,9-5.6,17.8-7.7,26.9-4.2,18.2-7.7,36.5-11.8,54.7a9,9,0,0,1-4.4,5.2c-12.2,5.6-24.7,10.8-37,16.3a105.67,105.67,0,0,0-10.5,5.6c-5.1,3.1-9.4,4.2-15.5.9-10.2-5.5-21.6-8.8-32.2-13.8-9.2-4.3-18-9.4-26.9-14.3a6,6,0,0,1-2.4-3.8c-2.3-12-4.5-23.9-6.7-35.9-1.1-6,3.4-7.2,7.3-7.7,10.1-1.3,20.2-2.2,30.3-2.8,3.2-.2,6.6,1,9.7,2,.9.3,1.4,2.6,1.5,4,.1,5.6-.2,11.2-.1,16.8,0,3.2,1.5,5.3,4.7,6.8,5.4,2.4,10.5,5.3,15.8,8,4.8,2.5,9.6,3,14.5-.2,5.2-3.4,10.5-6.8,15.8-10,4.1-2.6,6-5.8,5.5-11-.6-7.2-.2-14.5-.2-23.1-7.6-1.2-15.7-2.7-23.8-3.6-13.7-1.5-27.3-2.9-41-3.9-9.2-.7-18.5-.8-27.8-1-8.8-.2-9.3-.5-9.4-9.2,0-3.3-.8-6.6-.5-9.8.2-1.8,1.5-4.3,3-5a133.84,133.84,0,0,1,16.1-6.8c18-6.5,36.5-11.8,53-21.9a56,56,0,0,0,5.9-4.8l-.8-1c-8-.4-16.1-.8-24.1-1.3-14.6-1-29.2-2.2-43.8-3-4.6-.2-9.2.7-13.8,1.4-5,.8-6.2.1-6-4.7.5-10.1,1.2-20.2,2.1-30.2.5-5.8,3.9-7.9,10-6.2,19.6,5.3,39.6,3.9,59.6,3.8,10.5-.1,21,.2,31.5,0,14.9-.4,29.8-1.3,44.7-1.9,4.3-.2,8.6,1.6,12.6-2.5C-593.3,290.2-588.8,293.6-588.4,298Zm-10.3,7.8c-49-.1-96.9,4.5-145.9.2-.3,5.4-.6,11.3-1,17.7,1.7.1,2.5.2,3.3.2,8.7.1,17.3-.3,26,.3,16,1,31.9,2.6,47.9,3.8,5.6.4,11.3.4,16.8,1.1a7.94,7.94,0,0,1,4.9,3.5c.6,1-.1,3.9-1.2,4.6-11,7.5-21.3,16.1-34.1,20.8-16,5.8-31.9,12-48,17.8-4,1.4-5,3.8-3.5,6.9.8,1.6,3.4,2.6,5.3,3.1s4.3-.1,6.4.1c10,1,19.9,2.1,29.9,3.2,17.4,1.9,34.8,3.7,52.2,5.9,5.2.6,8,5.6,7.8,11-.2,9.7.1,19.4-.2,29.1a7.74,7.74,0,0,1-2.6,5.4c-10.3,6.7-20.7,13.3-31.5,19.3a13.61,13.61,0,0,1-10.1.8c-9.7-3.6-18.9-8.4-28.5-12.1-4.8-1.8-6.9-4.1-6.6-9.2.4-5.3.1-10.7.1-16.9-7,.5-13.5,1.2-20.1,1.3-4,.1-4.5,2.4-4,5.2,1.5,7.4,3.1,14.8,4.9,22.2a6.12,6.12,0,0,0,2.5,3.4,80,80,0,0,0,10.4,5.6c12.9,5.8,26.1,11.1,38.8,17.3,6.3,3.1,11.5,2.4,16.9-1.4a14.59,14.59,0,0,1,3-1.7c9.8-4.3,19.6-8.6,29.5-12.7,4.1-1.7,6.4-3.9,7.4-8.8,3.1-16.4,6.9-32.7,10.7-49,1.3-5.8,3.2-11.5,5.2-18.3-6.3,0-11.9.3-17.5-.1-7.1-.5-14.1-1.5-21.1-2.7-2.6-.5-6.1-1.8-7.2-3.8-1.7-3.1.9-5.7,3.8-7.6,11.4-7.4,23.2-14.4,34.1-22.6,5.8-4.3,13.5-8.2,13.1-17.6a39,39,0,0,1,.5-5.8c.6-6.7,1.2-13.3,1.7-19.5Z" transform="translate(1716.7 362.9)"/><path d="M-605.8,194.9c2.9,3.8,2.2,5.7-2.1,7.6a30.13,30.13,0,0,0-3.1,1.6c-8.6,4.8-17.3,7.4-27.4,5.1-8.2-1.9-16.7-2.5-25.1-3.6,0-.3-.1-.6-.1-.9l22-5.7a7.72,7.72,0,0,0,1.5-.2c8.2-3.1,12.5-2.9,4.2-12.5-10.6-12.2-21.3-24.2-32.6-37.2,6.6-1.5,13.1-3,19.8-4.4,12.9-2.8,25.7-5.6,38.7-8.2,1.2-.2,2.7,1,4,1.5-.8,1.4-1.5,3.7-2.5,4-5.8,1.4-11.7,2.1-17.5,3.2-2.8.5-6,.9-8.4,2.3-2.6,1.5-3.9,4.3-1.7,7.4,7.7,10.8,15.3,21.7,23.2,32.4C-611,190.1-607.9,192.2-605.8,194.9Z" transform="translate(1716.7 362.9)"/><path d="M-713.1,121.2c10.8-.1,13.2,4.7,12.4,14.4-.1,1.6-.5,3.3-.6,4.9-.1,10.9,1,9.5-10.3,13.4-8.9,3.1-18,2.5-27.1,2.3-5.7-.1-11.4,0-17.4,0-.2,9.3.3,10,8,9.9,11.4-.2,21.5,4.4,31.9,8,5.5,1.9,6.8,7.6,5.5,16.5-.8,5.9-1.2,12-1.9,17.9-.6,5.1-4.6,5.3-8.4,5.5-8.9.4-17.9.6-26.8,1-18.7.7-37.4,1.5-56.1,2-6.7.2-8.3-1.5-8.2-8,.3-12,.4-23.9,1.1-35.8.7-12.9,2.4-25.6,8.9-37.1,1.1-1.9,2.6-4.2,4.5-4.9,8.9-3.3,17.8-7.3,27-8.9,10-1.7,20.4-1,30.6-1.1C-731.1,121.1-722.1,121.3-713.1,121.2Zm-2.7,22.8c5.1-.9,1.6-6.3,3.5-9.2-1.7-.8-3.4-2.3-5.1-2.4-12.3-.3-24.6-.1-36.9-.5a77.62,77.62,0,0,0-33.3,6.1c-1,.4-2.4,1-2.7,1.9-2.4,5.7-5.9,11.4-6.5,17.3-1.8,15.6-2.3,31.3-3.4,48.7,4.8,0,9.1.2,13.3,0,11.7-.5,23.4-1.4,35.1-1.8,7.8-.3,15.5-.1,23.3,0,2.7,0,4.3-.6,4.5-3.8.3-3.8,1.2-7.5,1.8-11.2s-.7-5.6-4.3-7.2c-11.1-4.7-22.9-4.4-34.5-5.8-5-.6-6.9-2.8-6.9-7.9a76.58,76.58,0,0,0-.4-10.7c-.9-6.6,1.5-10.9,8-11.3,8.5-.6,17.1-.4,25.7-.8,6.2-.1,12.6-.2,18.8-1.4Z" transform="translate(1716.7 362.9)"/><path d="M-712.4,134.9c-1.9,2.8,1.7,8.2-3.5,9.2-6.2,1.1-12.5,1.2-18.8,1.5-8.6.4-17.2.2-25.7.8-6.4.4-8.9,4.6-8,11.3a76,76,0,0,1,.4,10.7c0,5,1.8,7.3,6.9,7.9,11.6,1.4,23.4,1.1,34.5,5.8,3.6,1.5,4.9,3.6,4.3,7.2-.6,3.8-1.5,7.5-1.8,11.2-.2,3.2-1.9,3.8-4.5,3.8-7.8,0-15.5-.2-23.3,0-11.7.4-23.4,1.3-35.1,1.8-4.2.2-8.5,0-13.3,0,1.1-17.4,1.6-33.1,3.4-48.7.7-6,4.2-11.6,6.5-17.3.4-.9,1.7-1.4,2.7-1.9a76.15,76.15,0,0,1,33.3-6.1c12.3.4,24.6.2,36.9.5C-715.8,132.6-714.1,134.1-712.4,134.9Z" transform="translate(1716.7 362.9)"/><path d="M-832.9-142.7c6.2.8,9.4,6,7.2,11.9-1.8,4.9-3.7,9.8-5.7,14.6-1.3,3.1-3.7,4.1-7.2,4.9-23.9,5.3-47.9,1.2-71.8.7-8.3-.2-9.9-3.3-8.3-11.4,2.1-10.2,4.5-20.2,6.6-30.4,2.4-11.3,4.7-22.6,7-33.8.5-2.2,1.5-4.3,2-6.6a8.59,8.59,0,0,0-.1-4.5c-1.7-4.7,1.4-9.2,6.3-8a243.83,243.83,0,0,1,26.5,7.8c6.5,2.4,6.9,6.8,4.5,15.2-3.5,11.9-6.2,24-9.5,37,4.8-.6,8.2-1.5,11.6-1.2,8.7.8,17.3,2.1,25.9,3.2Zm-20.4,22c9.2.1,12.1-2.5,14-10.6a70.7,70.7,0,0,0-41-.8c-6.2,1.7-9.5-1.2-8.6-7.4.8-5.5,2-11,3.2-16.5,2.3-10.2,4.8-20.4,7.3-31.2l-12.5-3.4c-5,22.8-9.9,45.2-14.9,68,2.1.4,4.1.7,6.2.9C-884.1-121.4-868.7-121-853.3-120.7Z" transform="translate(1716.7 362.9)"/><path d="M-839.3-131.3c-1.8,8.1-4.8,10.7-14,10.6-15.4-.2-30.8-.6-46.3-1a61.66,61.66,0,0,1-6.2-.9c5-22.9,9.9-45.2,14.9-68l12.5,3.4c-2.5,10.8-5,21-7.3,31.2-1.2,5.5-2.4,11-3.2,16.5-.9,6.3,2.4,9.1,8.6,7.4A70.72,70.72,0,0,1-839.3-131.3Z" transform="translate(1716.7 362.9)"/><path d="M-878.5-97.4c1.8,2.4,3.2,6.2,2.8,9.1-1.9,11.5-4.7,22.9-6.9,34.4-2.8,14.7-5.4,29.5-7.7,44.3-1.8,11.7-3.5,23.5-4.7,35.3-1.3,13.8-2.6,27.7-2.6,41.5-.1,20.7,1,41.4,1.5,62,.2,8.1-.1,16.1.1,24.2.1,4.1,1.4,8.1,1.2,12.2-.1,2.4-1.1,5.7-2.9,7.1-20.5,15.9-41.4,31.2-61.7,47.3-14.9,11.8-29.2,24.3-43.6,36.7-4.8,4.1-9,9.1-13.8,13.3a7.39,7.39,0,0,1-6.1,1.5c-6.7-2.2-13.2-5.1-19.8-7.7-14.1-5.6-28.3-10.8-42.2-16.8-14.6-6.2-28.7-13.4-43.2-19.7-18.7-8.2-35.8-19-52.2-31.1a84.5,84.5,0,0,1-9.8-9.1,6.37,6.37,0,0,1-1.5-4c-2.3-23.2-4.7-46.5-6.8-69.8-1-11.1-1.3-22.2-2.2-33.3-.9-10.9-2.2-21.8-3.2-32.6-1-9.9-1.8-19.8-2.7-29.6-1.4-15.3-3-30.7-4.4-46-.9-10-2.1-20.1-2.5-30.2-.5-12.2-.5-24.5-.2-36.8.1-5.6,1.9-8.6,9.2-8.7,2.1.7,4.3,1.3,6.4,2,17.1,5.9,34.2,11.8,52.4,12.3,17.4.4,34.8.2,52.2,0,18.8-.2,37.5-1.3,56.2-.8,15,.3,30,2.8,45.1,3.4,13.1.6,26.3.3,39.4,0,7.6-.1,15.2-1.3,22.8-1.4,13.2-.3,25.9-3.2,38.4-7a14.27,14.27,0,0,0,4.9-2.1C-883.7-100.2-880.5-100-878.5-97.4Zm-16.8,34.2c1-6,2.3-11.9,3.3-16.8-15.7,1.8-31.2,3.6-46.7,5.4-27.5,3.1-54.9,1.1-82.4-.7a637.28,637.28,0,0,0-75.7,0c-29.6,1.5-58.9,1.7-87.6-6.9-5.9-1.8-11.8-3.9-18.5-6,.4,6.7.7,12.6,1.1,18.5q1.65,20.25,3.6,40.5c1,10,2.4,20,3.4,30.1,1.2,12.5,2.2,25.1,3.4,37.6,1.5,15,3.2,30,4.6,45,.9,10.1,1.2,20.2,2.2,30.3q2.7,30.15,6,60.3a15.78,15.78,0,0,0,3.7,8.2c2.8,3,6.5,5,9.9,7.4,19.6,13.3,41,23.3,62.5,33,25.6,11.5,51.7,21.6,77.5,32.6,4.1,1.7,6.5,1.1,9.8-2,12-11.5,23.9-23.3,36.9-33.7,21.8-17.5,44.3-34,66.4-51.1a8.56,8.56,0,0,0,2.8-6.2c-.1-15.5-.5-30.9-.9-46.4-.4-16.5-1.2-32.9-1.3-49.3a334.43,334.43,0,0,1,1.5-34.7c1.4-14.3,3.6-28.5,5.8-42.7,2.7-17.6,5.7-35.1,8.7-52.4Z" transform="translate(1716.7 362.9)"/><path class="cls-5" d="M-892.1-80c-1,4.9-2.2,10.8-3.3,16.8-3,17.4-6,34.8-8.7,52.2-2.2,14.2-4.4,28.4-5.8,42.7a334.43,334.43,0,0,0-1.5,34.7c.1,16.5.9,32.9,1.3,49.3.4,15.5.8,30.9.9,46.4a9,9,0,0,1-2.8,6.2c-22.1,17.1-44.6,33.6-66.4,51.1-13,10.4-24.9,22.1-36.9,33.7-3.3,3.2-5.7,3.7-9.8,2-25.8-10.9-51.9-21.1-77.5-32.6-21.5-9.6-42.9-19.7-62.5-33.1-3.4-2.3-7.1-4.4-9.9-7.4a15.43,15.43,0,0,1-3.7-8.2q-3.3-30.15-6-60.3c-.9-10.1-1.2-20.2-2.2-30.3-1.4-15-3.1-30-4.6-45-1.2-12.5-2.2-25.1-3.4-37.6-1-10-2.4-20.1-3.4-30.1q-2-20.25-3.6-40.5c-.5-5.9-.7-11.8-1.1-18.5,6.7,2.2,12.5,4.3,18.5,6,28.7,8.6,58,8.4,87.6,6.9a637.28,637.28,0,0,1,75.7,0c27.5,1.8,54.9,3.8,82.4.7C-923.2-76.4-907.7-78.2-892.1-80Zm-54,49.8c.4-4.9-2.6-8.6-7.5-8.6-11.3.2-22.6.6-33.9,1.1-16.5.9-33.1,1.9-49.6,3-14.9.9-29.8,1.9-44.6,3.1-18,1.5-35.9,3.3-53.9,4.8-5.3.4-11,5.2-11.2,10.5-.8,17.4-1.9,34.8-1.9,52.3,0,18.9,1.1,37.8,1.9,56.6.2,6.2,3.2,8.6,9.6,8.5,9.5,0,19-.1,28.5,0,4.8,0,9.6.8,14.4.7,20.5-.5,41-1.3,61.6-1.9,8-.2,15.9-.5,23.9-.7,4.1-.1,8.2,0,12,0,0,6-.1,12,.1,17.9.1,3.2-.7,4.9-3.9,6.4-13.7,6.5-27.2,13.4-40.8,20.1-4.4,2.2-8.3,3.5-13.6.8-10.6-5.3-21.8-9.4-32.8-13.7-3.2-1.2-5.4-2.3-5.2-6.5.2-2.9-1-5.8-1.5-8.7-1.2-6.1-4.3-9-10.4-8.4-14.7,1.4-29.3,3.2-43.9,5.1a6.41,6.41,0,0,0-5.7,7.1,9,9,0,0,0,.6,2.2c7.8,16,15.8,31.9,23.5,47.9,2.7,5.5,7.2,7.2,12.7,7.5,4.1.2,8.3-.1,12.4.5,13.6,1.7,27.1,3.8,40.7,5.6,10.7,1.4,21.3,2.7,32,4.1,1.6.2,3.5,1,4.7.4,11.2-5.9,22.6-11.6,33.3-18.4,12-7.5,23.5-15.9,35-24.3,2.6-2,4.6-5.6,5.7-8.8s.9-7.2,1.2-10.8c1.6-14.9,3.5-29.9,4.7-44.8.4-5,3.1-11.4-3-14.9-3-1.7-6.8-2.1-10.3-2.5-15.4-1.7-30.9-3.6-46.4-4.6-8.7-.6-17.6.3-26.3.9-11.1.7-22.2,1.8-33.2,2.8-8,.8-16,1.8-24.6,2.7V24.4c6.6-1.1,13.4-2.8,20.2-3.1,10.4-.5,20.9.3,31.2-.3,13.8-.8,27.6-2.8,41.4-3.7,15.2-1.1,30.3-2.2,44.7-7.9,3.4-1.4,5.3-2.8,5.6-6.4.6-11.1,1.7-22.1,2.6-33.2Z" transform="translate(1716.7 362.9)"/><path d="M-921.2-197.1a185.13,185.13,0,0,1-1.7,51.5c-1.1,6.6-1,13.5-1.2,20.2-.2,5.5-1.9,7.6-7.2,7.9-4.9.3-9.9.6-14.8.7-6,.1-7.3-1-6.9-6.8.6-8,1.8-16.1,2.7-24.1.1-1.2.4-2.5.6-4.1-11.8,9.2-17.5,6.6-21.8-6.8-2,3.3-3.7,6.2-5.5,9-5.2,8.4-13.3,13.7-21.2,19.1a6.48,6.48,0,0,1-8.2-.1c-2.4-1.8-5.9-2.3-9-2.8-4.2-.6-6.8-4.1-5.3-8.7,1.7-5.3,3.8-10.5,5.9-15.7,7.9-19.7,16-39.3,19.8-60.3a6.13,6.13,0,0,1,7-5.2,5.92,5.92,0,0,1,2.9,1.3c.6.5,1.2,1.1,1.8,1.6,3.9,2.5,8.7,4.3,11.3,7.7,2.5,3.2,2.6,8.1,4,13,2.8-2.2,5-4.2,7.4-6,4.5-3.5,9-6.3,15.4-4.3,5.3,1.7,11.1,2,16.4,3.6C-924.7-204.8-921.7-202.3-921.2-197.1Zm-13.2,32a197.42,197.42,0,0,0,.9-24.3c0-4.1-2.2-5.6-6.3-6.5-6.2-1.4-11.3-.9-15.8,3.9-2.2,2.4-5,4.4-7.3,6.7a11.67,11.67,0,0,1-6,3.4c-3.7.7-7-1.5-9-6.4-2.1-5.2-4-10.5-5.8-15.2-6.8,19-13.9,38.6-21.4,59.5,2.4-.4,4.9-.1,6.1-1.2a64.63,64.63,0,0,0,9.1-10.4c5-7,9.4-14.4,14.6-21.2a10.63,10.63,0,0,1,6.5-3.6h.7a7.22,7.22,0,0,1,7,6.5c.6,3.5,1.7,6.9,2.7,10.9,4.2-2.8,8-5.5,12.1-7.8,4.7-2.6,8.9-1,11,3.6A7.84,7.84,0,0,1-934.4-165.1Zm-2.8,35.4c.5-5.1,1-10.1,1.5-15.2l-1.5-.2c-.7,5.1-1.3,10.1-2,15.1Z" transform="translate(1716.7 362.9)"/><path d="M-933.4-189.4a197.42,197.42,0,0,1-.9,24.3,18,18,0,0,0-.8-2.1c-2.1-4.6-6.3-6.2-11-3.6-4.1,2.3-7.9,5-12.1,7.8-1-4-2.1-7.4-2.7-10.9a7.3,7.3,0,0,0-7-6.5h-.7l-.2-1.6a11.67,11.67,0,0,0,6-3.4c2.4-2.3,5.1-4.3,7.3-6.7,4.5-4.8,9.6-5.3,15.8-3.9C-935.7-195-933.5-193.5-933.4-189.4Z" transform="translate(1716.7 362.9)"/><path d="M-935.8-144.9c-.5,5.1-1,10.1-1.5,15.2l-2-.2c.7-5.1,1.3-10.1,2-15.1Z" transform="translate(1716.7 362.9)"/><path d="M-953.6-38.7c4.9-.1,8,3.7,7.5,8.6-1,11-2.1,22.1-3,33.1-.3,3.6-2.2,5.1-5.6,6.5-14.4,5.7-29.5,6.8-44.7,7.9-13.8,1-27.6,2.9-41.4,3.7-10.4.6-20.8-.3-31.2.3-6.8.4-13.6,2-20.2,3.1V64.9c8.7-1,16.6-2,24.6-2.7,11.1-1,22.1-2.1,33.2-2.8,8.8-.6,17.6-1.4,26.3-.9,15.5,1,30.9,2.9,46.4,4.6,3.5.4,7.4.8,10.3,2.5,6.1,3.5,3.5,9.8,3,14.9-1.2,15-3.1,29.9-4.7,44.8-.4,3.6-.1,7.5-1.2,10.8s-3,6.8-5.7,8.8c-11.4,8.4-22.9,16.8-35,24.3-10.7,6.7-22.1,12.4-33.3,18.4-1.2.6-3.1-.2-4.7-.4-10.7-1.3-21.3-2.6-32-4.1-13.6-1.8-27.1-3.9-40.7-5.6-4.1-.5-8.3-.2-12.4-.5-5.5-.3-10.1-2-12.7-7.5-7.7-16-15.7-31.9-23.5-47.9a6.53,6.53,0,0,1,3-8.7,7.94,7.94,0,0,1,2.2-.6c14.6-1.9,29.3-3.6,43.9-5.1,6.1-.6,9.2,2.3,10.4,8.4.6,2.9,1.7,5.9,1.5,8.7-.2,4.1,2,5.2,5.2,6.5,11,4.3,22.2,8.4,32.8,13.7,5.4,2.7,9.3,1.3,13.6-.8,13.6-6.7,27.1-13.6,40.8-20.1,3.2-1.5,4-3.2,3.9-6.4-.2-5.9-.1-11.9-.1-17.9-3.8,0-7.9-.1-12,0-8,.2-15.9.4-23.9.7-20.5.6-41,1.4-61.5,1.9-4.8.1-9.6-.6-14.4-.7-9.5-.1-19,0-28.5,0-6.4,0-9.3-2.4-9.6-8.5-.8-18.9-1.9-37.8-1.9-56.6,0-17.4,1.1-34.9,1.9-52.3.2-5.3,5.8-10.1,11.2-10.5,18-1.5,35.9-3.3,53.9-4.8,14.9-1.2,29.8-2.1,44.6-3.1,16.5-1.1,33.1-2.1,49.6-3C-976.2-38.2-964.9-38.5-953.6-38.7Zm-8.5,37c1.1-8.2,2-16.5,2.8-24-10.2,0-19-.4-27.8.1-18,.9-36,2.2-54,3.4-15.9,1.1-31.8,2.2-47.7,3.6-13.1,1.1-26.1,2.8-39.2,3.7-3.9.3-4.9,1.6-4.9,5,0,8,.6,16.1-.2,24-2.6,24.3-2,48.5.1,73.3,7.1,0,14.2.1,21.3,0l47.7-.6c12.3-.2,24.6-.1,36.9-.5,10.8-.3,21.7-.5,32.4-1.9,7.5-1,11.8,1.8,11.7,9.3-.2,10.7,0,21.4-.2,32a5.9,5.9,0,0,1-2.3,4,35.06,35.06,0,0,1-6,3.3c-14.5,7-29,13.8-43.3,21-8.4,4.3-16.4,9.8-25.7,2.1a5.78,5.78,0,0,0-1.4-.5c-13.1-5.2-26.3-10.4-39.4-15.5a8.2,8.2,0,0,1-5.6-7.9c-.2-3.3-.7-6.5-1.1-10.3l-29.3,3c6.7,12.9,12.4,24.3,18.6,35.6.9,1.6,3.5,2.9,5.5,3.2,5,.8,10.1.8,15.2,1.4q30.3,3.9,60.5,7.9c2.9.4,6.1,2.1,8.4,1.2a105.52,105.52,0,0,0,20-9.7c13.5-8.8,26.6-18.3,39.8-27.7a6.41,6.41,0,0,0,2.2-4.1c1.9-18.3,3.6-36.5,5.2-54.9.1-1-1.8-3-3-3.2-8.8-1.4-17.6-2.9-26.5-3.5-9.8-.6-19.8-.5-29.7-.4-10.4.2-20.9.4-31.3,1.4-15.6,1.5-31.2,3.8-46.8,5.6-5.2.6-8-1.7-7.9-6.9.1-5.5,1.1-10.9,1-16.4-.1-11.2-.6-22.5-.9-33.7-.2-5.4,2.3-8.1,7.6-8.7,3.8-.4,7.5-1.3,11.3-1.6,12-.9,24.1-1.9,36.2-2.4,7.3-.3,14.6.8,21.9.2,13.3-1,26.6-2.6,39.9-4.2,8.3-1,16.6-2.5,24.9-3.9C-964,.1-962.2-.9-962.1-1.7Z" transform="translate(1716.7 362.9)"/><path d="M-968.8-182l.2,1.6a10.16,10.16,0,0,0-6.6,3.6c-5.2,6.8-9.6,14.3-14.6,21.2a81.67,81.67,0,0,1-9.1,10.4c-1.2,1.1-3.8.8-6.2,1.2,7.5-20.9,14.5-40.5,21.4-59.5,1.8,4.7,3.7,10,5.8,15.2C-975.9-183.4-972.6-181.3-968.8-182Z" transform="translate(1716.7 362.9)"/><path d="M-1019-209.1a204.18,204.18,0,0,1-.1,20.7,7.36,7.36,0,0,1-4.2,5.2,143.59,143.59,0,0,1-20.6,4.9c-4,.6-5,2.1-5.1,6-.2,10.6-.8,21.2-1.9,31.8-.5,5.2-5.7,4.9-9.4,5.2-10.7.9-21.4,1.1-32.2,2-5.6.4-10.3-4.1-8-9,5.6-11.8,4.4-24.2,4.6-37.4h-11.6c-9,.1-13.1-4.5-11.2-13,2.1-9.8,4.5-19.6,6.7-29.3,1-4.4,3.8-6.2,8.3-5.7,21.8,2.4,43.7,4.5,65.4,7.4,5.8.8,11.4,3.7,16.8,6.2C-1020-213.6-1019.1-210.9-1019-209.1Zm-13.7,8c.5-3.9-1-5.3-4.9-5.6-8.9-.7-17.8-1.8-26.7-2.7-11.6-1.3-23.2-2.6-35-3.9-1.2,5.3-2.1,10.5-3.7,15.5-1.2,3.8-.7,5.3,3.8,5.3a42.22,42.22,0,0,1,11.7,2c4.3,1.3,5.6,4.2,4.3,8.4a7.58,7.58,0,0,0,.1,2.6c.3,3.2,1,6.4.9,9.7-.2,7.5-.9,15-1.4,23.1l20.8-2.3c0-11.3.1-22.2-.1-33.2-.1-4.8,2-7,6.5-7.5,7.8-.9,15.6-1.7,23.6-2.6,0-3.6-.3-6.3.1-8.8Z" transform="translate(1716.7 362.9)"/><path d="M-1037.6-206.8c3.8.3,5.4,1.7,4.9,5.6a82.8,82.8,0,0,0-.1,8.8c-8.1.9-15.8,1.8-23.6,2.6-4.5.5-6.6,2.8-6.5,7.6.2,10.9.1,21.9.1,33.2l-20.8,2.3c.5-8.1,1.2-15.6,1.4-23.1.1-3.2-.6-6.4-.9-9.7a7.48,7.48,0,0,1-.1-2.6c1.3-4.2.1-7.2-4.3-8.4a42.22,42.22,0,0,0-11.7-2c-4.5,0-4.9-1.5-3.8-5.3,1.5-5,2.4-10.2,3.7-15.5,11.8,1.3,23.4,2.6,35,3.9C-1055.4-208.5-1046.5-207.4-1037.6-206.8Z" transform="translate(1716.7 362.9)"/><path d="M-1163.1,1034.5c-1.7-3.9-3-8.5-2.8-11.5.9-11.7,1.8-23.4,3.4-35.1,1.7-12.5,4.3-25,6.2-37.5,2.1-13.8,3.7-27.7,5.7-41.5q3.3-22.2,6.9-44.4c3.3-19.8,6.7-39.5,10.1-59.3,1.8-10.6,3.7-21.2,5.4-31.7.4-2.4.4-4.9.6-6.9-9.3,0-18.2-.4-27.1.1-11.4.6-22.8,2.1-34.2,3-19.4,1.7-38.8,3.7-58.3,4.7-18.4,1-36.9.4-55.3,1.4-17.6.9-35.1,2.9-52.7,4.6-1.2.1-2.4,1.2-3.4,2.1s-1.5,2.6-2.5,3c-5.2,1.7-4.4,5.7-4.6,9.9-1,19-2.5,37.9-3.8,56.9-1,14.7-2,29.4-3.2,44.1-1.2,16-2.7,32-3.9,48-.8,10.1-1.1,20.2-2,30.3-.8,9.5-2.2,19-3,28.5-.7,8.9-.7,17.9-1.1,26.9a8.63,8.63,0,0,1-2.3,4.1h-9.7a33.81,33.81,0,0,0,1.4-6.9c.6-6.6,0-13.3.3-19.9.4-8.6,1.2-17.2,1.8-25.7.6-7.9,1.4-15.8,1.9-23.7q2-29.7,3.7-59.4c.7-10.9,1.2-21.8,2.1-32.8,1.4-18,3.4-36,4.5-54,.6-9.6,0-19.2-.2-28.9-.1-5-2.2-10.3,4.2-13.4,1-.5,1.4-3.5,1.3-5.2-.9-16.6-2-33.1-2.8-49.7-.3-6.7,5.4-13,12.1-12.8,10.4.3,20.8,1.3,31.2,2.1,2.1.2,4.2.5,7.3.9a29.53,29.53,0,0,0-2-4.5c-9.7-14.4-19.3-28.8-29.1-43.2a72.3,72.3,0,0,1-12.5-39.2c-.3-15.8,1.4-31.6,2.9-47.4,1.5-16.5,4-32.9,5.7-49.3,1.6-15.6,2.9-31.3,4-46.9.4-6.1.1-12.2.2-18.3.2-37.8,13.3-70.4,40-97.4,11.3-11.5,22.2-23.3,33.6-34.7a62.65,62.65,0,0,1,13.1-9.7c2-1.1,5.9-1.2,7.6.1,1.9,1.5,3.7,5.3,3.1,7.5a88,88,0,0,1-6.8,17.9c-5.4,10.6-11.7,20.7-17.2,31.2-5.7,11-10.1,22.5-11.8,34.8-1.2,8.5-3,17-3.4,25.6-.3,6.3,1.2,12.7,1.9,19.4,13.5-1.9,20.5,5.4,26.4,15.2,6.6,11.2,7.8,23.8,10.4,36,2.1,9.8,3.6,19.8,5.2,29.7,1.5,9.6,7.8,16.4,13.8,23.1,11.3,12.5,23.1,24.7,35.1,36.6a65,65,0,0,1,18.8,37.8c2.2,15.2,2.4,30.6,4.3,45.8,1.1,8.6,3.9,16.9,6,25.4.3,1.3.7,2.5,1.3,4.3,4.9.4,10.1.9,15.3,1.2,3.9.2,7.8.1,11.8.2,7,.3,10.4,5.2,9.2,12.2-1.8,10.5-3.2,21.1-4.7,31.6a19.33,19.33,0,0,0,.1,3.4c5.8,0,11.2-.1,16.6,0,2.9,0,5.9-.1,8.7.7,4.3,1.2,6.2,5.3,5.3,10.2-2.6,14.3-5.3,28.5-7.7,42.8-2.8,16.4-5.4,33-8.1,49.4-3.9,22.9-8.1,45.8-11.8,68.8-2.4,15.4-4,30.9-6.2,46.4-1.5,10.4-3.7,20.8-4.8,31.3-1.2,11.3-2.9,38.9-6.6,38.5C-1159.5,1041.2-1161.5,1038.2-1163.1,1034.5Zm5.2-283.1c1.2-10.4,2.2-20.9,3.2-31.7-6.7-.3-13.8-1.1-20.8-1-14.4.1-28.9.8-43.3.9-21.8.2-43.5.2-65.3.2-9.5,0-19,.3-28.4-.3-14.7-.8-29.4-2.3-44.1-3.4-4-.3-6.6.7-6.1,5.7,1.3,14.3,2.2,28.7,3.2,43.1.2,2.8,1.4,4,4.4,3.8,10.1-.8,20.2-1.5,30.2-2.1,20.2-1.3,40.3-2.6,60.5-3.7,11.4-.6,22.8-.5,34.2-1.2,9.2-.6,18.4-2,27.5-2.9,13.8-1.4,27.6-2.6,41.3-4.2a5.13,5.13,0,0,0,3.5-3.2Zm-37.2-46.7c3.2,0,4.6-.5,3.8-4.6a232,232,0,0,1-3.4-27.5c-1.1-15.4-1.2-30.9-7.3-45.3-3.4-8.1-7.2-16.4-12.7-23-8.9-10.6-19.9-19.3-29.2-29.7s-20.2-20.6-23.5-35.1-5.6-29.2-8.3-43.9c-2.2-11.9-5.8-23-16-31.1-4.1,3.7-4.7,8.5-5,13.3-.9,15.8,5.1,30.3,10.2,44.7,5.8,16.7,11.3,33.4,12.5,51.2.4,6.1,1.1,12.2,1.2,18.2.1,3.8-3.7,7.6-7.1,7.7-4.5.1-3.7-3.5-4.1-6-1.9-11.2-2.6-22.7-5.6-33.6-4.5-16.4-10.7-32.3-15.8-48.5-4.8-15.1-8.2-30.4-2.5-46.2a8,8,0,0,0-.4-4.8c-2.9-9.9-5.3-19.9-4.4-30.3.8-8.7,1.6-17.5,3.2-26.1,3.3-17.2,9.2-33.4,19-48.1,2.6-3.9,4.7-8.1,7.1-12.2l-1.5-1c-8.7,9.6-17.4,19.1-26,28.7-11.6,13-20.9,27.5-25.6,44.5a195.74,195.74,0,0,0-6.5,47.6c-.3,14.5-2.8,29-3.9,43.5-.8,9.9-.1,19.9-1.2,29.7-2,17.2-5.2,34.3-7.2,51.6a135.82,135.82,0,0,0-.6,29.2,74.2,74.2,0,0,0,15.9,39.3c7.4,9.2,13.1,19.7,19.4,29.8,3.6,5.8,6.8,11.7,10.2,17.6l-.9,1.3c1.8.1,3.6.2,5.4.2l35.8-.3C-1244.9,705.2-1220,705-1195.1,704.7Z" transform="translate(1716.7 362.9)"/><path d="M-1135.9-233.4c8.9,2.3,9.8,4.9,9.3,14.3-.8,13.9-.8,27.9-1.2,41.8-.3,11.8-.7,23.6-1.2,35.3-.2,4.3-4.5,7-10.4,7.6-6.3.7-12.6,1.8-18.9,3-5.4,1.1-9.1-1.4-9.4-7-.2-3.3,0-6.6,0-10.7l-7,1.6c.6,5.3,1.1,10.4,1.8,15.4.5,4.3-5.9,8.4-11.1,7.1-7.5-1.8-15-3.3-22.5-5.1-3.3-.8-6-2.2-6.2-6.4-1-21.4-6.5-42-12.2-62.5-1.2-4.3-4.1-8.2-6.5-12.2-2.3-3.7-1-6.5,2.4-7.5,5.9-1.7,11.2-5,18.2-3.5,6.2,1.3,13.2-.4,19.8-.7a9.14,9.14,0,0,1,9.7,8.4v28a44.05,44.05,0,0,1,5.2-.3c4.3.3,5.3-2.2,5.5-5.9.9-13.2,1.8-26.3,2.8-39.5.4-5.4,2.9-7,8.3-5.9C-1151.7-236.4-1143.7-235.4-1135.9-233.4Zm-5,14.8a3.3,3.3,0,0,0-1.2-2.4c-3.9-1.4-7.9-2.5-12.5-3.9-1.2,15.3-2.4,29.2-3.2,43.2-.2,3.9-1.7,6.1-5.3,6.5-8,1-16.1,1.9-24.1,2.2-4.6.2-7.5-3.3-7.6-8-.1-5,0-10-.2-14.9-.1-4.6-.5-9.1-.8-14.2l-18.9,2c1.5,3.3,3.7,6.5,4.5,10.1,3.6,15.5,6.9,31,10,46.5,1.9,9.7,1.8,10,12.4,10.4-.9-3.6-1.6-6.8-2.5-10-1.3-4.9-.2-7.7,4.5-8.6a148.76,148.76,0,0,1,23-2.7c5.7-.1,11.3,4.4,9.1,11.9-.4,1.4-.1,3-.1,5l11.4-2.6q1.05-35.25,1.5-70.5Z" transform="translate(1716.7 362.9)"/><path class="cls-3" d="M-1127.7,766.6c-.2,2-.2,4.5-.6,6.9-1.8,10.6-3.6,21.2-5.4,31.7-3.4,19.8-6.8,39.5-10.1,59.3q-3.6,22.2-6.9,44.4c-2,13.8-3.7,27.7-5.7,41.5-1.9,12.5-4.5,24.9-6.2,37.5-1.6,11.6-2.5,23.4-3.4,35.1-.2,3.1,1.1,7.7,2.8,11.5l-222-.3c1.4-1.5,2.3-3,2.3-4.1.5-9,.5-18,1.1-26.9.7-9.5,2.2-19,3-28.5.8-10.1,1.2-20.2,2-30.3,1.2-16,2.7-32,3.9-48,1.1-14.7,2.1-29.4,3.2-44.1,1.3-19,2.8-37.9,3.8-56.9.2-4.2-.6-8.2,4.6-9.9,1-.4,1.6-2.1,2.5-3s2.2-2,3.4-2.1c17.6-1.7,35.1-3.7,52.7-4.6,18.4-1,36.9-.4,55.3-1.4,19.5-1,38.9-3.1,58.3-4.7,11.4-1,22.8-2.4,34.2-3C-1145.9,766.2-1137,766.6-1127.7,766.6Z" transform="translate(1716.7 362.9)"/><path d="M-1142.1-221a3.13,3.13,0,0,1,1.2,2.4q-.6,35.25-1.4,70.6l-11.3,2.6c0-1.9-.4-3.6.1-5,2.2-7.6-3.4-12-9.1-11.9a148.76,148.76,0,0,0-23,2.7c-4.7.9-5.8,3.7-4.5,8.6l2.5,10c-10.6-.4-10.5-.7-12.5-10.4-3.1-15.6-6.4-31.1-10-46.5-.8-3.6-3-6.8-4.5-10.1l18.9-2c.3,5.1.6,9.6.8,14.2.2,5,.1,10,.2,14.9.1,4.6,3,8.2,7.6,8,8-.3,16.1-1.2,24.1-2.2,3.6-.4,5-2.6,5.3-6.5.8-14,2-27.9,3.2-43.2C-1150-223.4-1146-222.3-1142.1-221Z" transform="translate(1716.7 362.9)"/><path class="cls-4" d="M-1191.3,700.1c.8,4.2-.6,4.6-3.8,4.6-24.9.2-49.8.5-74.7.7l-35.8.3c-1.8,0-3.6-.2-5.4-.2l.9-1.3c-3.4-5.9-6.6-11.9-10.2-17.6-6.3-10.1-12-20.6-19.4-29.8a74.05,74.05,0,0,1-15.9-39.3c-1.1-9.6-.5-19.5.6-29.2,2-17.3,5.2-34.4,7.2-51.6,1.1-9.8.4-19.8,1.2-29.7,1.1-14.5,3.6-29,3.9-43.5a195.64,195.64,0,0,1,6.4-47.6c4.7-16.9,13.9-31.4,25.6-44.5,8.6-9.6,17.3-19.1,26-28.7l1.5,1c-2.3,4.1-4.5,8.3-7.1,12.2-9.8,14.7-15.7,30.9-19,48.1-1.7,8.6-2.4,17.4-3.2,26.1-1,10.4,1.4,20.4,4.3,30.3.4,1.5.9,3.4.4,4.8-5.7,15.8-2.2,31.1,2.5,46.2,5.1,16.2,11.3,32.1,15.8,48.5,3,10.9,3.7,22.4,5.6,33.6.4,2.5-.3,6.1,4.1,6,3.3-.1,7.2-3.8,7.1-7.7-.2-6.1-.8-12.2-1.2-18.2-1.2-17.8-6.7-34.5-12.6-51.2-5-14.4-11.1-28.9-10.1-44.7.3-4.8.8-9.5,5-13.3,10.3,8,13.9,19.1,16,31.1,2.6,14.7,4.9,29.4,8.3,43.9s14.1,24.6,23.6,35.1c9.3,10.3,20.3,19.1,29.2,29.7,5.6,6.6,9.3,15,12.7,23,6.1,14.4,6.2,30,7.3,45.3A212,212,0,0,0-1191.3,700.1Z" transform="translate(1716.7 362.9)"/><path d="M-1394.8,1034.2h9.7c-3.1,3.3-8.4,6.8-11.7,6.8C-1396.2,1038.7-1395.5,1036.4-1394.8,1034.2Z" transform="translate(1716.7 362.9)"/><polyline class="cls-6" points="319.9 1397.1 321.9 1397.1 331.6 1397.1 553.6 1397.4 558.4 1397.4"/><polyline class="cls-6" points="1228.3 1397 1225 1397 1009.6 1397"/></svg>