<svg id="future3_画像" data-name="future3 画像" xmlns="http://www.w3.org/2000/svg" width="1660.23" height="1660.23" viewBox="0 0 1660.23 1660.23"><defs><style>.cls-1{fill:#fff;}.cls-2{fill:#ed652f;}.cls-10,.cls-12,.cls-3,.cls-5,.cls-8{fill:none;stroke:#000500;}.cls-3,.cls-5,.cls-8{stroke-miterlimit:10;}.cls-10,.cls-11,.cls-12,.cls-4,.cls-5,.cls-6,.cls-7,.cls-8,.cls-9{isolation:isolate;font-family:ComicSansMS-Bold, Comic Sans MS;font-weight:700;}.cls-4,.cls-5,.cls-6,.cls-7,.cls-8{font-size:72px;}.cls-4{fill:#dd4b25;}.cls-6{fill:#7377ad;}.cls-7{fill:#f5d13a;}.cls-7,.cls-8{letter-spacing:-0.12em;}.cls-10,.cls-9{font-size:72.32px;letter-spacing:-0.12em;}.cls-9{fill:#0865a7;}.cls-10{stroke-miterlimit:10.04;stroke-width:1px;}.cls-11,.cls-12{font-size:71.72px;}.cls-11{fill:#33a3d4;}.cls-12{stroke-miterlimit:9.96;stroke-width:1px;}</style></defs><circle class="cls-1" cx="830.12" cy="830.12" r="830.12"/><path d="M1341.84,1335.5v8.14H284.74c9.23-.28,18.47-.77,27.7-.8,34.39-.11,68.78,0,103.17-.13,28.68-.16,57.36-.71,86-1,20.32-.19,40.64-.18,61-.31,28.57-.19,57.15-.62,85.73-.59,25.55,0,51.09-.4,76.63-1,17.76-.42,35.54,0,53.32-.11,30-.26,60.07-.76,90.11-1,38-.38,75.93-.63,113.9-1,26.32-.24,52.65-.64,79-.77,38-.19,76.07-.08,114.1-.32,33.16-.21,66.32-.81,99.49-1.07C1296.94,1335.37,1319,1335.5,1341.84,1335.5Z" transform="translate(60.78 70.66)"/><path d="M1298.88,710.83c4.27-.52,6.38,2,5.67,6.47-1.36,8.6-2.44,17.24-3.67,25.86-.32,2.26-.43,4.66-1.33,6.69-.48,1.08-2.42,2-3.75,2.12-8.92.45-17.84.79-26.76,1.15-10.18-6.2-22.73-6-33.23-.56-1.44.76-2.85,1.6-4.21,2.5h-.75c-28.51,2.11-57,1.85-85.5.64-13.24-.56-26.52-.29-39.76-.91-17.35-.81-34.7-2-52-3.32-3.14-.24-4.12.53-4.59,3.41-3.54,21.66-7.33,43.28-10.73,65-1.51,9.63-2.22,19.37-3.44,29-1.68,13.41-3.6,26.79-5.21,40.2-.81,6.74-1.44,13.52-1.61,20.29-.09,3.38-1.32,5.13-4.43,5.33-12.52.82-25,1.59-37.58,2.19-7.49.35-15,.65-22.5.47-19.07-.47-38.14-.93-57.18-2-13.81-.75-27.57-2.36-41.35-3.65-14.52-1.36-29-2.65-43.53-4.3-3.16-.36-3.24.93-3.45,3.17-1.26,13.53-2.32,27.09-4,40.57-2,15.9-4.72,31.7-6.67,47.59-1.45,11.86-2,23.82-3.27,35.69-.71,6.49-2.34,12.88-3.13,19.36-.37,3.09.67,6.34.34,9.44q-2.34,22.68-5.23,45.3a4.77,4.77,0,0,1-2.81,3.36c-6.21,1.43-12.52,2.45-18.85,3.63v-6.1c-.66.17-1.73.16-1.91.55-.53,1.18-.72,2.52-.36,5.46-7.41,0-14.82-.2-22.21,0-12.52.42-25,1.63-37.52,1.6-17.06,0-34.44,2.8-51.07-2.67-11.79-3.88-23.47-2.46-35.34-2s-24,.56-35.93.09c-18.38-.72-36.75-2-55.12-3.17-3.57-.23-5.47.62-5.93,4.64-1.72,15-3.77,29.92-5.66,44.88-1.93,15.25-3.79,30.52-5.72,45.77-2.07,16.39-4.21,32.77-6.29,49.16-2.44,19.21-4.56,38.41-4,57.88.16,5.62,1.89,11,1.31,16.71-.54,5.25-2,7.52-7.45,8.12-6.64.74-13.26,2-19.9,2.14a177.54,177.54,0,0,1-23.61-1.34c-1.43-.16-3.75-3.45-3.58-5.08,1.57-15.24,3.63-30.44,5.5-45.66,2.37-19.31,4.82-38.62,7-58,1.88-16.61,3.36-33.27,5.12-49.9,1.57-14.81,3.19-29.62,5-44.4,2.53-20.89,5.26-41.75,7.83-62.62.36-2.93,1.55-6.23-2.68-7.91-.64-.25-.88-3.11-.35-4.36,1.09-2.61,2.73-5,6.26-4.59,6.58.85,13.17,1.64,19.74,2.53,18.28,2.48,36.52,5.3,54.85,7.4,16.2,1.85,32.46,3.33,48.74,4.16,14.06.72,28.18,0,42.26.47,10.67.36,21.3,1.69,32,2.38,4.42.29,8.88,0,13.33,0V1071l-3-.74a11,11,0,0,1,1.68-.46c10.51-.37,21-.61,31.52-1.14,4.07-.21,8.15-1.73,12.16-1.49,4.52.26,4.44-2.2,4.52-5.18.18-6.29.2-12.59.65-18.86.57-8,1.45-16.06,2.3-24.07.9-8.55,1.92-17.09,2.86-25.63,1.42-12.8,2.73-25.61,4.26-38.4,2.15-18,4.65-36.06,6.62-54.13,1.38-12.52,2.1-25.12,3.17-37.68a94,94,0,0,1,1.35-11.32c.79-3.75,3.34-6.48,7.4-5.93,19.34,2.61,38.63,5.57,58,8.19,10.66,1.45,21.38,2.48,32.08,3.7,9.33,1.07,18.65,2.15,28,3.18,11.67,1.28,23.32,2.82,35,3.7,17.34,1.31,34.72,2.08,52.07,3.22,3.63.23,5.46-.86,6.16-4.65,3.17-17.31,6.53-34.58,9.89-51.86,2.62-13.45,4.93-27,8.24-40.26,1.27-5.13,1.62-10.36,3-15.46,1.49-5.67,1.94-11.63,2.78-17.47,1.54-10.73,3-21.48,4.55-32.21,1-6.66,2.85-7.14,9.27-5.24,7.82,2.31,15.93,4.62,24,4.93,24.17.94,48.38.74,72.58,1.3,18.42.43,36.82,1.36,55.24,2,17.68.64,35.36,1.54,53,1.72,15.41.15,30.83-.42,46.23-.93,5.43-.18,10.83-1.27,16.26-1.66,1.47-.1,3,.83,4.52,1.28C1296.25,710.11,1297.64,711,1298.88,710.83Zm-6.73,29.49c.66-7.55,1.43-15.08,2.23-23.42-4.35.37-8.73,1-13.12,1.07-9.27.2-18.55.18-27.82.18-22.59,0-45.19.22-67.77-.16-21.38-.37-42.74-1.66-64.12-2.07-17.75-.34-35.53.45-53.27-.1-13.52-.42-27-1.89-40.47-3.5-4-.47-5.53.41-6,4.07-1.07,8.51-1.87,17.07-3.32,25.51-2,11.54-4.45,23-6.69,34.47q-3.42,17.58-6.82,35.16c-3.43,17.89-6.64,35.82-10.31,53.66-1.36,6.58-4.25,12.44-12.38,11.51-6.23-.71-12.56-.44-18.83-.81q-23.76-1.42-47.52-3c-9.09-.62-18.2-1.21-27.25-2.21-8.85-1-17.62-2.62-26.47-3.68-19-2.3-38.06-4.34-57.07-6.64-7.54-.91-15-2.28-22.55-3.34-3.12-.44-6-.39-6.34,4-1,11.91-2,23.82-3.09,35.72-1.35,14-2.7,28-4.37,42-2.1,17.59-4.57,35.13-6.79,52.71q-1.68,13.31-3,26.66c-.75,7.52-1.26,15.07-1.88,22.61-.44-3.47-.88-6.93-1.33-10.4a29,29,0,0,0-2,10.45c0,1.78,1.16,3.37,2.84.7-.22,5-1.12,10-.49,14.92,1,7.48-2.39,11.09-9,12.87-.23.06-.35.5-.53.76,2.35,4.23,1.55,6.15-3.52,6.63-12.21,1.15-24.45,2.59-36.69,2.8-21.17.35-42.35.11-63.52-.34-22.67-.47-45.38.81-68-2.26-21.15-2.88-42.36-5.25-63.53-7.9-5.17-.65-10.3-1.51-15.79-2.33-.49,5.52-.76,10.16-1.33,14.76-2.56,20.69-5.39,41.35-7.77,62.06-3.17,27.5-5.86,55-9.06,82.54-2.83,24.33-6,48.62-9.2,72.9-.77,5.87-2.16,11.66-3.4,18.13a1.4,1.4,0,0,1,.71.92,25.32,25.32,0,0,1-.25,6.45c-.63,3.21.53,4.45,3.69,4.93,10,1.52,19.73.62,30-2.06-.44-4.56-1.4-9-1.19-13.34,1.14-22.83,2.09-45.68,4.07-68.44,1.44-16.43,4.53-32.7,6.63-49.08,1.6-12.47,2.77-25,4.19-37.49,1.72-15.13,3.41-30.26,5.32-45.36a64.09,64.09,0,0,1,2.64-10.57c2.11-6.81,5.44-7.92,11.21-4.08a7.85,7.85,0,0,0,3.73,1.13c10.75.71,21.51,1.62,32.27,1.9,23,.6,46.11.88,69.17,1.24,5.14.08,10.3-.29,15.43,0,4.4.2,8.79.9,13.17,1.51,8.08,1.12,16.15,3.37,24.22,3.34,21.6-.08,43.19-1.16,64.79-1.73,9.08-.24,18.18-.43,27.26-.22,3.83.09,5-1.91,5.51-4.91.53-3.41.76-6.87,1.11-10.3q1.92-19,3.82-37.93c1-10.35,1.55-20.81,3.45-31,1-5.06-2.15-11.67,4.47-15.27.68-.36.52-2.27.75-3.46l-.82-.3-2.06,3.42c.41-10.39,1.5-20.44,2.78-30.47,1.49-11.64,3.37-23.24,4.66-34.9,1.25-11.35,1.92-22.77,3-34.14.55-6.11,5.36-10.14,11.42-9.46,17.58,2,35.18,3.75,52.7,6.16a448,448,0,0,0,56.81,3.92c12.06.13,24.1,1.6,36.15,1.7,15,.11,30-.57,45-.91,6.77-.16,7.85-1.27,8.59-8,2.09-19.07,4.09-38.15,6.45-57.19,1.35-10.84,3.25-21.62,5-32.4q4.8-28.8,9.76-57.56c.59-3.45.81-7.32,2.58-10.12,2.71-4.29,7-.64,10.57-.53,10.52.35,21,1.19,31.51,2,11.39.87,22.75,2.56,34.15,2.76,30.2.54,60.41.81,90.6.51,20.24-.2,40.46-1.5,60.68-2.4,5.76-.25,11.51-1.21,17.26-1.1C1290.9,744.09,1291.9,743.16,1292.15,740.32ZM969.92,872.15c.14-.33.28-.65.41-1H957.54v1Zm-280.4,241.11h29.19c-5-3.92-24.67-4.28-29.19,0Z" transform="translate(60.78 70.66)"/><path class="cls-2" d="M1294.38,716.9c-.8,8.34-1.57,15.87-2.23,23.42-.25,2.84-1.25,3.77-4.42,3.71-5.75-.11-11.5.85-17.26,1.1-20.22.9-40.44,2.2-60.68,2.4-30.19.3-60.4,0-90.6-.51-11.4-.2-22.76-1.89-34.15-2.76-10.5-.8-21-1.64-31.51-2-3.53-.11-7.86-3.76-10.57.53-1.77,2.8-2,6.67-2.58,10.12q-5,28.77-9.76,57.56c-1.79,10.78-3.69,21.56-5,32.4-2.36,19-4.36,38.12-6.45,57.19-.74,6.78-1.82,7.89-8.59,8-15,.34-30,1-45,.91-12-.1-24.09-1.57-36.15-1.7a448,448,0,0,1-56.81-3.92c-17.52-2.41-35.12-4.2-52.7-6.16-6.06-.68-10.87,3.35-11.42,9.46-1,11.37-1.7,22.79-3,34.14-1.29,11.66-3.17,23.26-4.66,34.9-1.28,10-2.37,20.08-2.78,30.47l2.06-3.42.82.3c-.23,1.19-.07,3.1-.75,3.46-6.62,3.6-3.52,10.21-4.47,15.27-1.9,10.19-2.4,20.65-3.45,31q-1.92,19-3.82,37.93c-.35,3.43-.58,6.89-1.11,10.3-.47,3-1.68,5-5.51,4.91-9.08-.21-18.18,0-27.26.22-21.6.57-43.19,1.65-64.79,1.73-8.07,0-16.14-2.22-24.22-3.34-4.38-.61-8.77-1.31-13.17-1.51-5.13-.24-10.29.13-15.43,0-23.06-.36-46.12-.64-69.17-1.24-10.76-.28-21.52-1.19-32.27-1.9a7.85,7.85,0,0,1-3.73-1.13c-5.77-3.84-9.1-2.73-11.21,4.08a64.09,64.09,0,0,0-2.64,10.57c-1.91,15.1-3.6,30.23-5.32,45.36-1.42,12.49-2.59,25-4.19,37.49-2.1,16.38-5.19,32.65-6.63,49.08-2,22.76-2.93,45.61-4.07,68.44-.21,4.36.75,8.78,1.19,13.34-10.27,2.68-20,3.58-30,2.06-3.16-.48-4.32-1.72-3.69-4.93a25.32,25.32,0,0,0,.25-6.45,1.4,1.4,0,0,0-.71-.92c1.24-6.47,2.63-12.26,3.4-18.13,3.19-24.28,6.37-48.57,9.2-72.9,3.2-27.49,5.89-55,9.06-82.54,2.38-20.71,5.21-41.37,7.77-62.06.57-4.6.84-9.24,1.33-14.76,5.49.82,10.62,1.68,15.79,2.33,21.17,2.65,42.38,5,63.53,7.9,22.6,3.07,45.32,1.79,68,2.26,21.17.45,42.36.69,63.53.34,12.23-.21,24.47-1.65,36.68-2.8,5.08-.48,5.88-2.4,3.52-6.63.18-.26.31-.7.53-.76,6.61-1.78,10-5.39,9-12.87-.62-4.87.28-9.94.49-14.92-1.67,2.67-2.84,1.08-2.84-.7a29.22,29.22,0,0,1,2-10.45c.45,3.47.89,6.93,1.33,10.4.63-7.54,1.13-15.09,1.88-22.61q1.37-13.35,3-26.66c2.22-17.58,4.69-35.12,6.79-52.71,1.67-14,3-28,4.38-42,1.13-11.9,2.12-23.81,3.09-35.72.34-4.36,3.22-4.41,6.34-4,7.53,1.06,15,2.43,22.55,3.34,19,2.3,38.06,4.34,57.07,6.64,8.85,1.06,17.62,2.71,26.47,3.68s18.16,1.59,27.25,2.21q23.76,1.62,47.52,3c6.27.37,12.6.1,18.83.81,8.13.93,11-4.93,12.38-11.51,3.67-17.84,6.88-35.77,10.31-53.66q3.36-17.58,6.82-35.16c2.24-11.48,4.72-22.93,6.69-34.47,1.45-8.44,2.25-17,3.32-25.51.47-3.66,2-4.54,6-4.07,13.44,1.61,27,3.08,40.47,3.5,17.74.55,35.52-.24,53.27.1,21.38.41,42.74,1.7,64.12,2.07,22.58.38,45.18.15,67.77.16,9.27,0,18.55,0,27.82-.18C1285.64,717.87,1290,717.27,1294.38,716.9Z" transform="translate(60.78 70.66)"/><path d="M868.52,557.51c6.77,6.17,4.83,14.11,4.38,21.41-.5,8.06-4.44,15-10,21a40.72,40.72,0,0,1-27.33,13.46c-9.92.86-19.81,2.31-29.74,2.57-17.06.43-33.36-3.8-49.46-9.14-12.71-4.22-24-10.88-34.89-18.47A191.42,191.42,0,0,0,671.64,563c-20.06-6.58-30-21.35-35-40.43-3.9-14.64-7.31-29.41-12-44.22-3.33,8.15-6.76,16.25-10,24.45-9.51,24.43-18.52,49.07-28.54,73.29-6.69,16.15-14.93,31.66-22.11,47.62a51.51,51.51,0,0,0-4.36,15.13c-.86,7.83,3.5,13.11,11.33,13.26,24.21.45,46.83,8.1,69.88,14.11,9.67,2.53,20,2.65,30,4,5.9.8,11.9,1.35,17.61,2.9,16.81,4.57,20.42,16,19.11,30.2-1,10.66-4,21.12-5.45,31.76-.63,4.57.51,9.37.6,14.06.13,7,1,14.1-.17,20.84-3.06,16.88-7,33.6-10.83,50.34-4.11,18.17-7.88,36.45-12.81,54.4-4.11,15-10.08,29.43-14.52,44.32-7.23,24.26-15.3,48.22-25.22,71.5-4.29,10.08-10,19.33-20.17,25-7.17,4-14.81,4.36-22.53,3.35-10.64-1.38-21.33-2.81-31.78-5.16a22.21,22.21,0,0,1-17.26-25.71c3-17.34,5-34.87,7.86-52.26,2.54-15.64,4.9-31.36,8.57-46.75,3.86-16.21,9.21-32.07,13.88-48.09,5.18-17.77,10.65-35.46,15.36-53.35,3.07-11.61,1-23-4.56-33.64a9.35,9.35,0,0,0-4.36-3.76c-7.23-3.16-14.57-6.06-21.91-9a7.68,7.68,0,0,0-3.33-.49c-13.7,1.09-27-1.72-40.46-3.43-17.92-2.27-36.1-2.73-54.2-3.24a265.61,265.61,0,0,1-68.88-10.47,83.12,83.12,0,0,1-18-8.28c-8.38-4.93-10.66-13.49-11.47-22.51-.86-9.62.15-19,5.93-27,7-9.85,8-21.6,11-32.75,2.31-8.78,4.53-17.58,7.08-26.28,8.58-29.28,17.83-58.39,25.69-87.86,3.56-13.37,4.19-27.5,6.68-41.19,1.65-9.09,4.23-18,6.63-28a26.51,26.51,0,0,0-3.57,1.8c-10.45,8.15-20.53,16.83-31.41,24.35-8.2,5.67-9.78,14.15-12.18,22.46-4,14-7.25,28.24-11.77,42.07-4.16,12.73-8.53,25.6-14.72,37.41-9.88,18.84-21.26,37.07-41.35,47-9.13,4.51-18.56,8.45-29.19,8.86-14.49.56-21.58-10.07-22.76-20.27a51.47,51.47,0,0,1,.66-16.33q5-23.34,11-46.45c5-19.15,14.7-36.16,25.6-52.53,7.33-11,15.75-21.53,21.54-33.32a332.85,332.85,0,0,0,18.83-47.44c6-19.13,17-33.53,33.24-44.95,11.66-8.2,22.36-17.8,33.24-27.07,16.72-14.24,33-29.07,49.91-43,17.28-14.25,37.47-16,58.8-12.14,6.94,1.26,14.14,1,21.21,1.52,12.9,1,25.85,1.61,38.67,3.27,15.94,2.07,31.94,4.32,47.61,7.83,14.65,3.29,29.84,6.47,43.11,13.08,15.5,7.73,29.81,18.82,34.1,37.42a180.08,180.08,0,0,1,4.62,45.39c-.22,8.58,1.28,17.22,2.19,25.81,1.1,10.39,2.35,20.77,3.63,31.14a24.29,24.29,0,0,0,7.54,14.75c7.21,7.05,14.07,14.43,21.24,21.51C749.36,502.38,763,508,776.46,513.35c19.75,7.83,39.89,14.67,59.73,22.29a112.77,112.77,0,0,1,20.88,10.06C861.53,548.57,864.44,553.8,868.52,557.51Zm-5.65,19.93c1.76-15.78-4.93-23.3-16-27.45Q816.14,538.47,785,527.9c-15.82-5.38-31.75-10.55-45.33-20.54A191.36,191.36,0,0,1,709,478.57a45.8,45.8,0,0,1-11.78-27c-.77-7.92-1.78-15.81-2.57-23.73-1-10-1.9-20.11-2.85-30.16l1.45-.16c-1.08-9-2-18.13-3.3-27.15-1-6.71-1.57-13.71-4-19.9-5-12.57-16.44-19.86-27.46-25.62-10.47-5.47-22.77-7.88-34.54-10.32-14.87-3.08-30-4.95-45-7.1-11.32-1.63-22.67-3.14-34.05-4.23-14.67-1.4-29.4-2.25-44.08-3.51-9.4-.8-19.46-1.07-27,4.23a463.53,463.53,0,0,0-42.06,34c-16.54,14.82-32.25,30.63-51,42.68C367,389.36,357.4,401,352.38,416.45c-2.79,8.63-6,17.12-8.64,25.79-5.74,19-16.29,35.29-27.63,51.25-11.7,16.48-23,33.31-28.79,52.94-4.39,15-7.91,30.16-11.49,45.33a59.36,59.36,0,0,0-1.93,15.75c.39,9.19,4.69,16.81,15.63,13.8,6.69-1.83,13.17-4.36,19.81-6.39s11.88-6.34,16.42-11.6a140.35,140.35,0,0,0,26.37-45.9c4.54-13,9.41-25.86,13.46-39,2.92-9.51,4.83-19.33,7-29,1.69-7.5,4.89-13.5,11.71-18,9.38-6.19,18.19-13.28,26.93-20.39,7.2-5.86,13.63-12.73,21.07-18.24,2.42-1.79,7.12-1.46,10.48-.74,3.18.69,3.43,4.09,2.64,7.09-2.14,8.15-4.53,16.24-6.43,24.45-2.77,11.92-5.37,23.88-7.68,35.89-1.44,7.48-1.64,15.23-3.39,22.62-3.11,13.18-6.84,26.21-10.56,39.23-3.32,11.61-7.08,23.11-10.45,34.71-4.43,15.25-9.36,30.41-12.73,45.91-2.11,9.72-4.46,19.27-9.93,27.38s-6.1,16.94-4.25,25.66c.92,4.34,4.59,9.48,8.46,11.51,7.38,3.89,15.66,6.33,23.8,8.44,28.67,7.42,58.2,6.73,87.45,8.34a209.71,209.71,0,0,1,31.51,3.62c7,1.46,14.44,1.44,21.69,1.48,6,0,11.87,0,17.46,2.85,4.38,2.26,8.89,4.91,13.62,5.7,14.84,2.48,18.46,15.25,22.09,26,2.58,7.58,2.4,17-.43,25.81C600,806.27,595.16,824.12,590,841.86c-5.2,17.93-11.15,35.68-15.34,53.84-4.56,19.79-7.66,39.93-11,60-1.82,10.92-3.23,22-4.06,33-.56,7.48,4.27,13,11.7,14.33q14.4,2.47,29,4c14.35,1.49,22-4.34,26.73-16,8.26-20.26,15-41.15,21.82-62,7.52-23.07,15.15-46.15,21.32-69.6,7.46-28.36,13.6-57.07,19.9-85.73,1.3-5.88,1.94-12.4.76-18.19-.91-4.44-1.5-8.42-.68-12.83,2.16-11.56,4.23-23.14,6.14-34.74,1.94-11.78-1.62-20.19-10.28-23.26-4.47-1.58-9.34-2.08-14.07-2.8-13.58-2-27.56-2.6-40.69-6.24C610.09,669.77,589,664.5,567,663.08c-8.89-.57-16.73-7.76-19.2-16.31-2.36-8.16.91-15.31,4.11-22.35,5.74-12.6,12-25,17.72-37.6,3.21-7,5.86-14.33,8.86-21.48,4-9.41,8.31-18.68,11.94-28.22,4.12-10.79,7.77-21.78,11.37-32.76q8.1-24.72,15.81-49.57c1.65-5.3,7.59-7.41,11.06-3.08,3,3.72,5,8.43,6.58,13,1.54,4.32,1.91,9.05,3,13.55,3.35,14,6.48,28,10.29,41.87,3.88,14.08,10.09,25.94,25.55,31.64,14.46,5.34,28.18,12.81,41.9,20,9.5,5,18.16,11.53,27.67,16.45,23,11.9,47.15,19.72,73.6,17.44,5.29-.46,10.59-1.22,15.88-1.14C847.1,604.63,860.87,595.34,862.87,577.44Z" transform="translate(60.78 70.66)"/><path d="M846.85,550c11.09,4.15,17.78,11.67,16,27.45-2,17.9-15.77,27.19-29.87,27-5.29-.08-10.59.68-15.88,1.14-26.45,2.28-50.58-5.54-73.6-17.44-9.51-4.92-18.17-11.49-27.67-16.45-13.72-7.17-27.44-14.64-41.9-20-15.46-5.7-21.67-17.56-25.55-31.64-3.81-13.86-6.94-27.9-10.29-41.87-1.08-4.5-1.45-9.23-3-13.55-1.62-4.56-3.6-9.27-6.58-13-3.47-4.33-9.41-2.22-11.06,3.08q-7.71,24.87-15.81,49.58c-3.6,11-7.25,22-11.37,32.76-3.63,9.54-8,18.81-11.94,28.22-3,7.15-5.65,14.44-8.86,21.48-5.76,12.6-12,25-17.72,37.6-3.2,7-6.47,14.19-4.11,22.35,2.47,8.55,10.31,15.74,19.2,16.31,22,1.42,43.11,6.69,64.28,12.56,13.13,3.64,27.11,4.19,40.69,6.24,4.73.72,9.6,1.22,14.07,2.8,8.66,3.07,12.22,11.48,10.28,23.26-1.91,11.6-4,23.18-6.14,34.74-.82,4.41-.23,8.39.68,12.83,1.18,5.79.54,12.31-.76,18.19-6.3,28.66-12.44,57.37-19.9,85.73-6.17,23.45-13.8,46.53-21.32,69.6-6.8,20.82-13.56,41.71-21.82,62-4.77,11.71-12.38,17.54-26.73,16-9.69-1-19.35-2.38-29-4-7.43-1.28-12.26-6.85-11.7-14.33.83-11,2.24-22.07,4.06-33,3.35-20.06,6.45-40.2,11-60,4.19-18.16,10.15-35.91,15.34-53.84,5.15-17.74,10-35.59,15.64-53.17,2.83-8.78,3-18.23.44-25.81-3.63-10.71-7.25-23.48-22.09-26-4.73-.79-9.24-3.44-13.62-5.7-5.59-2.9-11.43-2.82-17.46-2.85-7.25,0-14.65,0-21.69-1.48a210,210,0,0,0-31.51-3.62c-29.25-1.61-58.78-.92-87.45-8.34-8.14-2.11-16.42-4.55-23.8-8.44-3.87-2-7.54-7.17-8.46-11.51-1.85-8.72-1.3-17.45,4.25-25.66s7.82-17.66,9.93-27.38c3.37-15.5,8.3-30.66,12.73-45.91,3.37-11.6,7.13-23.1,10.45-34.71,3.72-13,7.45-26.05,10.56-39.23,1.75-7.39,2-15.14,3.39-22.62,2.31-12,4.91-24,7.68-35.89,1.9-8.21,4.29-16.3,6.43-24.45.79-3,.54-6.4-2.64-7.09-3.36-.72-8.06-1.05-10.48.74-7.44,5.51-13.87,12.38-21.07,18.24-8.74,7.11-17.55,14.2-26.93,20.39-6.82,4.51-10,10.51-11.71,18-2.18,9.72-4.09,19.54-7,29.05-4,13.13-8.92,26-13.46,39a140.71,140.71,0,0,1-26.37,45.9c-4.54,5.26-9.64,9.52-16.42,11.6s-13.12,4.56-19.81,6.39c-10.94,3-15.24-4.61-15.63-13.8a59,59,0,0,1,1.93-15.75c3.58-15.17,7.1-30.38,11.49-45.33C293,526.73,304.28,509.9,316,493.42c11.34-16,21.89-32.26,27.63-51.25,2.61-8.67,5.85-17.16,8.64-25.79,5-15.45,14.63-27.09,28.29-35.85,18.79-12,34.5-27.86,51-42.68a460.79,460.79,0,0,1,42.06-34c7.51-5.3,17.57-5,27-4.23,14.68,1.26,29.41,2.11,44.08,3.51,11.38,1.09,22.73,2.6,34.05,4.23,15,2.15,30.18,4,45,7.1,11.77,2.44,24.07,4.85,34.54,10.32,11,5.76,22.43,13.05,27.46,25.62,2.48,6.19,3.06,13.19,4,19.9,1.33,9,2.22,18.1,3.3,27.15l-1.45.16c1,10.05,1.85,20.11,2.85,30.16.79,7.92,1.8,15.81,2.57,23.73a45.7,45.7,0,0,0,11.78,27,191,191,0,0,0,30.81,28.86c13.58,10,29.51,15.16,45.33,20.54Q816.11,538.46,846.85,550Z" transform="translate(60.78 70.66)"/><path d="M694,157.64c5.52,15.06,5.3,29.42.45,44.16-5,15.13-12.61,28.87-23.77,40.22-10,10.17-22.24,16.59-36.88,17.37-7.46.39-14.91.69-22.37,1a161,161,0,0,1-51.65-8c-10.3-3.32-17.6-11.06-24.9-18.24-19.7-19.38-29.64-43.64-30-70.94-.37-24.92,11.1-45.21,29.58-61.65,20-17.84,43.4-23.46,69.32-18.06A205.39,205.39,0,0,1,636,92.92c10.91,4.22,19.79,11.9,28,20.2C676.81,126.08,687.64,140.08,694,157.64Zm-11.76,45.44c3.67-9.45,7.24-19.59,4.26-29.61a183.84,183.84,0,0,0-13.15-31.37c-2.88-5.6-7.94-10.1-12.14-15-8.17-9.49-17-18.71-28.83-23-12.18-4.45-25-7.44-37.69-10.13a51.66,51.66,0,0,0-18.39-.16c-20.94,3.35-37,14.9-48.59,32.19-8.79,13.07-14.09,27.7-11.91,43.74,2.23,16.46,8.34,31.62,17.32,45.72,8.12,12.75,19.2,21.48,33.5,25.68,14.83,4.36,30,7.57,45.66,7,8.11-.54,16.22-1,24.32-1.63,11.17-.82,20-6.5,27.72-14,8.47-8.24,13.73-18.64,17.92-29.43Z" transform="translate(60.78 70.66)"/><path d="M686.52,173.47c3,10-.59,20.16-4.26,29.61-4.19,10.79-9.45,21.19-17.92,29.41-7.73,7.51-16.55,13.19-27.72,14-8.1.59-16.21,1.09-24.32,1.63-15.7.55-30.83-2.66-45.66-7-14.3-4.2-25.38-12.93-33.5-25.68-9-14.1-15.09-29.26-17.32-45.72-2.18-16,3.12-30.67,11.91-43.74,11.63-17.29,27.65-28.84,48.59-32.19a51.66,51.66,0,0,1,18.39.16c12.72,2.69,25.51,5.68,37.69,10.13,11.86,4.33,20.66,13.55,28.83,23,4.2,4.89,9.26,9.39,12.14,15A184.38,184.38,0,0,1,686.52,173.47Z" transform="translate(60.78 70.66)"/><path d="M434.11,757.2c2.64,1.64,4.66,4.82,2.18,7-5.65,4.87-5.87,11.69-7.36,17.83-6,24.57-10.69,49.46-17.06,73.92C401.81,894.56,391.4,933.1,380,971.31c-6.64,22.17-15.71,43.6-23.45,65.45-5.6,15.78-10.26,31.81-12,48.58a52.87,52.87,0,0,1-12.28,28.39c-9.41,11.47-20.06,21.61-33,29.14a57.24,57.24,0,0,1-9.66,4.89c-11.23,4-22.43,8.27-33.9,11.47-12.07,3.38-19.89.91-26.5-14.19-3.24-7.4-4-15.89-5.88-24.06,3-14.5,5.54-28.66,9-42.61,3.58-14.64,7.74-29.15,12.1-43.57q9.71-32.12,20.08-64c6.94-21.43,14.65-42.61,21.26-64.14,4.61-15,7.7-30.49,11.85-45.66,5.75-20.94,12-41.76,17.79-62.68,5.71-20.56,11.35-41.15,16.61-61.82,1.38-5.41,1-11.22,1.89-16.79.36-2.39,1.39-6.38,2.64-6.59,2.75-.47,6.09.5,8.71,1.82,2.07,1,3.65,3.36,5.09,5.37C358.69,732,371.56,736.5,384.18,741c14.79,5.25,29.93,9.53,44.9,14.27A21.36,21.36,0,0,1,434.11,757.2Zm-19.6,31.24c1.72-7.7,3.29-15.43,5-23.37-2.5-.76-4.88-1.41-7.21-2.21-14.52-5-29.24-9.52-43.46-15.27-8.12-3.29-15.41-8.61-23.22-13.1a2.25,2.25,0,0,0-.47,1c-5.39,20.32-10.67,40.67-16.17,61-7.74,28.6-15.64,57.16-23.47,85.73-3.72,13.55-6.86,27.3-11.28,40.62-8.27,25-17.67,49.52-25.88,74.48-7.07,21.52-13.64,43.25-19.5,65.13-4.52,16.93-8.08,34.15-11.14,51.41a39.54,39.54,0,0,0,6.08,29.55c2.24,3.33,5.21,5.44,9.24,4.23,12.2-3.68,25-6.19,36.27-11.84,10.74-5.4,20.58-13.33,29.34-21.7A48,48,0,0,0,333.42,1085c1.66-12.78,3.81-25.69,7.69-37.93,11.39-35.94,24.27-71.41,35.55-107.38,7.86-25.07,14.5-50.55,20.87-76C403.72,838.66,408.91,813.5,414.51,788.44Z" transform="translate(60.78 70.66)"/><path d="M419.48,765.07c-1.68,7.94-3.25,15.67-5,23.37-5.6,25.06-10.79,50.22-17,75.13-6.37,25.5-13,51-20.87,76-11.28,36-24.16,71.44-35.55,107.38-3.88,12.24-6,25.15-7.69,37.93A48,48,0,0,1,318.59,1114c-8.76,8.37-18.6,16.3-29.34,21.7-11.24,5.65-24.07,8.16-36.27,11.84-4,1.21-7-.9-9.24-4.23a39.54,39.54,0,0,1-6.08-29.55c3.06-17.26,6.62-34.48,11.14-51.41,5.86-21.88,12.43-43.61,19.5-65.13,8.21-25,17.61-49.53,25.88-74.48,4.42-13.32,7.56-27.07,11.28-40.62,7.83-28.57,15.73-57.13,23.47-85.73,5.5-20.29,10.78-40.64,16.17-61a2.25,2.25,0,0,1,.47-1c7.81,4.49,15.1,9.81,23.22,13.1,14.22,5.75,28.94,10.27,43.46,15.27C414.64,763.66,417,764.31,419.48,765.07Z" transform="translate(60.78 70.66)"/><path class="cls-3" d="M284.74,1343.64c9.23-.28,18.47-.77,27.7-.8,34.39-.11,68.78,0,103.17-.13,28.68-.16,57.36-.71,86-1,20.32-.19,40.64-.18,61-.31,28.57-.19,57.15-.62,85.73-.59,25.55,0,51.09-.4,76.63-1,17.76-.42,35.54,0,53.32-.11,30-.26,60.07-.76,90.11-1,38-.38,75.93-.63,113.9-1,26.32-.24,52.65-.64,79-.77,38-.19,76.07-.08,114.1-.32,33.16-.21,66.32-.81,99.49-1.07,22.06-.16,44.12,0,67,0v8.14Z" transform="translate(60.78 70.66)"/><path class="cls-3" d="M558.84,740.72a7.68,7.68,0,0,1,3.33.49c7.34,2.92,14.68,5.82,21.91,9a9.35,9.35,0,0,1,4.36,3.76c5.56,10.63,7.63,22,4.56,33.64-4.71,17.89-10.18,35.58-15.36,53.35-4.67,16-10,31.88-13.88,48.09-3.67,15.39-6,31.11-8.57,46.75-2.82,17.39-4.83,34.92-7.86,52.26a22.21,22.21,0,0,0,17.26,25.71c10.45,2.35,21.14,3.78,31.78,5.16,7.72,1,15.36.65,22.53-3.35,10.13-5.65,15.88-14.9,20.17-25,9.92-23.28,18-47.24,25.22-71.5,4.44-14.89,10.41-29.35,14.52-44.32,4.93-18,8.7-36.23,12.81-54.4,3.79-16.74,7.77-33.46,10.83-50.34,1.22-6.74.3-13.88.17-20.84-.09-4.69-1.23-9.49-.6-14.06,1.46-10.64,4.47-21.1,5.45-31.76,1.31-14.22-2.3-25.63-19.11-30.2-5.71-1.55-11.71-2.1-17.61-2.9-10-1.36-20.29-1.48-30-4-23-6-45.67-13.66-69.88-14.11-7.83-.15-12.19-5.43-11.33-13.26a51.51,51.51,0,0,1,4.36-15.13c7.18-16,15.42-31.47,22.11-47.62,10-24.22,19-48.86,28.54-73.29,3.2-8.2,6.63-16.3,10-24.45,4.71,14.81,8.12,29.58,12,44.22,5.08,19.08,15,33.85,35,40.43a191.54,191.54,0,0,1,49.84,25.29c10.88,7.59,22.18,14.25,34.89,18.47,16.1,5.34,32.4,9.57,49.46,9.14,9.93-.26,19.82-1.71,29.74-2.57a40.72,40.72,0,0,0,27.33-13.46c5.59-6,9.53-12.93,10-21,.45-7.3,2.39-15.24-4.38-21.41-4.08-3.71-7-9-11.49-11.89a112.57,112.57,0,0,0-20.79-10c-19.84-7.62-40-14.46-59.73-22.29-13.51-5.35-27.1-11-37.74-21.48-7.17-7.08-14-14.46-21.24-21.51a24.29,24.29,0,0,1-7.54-14.75c-1.28-10.37-2.53-20.75-3.63-31.14-.91-8.59-2.41-17.23-2.19-25.81a180.54,180.54,0,0,0-4.62-45.39c-4.29-18.6-18.6-29.69-34.1-37.42-13.27-6.61-28.46-9.79-43.11-13.08-15.67-3.51-31.67-5.76-47.61-7.83-12.82-1.66-25.77-2.27-38.67-3.27-7.07-.54-14.27-.26-21.21-1.52-21.33-3.85-41.52-2.11-58.8,12.14-16.94,14-33.19,28.8-49.91,43-10.88,9.27-21.58,18.87-33.24,27.07-16.25,11.42-27.25,25.82-33.24,44.95a332.85,332.85,0,0,1-18.83,47.44C315,476.47,306.53,487,299.2,498c-10.9,16.37-20.55,33.38-25.6,52.53q-6.09,23.1-11,46.45a51.47,51.47,0,0,0-.66,16.33c1.18,10.2,8.27,20.83,22.76,20.27,10.63-.41,20.06-4.35,29.19-8.86,20.09-9.94,31.47-28.17,41.35-47C361.43,565.91,365.8,553,370,540.31c4.52-13.83,7.74-28.08,11.77-42.07,2.4-8.31,4-16.79,12.18-22.46,10.88-7.52,21-16.2,31.41-24.35a26.51,26.51,0,0,1,3.57-1.8c-2.4,10-5,18.88-6.63,28-2.49,13.69-3.12,27.82-6.68,41.19-7.86,29.47-17.11,58.58-25.69,87.86-2.55,8.7-4.77,17.5-7.08,26.28-2.94,11.15-3.92,22.9-11,32.75-5.78,8.07-6.79,17.42-5.93,27,.81,9,3.09,17.58,11.47,22.51a83.12,83.12,0,0,0,18,8.28A265.85,265.85,0,0,0,464.14,734c18.1.51,36.28,1,54.2,3.24C531.86,739,545.14,741.81,558.84,740.72Z" transform="translate(60.78 70.66)"/><path class="cls-3" d="M531.17,726.83a209.71,209.71,0,0,0-31.51-3.62c-29.25-1.61-58.78-.92-87.45-8.34-8.14-2.11-16.42-4.55-23.8-8.44-3.87-2-7.54-7.17-8.46-11.51-1.85-8.72-1.3-17.45,4.25-25.66s7.82-17.66,9.93-27.38c3.37-15.5,8.3-30.66,12.73-45.91,3.37-11.6,7.13-23.1,10.45-34.71,3.72-13,7.45-26,10.56-39.23,1.75-7.39,2-15.14,3.39-22.62,2.31-12,4.91-24,7.68-35.89,1.9-8.21,4.29-16.3,6.43-24.45.79-3,.54-6.4-2.64-7.09-3.36-.72-8.06-1.05-10.48.74-7.44,5.51-13.87,12.38-21.07,18.24-8.74,7.11-17.55,14.2-26.93,20.39-6.82,4.51-10,10.51-11.71,18-2.18,9.72-4.09,19.54-7,29-4.05,13.13-8.92,26-13.46,39a140.35,140.35,0,0,1-26.37,45.9c-4.54,5.26-9.64,9.52-16.42,11.6s-13.12,4.56-19.81,6.39c-10.94,3-15.24-4.61-15.63-13.8a59.78,59.78,0,0,1,1.93-15.75c3.58-15.17,7.1-30.38,11.49-45.33,5.76-19.63,17.09-36.46,28.79-52.94,11.34-16,21.89-32.26,27.63-51.25,2.61-8.67,5.85-17.16,8.64-25.79,5-15.45,14.63-27.09,28.29-35.85,18.79-12.05,34.5-27.86,51-42.68a463.53,463.53,0,0,1,42.06-34c7.51-5.3,17.57-5,27-4.23,14.68,1.26,29.41,2.11,44.08,3.51,11.38,1.09,22.73,2.6,34,4.23,15,2.15,30.18,4,45,7.1,11.77,2.44,24.07,4.85,34.54,10.32,11,5.76,22.43,13.05,27.46,25.62,2.48,6.19,3.06,13.19,4.05,19.9,1.34,9,2.22,18.1,3.3,27.15l-1.44.16c1,10,1.85,20.11,2.85,30.16.79,7.92,1.8,15.81,2.57,23.73a45.68,45.68,0,0,0,11.78,27,190.94,190.94,0,0,0,30.72,28.81c13.58,10,29.51,15.16,45.33,20.54q31.11,10.56,61.84,22.09c11.09,4.15,17.78,11.67,16,27.45-2,17.9-15.77,27.19-29.87,27-5.29-.08-10.59.68-15.88,1.14-26.45,2.28-50.58-5.54-73.6-17.44-9.51-4.92-18.17-11.49-27.67-16.45-13.72-7.17-27.44-14.64-41.9-20-15.46-5.7-21.67-17.56-25.55-31.64-3.81-13.86-6.94-27.9-10.29-41.87-1.08-4.5-1.45-9.23-3-13.55-1.62-4.56-3.6-9.27-6.58-13-3.47-4.33-9.41-2.22-11.06,3.08q-7.68,24.87-15.77,49.58c-3.6,11-7.25,22-11.37,32.76-3.63,9.54-8,18.81-11.94,28.22-3,7.15-5.65,14.44-8.86,21.48-5.76,12.6-12,25-17.72,37.6-3.2,7-6.47,14.19-4.11,22.35,2.47,8.55,10.31,15.74,19.2,16.31,22,1.42,43.11,6.69,64.28,12.56,13.13,3.64,27.11,4.19,40.69,6.24,4.73.72,9.6,1.22,14.07,2.8,8.66,3.07,12.22,11.48,10.28,23.26-1.91,11.6-4,23.18-6.14,34.74-.82,4.41-.23,8.39.68,12.83,1.18,5.79.54,12.31-.76,18.19-6.3,28.66-12.44,57.37-19.9,85.73-6.17,23.45-13.8,46.53-21.32,69.6-6.8,20.82-13.56,41.71-21.82,62-4.77,11.71-12.38,17.54-26.73,16-9.69-1-19.35-2.38-29-4-7.43-1.28-12.26-6.85-11.7-14.33.83-11,2.24-22.07,4.06-33,3.35-20.06,6.45-40.2,11-60,4.19-18.16,10.15-35.91,15.34-53.84,5.15-17.74,10-35.59,15.64-53.17,2.83-8.78,3-18.23.44-25.81-3.63-10.71-7.25-23.48-22.09-26-4.73-.79-9.24-3.44-13.62-5.7-5.59-2.9-11.43-2.82-17.46-2.85C545.64,728.27,538.21,728.29,531.17,726.83Z" transform="translate(60.78 70.66)"/><path class="cls-3" d="M1298.88,710.83c-1.25.16-2.63-.72-4-1.13s-3.05-1.38-4.52-1.28c-5.43.39-10.83,1.48-16.26,1.66-15.4.51-30.82,1.08-46.23.93-17.69-.18-35.37-1.08-53-1.72-18.42-.67-36.82-1.6-55.24-2-24.2-.56-48.41-.36-72.58-1.3-8.06-.31-16.17-2.62-24-4.93-6.42-1.9-8.29-1.42-9.27,5.24-1.56,10.73-3,21.48-4.55,32.21-.84,5.84-1.29,11.8-2.78,17.47-1.35,5.1-1.7,10.33-3,15.46-3.31,13.28-5.62,26.81-8.24,40.26-3.36,17.28-6.72,34.55-9.89,51.86-.7,3.79-2.53,4.88-6.16,4.65-17.35-1.14-34.73-1.91-52.07-3.22-11.7-.88-23.35-2.42-35-3.7-9.34-1-18.66-2.11-28-3.18-10.7-1.22-21.42-2.25-32.08-3.7-19.33-2.62-38.62-5.58-58-8.19-4.06-.55-6.61,2.18-7.4,5.93a94,94,0,0,0-1.35,11.32c-1.07,12.56-1.79,25.16-3.17,37.68-2,18.07-4.47,36.08-6.62,54.13-1.53,12.79-2.84,25.6-4.26,38.4-.94,8.54-2,17.08-2.86,25.63-.85,8-1.73,16-2.3,24.07-.45,6.27-.47,12.57-.65,18.86-.08,3,0,5.44-4.52,5.18-4-.24-8.09,1.28-12.16,1.49-10.5.53-21,.77-31.52,1.14a11,11,0,0,0-1.68.46l3,.74v.65c-4.45,0-8.91.24-13.33,0-10.66-.69-21.29-2-32-2.38-14.08-.47-28.2.25-42.26-.47-16.28-.83-32.54-2.31-48.74-4.16-18.33-2.1-36.57-4.92-54.85-7.4-6.57-.89-13.16-1.68-19.74-2.53-3.53-.45-5.17,2-6.26,4.59-.53,1.25-.29,4.11.35,4.36,4.23,1.68,3,5,2.68,7.91-2.57,20.87-5.3,41.73-7.83,62.62-1.78,14.78-3.4,29.59-5,44.4-1.76,16.63-3.24,33.29-5.12,49.9-2.17,19.34-4.62,38.65-7,58-1.87,15.22-3.93,30.42-5.5,45.66-.17,1.63,2.15,4.92,3.58,5.08a177.54,177.54,0,0,0,23.61,1.34c6.64-.13,13.26-1.4,19.9-2.14,5.4-.6,6.91-2.87,7.45-8.12.58-5.71-1.15-11.09-1.31-16.71-.56-19.47,1.56-38.67,4-57.88,2.08-16.39,4.22-32.77,6.29-49.16,1.93-15.25,3.79-30.52,5.72-45.77,1.89-15,3.94-29.9,5.66-44.88.46-4,2.36-4.87,5.93-4.64,18.37,1.16,36.74,2.45,55.12,3.17,12,.47,24,.35,35.93-.09s23.55-1.86,35.34,2c16.63,5.47,34,2.62,51.07,2.67,12.5,0,25-1.18,37.52-1.6,7.39-.25,14.8,0,22.21,0-.36-2.94-.17-4.28.36-5.46.18-.39,1.25-.38,1.91-.55v6.1c6.33-1.18,12.64-2.2,18.85-3.63a4.77,4.77,0,0,0,2.81-3.36q2.85-22.62,5.23-45.3c.33-3.1-.71-6.35-.34-9.44.79-6.48,2.42-12.87,3.13-19.36,1.28-11.87,1.82-23.83,3.27-35.69,2-15.89,4.7-31.69,6.67-47.59,1.66-13.48,2.72-27,4-40.57.21-2.24.29-3.53,3.45-3.17,14.48,1.65,29,2.94,43.53,4.3,13.78,1.29,27.54,2.9,41.35,3.65,19,1,38.11,1.49,57.18,2,7.49.18,15-.12,22.5-.47,12.54-.6,25.06-1.37,37.58-2.19,3.11-.2,4.34-2,4.43-5.33.17-6.77.8-13.55,1.61-20.29,1.61-13.41,3.53-26.79,5.21-40.2,1.22-9.67,1.93-19.41,3.44-29,3.4-21.68,7.19-43.3,10.73-65,.47-2.88,1.45-3.65,4.59-3.41,17.32,1.33,34.67,2.51,52,3.32,13.24.62,26.52.35,39.76.91,28.52,1.21,57,1.47,85.5-.64h.75c1.36-.9,2.77-1.74,4.21-2.5,10.5-5.47,23-5.64,33.23.56,8.92-.36,17.84-.7,26.76-1.15,1.33-.07,3.27-1,3.75-2.12.9-2,1-4.43,1.33-6.69,1.23-8.62,2.31-17.26,3.67-25.86C1305.26,712.79,1303.15,710.31,1298.88,710.83Z" transform="translate(60.78 70.66)"/><path class="cls-3" d="M957.54,871.17h12.79c-.13.33-.27.65-.41,1h-12.4C957.52,871.82,957.53,871.5,957.54,871.17Z" transform="translate(60.78 70.66)"/><path class="cls-3" d="M689.52,1113.26c4.52-4.28,24.18-3.92,29.19,0Z" transform="translate(60.78 70.66)"/><path class="cls-3" d="M1292.15,740.32c-.25,2.84-1.25,3.77-4.42,3.71-5.75-.11-11.5.85-17.26,1.1-20.22.9-40.44,2.2-60.68,2.4-30.19.3-60.4,0-90.6-.51-11.4-.2-22.76-1.89-34.15-2.76-10.5-.8-21-1.64-31.51-2-3.53-.11-7.86-3.76-10.57.53-1.77,2.8-2,6.67-2.58,10.12q-5,28.77-9.76,57.56c-1.79,10.78-3.69,21.56-5,32.4-2.36,19-4.36,38.12-6.45,57.19-.74,6.78-1.82,7.89-8.59,8-15,.34-30,1-45,.91-12-.1-24.09-1.57-36.15-1.7a448,448,0,0,1-56.81-3.92c-17.52-2.41-35.12-4.2-52.7-6.16-6.06-.68-10.87,3.35-11.42,9.46-1,11.37-1.7,22.79-3,34.14-1.29,11.66-3.17,23.26-4.66,34.9-1.28,10-2.37,20.08-2.78,30.47l2.06-3.42.82.3c-.23,1.19-.07,3.1-.75,3.46-6.62,3.6-3.52,10.21-4.47,15.27-1.9,10.19-2.4,20.65-3.45,31q-1.92,19-3.82,37.93c-.35,3.43-.58,6.89-1.11,10.3-.47,3-1.68,5-5.51,4.91-9.08-.21-18.18,0-27.26.22-21.6.57-43.19,1.65-64.79,1.73-8.07,0-16.14-2.22-24.22-3.34-4.38-.61-8.77-1.31-13.17-1.51-5.13-.24-10.29.13-15.43,0-23.06-.36-46.12-.64-69.17-1.24-10.76-.28-21.52-1.19-32.27-1.9a7.85,7.85,0,0,1-3.73-1.13c-5.77-3.84-9.1-2.73-11.21,4.08a64.09,64.09,0,0,0-2.64,10.57c-1.91,15.1-3.6,30.23-5.32,45.36-1.42,12.49-2.59,25-4.19,37.49-2.1,16.38-5.19,32.65-6.63,49.08-2,22.76-2.93,45.61-4.07,68.44-.21,4.36.75,8.78,1.19,13.34-10.27,2.68-20,3.58-30,2.06-3.16-.48-4.32-1.72-3.69-4.93a25.32,25.32,0,0,0,.25-6.45,1.4,1.4,0,0,0-.71-.92c1.24-6.47,2.63-12.26,3.4-18.13,3.19-24.28,6.37-48.57,9.2-72.9,3.2-27.49,5.89-55,9.06-82.54,2.38-20.71,5.21-41.37,7.77-62.06.57-4.6.84-9.24,1.33-14.76,5.49.82,10.62,1.68,15.79,2.33,21.17,2.65,42.38,5,63.53,7.9,22.6,3.07,45.32,1.79,68,2.26,21.17.45,42.36.69,63.53.34,12.23-.21,24.47-1.65,36.68-2.8,5.08-.48,5.88-2.4,3.52-6.63.18-.26.31-.7.53-.76,6.61-1.78,10-5.39,9-12.87-.62-4.87.28-9.94.49-14.92-1.67,2.67-2.84,1.08-2.84-.7a29.22,29.22,0,0,1,2-10.45c.45,3.47.89,6.93,1.33,10.4.63-7.54,1.13-15.09,1.88-22.61q1.37-13.35,3-26.66c2.22-17.58,4.69-35.12,6.79-52.71,1.67-14,3-28,4.38-42,1.13-11.9,2.12-23.81,3.09-35.72.34-4.36,3.22-4.41,6.34-4,7.53,1.06,15,2.43,22.55,3.34,19,2.3,38.06,4.34,57.07,6.64,8.85,1.06,17.62,2.71,26.47,3.68s18.16,1.59,27.25,2.21q23.76,1.62,47.52,3c6.27.37,12.6.1,18.83.81,8.13.93,11-4.93,12.38-11.51,3.67-17.84,6.88-35.77,10.31-53.66q3.36-17.58,6.82-35.16c2.24-11.48,4.72-22.93,6.69-34.47,1.45-8.44,2.25-17,3.32-25.51.47-3.66,2-4.54,6-4.07,13.44,1.61,27,3.08,40.47,3.5,17.74.55,35.52-.24,53.27.1,21.38.41,42.74,1.7,64.12,2.07,22.58.38,45.18.15,67.77.16,9.27,0,18.55,0,27.82-.18,4.39-.1,8.77-.7,13.12-1.07C1293.58,725.24,1292.81,732.77,1292.15,740.32Z" transform="translate(60.78 70.66)"/><path class="cls-3" d="M223.31,1120.93c3-14.5,5.54-28.66,9-42.61,3.58-14.64,7.74-29.15,12.1-43.57q9.71-32.12,20.08-64c6.94-21.43,14.65-42.61,21.26-64.14,4.61-15,7.7-30.49,11.85-45.66,5.75-20.94,12-41.76,17.79-62.68,5.71-20.56,11.35-41.15,16.61-61.82,1.38-5.41,1-11.22,1.89-16.79.36-2.39,1.39-6.38,2.64-6.59,2.75-.47,6.09.5,8.71,1.82,2.07,1.05,3.65,3.36,5.09,5.37,8.38,11.69,21.25,16.19,33.87,20.66,14.79,5.25,29.93,9.53,44.9,14.27a21.68,21.68,0,0,1,5,2c2.64,1.64,4.66,4.82,2.18,7-5.65,4.87-5.87,11.69-7.36,17.83-6,24.57-10.69,49.46-17.06,73.92C401.8,894.55,391.39,933.09,380,971.3c-6.64,22.17-15.71,43.6-23.45,65.45-5.6,15.78-10.26,31.81-12,48.58a52.87,52.87,0,0,1-12.28,28.39c-9.41,11.47-20.06,21.61-33,29.14a57.24,57.24,0,0,1-9.66,4.89c-11.23,4-22.43,8.27-33.9,11.47-12.07,3.38-19.89.91-26.5-14.19C226,1137.57,225.21,1129.1,223.31,1120.93Z" transform="translate(60.78 70.66)"/><path class="cls-3" d="M345.64,734.49a2.25,2.25,0,0,0-.47,1c-5.39,20.32-10.67,40.67-16.17,61-7.74,28.6-15.64,57.16-23.47,85.73-3.72,13.55-6.86,27.3-11.28,40.62-8.27,25-17.67,49.52-25.88,74.48-7.07,21.52-13.64,43.25-19.5,65.13-4.52,16.93-8.08,34.15-11.14,51.41a39.54,39.54,0,0,0,6.08,29.55c2.24,3.33,5.21,5.44,9.24,4.23,12.2-3.68,25-6.19,36.27-11.84,10.74-5.4,20.58-13.33,29.34-21.7A48,48,0,0,0,333.44,1085c1.66-12.78,3.81-25.69,7.69-37.93,11.39-35.94,24.27-71.41,35.55-107.38,7.86-25.07,14.5-50.55,20.87-76,6.22-24.91,11.41-50.07,17-75.13,1.72-7.7,3.29-15.43,5-23.37-2.5-.76-4.88-1.41-7.21-2.21-14.52-5-29.24-9.52-43.46-15.27C360.69,744.3,353.4,739,345.64,734.49Z" transform="translate(60.78 70.66)"/><path class="cls-3" d="M611.45,260.42a161,161,0,0,1-51.65-8c-10.3-3.32-17.6-11.06-24.9-18.24-19.7-19.38-29.64-43.64-30-70.94-.37-24.92,11.1-45.21,29.58-61.65,20-17.84,43.4-23.46,69.32-18.06A205.39,205.39,0,0,1,636,93c10.91,4.22,19.79,11.9,28,20.2,12.86,12.93,23.65,26.93,30.07,44.49,5.52,15.06,5.3,29.42.45,44.16-5,15.13-12.61,28.87-23.77,40.22-10,10.17-22.24,16.59-36.88,17.37C626.36,259.78,618.91,260.08,611.45,260.42Z" transform="translate(60.78 70.66)"/><path class="cls-3" d="M612.3,248.13c8.11-.54,16.22-1,24.32-1.63,11.17-.82,20-6.5,27.72-14,8.47-8.22,13.73-18.62,17.92-29.41,3.67-9.45,7.24-19.59,4.26-29.61a183.84,183.84,0,0,0-13.15-31.37c-2.88-5.6-7.94-10.1-12.14-15-8.17-9.49-17-18.71-28.83-23-12.18-4.45-25-7.44-37.69-10.13a51.66,51.66,0,0,0-18.39-.16c-20.94,3.35-37,14.9-48.59,32.19-8.79,13.07-14.09,27.7-11.91,43.74,2.23,16.46,8.34,31.62,17.32,45.72,8.12,12.75,19.2,21.48,33.5,25.68C581.47,245.47,596.64,248.68,612.3,248.13Z" transform="translate(60.78 70.66)"/><text class="cls-4" transform="matrix(0.99, -0.14, 0.14, 0.99, 618.76, 1294.45)">HTML</text><text class="cls-5" transform="matrix(0.99, -0.14, 0.14, 0.99, 618.76, 1294.45)">HTML</text><text class="cls-6" transform="matrix(0.99, -0.14, 0.14, 0.99, 1173.85, 942.77)">PHP</text><text class="cls-5" transform="matrix(0.99, -0.14, 0.14, 0.99, 1173.85, 942.77)">PHP</text><text class="cls-7" transform="translate(920.15 1077.89) rotate(16.63)">Java Script</text><text class="cls-8" transform="translate(920.15 1077.89) rotate(16.63)">Java Script</text><text class="cls-9" transform="translate(934.32 1258.43) rotate(-12.65)">jQuery</text><text class="cls-10" transform="translate(934.32 1258.43) rotate(-12.65)">jQuery</text><text class="cls-11" transform="translate(700.62 1366.19) rotate(6.34)">CSS</text><text class="cls-12" transform="translate(700.62 1366.19) rotate(6.34)">CSS</text></svg>