<svg id="レイヤー_1" data-name="レイヤー 1" xmlns="http://www.w3.org/2000/svg" viewBox="0 0 648.71 613.01"><defs><style>.cls-1{fill:#e2ed57;}.cls-2{fill:#deea3f;}.cls-3{fill:#e8d442;}</style></defs><path class="cls-1" d="M334.63,5.1c-.27-1.4-2.3-1.68-3.34,1.29l2,3.47Z"/><path class="cls-1" d="M319.8,21.29c-.19,4,.46,9.08,4.24,8.28-1.24-4.68.35-4.88-1.31-10.08,1-3,3.37-4.44,4.23-3.43-.27-1.37,2.81-4,1.69-6.48-4.1,2.53-6.48,7.12-7,12.89C320.51,23.19,320.23,21.8,319.8,21.29Z"/><path class="cls-1" d="M122.15,207.29l2,.11A6.74,6.74,0,0,0,122.15,207.29Z"/><path class="cls-1" d="M75.8,291c-1.09-.95-1.75-1.14-2-1C74.9,290.82,75.83,291.44,75.8,291Z"/><path class="cls-1" d="M96.46,316.24c-.43-.56-.81-1-1.21-1.5C95.56,315.47,96,316.1,96.46,316.24Z"/><path class="cls-1" d="M122.15,207.29,117,207C116.79,208.11,119.67,207.41,122.15,207.29Z"/><path class="cls-1" d="M308.27,62.71a9.45,9.45,0,0,0,.44-2.86c-.26.85-.53,1.66-.83,2.48A2.78,2.78,0,0,1,308.27,62.71Z"/><path class="cls-1" d="M204.57,192.61l1.52-.23a8.77,8.77,0,0,0,1.08-1.52Z"/><path class="cls-1" d="M242.19,159.69c-.75,1.24,1.54,2.94,2.4,4a4.57,4.57,0,0,1-.33-3.69A3.6,3.6,0,0,0,242.19,159.69Z"/><path class="cls-1" d="M291.69,70.57l.45-1.79C292,69.25,291.79,70,291.69,70.57Z"/><path class="cls-1" d="M159,198.61a2.25,2.25,0,0,0-.72-.91A1.41,1.41,0,0,0,159,198.61Z"/><path class="cls-1" d="M349.77,74.74c.2,0,.29-.16.45-.22C349.8,74.31,349.57,74.29,349.77,74.74Z"/><path class="cls-1" d="M329.32,1.84l.59.85a7.62,7.62,0,0,0,1.51-.49Z"/><path class="cls-1" d="M136.41,360.21c-.06-.1-.09-.13-.15-.22C134.92,359.13,135.59,359.71,136.41,360.21Z"/><path class="cls-1" d="M388.14,534.49c-4.3-5.1,10.38,1.81,3.46-5C391.85,530.89,382.09,529.47,388.14,534.49Z"/><path class="cls-1" d="M307.2,64c-.35.8-.72,1.6-1.14,2.38A11.22,11.22,0,0,0,307.2,64Z"/><path class="cls-1" d="M391.6,529.51v0l-.72-.68Z"/><path class="cls-1" d="M145.65,471.8a3.9,3.9,0,0,0,1.45-1.16C146.81,470.64,146.41,470.89,145.65,471.8Z"/><path class="cls-1" d="M163.83,379l.54,1A2.24,2.24,0,0,0,163.83,379Z"/><path class="cls-1" d="M140.63,524.57c-.44,1.31-.91,1.7-.85,3.61a2.32,2.32,0,0,0,.43-.5A3.86,3.86,0,0,1,140.63,524.57Z"/><path class="cls-1" d="M129.49,589.64c.33-.68.62-1.43.94-2.13.07-.74.17-1.6.25-2.36Z"/><path class="cls-1" d="M447.91,211.26a8.61,8.61,0,0,1-2.15-2.86C446.31,210.5,438.21,210,447.91,211.26Z"/><path class="cls-1" d="M306.84,62a2,2,0,0,1,.36,2c.25-.58.47-1.14.68-1.7C307.57,62,307.23,61.79,306.84,62Z"/><path class="cls-1" d="M162.11,530.52l-1.89,8.55A85.06,85.06,0,0,0,162.11,530.52Z"/><path class="cls-1" d="M483.76,361.32l1.2-1.64A3.32,3.32,0,0,0,483.76,361.32Z"/><path class="cls-1" d="M156.85,561.19a4.25,4.25,0,0,0-2.21,1.35,1.9,1.9,0,0,0,.75-.07A6.77,6.77,0,0,1,156.85,561.19Z"/><path class="cls-1" d="M445.74,208.37a0,0,0,0,1,0,0A0,0,0,0,0,445.74,208.37Z"/><path class="cls-1" d="M394.67,172c3.62,7.51,5,1.91,7.66,2.56,5.34,8.45-.41,5.33-.6,9.2a42.54,42.54,0,0,0,6,6.4c1,.93,1.93,1.83,2.74,2.76a12.45,12.45,0,0,1,.77,1.08c.27.42.53.83.78,1.24a28.19,28.19,0,0,1,1.36,2.54c-.24.88.28,2.45-1.14,1.29A44.07,44.07,0,0,1,417,205.9c3,.22,6.06.59,9.23,1l4.79.62,1.53.18,1.47.15c3.89.38,7.72.48,10.9-.52a2.35,2.35,0,0,1,.85,1.05,6.93,6.93,0,0,1-.43-5.19c3.7.48,7.19-1.31,8.24,1.28-2.26-.4-2.59.54-3.76,1.13l4-.48c3,3.95-5.46.42-5.83,3,7.71,0,16.92-1.59,22.57.22.72,3.54-13.7-.83-6.41,3.28L455.38,209c6.07,6.3-5.38-1.16.08,5.43,11.64,2.68,13.43.2,25,2.89,2.92-1.48-.47-2.89,2.45-4.38,17.19-.92,11.91,10.37,24.84,7.67,3.51-1.77,5.36-5.85,13.77-2.33L518,221.64c11.35,2,7.3-4.52,18.88-.23-2.34,1.19-9.15,0-7.49.66,7.3,4.13,5.79-1.36,11.74-.49l.74,3.54c12.22,1.24,25.94.75,39.48,2.09-.89.89-3.34,1.61-.35,3.1,4.3.19,8.71.65,13.16,1.28,2.22.32,4.45.69,6.69,1.09l1.67.31.84.15.42.08.19,0,.06,0c.34.11.67.22,1,.34a6.55,6.55,0,0,1,2.61,1.53,1,1,0,0,1,0,1.48c1-.3,2-.58,3.18-.86a18.26,18.26,0,0,1,2.71-.36,7.3,7.3,0,0,1-1.82.73,12.77,12.77,0,0,1-2.12.47c-1.5.68-.63.48.76.17s3.53-.95,4.15-.75a4.55,4.55,0,0,1-2.41,1.12,8.37,8.37,0,0,1-2.6.18c.58.3.85.94.63,1.95a11.51,11.51,0,0,1-1.93,3.81s-.27.31-.42.49l-.51.57-1,1.13c-.69.76-1.39,1.5-2.09,2.22-1.4,1.45-2.82,2.84-4.24,4.13a47.88,47.88,0,0,1-8.37,6.29l1.07-2.25c-7.51,5.66-3.34,11.65-11.45,15.73l.83-1.53c-15.39,13.22-29.53,30.76-43.68,38.37.85,5.08-15.67,12.64-12.48,17.77-10.32,6-8.68,2.91-21.71,12.87-3.31,2.84-2.07,7.16-5.5,11.35l-2.24-2.12-3,7.41-5.35.07L485,359.68c1.56-1.27,4-2,4.42-1.14a23.89,23.89,0,0,1-3.27,3.62c-.62.57-1.27,1.12-1.93,1.64l-1,.76-.54.4-.77.61a113.74,113.74,0,0,1-11.37,8c-.2,1.64-.49,2.6-.85,2.59l2.09,8.32.51,2,.25,1c.08.3.19.74.23.86l.72,2.24,2.86,9c-1.29-.2-2.24-3.2-3.44-5.5,4.78,9.27-2.89,2.33,1.49,10.83.48-1.32,1.92.34,2.57.44-1.07,4.79.66,15,2.73,22.39l-2.34-1.08c1.8,13.71,5.93,28.54,8.51,43.83,0-5.65,3.88-5,5-.59l-2.9,2.35c2.48,2.55.41-4.89,3.86.63.6,5.78-3,4.47-4.6,1.37l2.3,6.75c-.89.57-1.67-1-3-1.18,2.49,2.5-1.16,12.53,3,16.05l-.88.55c2.59,15.29,4.88,22,7.18,34.45,2.81-.23,3,4.74,5.91,8.07.34,4.65.4,9.61.65,14.77.06,1.3.13,2.6.22,3.92l.15,2,0,.5c0,.07,0,.19,0,.22v.07l0,.28a6.08,6.08,0,0,0,.14,2.12,8.5,8.5,0,0,0,2.38,2.47,6.66,6.66,0,0,1,2.52,2.11,1.88,1.88,0,0,0-2.37.12c-.45.27-.9,0-2.15-1.83.4,1.4.7,2.52,1.07,3.65a7.91,7.91,0,0,0-1.83-.17,27.37,27.37,0,0,1-3.56-.23c.76,1.58,1.91,2.7,1.62,3.54a4.48,4.48,0,0,1-2.27-1.8,3.17,3.17,0,0,1-.72-2.38l.32-.13a4.51,4.51,0,0,1-1.43-.13,7.67,7.67,0,0,1-.78-.23l-.39-.15-.19-.08-.28-.13a73.87,73.87,0,0,1-6.75-3.83c-4.44-2.83-8.79-6.12-13.05-9.31-8.52-6.38-16.7-12.36-24.66-13.53l.88.16L436.05,536c-6.2-3.76,4.74.32.73-3.57-17-4.12-23.45-13-37.14-17C393.58,503.7,365.41,498,354.72,487l-.08,2c-4.15-.21-3.56-3-5.84-4.68-.29,1.4,2.88,3.32.36,3.08-2.54-1.12-5.06-2.3-7.61-3.53-4.3-2.16-8.57-4.36-12.89-6.62l-7.63,4-3.85,2-2.86,1.43c-3,1.5-6.12,3-9.21,4.39-6.2,2.88-12.49,5.65-18.81,8.39-12.63,5.48-25.37,10.83-37.67,16.54-10.84,5.16-1.74,11.32-17.1,14.59l2.27-4.92c-19.58,14.77-43.86,22.9-63.26,36.9.89-1.33.47-2.23,2.52-3.29-2.77.1-6.88,2.23-10.19,4.55-.83.58-1.6,1.17-2.3,1.75a2.76,2.76,0,0,0-.24.21l0,.09,0,.19-.08.41a4.93,4.93,0,0,0-.1,1.69c-.53.16-.63-.29-.7-.87a7.5,7.5,0,0,0-.32-1.72c-.17-.31-.27-.24-.47.07s-.48.86-.84,1.42c-.69,1.09-1.77,2.24-1.06.52a13.37,13.37,0,0,1,1-1.61,3.89,3.89,0,0,1-1.32,1.36,7.92,7.92,0,0,0-1.87,1.93,6.35,6.35,0,0,0-.64.88,10.92,10.92,0,0,0-.68,1l0,0a7.36,7.36,0,0,0,.72-2.2,3.91,3.91,0,0,0-.11-1.16,3.52,3.52,0,0,1,.86-3.09c-.78,0-1-.41-1-.93a3.44,3.44,0,0,1,.16-.8l.15-.4.07-.19a1.09,1.09,0,0,0,.06-.23l.08-.32c.78-3.32,1.35-6.29-.69-7.38,4.35,1.39,6.23-14.74,5.09-20.64,1,2.08,2.22-4.58,3.71-2.09,1-6.33,1.19-12.27-1.29-11.56,7.33-10.73-.28-24.15,7.68-29.53.83-19.19,2.19-36.85,4-53.92,4.34,1.37-2.76,18.75,2,18.82.92-16.34-1.31-26.24,2.49-41.95,1.31-4,1.52,2.67,2.05,4.19a161.79,161.79,0,0,1,2.35-18.54c.52-3,1-5.95,1.54-8.87q.59-3.56,1.15-7.08c.38-2.4.73-4.78,1.05-7.11-2-1.81-4-3.57-5.93-5.26l-3-2.48L175,365.08l-.35-.29-.24-.17-.49-.33a.56.56,0,0,1,.44,0,3,3,0,0,1,.33.1l.19.08.1,0,.16.1c.82.5,1.87,1.24,2.88,2-.87-.79-1.8-1.73-2.63-2.58-.53-.54-1-1.06-1.51-1.47-.95-.83-1.78-1.21-2.38-.37l2.37,1.54c1.18,5.31-12.44-3.44-13.9-2.67,7.56-.84-9.19-11,1.49-11-1.61-1-4-2-4.63-.7-1.71-2.23-1.78-3.42,1.33-2.56-8.09-6.33-7-2.24-13.6-8.72.72-.69,2.32.34,3.82.17-4.7-1.88-9.42-3.78-14.43-9.83.75-.1.65-1.3,2.31.34-9.82-9.15-20-12.27-29.22-23.88,6.12-.06-2.59-4.52-.54-7.73l-6.45-4.73,1,3.51c-4.92-4.88-11.2-7.21-14.62-12.25l4.76,2.5-9.79-8.56,4.27,6.14c-6.36-3.52-2.76,3.91-8.64-3.28,1.61,1-4.93-4.87-6-9,0,0,0,0,0,0-3.29-1.54-6.69-3.11-9.71-7.35-.12-1.79,3.65-2.21,3.58-3.38-4.6-.13-12.23-10.72-17.62-11.33,1.57.44,3-.91,2.93-1.53l-3.8-.16-.58-1a5.38,5.38,0,0,1-.27-.64,1.71,1.71,0,0,1-.11-.88c.08-.47.49-.75,1.21-1.14-1.75-2-2.62-1.23-3.28-.49-.33.37-.61.71-1.11.5s-1.24-1-2.2-2.67c.71.4.93.09,2.27.86a38.32,38.32,0,0,0-6.15-6c-2.4-2-5.18-4.19-7.47-6.3a39.11,39.11,0,0,1,6.33-.59c2.09.64,2.76,1.08,2.9,1.37s-.35.47-.84.62-1,.28-.84.5,1,.52,3,1a25.42,25.42,0,0,0,4-1.57c1.41-.65,3.1-1.41,5.18-2.18,1-.39,2.16-.78,3.36-1.14l.45-.14a4.09,4.09,0,0,1,.56-.15l1.42-.34,2.83-.62a90.77,90.77,0,0,1,11.2-1.73H65.5c1.27-5.55,11.26,1,18.29-2.54-1.75.65-2,3.26-1.54,2.6,10.13-.61,20.27-4.26,35.19-8.12l-1.68,1.63c6.07.34,15.63-1.57,22.09-1.88,1.69-1.62,5.37-1.93,2.87-3.57,20.75,4.83,36.87-9.56,55.22-5.69-2.08.31-4.79,1.9-3.14,1.66l14.67-3.4c-1.51-2.11-2.15-1.1-5.53-2.43,1.69-1.62,5.72-3.28,9.4-3.82-6.45,2.49.59,3.66,3.66,4.52-.58-.63.29-1.55-.06-2.22,4.18,1.47,4.33.27,4.82-1.14a3.18,3.18,0,0,1,1.52-2,5.24,5.24,0,0,1,2-.54,10.94,10.94,0,0,1,1.46-.06c.57,0,1.24,0,2,.11-.11.42-.22.85-.35,1.27,2.79-.79,5.07-1.9,7.37-2.67a21.1,21.1,0,0,1,2-4.64c3,0-1.11,5.06.2,7.37,1.65-3.51,2.37-7.82,2.89-10.95s1.23-5.82,3.64-7.69c-.47,2.64-2.1,6-2.58,8.6,5.46-4,5.05-4.94,7.47-8.7l-.26.36,5.82-8.58-1.92,2c-2.89-9.89,5.69-14.42,6.12-25.61-.52,10.82,1.52,2.58,3.9,4.6,1.91-2,4.51-5.11,4.77-3.72-.05-5.41,5.3-6.38,5.11-14.08,1,.16,2.38-4.59,4.09-2.53,2.09-6-2.18.58-3-.43,1.29-10.16,13.69-18.62,15.76-33.14,3.63-11.6,1.66-15,5.12-25.77,3.07-2.68,1.83,4.34,1.83,4.34a35.48,35.48,0,0,0,7.28-14.64c.25,1.41,1.43.66,3.18-.42,1.8-4.23-1.83-4.32,2.14-9.11a15.76,15.76,0,0,1,1.49,5.84c1.59-5.25,2.32-10.84,4-16.25,2.18-.58.81,4.17.93,6.43,2.1-6,5.84-15.3,4.29-18.23L315.29,35c.9-2.11,2.59,0,2.28,1.7-.49,5.77-4.27,6.56-5.29,6.4l1.21-3.85c-6.95,1.14-6.27,14.77-10.12,21.82l-2.25-4.84-.55,8.91c-1.74,1.09-4.35,1.13-3.16-2.7-4.39,4.26-.93,5.23-5.17,8.65-.56.33-.63,0-.55-.51l-1.38,5.59c-.3-1.37-3.05-.46-1-3.29-6.62,8-4.41,16-8.91,18l.14-.87c-4.94,13.18,2.14,2.57.7,13.57l-9.88,3,2.13,2.58c-.74,1.25-2.21,3.71-3.07,2.7-.5,5.74,1.6-.24,2,3.43-5.57,5-7.32,17.77-12.38,17,1,3.27,4.55-5.17,2.71,2.2-5.62-.42-3,8.09-7.95,12.73-1.56-2.95,2.38-7.71-2.59-3.08,2.4,5.46-6.37,10.65-8,15.84,3.15,1.83-3.79,11.12-6.69,19.71-.3-.37-1.57,1.34-3.29,4l-1.38,2.17-.18.29-.14.22-.29.41-.56.84-2.25,3.29c-1.18,0-2.29,0-3.29,0l-1.42-.06-.63,0a5.55,5.55,0,0,0-.69,0l.15-.64c-1.07,3.87-9.71,4.42-15.81,6.08-.08-2.22.92-3.23,4.14-4.7l-5.84.87c-1.21,1.36-2.94,2.24-6.67,3.21l1.08-2.93c-7.76,1.28-15.2,5.47-25.47,5.11-.2,2.62,9,5.9-1.35,9.13-.6-1.31-1.33-3.6,1.36-4.56-.88.31-3.07,1.61-5,1.29l3.89-2.92c-4.7-.35-2.1,2.27-5.78,2.59-.21-2-2.9-1-2.6-2.63.9-.33,3.3.34,4.58-.63-4.16.25-9.29-.19-11.15-1.43.52,1.06.38,2.63-2.59,3.32-7.76,1.28-3-2-7.69-2.3-1.68,1.63-6.85.94-6.55,3.88-2.28.32-2.9-1-3.9-1.65-3.83,1.88-18.74,3.1-13.75,5.55l1.06.06c-.19.08-.41.12-.64.22h0c-12.77,4.82-27.65,2.33-40.56,5.48l-.12-1c-7.65,2.25-17.29,3.19-22.57,6.1-2.31.33-5.71-1-4.89-2.3-1.47.4-2.6.78-3.61,1.11l-1.46.46-.72.21-.93.21c-2.54.53-5.32.81-11.56.89a7,7,0,0,0,2.53-1.34c.17-.25-.16-.33-.37-.37-.43-.07-.27,0,5.54-.68-5.57.37-9.49.33-13.26.71a36.72,36.72,0,0,0-5.6,1,29.3,29.3,0,0,0-5.75,2.15c.07-.65-.63-1.07-1.92-1.29a24.56,24.56,0,0,0-5.19-.15,53.51,53.51,0,0,0-11,1.62c4,0,7.82.08,11.42.17-3.25.7-6.52,1.18-9.94,1.59,1.36,1.4,2.63,2.75,3.92,4.12q-4.29-1.84-8.87-4c2.64,4,7.37,8.71,12.28,13s10.1,8.26,14.61,11.69c2.26,1.73,4.39,3.35,6.35,4.93,1,.8,1.94,1.58,2.85,2.37l1.29,1.15.88.82a18.51,18.51,0,0,1,5.09,8.13c4.67,1.3-5.1-7.25-.48-6.55,5,5.47,7.15,14.26,8.8,15.88,5.95,8.38,10.15,3.11,16.85,11.4-.15-1.8,1.15-5,7.59-.24,5,5.47,3,9.91-1,7.33-1.34-1.16-1.69-2-1.35-2.27-2-1.35-4.61-3.18-3.42-.21l1.52-.18C73.67,293.06,81,300.07,78,299.8c4.78,3.08,3.06.27.53-3.06,5.59,7.85,10.57,10.37,16.75,18-.66-1.55-.71-3.54.39-2.46,9.22,11,6.08,2.79,13.39,9.18,2.68,5.14-4.43,1.72,3.61,7.44,3.42,5-1.29,3.14-3.66,2.18,8,4.57,10.84,12.67,14.19,16.52l-4-2.59a34.35,34.35,0,0,1,5.7,4.8l-.26-3.57c1.68,2.22,3.34,3.85,2.61,4.52,3.12.86,1.21-4.34,6.72-1.94,1.78,3.42,8.89,6.87,7.6,10-7.51-8.82-1.3,3.15-8.64-3.3a20.47,20.47,0,0,1,4.93,4.88c.05.54-.73.2-1.4-.2,5.94,9.72,6.12,1,14.25,9-2.27.26-.45,4.27,1.15,5.3-3.27-3.25.49-3.66,4.47-1.69a15.35,15.35,0,0,0,5.14,5.06,1.71,1.71,0,0,0,.73.26,4.39,4.39,0,0,1,.6.15,2.27,2.27,0,0,1,1.08.69l-.53-1-.29-.51-.16-.26a2.09,2.09,0,0,0-.2-.31c1.71-.53,3.08.81,5.5,2.66v1c-.67.28-.84-.23-.91-.72-.68-.41-1.16-.84-1.08-.29a5.37,5.37,0,0,1,1,.3,3.28,3.28,0,0,1-.22,2.58,9.28,9.28,0,0,1-.72,1.4c-.13.22-.28.44-.42.66l-.22.32c-.08.13-.17.36-.26.54-1.42,3.09-2.86,6.41-2.52,10.21-1.8,3.41-3.34-.22-4.69,2.82.77,9.13-4,9.05-3.72,18.56,2.8-2.24,2.31-2.81,3.49,4.06l.94-15.39,1.75,10.28c.82-4.55.17-9.87,1-12.53,1.13,4.94.63,4.37,2.95,2.52-4.6,5.63-.06,12.72-3.68,19.52l-5.79-1.22c-4.45,10.39-.31,19.77-4.19,33.59l1.79-4.35c2,2.28-1.17,8.74-1,13.46-1.88-.76-3.07,2-4.62,3.71,1.49,0-1.9,10.28,1.77,12.22l-3.64,5.84c-3,11.19,3.32,13.92.78,24.73-1.55-3.65-3.78,1.08-4-6.5-.65,3.64-1.57,6.86-.23,7.15-1.58,1.92.89,10.56-1.54,13.6.6,1.68,2.55,2.54,1.68,6.6-.47.38-1-.18-1-.18,1,.18.21,6.64,3,3.43a25.65,25.65,0,0,0-4.25,9.35c-.48,1.79-.86,3.65-1.19,5.55l-.47,2.88-.47,3.16c-.77,5.13-1.47,10-2.5,14.72a75,75,0,0,1-4.6,14.32c-.56,4.87-1.17,10.21-1.74,15.17,6.55-3.77,12.37-7.07,17.2-9.7-.93,1.15-.62,1.43-2.23,2a22.93,22.93,0,0,0,6.84-3.68,28,28,0,0,0,4-4.17,26.66,26.66,0,0,1,3.73-4,20.31,20.31,0,0,1,6.57-3.4c1.81,0,2.47.17,2.31.63s-1.06,1.1-2.1,1.75c-2.07,1.3-4.61,2.56-2.3,2,.75,1.44,2.35,1.45,4.5.64a25.51,25.51,0,0,0,3.47-1.69c.8-.48,1.64-1.06,2.51-1.67,3.5-2.47,7.51-5.6,11.82-5.72L183.57,577c6.27-.8,11.64-8.9,20.42-13,0,0-.15.73.4.9,4.32-6,14.89-12.81,22.69-18-1.37,3.6-3.11,3.16-.34,4.63,3.52-2.27-3-3.11,4-7.62,3,0,8.92-1.75,10.91.32l-6.88,3.79c5.22,1.28,8.94-4.84,12.89-6.22l.25,1.63c10.42-6.05,8.74-9.6,20.32-15.37l-1.73-.42c4.44-6.74,6.26-.83,11.16-6.67l3.72,2.5c3.69-3,12.69-11,19.74-15.53-2.83,4.8-10.79,10.68-15.35,15,4.11-2.13,13.77-7.57,15-10.42-1.47,1.21-3.1,3.16-5,3.47,3.58-5.38,9.47-10.21,17.66-14.43.69,2.46,3.3,2.3,6.8,1.05.87-.32,1.8-.7,2.77-1.13l1.48-.67.91-.39c1.1-.47,2.22-1,3.26-1.38a11.51,11.51,0,0,1,2.77,2.42,3.58,3.58,0,0,1,.42.65s.11.14.19.23l.24.26c.16.17.31.35.46.52a7.93,7.93,0,0,1,1.28,2.14c15.74,5.08,28.05,16.11,45.07,24.55-3.19-8.4,5,2.43,6.8-3.53,4.09,1.72,5.54,2.59,5.7,3.12L401.76,539c2,3.06-4.35-.76-4.63.64,8.35,4.92,2.39,4.19,7.3,8.61-.14-2.55,4.44-1.21,8.94,2.1l-5.57-6.12c13.49,3.42,8,10,21.54,13.48l-4.72-.3c6.73,2.25,22.84,12,31.2,10.89.76,1.2,1.43,3.45-1.5,2.4,7.23,4.22,16.08,7.4,24.38,10.61,2.08.8,4.12,1.61,6.09,2.43l.74.31.79.34,2.29,1.08c1.51.72,3,1.43,4.41,2.15A127.75,127.75,0,0,1,509,596.89a12,12,0,0,1-1.38,1,33.2,33.2,0,0,0,6,1.6c1.91.48,3.89,1.28,7.38,4,.24.83-.72,1.31,1.62,2.64.79.2,2.44.61,4.43,1.21a51.46,51.46,0,0,1,6.8,2.55,30.51,30.51,0,0,1-.81-5.64q1.59,4.23,3.23,8.84a153.56,153.56,0,0,0-3.08-18.93c-1.37-6.18-3-12-4.6-17.27s-3.24-10.11-4.72-14.68c-.35-1.13-.71-2.26-1.07-3.41-.18-.55-.35-1.12-.52-1.68-.13-.38-.27-.77-.4-1.16-.53-1.51-1-3.09-1.42-4.75,4.34-.71,3.58-13.6,3.2-20l.65.11c-2.67-18.81-9-31.18-13.73-48.23,2.87-11.57-4.28-36.8-4.6-54.55-.34,2.78-3.46.15-4.42-2.86.18-4.21-4.94-10.7-.85-10.74l.18,1.46c3.37-3.73.91-11.89-.11-18.43l-5.39-.18a34.68,34.68,0,0,0,.82-10.61q-.07-1.38-.24-2.79a.78.78,0,0,1,0-.17v-.32a3,3,0,0,0,0-.42,9.41,9.41,0,0,0-.36-1.7c.28-.38.56-.78.84-1.22l.43-.67.11-.18.06-.08.18-.22.82-.93c2.15-2.46,4.23-4.83,6.25-6.92,4-4.19,7.83-7.29,11.51-7.82,2.06-3.86,5.77-7.46,7.81-11.29l1.82,2.19a232.8,232.8,0,0,0,22.92-21.78l-.67,3.48c5.9-5.49,1.59-13,6.8-18.26l4.55,1.47c10-9.86,22.8-17.14,30.07-29.58.27.6.83,1.76-.68,3.48,4.81-4.55,20.33-15.83,14.56-18.3,2.75,2.59,10.64-9.86,14.92-16.36l1.1,2.82c.52-1.75.88-3.12,1.22-4.3l.25-.84.12-.41.26-.51c.35-.69.69-1.33,1.05-2A59.26,59.26,0,0,1,629,244c1.24-1,2.4-1.31,2.77-1.08s-.12,1.11-2,2.45a25.39,25.39,0,0,0,4.44-4,9.17,9.17,0,0,0,1.49-2.59,9.61,9.61,0,0,1,1.6-2.68,34.4,34.4,0,0,1,5.15-4.69,17.35,17.35,0,0,1-.31,2.79c4.08-3.82,5.58-5.55,6-6.62s-.15-1.58-.39-2.79a8.81,8.81,0,0,1,1-1.32,31.2,31.2,0,0,1-9.24-2.07c-2.37-1-4-2.23-3.23-3.26a39.62,39.62,0,0,1-7.68,1.19,25.23,25.23,0,0,1-8.47-.64c-.07-1,2.55-1.19,4-1.28a73,73,0,0,0-11.55-2c-1.78-.18-3.48-.28-5.07-.35-.9-.05-1.31,0-1.87,0l-1.56,0c-4.1.12-7.72.2-11.67-1.75a2.08,2.08,0,0,0-1.15-1.85c4.77.72,9.08,1.41,12.1,1.92,1.51.25,2.69.47,3.46.62,1.12.21,1.66.33,1.37.34a1.1,1.1,0,0,0-.33-.93,3.11,3.11,0,0,0-.49-.45l-.3-.23c-.09-.07-.14-.14-.22-.21-.56-.54-1.27-1.06-1.79-1.58-1-1-1.29-2.08,2-3.39-6.48,1-17.68,3.64-25,1.35a3.56,3.56,0,0,1-.86-1l.82-.18a11.24,11.24,0,0,0-4.82-.28,37.73,37.73,0,0,0-6.12-1.67c-.59-2.23-8.69-2.42-12.53-3.08-.08,2.83-5.06,1.65-.67,4.63-.58-.28.78-.22,3.35,0a8.24,8.24,0,0,0,1.69,0l-.3.21c2.54.29,5.84.7,9.6,1.2-3.25,1-6.6,1.7-10.63-.46-2.24,1.5-4.68,3-6,3.71-4.71-4.65-14.56-8.22-15.63-10.82-12-.15-27.84-3-36,1.16-3.44.18-3.63-2.06-4.76-3.06,2-.25,4.29.17,5.45-.43-6.88.37-19.88-2.36-22,1.06-8.19-2.87,5.22-2.67-6.44-3.76l1.72-.89c-9.44-3.94-17.87-3.75-26.34-3.15-4.23.29-8.48.69-12.86.73-1.1,0-2.21,0-3.32,0l-1.69-.09-1.32-.08a26.41,26.41,0,0,1-5-.88,26.35,26.35,0,0,1-1-3.56c-.12-.61-.22-1.21-.28-1.81l0-.45a2.86,2.86,0,0,0-.06-.5l-.24-1.34a7.8,7.8,0,0,1,.28,1.9,1.64,1.64,0,0,1-.33.93l-.28-.89c-.11-.34-.31-.84-.46-1.24l-1-2.56c-.69-1.7-1.41-3.4-2.16-5.08-1.49-3.37-3.09-6.71-4.76-10-3.34-6.64-6.94-13.2-10.49-19.78-7.09-13.15-13.94-26.37-17.92-40.41-2.65-7.79-5.16-7.54-9-11.21l1.93-2.92-6.89-6.09C367,77,372,64.62,360.94,53.05L360,55.72c-2.08-5.1-8.77-15.06-6.27-15.28-.58-.34-2.69-.67-2.69-3.07l1.35-.85L344,25.63c-3.6-9.87,6.35-1.31-.12-15.12C340.8,5.7,332.59-1.93,332.58.45c.94,2.08,1.7,5.68.36,6.53l-3-4.29c-4.59,1.22-10.63-.24-7.92,12.61L328.47,22l-.76,3.56-3.43-6.63c0,4.74,2.84,6.32,5.33,8.44a5.7,5.7,0,0,0-.59,4.43l7.85,5.84c-1.17,1.76-5-1.9-3.29,3.79,3.66,2.74,1.93-5.32,6.14.14,0,4.74-2.12,4.39,1.71,8.06-.77,1.15-1.92.55-3.27-1,3.25,3.34,5.74,10.25,9,11.21-.38,5.12,7.23,13.12,3.09,14.68,1.56.78,6.56,5.47,8.52,9-8-4.34,6.47,13.8.53,14.54C366,100.94,370,115,376.63,122.58c-.58-.32-1.73-.94-1.9-1.82,2.08,5.09,1.5,7.16,2.26,10.72,3.82-1.11,8.41,6.16,12.62,9.23-.42,7.7-5.94-1.63-8.26,1.87,2.7-1.71,8,9.08,9.38,5.85.18,5.65.94,4.48-.8,8.3,4.8-1.36,2.86,3.93,7.45,6.42,1.13,7.75-3.27,3.75,1.69,10.42C399.45,177.73,394.67,172,394.67,172Zm186.86,54.31v.06l-4-.42Zm16.18,2.31c-2-.39-4.4-.77-7-1.13-.42-1,.33-1.94,1.95-1.65C591.69,226.32,595.42,227.43,597.71,228.59ZM566.3,204.34c2.61,0,3.39.65,3.66,1.27-1.21-.13-2.64-.24-4.53-.32-.08.1-.26.19-.35.3A3.56,3.56,0,0,1,566.3,204.34Z"/><path class="cls-1" d="M561.16,207.32a6,6,0,0,1-1.08.05,15.47,15.47,0,0,0,1.44.85c.35-.25.71-.5,1-.74Z"/><path class="cls-1" d="M124.52,207.41h-.36a2.11,2.11,0,0,1,.78.29C124.69,207.59,124.68,207.5,124.52,207.41Z"/><polygon class="cls-1" points="495.83 347.62 496.34 348.11 496.93 346.67 495.83 347.62"/><path class="cls-1" d="M215,204a2.15,2.15,0,0,0,1.27.54C216.2,204.38,215.66,204.2,215,204Z"/><path class="cls-1" d="M247.32,180.77l3.33-4.49A42.3,42.3,0,0,0,247.32,180.77Z"/><path class="cls-1" d="M261.8,154.57a3.29,3.29,0,0,0-.82-1.06l-.05,0Z"/><path class="cls-1" d="M178,366.57a18.66,18.66,0,0,0,1.49,1.27C183.27,370.74,180.82,368.66,178,366.57Z"/><path class="cls-1" d="M71.09,271.5a37.15,37.15,0,0,1,4.18,2.22C73.62,271.81,72.26,270.41,71.09,271.5Z"/><path class="cls-1" d="M162.32,529.58s0,0,0,0l-.16,1Z"/><path class="cls-1" d="M80,278.35a15.32,15.32,0,0,0-4.68-4.63A23.6,23.6,0,0,0,80,278.35Z"/><path class="cls-1" d="M320.3,38.91l.74-1.24a.57.57,0,0,1-.33-.35Z"/><path class="cls-1" d="M320.71,37.32l.41-1.58C320.8,36.4,320.54,37,320.71,37.32Z"/><path class="cls-1" d="M322,32.4l-.86,3.34C321.65,34.69,322.36,33.44,322,32.4Z"/><path class="cls-1" d="M301.62,73.83l.71.86A1.48,1.48,0,0,0,301.62,73.83Z"/><path class="cls-1" d="M296.56,84.75c1.47-2.47,5.13-5.49,6.33-9.36l-.56-.7C302.86,77.05,296.22,81.55,296.56,84.75Z"/><path class="cls-1" d="M263,124.2l5.19-8.68c-1.75,1.1-4.09,2.53-2.29-1.69C257.41,123.79,269.27,112.55,263,124.2Z"/><path class="cls-1" d="M247.79,151.53c2-5.08-1.44-.64-1.86-1.17C245.29,153.88,245.15,154.74,247.79,151.53Z"/><path class="cls-1" d="M54.4,215.33l.18-2.61C50.5,213.69,54.68,213.71,54.4,215.33Z"/><path class="cls-1" d="M36.72,234.41a4,4,0,0,1,1.54-.72q-2.71-1-5.62-2.21Z"/><path class="cls-1" d="M34.19,257.39l-2.52-1.95c3.64,3.12,4.83,3.84,6.84,5.38l-2-1.59-1-.8L35,258l-.14-.11-.2-.18Z"/><path class="cls-1" d="M129.19,576.66q1.94-1.93,3.82-3.65c0-1.86-.85-2.75-1.78-2.32S129.32,573.09,129.19,576.66Z"/><path class="cls-1" d="M267.77,530.35c2.32.56,6.87-.68,8.66-3.38C273.07,528.5,269.25,529.12,267.77,530.35Z"/><polygon class="cls-1" points="497.89 388.9 499.48 391.97 497.57 386 497.89 388.9"/><path class="cls-2" d="M619.63,234.73l-6-1a6.2,6.2,0,0,0-6.36,2.83l-2.15.43a16.25,16.25,0,0,0-9.83-7.59,6.13,6.13,0,0,0-5.52,1.25,6.4,6.4,0,0,0-7.31,0,5.9,5.9,0,0,0-7.15-.61,6.29,6.29,0,0,0-2.67-.16c-1.87-3.27-6.28-3-9-.69q-.88-2.71-2-5.39c-1.76-4.27-8.43-6.58-11-1.44-1.13,2.29-2.26,4.57-3.38,6.86-.2-2.09-.4-4.18-.65-6.26-.35-3-2-5.46-5.2-5.89-2.66-.36-6.14,1.34-6.58,4.29-.36,2.4-.78,4.78-1.22,7.15-.44-1.94-.9-3.88-1.42-5.81-1.09-4-5.21-5.1-8.31-3.66-.13-3-.31-6.06-.56-9.09-.52-6.24-10.51-8.74-11.79-1.6q-2.52,14.11-6.32,27.93l-2.46-8.92a6.22,6.22,0,0,0-9.33-3.3,6.22,6.22,0,0,0-4.54-.34,5.57,5.57,0,0,0-2.72.7c-.85-4.61-5.38-6.59-8.73-4.78a6.62,6.62,0,0,0-7.45-.27l-.26-.11q.62-13.85.32-27.74c-.14-6.63-10.08-8.31-11.78-1.59L452,214.56c-.47-5.69-8.71-7.61-11.21-2.78a6.3,6.3,0,0,0-1.35-.38l-.13-2.51c-.3-6.34-10.83-8.63-11.78-1.59-.07.53-.13,1.06-.2,1.59h0V209q-1.1,8.37-1.83,16.77a7.6,7.6,0,0,0-4-2.32c0-.2-.05-.41-.08-.62a4.93,4.93,0,0,0-4.06-4.09c2.78-4.84,4.41-10.34,5.94-15.66,2.14-7.44-9.44-10.61-11.57-3.19-1.71,5.94-3.39,12.35-7.76,17-3.94,4.16-9.43,6.59-13.59,10.55-5.7,5.42-9.28,12.41-13.39,19a5.15,5.15,0,0,0-6.35,4.18c-.49,2-.95,4-1.4,6-.11.11-.21.23-.33.34-9.91,9.75-22.93,15-35.37,21a6,6,0,0,0-1.46.18q-1.56-19.78-4.13-39.48a9.55,9.55,0,0,0-.31-1.45c-.13-4.46-.28-8.93-.34-13.42-.3-22.9,1.76-45.92,2.93-68.77,1.16-22.66,2.09-44.9,6.9-67.13,4.67-21.59,7.84-45.27-7.49-63.49-5-5.92-13.43,2.61-8.49,8.49a31.86,31.86,0,0,1,5,8.16,5,5,0,0,0-5.59,4.3c-.37,2.07-.73,4.14-1.1,6.21a6.73,6.73,0,0,0-5,.51c.76-3.29,1.37-6.61,1.83-10v0h0c.07-.53.15-1.06.21-1.6.84-6.72-10.31-8.12-11.78-1.59q-1.85,8.12-3.36,16.3c-.44,1.46-.92,2.92-1.44,4.36a5.47,5.47,0,0,0-2.47,2.33,38.25,38.25,0,0,0-4.59,13.47A6.55,6.55,0,0,0,293,78.1c-1.34,1.91-2.63,3.84-3.89,5.79a5.92,5.92,0,0,0-5.75,2.82q-15.24,23-28.3,47.25a4.84,4.84,0,0,0-3.65,3,121.16,121.16,0,0,0-5.31,14.25c-1.41,2.84-2.82,5.7-4.19,8.57a6,6,0,0,0,.69,6.66,112.69,112.69,0,0,0-1.32,13.18,5.13,5.13,0,0,0,.39,2.2c-.27,1.44-.55,2.89-.82,4.33-2.61.56-4.79,2.52-4.37,5.65.07.54.15,1.07.22,1.6h0l0,.13c.19,1.39.39,2.79.59,4.18a4.64,4.64,0,0,0-.92,1.37,41.16,41.16,0,0,1-4.86,8.38,141.53,141.53,0,0,0-5.94-14.75c-3.27-7-13.62-.9-10.36,6.06a119.37,119.37,0,0,1,7.66,21.84c1.18,4.76,6.69,5.33,10,2.64,1-.8,1.94-1.65,2.86-2.52a6.7,6.7,0,0,0,6.26,4.8q3.39,17.1,7.93,34c1.66,6.16,9.64,5.22,11.42.06.3,1.29.57,2.59.82,3.89l.88,15a6,6,0,0,0,7.81,5.55q1.28,3.28,2.73,6.45,1.67,9.53,3.47,19c.71,3.7,4.76,5,7.9,3.93q1,2.93,1.89,5.92c-26.3-11.3-53.94-19.28-81.4-27.4q-33.67-10-66.24-22.48c-.14-1-.26-2-.42-3-.92-5.73-8-5.15-10.79-1.42q-15.65-6.27-31.09-13.2l-.47-.21a6.4,6.4,0,0,0-6.57-3l-.48-.21c-.42-1-.82-1.94-1.19-2.93-1.74-4.56-7-5.69-10.23-2.33l-2.8-1.31c-.26-.53-.53-1.06-.79-1.6-1.46-2.93-5-3.53-7.64-2.34Q51.34,230.61,36,223.19c-6.93-3.33-13,7-6.06,10.36l5.72,2.75c-1.44,2.36-1.56,5.47-3.3,7.41-2,2.17-2.67,6.41,0,8.48a29,29,0,0,1,9,11.35,4.8,4.8,0,0,0,2.26,2.21A94.61,94.61,0,0,0,34,273.24c-5.88,5.21,2.58,13.19,8.48,8.48l5.06-4a5.71,5.71,0,0,0,.58-.51,74.72,74.72,0,0,1,9.58-6,106.46,106.46,0,0,1,4.93,10.41c1.42,3.51,5.16,5.75,8.81,3.59.72-.42,1.4-.88,2.06-1.34A146.2,146.2,0,0,1,77,305.17a7,7,0,0,0,6.11,6l.15,6.75c.15,6.65,10,8.29,11.78,1.6l.57-2.18c.12,6.33,9.55,7.54,11.63,1.7.18.77.34,1.54.53,2.3,1.52,6.25,9.57,5.11,11.57,0l1.52-3.93a5.13,5.13,0,0,0,2.45-2.15,6.06,6.06,0,0,0,4.2-4.16,4.57,4.57,0,0,0,.31,1.07,75.85,75.85,0,0,0-.37,11.49,6.14,6.14,0,0,0,4,5.36,6.24,6.24,0,0,0,3.28,3.69c0,1.6-.09,3.2-.18,4.81a5.38,5.38,0,0,0,4.36,5.63,4.7,4.7,0,0,0,2,3.54c1.83,4,7.49,4.93,10.17,1.41a6.09,6.09,0,0,0,7.16-1,7.85,7.85,0,0,0,1,.47q-.84,6.9-1.5,13.82c-.65,6.8,10.13,8,11.78,1.59.27-1,.51-2.07.76-3.11l.22-.16c2.13,2.17,5.51,3,7.83.92a5.17,5.17,0,0,0,4.24,3.72c0,.74,0,1.48-.07,2.23-1.67.42-3.34.86-5,1.36-7.38,2.22-4.23,13.8,3.19,11.57,20.82-6.26,42.72-6,64-9.88a120.5,120.5,0,0,0,25.95-8c.07.09.13.19.2.29q-6,15.42-13.34,30.27a6,6,0,0,0,2.56,8.25,95.87,95.87,0,0,1-6.26,12.65,5.92,5.92,0,0,0-.85,2.62c-4.8,2.1-9.2,6.35-12.11,10.07a35,35,0,0,0-5.54,10.24,40.79,40.79,0,0,0-15.17,31.54,5.54,5.54,0,0,0,1.33,3.59c-.63.94-1.27,1.86-1.94,2.78a6.53,6.53,0,0,0-.73,1.25c-.26-1.14-.53-2.28-.82-3.42-1.58-6-9.69-5.33-11.58,0L203.76,479a5.57,5.57,0,0,0-6,4.25,18.9,18.9,0,0,0-.5,4c-.79,1.71-1.6,3.4-2.43,5.09a6.73,6.73,0,0,0-8.77,1.94l-7.59,11.76-3.25,5c-.41.63-.85,1.51-1.35,2.38l-.57-.12c-3.17-.43-5.44,1.49-6.58,4.3a7.15,7.15,0,0,0-.51,3.87l-.55,4.29a4.27,4.27,0,0,0,0,.79,6.41,6.41,0,0,0-1.76,1.11,126.67,126.67,0,0,0-13.4,9.26c-5.26,4.15-12,9-14.94,15.21s-.22,14.46,7,15.67c4.12.69,7.13-1.22,9.63-3.92-1.71,4.26-3.57,8.48-5.6,12.62-3.38,6.9,6.9,13,10.36,6q7.25-14.49,14.88-28.77c2.57,2.3,6.76,2.59,8.89-1.34q4-7.41,8.55-14.53c1.32,4.61,7.83,7.27,10.65,2.2,2.31,3.16,8,4,10.28-.2l6.77-12.49a6.28,6.28,0,0,0,5.21,3.3,14.65,14.65,0,0,0,7.74-1.72,5,5,0,0,0,5.37-2.92c.64-1.53,1.32-3,2-4.54,2.81-1.26,5.75-2.29,8.71-3.31,5.6-1.92,11.15-4,16.54-6.41a5.6,5.6,0,0,0,1.92.12c2.57,3.07,7.46,2.22,9.66-1a46.58,46.58,0,0,0,4.33-7.83l.61-.41.11.37c2,6.58,11.45,5.16,11.79-1.59l.17-3.48a4.86,4.86,0,0,0,1.2.09l.11.17a11.92,11.92,0,0,1,.54,2.42c1,5.91,10.32,5.55,11.57,0l.21-.9a5.37,5.37,0,0,0,3.73-5.44l-.14-11.12a5.66,5.66,0,0,0-2.23-4.49c-.4-1.36-.87-2.71-1.38-4.05q-.29-11.43-1.34-22.8a5.28,5.28,0,0,0,5.56-5.77q-1.42-44.73-2.86-89.45c6.79,13.2,16.05,24.68,26.6,35.07q4.86,19.47,10.28,38.81c1.68,6,9.67,5.42,11.57,0l5.46-15.5q5.38,4.13,10.82,8.11c16.47,12.13,33,24.16,47.29,38.89,14,14.44,26.07,30.59,38.21,46.59l11.13,14.68c0,1.79,0,3.59.11,5.4.29,4.17,4.94,6.64,8.34,5.73q12.66,16.71,25.33,33.4c3.22,4.24,11.6,3.58,11.18-3l-4.05-64.21a6.13,6.13,0,0,0-10-4.45,5.12,5.12,0,0,0-2.62-3.13,235.47,235.47,0,0,0-2.38-24.78c-.44-2.94-3.94-4.65-6.59-4.3a5.68,5.68,0,0,0-3,1.34l-4.44-16.08a5.13,5.13,0,0,0-1.09-2,152.27,152.27,0,0,0,1.94-21.45,5.74,5.74,0,0,0-4.17-5.51q-.07-9.1-.16-18.23c-.06-6.92-9.24-7.76-11.66-1.85a6.53,6.53,0,0,0-3.34.37c-.38-.74-.77-1.48-1.18-2.2a5.62,5.62,0,0,0-.72-1q-.21-4.23-.48-8.46a6,6,0,0,0-11.78-1.59c-1.86,5.66-3.54,11.36-5.08,17.1a5.76,5.76,0,0,0-1.31,0,4.81,4.81,0,0,0-4.4-3.07c-1.75-5-9.54-6.38-11.31,0-.29,1.06-.56,2.13-.81,3.19A6.61,6.61,0,0,0,422,404c-1.51-4.28-3.15-8.52-5-12.72-2.1-4.89-9.77-3.19-11,1.43l-.13.49a6,6,0,0,0-4.5-.23Q399,384.53,396.61,376c-1.53-5.47-10.31-6-11.58,0-.06.32-.12.64-.19,1q-1.33-7.15-2.87-14.27c-1.23-5.73-10.32-5.72-11.57,0-.47,2.17-.95,4.33-1.42,6.5-.29-1.94-.57-3.88-.86-5.83-.94-6.32-9.89-5-11.57,0-.44,1.32-.82,2.65-1.16,4q-4.67-8.38-9.32-16.77c-2-3.63-8.51-4.19-10.37,0-.1.22-.18.45-.28.68-.07-.35-.15-.7-.23-1.05a5.21,5.21,0,0,0-3.61-4q-5.65-14.7-12.6-28.87c17-3,34.09-6.14,50.88-10.36,19.89-5,39.08-12.19,58.72-18,11.41-3.38,22.92-6.44,34.5-9.31,2,4.54,9.14,5.88,10.85.53,0,2.83,0,5.65,0,8.48-.06,6.54,10.81,8.45,11.78,1.6q1.18-8.25,2.36-16.5c12.94-2.92,25.93-5.68,38.9-8.41a6.34,6.34,0,0,0,9.66-2l13.62-2.88q34.66-7.38,69.42-14.23C625.26,245.19,625.46,235.68,619.63,234.73ZM258.14,178.44a5.8,5.8,0,0,0-2.56-3.52,61.12,61.12,0,0,0,1.76-6.36c0,.07,0,.14.05.2q2.33,11.93,4.64,23.86Q260.13,185.51,258.14,178.44Zm18.29-32.9-.12.68c-.34-1.38-.68-2.76-1-4.15-1.27-5.31-6.75-5.31-9.72-2.38q4.6-8.53,9.5-16.93a7.26,7.26,0,0,0,3.15.94q.93,8.88,2.56,17.66A5.09,5.09,0,0,0,276.43,145.54Zm6.2,126.51c-.47-2.89-.91-5.78-1.35-8.67q.42-9.61.62-19.24a6.79,6.79,0,0,0,3-.13Q284.27,258.08,282.63,272.05ZM226.81,488.39c-.14-.26-.29-.51-.43-.76l1.64-1.81C227.61,486.67,227.21,487.53,226.81,488.39ZM245.05,461a15.32,15.32,0,0,0-4.05,3l-1.66.65c-.09-.11-.19-.22-.29-.32q1.42-3.12,2.62-6.34c2.41-3.18,4.75-6.41,7-9.71C247.57,452.51,246.35,456.77,245.05,461Zm249,70q.53-3.94.9-7.88a7,7,0,0,0,2.74-1q.74,11.71,1.48,23.43-3.84-5-7.66-10.1A6.76,6.76,0,0,0,494,531Zm-34.59-44.41a35.88,35.88,0,0,0,1.35-5.15q.8,4.53,1.5,9.07a4.62,4.62,0,0,0,2.22,3.31c0,1,.08,2,.16,3a5.88,5.88,0,0,0,4.17,5.53c.2,1.32.39,2.65.58,4q-6.25-8.3-12.55-16.58A6,6,0,0,0,459.41,486.55Zm-22.63-24.48c.12-1.69.24-3.37.37-5.06a5.93,5.93,0,0,0,2.09.11,5.78,5.78,0,0,0,1.43-.39,5.6,5.6,0,0,0,3.72-1.08c.48,3.45.92,6.9,1.29,10.37a6.42,6.42,0,0,0,2.27,4.45,7.58,7.58,0,0,0,.58,1.59q-.25,3.19-.48,6.4c-3.84-4.81-7.75-9.56-11.8-14.19A6.77,6.77,0,0,0,436.78,462.07Zm-19-25.95c.06-.26.13-.52.19-.78q.47,2.58.87,5.16a4.52,4.52,0,0,0,1.44,2.72c.33,1.83.68,3.66,1,5.48-3-2.84-6-5.6-9.12-8.3A5.49,5.49,0,0,0,417.82,436.12Zm-26.89-18.18c0-.15,0-.3,0-.44a6.32,6.32,0,0,0,5.69,1.14q1,3.14,1.93,6.25a6.18,6.18,0,0,0,5.92,4.27l1.49,6q-7.1-5.85-14.5-11.4L389.2,422A6.41,6.41,0,0,0,390.93,417.94Zm-41.51-9c-.24-.89-.47-1.79-.71-2.68l1.28,1Zm-7.78-31.72a57.3,57.3,0,0,1,.8-8.4l12,21.64a5.45,5.45,0,0,0,1,1.26l-1.29,3.66c-2.94-2.46-5.85-5-8.67-7.59-.67-.61-1.33-1.24-2-1.87-.66-2.66-1.32-5.33-2-8C341.59,377.66,341.63,377.44,341.64,377.19Zm-16.67-14c.36,1.05.7,2.1,1,3.15-.69-.93-1.36-1.87-2-2.81A5.89,5.89,0,0,0,325,363.21ZM307.75,105.66c.1,2,.17,4,.24,6l-.49-1.12a5.34,5.34,0,0,0-1.51-2c0-.34,0-.69-.05-1a6.47,6.47,0,0,0-.52-2.29A5.72,5.72,0,0,0,307.75,105.66Zm-18.12,228a6.14,6.14,0,0,0,1.78,3.62q-3,1.77-6,3.45l1-8.51Zm-245.13-88s.14-.35.28-.74a4.39,4.39,0,0,1,.34.5,42.4,42.4,0,0,1,3.07,6,37.56,37.56,0,0,0-4-4.78C44.26,246.31,44.38,246,44.5,245.67ZM211.22,322a5.83,5.83,0,0,0,5.3,5,5.34,5.34,0,0,0-.51,1.3q-.78,3.18-1.55,6.37-1.5-5.73-3.19-11.41C211.26,322.85,211.24,322.45,211.22,322Zm18.31,3.59a6.2,6.2,0,0,0,1.84-2.33c.81,1.17,1.64,2.32,2.46,3.48A7.15,7.15,0,0,0,229.53,325.63Zm41,13-.46-2.61c.84.33,1.68.63,2.52.88C271.86,337.42,271.18,338,270.52,338.59ZM211.15,320c-.2-4.41-.47-8.82-.84-13.23a6,6,0,0,0-.19-1.06l5.37,1.62A21.77,21.77,0,0,0,211.15,320Zm-12.62-14.83c-.82,3.61-1.58,7.23-2.31,10.86-1.19-4-2.28-7.93-3.24-12-1.64-6.84-11.41-4.94-11.79,1.59l-.64,11a7.13,7.13,0,0,0-.41,2.12L179.51,331c-.34.78-.67,1.55-1,2.32q-.62-10.89-.61-21.82.13-2.92.21-5.85c.17-7.12-9.55-7.67-11.79-1.6-.53,1.46-1.06,2.92-1.57,4.39a6.16,6.16,0,0,0-1.18-2.12q-.06-5.22-.46-10.46c-.37-4.83-7.13-8.28-10.34-4.35-.06-1.37-.12-2.74-.2-4.11,15.6,5.52,31.39,10.38,47.22,15.15A5.89,5.89,0,0,0,198.53,305.12ZM86,277.09c0,.22,0,.44,0,.66a5.82,5.82,0,0,0-1.41.76c-.15-.59-.31-1.18-.46-1.78A6.66,6.66,0,0,0,86,277.09Zm42.75,19.84c-.08,1.62-.2,3.23-.34,4.84,0-1.36.06-2.73,0-4.09Zm-6.17-17.63a7.22,7.22,0,0,0-4.25.9,6.11,6.11,0,0,0-1.53.44q-1.27-4.18-2.68-8.33c3.18,1.34,6.37,2.68,9.56,4C123.26,277.3,122.9,278.3,122.53,279.3ZM75.38,264.57a6.58,6.58,0,0,0,4.59-.82c.15,0,.29,0,.43-.06a22.59,22.59,0,0,0,0,4.1,6.23,6.23,0,0,0-9,1.51c-.25.37-.51.71-.78,1.05-.62-1.31-1.27-2.6-1.94-3.88Q72,265.38,75.38,264.57Zm121,97.67a5.83,5.83,0,0,0,4.45-3.17,6.14,6.14,0,0,0,7.15.86c.15.78.31,1.55.46,2.32-4.19.48-8.37,1-12.53,1.66C196.07,363.35,196.23,362.8,196.38,362.24Zm64.06-40.49a14.05,14.05,0,0,0-3,.89,5.65,5.65,0,0,0-8.08,2.64,5.85,5.85,0,0,0-2.19-.64l-.37-.51-6.56-9.22,5.05,1.63Q252.9,319,260.44,321.75ZM141.71,283.43a6.3,6.3,0,0,0-1.09,2.61c0-1,0-2-.09-3.05Zm97.92,75-1.49.24c.55-2.1,1.09-4.2,1.64-6.29a6.78,6.78,0,0,0,5.2-.89,6.75,6.75,0,0,0,7.35-.68,5.82,5.82,0,0,0,8.43,1c0,.22.07.44.11.66A112.66,112.66,0,0,1,239.63,358.43Zm24.95,91.66-2.91-7.73a6.38,6.38,0,0,0-1.5-2.29,74,74,0,0,0,11.43-10.8Q268.51,439.82,264.58,450.09Zm16.05,16.79q-1.58-5.19-3.16-10.39a5.77,5.77,0,0,0-1.59-2.58q2.89-7.55,5.36-15.25c0,2,.06,4,.07,6a6.71,6.71,0,0,0,.33,2Q281.13,456.81,280.63,466.88Zm13.73-74.65v-.46a5.75,5.75,0,0,0-3.22-5c.13-.58.27-1.16.39-1.74a6.14,6.14,0,0,0-4.78-7.39q-.47-6.56-.66-13.14c3.28.39,7.25-2,7.53-5.87.08-1.1.21-2.17.36-3.24l1.18,36.94A5.39,5.39,0,0,0,294.36,392.23Zm-.42-284.79-.06,12a5.63,5.63,0,0,0-2.58-.91q-1.12-4.95-2-9.94c.39-1,.77-2,1.14-3q3.18-6.28,6.87-12.28A5.67,5.67,0,0,0,301.52,95a34.14,34.14,0,0,0,.25,4.83,7.45,7.45,0,0,0,.67,2.34C298.9,100.65,294,102.37,293.94,107.44ZM308.2,290.38l-.47-2c-.9-3.93-4.58-5-7.59-3.89a6.21,6.21,0,0,0,2.3-2.44,6.52,6.52,0,0,0,7.27-1.76C309.2,283.63,308.7,287,308.2,290.38ZM311,271.72c0-2.16,0-4.33,0-6.49,0-.11,0-.21,0-.32.09-3.1.08-6.18,0-9.26v-5.81a6.85,6.85,0,0,0,2.35.25c.14.87.29,1.75.44,2.62Q312.38,262.22,311,271.72Zm5.44-101.6c-.07-1.21-.13-2.43-.19-3.64-.14-4.74-.37-9.49-.73-14.23a6.1,6.1,0,0,0-5.61-5.73c-.11-1.32-.22-2.64-.34-4,3.41,2,8.55-1.49,9.09-5.54.32-2.37.64-4.75.95-7.12-.39,5.73-.7,11.48-1,17.27q-.63,12.32-1.34,24.62A5.44,5.44,0,0,0,316.41,170.12Zm3.22,131.58a8,8,0,0,0-1.08.13l0-.31c.55-.5,1.11-1,1.67-1.46ZM372,294.09c-9.37,2.49-18.83,4.62-28.33,6.54l.9-2a6.15,6.15,0,0,0,7.85-2.19l3.3-4.81c2.57,3,7.61,4,9.66-.49.48-1.07,1-2.13,1.46-3.2a5.68,5.68,0,0,0,2.77,1.13,6.19,6.19,0,0,0,2.54-.22Q372.08,291.46,372,294.09Zm12.58-3.6c.38-2.7.82-5.4,1.29-8.1,3.12,3,8.8,3.18,9.78-2.27l1.5-8.36a6.9,6.9,0,0,0,5,1.77l0,3c0,3.65,3.32,5.85,6.48,5.9,0,.13,0,.26.05.38C400.65,285.4,392.64,288.05,384.57,290.49ZM421,278.85c0-.25.07-.5.1-.75a6.79,6.79,0,0,0,4.75-1.22,4.48,4.48,0,0,0,.4.36Zm33.32-9.11q-6.51,1.59-13,3.3a6.14,6.14,0,0,0,2.56-4.58c.14-1.55.3-3.09.46-4.64,3.09,1.51,7.35.58,8.41-3.6.7-2.76,1.39-5.51,2.09-8.26-.76,4.62-1.38,9.26-1.81,14A4.83,4.83,0,0,0,454.35,269.74Zm42-9.69q.13-5.3,0-10.59,1.35,4.89,2.69,9.76c0,.08.06.14.08.21Zm26.41-5.85c.61-1.86,1.23-3.72,1.84-5.57.15,1.69.26,3.39.34,5.1Zm28.5-6.13,3.24-6.58q.59,2.83.93,5.71Z"/><path class="cls-3" d="M283.65,292.16a57.3,57.3,0,0,0-.62-10c-.74-5-8.88-5.9-11-1.43-.34.73-.68,1.46-1,2.19a5.51,5.51,0,0,0-6,2.81c-1.21,2.16-2.37,4.35-3.5,6.55q-2-5.18-3.58-10.49c2.86-6.25,5.45-12.63,7.72-19.15,1.46-4.15-2.11-7.28-5.73-7.45a99.91,99.91,0,0,0,1-13.65,5.54,5.54,0,0,0-3.19-5.19.75.75,0,0,1,0-.16c1.43-6.1-7.09-10.59-10.57-5.3-2.32-1.67-5.87-1.79-7.89.24-.15-1.29-.31-2.57-.46-3.86-.64-5.34-8.14-8.87-11.18-3-.36.69-.7,1.38-1,2.07a.93.93,0,0,0-.13-.15q2.07-9.77,3.29-19.75c.66-5.43-6.84-7.55-10.24-4.25q-3.65,3.56-7.13,7.27a6.46,6.46,0,0,0-2.38-.67c-2.14-1.77-5.07-2.17-7.3.66s-4.16,5.39-6.17,8.13c-1.38-3.92-6.36-6.53-9.7-2.53-.41.49-.81,1-1.22,1.49l-.27,0a6.5,6.5,0,0,0-6.39-2.39,5.33,5.33,0,0,0-6.23,1.34c-1.07,1.19-2.12,2.38-3.16,3.59l-.06-.07c.85-2.27,1.66-4.56,2.41-6.87,1.95-6-5.39-9.28-9.68-6.11-2.15-3.36-7.68-3.47-10.28.22a132,132,0,0,0-8,12.88,5.17,5.17,0,0,0-5.25.38l-4.26,3.19c.36-.88.72-1.76,1.06-2.64,2.16-5.51-5.11-9.28-9.25-6.5a5,5,0,0,0-4.59.64l-3,2.22a5.72,5.72,0,0,0-2.26.1,188.06,188.06,0,0,1-37.1,6A11.1,11.1,0,0,0,76,220.08a6.34,6.34,0,0,0-8.3,2.8A184.71,184.71,0,0,1,48,221.82c0-.55,0-1.1,0-1.66-.29-4.2-3.59-6.43-7.6-5.79a23.57,23.57,0,0,0-13,6.8c-3,3-1.88,9.16,2.65,10,1.41.27,2.82.51,4.23.75a25.18,25.18,0,0,1-1.42,3c-3.16,5.77,3.72,11.35,8.73,7.83a4.67,4.67,0,0,0,2.53,1.33c10.29,1.9,24.77,6.74,33.6-1.42a14.39,14.39,0,0,0,2.66-3.38l2.63-.53-.13.17a60.65,60.65,0,0,0-6.56,8.17c-3.74,5.58,5.11,12.61,9.42,7.28l5.94-7.36c.56-.58,1.15-1.13,1.74-1.68a5,5,0,0,0,7,.8c1.11-.79,2.16-1.62,3.19-2.47a34.44,34.44,0,0,0-4.84,12.09c-1,5.05,4,9.46,8.82,6.78l3.28-1.83c-.56,1.38-1.1,2.77-1.59,4.19-1.79,5.07,4.51,9.28,8.81,6.77a59.94,59.94,0,0,0,9.73-7.1,6.92,6.92,0,0,0,.91,1.43c-.56,4.2-1,8.43-1.13,12.69a6.08,6.08,0,0,0,4.41,5.78c7,1.77,12.07-2.38,16.76-7.09l1.17-1.19a6.8,6.8,0,0,0,1,.14c.81,4.47,8.32,5.81,11.37,1.6q3.12-4.32,6.11-8.7a6.33,6.33,0,0,0,3.14.6l-.91,1.95c-1.78,3.93.11,7.2,2.95,8.35a6.8,6.8,0,0,0,4.49,2c-.48,1-1,2.06-1.45,3.09-3.2,6.89,6.46,12.88,10.37,6.06,2.77-4.84,5.35-9.79,7.75-14.81a6.72,6.72,0,0,0,1,.8q-1.75,5.2-3.11,10.55c-1.51,6,5.83,9.74,9.87,6-.3.77-.6,1.54-.92,2.31-2.56,6.27,8,10.68,11,4.63,1.31-2.64,2.66-5.26,4-7.86a151.62,151.62,0,0,0,2.37,26.36c1,5.33,8.46,5.51,11,1.44l5.58-9a6.59,6.59,0,0,0,2.42.41c-1.45,6.26,8,10.62,11,4.41l.34-.68a7.37,7.37,0,0,0,1.5,1.11c-.11.47-.22.94-.35,1.41-2,7.54,9,10.4,11.57,3.19q1.59-4.49,3.4-8.87a6,6,0,0,0,.74-.59l1.73-1.66a5.76,5.76,0,0,0,1.71-.19c0,2.88-.17,5.75-.41,8.64-.58,7,9.86,7.83,11.79,1.59a108,108,0,0,0,4.43-24A5,5,0,0,0,283.65,292.16ZM234.31,290q2-4,4.14-8.08c-.07.77-.14,1.53-.2,2.29l-4.81,7.82C233.74,291.38,234,290.71,234.31,290ZM140.4,268.94q.34-2.79.81-5.55c.34,1.17.65,2.38,1,3.57-.24.24-.46.49-.69.73S140.89,268.38,140.4,268.94Z"/><path class="cls-3" d="M408.07,217.47q-2.94-8-5.05-16.1c0-3-.19-5.93-.4-8.89a5.48,5.48,0,0,0,1-3.34,116.11,116.11,0,0,0-11.77-47.83,5.49,5.49,0,0,0-2.53-2.68c.18-2.09.32-4.18.4-6.29.2-5.58-6-7.16-9.72-4.49q-.27-4.18-.88-8.39c-.52-3.47-4.48-4.95-7.57-4.08-.38-7-.95-14-1.78-21-.91-7.68-11.13-7.73-12,0-.36,3.16-.78,6.3-1.26,9.44a5.52,5.52,0,0,0-3.34,0,2.83,2.83,0,0,1,0-.29,5.92,5.92,0,0,0,1-1.75,79.83,79.83,0,0,0,4.69-25.09c.14-4.63-4.8-6.79-8.37-5.49a6.36,6.36,0,0,0-6-.56,5.63,5.63,0,0,0,3-5l.21-6.71c.23-7.3-9.39-7.43-11.78-1.6-.35.84-.69,1.68-1,2.53a6.11,6.11,0,0,0-3.22,3.7q-4.38,12.75-8.77,25.51c-2,5.7,4.18,8.61,8.45,6.56a178,178,0,0,1-3.89,24.58c-.78,3.4,1.64,6.37,4.49,7.35a123.15,123.15,0,0,0-3.33,17.59q-1.83,7-3.85,13.91c-.44,1.43-.87,2.87-1.27,4.31a5.57,5.57,0,0,0,4,7.09l-.05.08a5.51,5.51,0,0,0,.21,6.23,101.3,101.3,0,0,0-5.06,23c-3.12,10.78-5.23,21.82-3.56,33a5.69,5.69,0,0,0,.38,1.34q-6.57,27.53-15.67,54.33c-2.17,6.38,7.93,10.73,11,4.62,1.48-3,3-5.9,4.59-8.82,1.91,3.24,6.8,5,9.48,1.51.16-.21.31-.42.47-.62-.13.62-.29,1.25-.42,1.88-1.28,6.2,8.11,11.23,11,4.62l.6-1.43h0v0q3.47-8.24,6.1-16.68a8.07,8.07,0,0,0,1.25.36c0,.17-.06.34-.1.51-1.42,6.35,7.71,10.94,11,4.63l14.48-28.09q-.55,9.53-.72,19.07c-.1,6.65,10.32,8.3,11.79,1.59a118,118,0,0,0,2.64-20.29,6.16,6.16,0,0,0,10-4.45q1.17-11.46,1.68-23C402.36,227.07,410.16,223.11,408.07,217.47Zm-33.38-28.86c-.25-.19-.5-.37-.76-.54.24-.43.49-.85.73-1.29Zm-23.56,23.61L350,214a7.33,7.33,0,0,0-2,.24c1.5-2.19,2.95-4.43,4.34-6.69C352,209.1,351.56,210.66,351.13,212.22Zm34.11-43.46c.05.76.11,1.51.16,2.26a6.25,6.25,0,0,0-1.61,4.66,6.65,6.65,0,0,0-3.32-.88q1.45-3.48,2.68-7A6.94,6.94,0,0,0,385.24,168.76Zm-26.09-14.17c-.08,2-.17,4-.25,6.07a6.39,6.39,0,0,0,.05,1.17c-.06,1.35-.12,2.7-.21,4.06q-1.94,5.75-4.28,11.33a229.52,229.52,0,0,0,5.21-28.53c-.07,1.38-.12,2.75-.2,4.13A6.41,6.41,0,0,0,359.15,154.59Zm15.78,53.92q.07,6.57.16,13.12a4.85,4.85,0,0,0-1.17,1.47l-5.65,11A240.42,240.42,0,0,0,374.93,208.51Z"/><path class="cls-3" d="M580.89,251.94c-3.22,1.74-6.5,3.38-9.83,4.89-2.34-3-7.88-3.12-10.13.57-.88,1.44-1.73,2.9-2.57,4.36-.36.11-.72.21-1.08.29-2.18.47-1.73-.35-2,1.79.62-4.42-2.53-8.62-7.38-7.38l-56.62,14.41c.81-5-6.94-8.94-10.35-4.73a193.12,193.12,0,0,0-14.61,20.72c.28-5-4.05-8.26-8.87-6.09a61.92,61.92,0,0,0-7.62,4.12,6,6,0,0,0-6.49,1c-2.43-2.67-7.86-2.48-10,.88q-2.64,4.14-5,8.45a6.58,6.58,0,0,0-5.78,1.44c-1.63,1.28-3.21,2.61-4.77,4-.36-5.18-7.41-8.2-11-2.76Q405.38,300,404,302a6.56,6.56,0,0,0-1-1.07c1.62-2.75,3.26-5.49,5-8.19,3.56-5.67-5-12.53-9.42-7.27A205.82,205.82,0,0,1,383.83,301a6.67,6.67,0,0,0-2.5-.92c-.66-4.39-6.68-6.95-10.21-3.37a58.89,58.89,0,0,0-4.81,5.57,6.35,6.35,0,0,0-7.87.3,6.41,6.41,0,0,0-6.34,5.71c0,.44-.11.88-.16,1.31-.44.23-.87.47-1.3.71a14.07,14.07,0,0,0-9.56-4.18l-15.14,8.2c-2,1.07-4,2.1-5.92,3.2a5.54,5.54,0,0,0-5.4.32A30.6,30.6,0,0,0,300,337.12c-1.2,4.79,2.94,8.09,7.38,7.38a111.22,111.22,0,0,0,28.9-8.81l-5,7.59a5.2,5.2,0,0,0,1.14,7.28c-2.91,4.16-5.61,9.48-2.91,14.46,3.08,5.72,9.58,4.71,14.29,2,2.27-1.29,4.49-2.67,6.69-4.08a17.46,17.46,0,0,0,4.19-1.72,6.21,6.21,0,0,0,4.75-1.36q4.26-3.57,8.62-7c.17.46.35.92.55,1.37,1.51,3.43,7.08,3.91,9.42,1.22q3.16-3.64,6.23-7.34c-.55,1.34-1.07,2.7-1.57,4.06-1.73,1.24-3.51,2.47-4.14,4.63-.72,2.49-.18,5.62-.16,8.18a6,6,0,0,0,.85,3,5.56,5.56,0,0,0,2.59,6.28c-.21,2.79,2.11,4.78,4.41,5.71,6.77,2.74,13.28-1.78,18.73-6.07.85,4.09,1.7,8.18,2.87,12.19s2.51,9.3,5.54,12.38c6.7,6.82,16.64.07,22.41-4.58a44.63,44.63,0,0,0,6.88-6.93,15,15,0,0,0,2.66,1.26c-.22.63-.45,1.24-.67,1.87-2.43,6.94,7.21,9.62,11,4.62q2.56-3.44,4.82-7.08c.77-.2,1.54-.37,2.31-.49a6.24,6.24,0,0,0,3.71,5.93c1.55,2.86,5.42,4.7,8.49,2.71l7.25-4.67a6.05,6.05,0,0,0-3-11.18c-1.05,0-2.1,0-3.14,0a13.33,13.33,0,0,0-4.24-3.48,13.67,13.67,0,0,0-4.87-1.37c1.13-2.66,2.13-5.37,3-8.12l.21-.13c1.76-1.15,3.48-2.33,5.22-3.51-.85,1.11-1.7,2.22-2.57,3.31-4.69,5.89,3.11,14.28,8.49,8.49a152.94,152.94,0,0,0,24.15-34.41,6.06,6.06,0,0,0,.43-5l8.54-11.07a7.17,7.17,0,0,0,2.36.18c.14,1.21.3,2.43.47,3.64a50.61,50.61,0,0,0-5.81,16.93c-.83,6.11,7.52,11.26,11,4.62q2.85-5.49,5.22-11.14c6.46-.95,11.66-5.88,16.27-10.37A156.29,156.29,0,0,0,581,271.11l8.07-11C592.89,255,585.74,249.34,580.89,251.94ZM418.73,380.65c-.57-2.16-1.07-4.34-1.56-6.52.19-.12.38-.24.56-.38,1.69-1.3,3.33-2.66,4.93-4.05,1.85-.16,3.69-.32,5.53-.5q-4.45,6.57-9.06,13C419,381.68,418.86,381.15,418.73,380.65ZM552.07,273.72c-1.39,1.72-2.82,3.4-4.31,5a69.89,69.89,0,0,0-4.65-8.7l2.5-.63A11.64,11.64,0,0,0,552.07,273.72ZM418.35,333.21q-4.64,3.38-9.15,6.91c.58-1.28,1.14-2.57,1.65-3.89a60.25,60.25,0,0,0,2-6.22c1.42-2.25,2.77-4.52,4.09-6.83-.35,1.24-.7,2.47-1,3.72A6.3,6.3,0,0,0,418.35,333.21Zm117-42.11c.71-1.81,1.47-3.61,2.29-5.38.72,1.81,1.36,3.66,1.91,5.57a5.83,5.83,0,0,0,2.46,3.35q-1.83,2.19-3.62,4.42c.12-.88.24-1.75.34-2.63A5.29,5.29,0,0,0,535.38,291.1Zm-5.44-16.69c0-.13-.05-.26-.08-.39a5.92,5.92,0,0,0,.25-.66l.46-.12Zm-32.8,12.69a15.43,15.43,0,0,0-2.23-4.72l0-.07,7.31-1.86Q499.63,283.74,497.14,287.1Z"/><path class="cls-3" d="M504.57,549.18l-6.18-14.33c-2.36-5.46-11.6-2.68-11.18,3,.18,2.56.3,5.13.38,7.69-.55-1.68-1.11-3.36-1.66-5-1.21-3.67-6.32-5.34-9.36-3.54q-5.47-16.93-9.79-34.21c-1.31-5.26-7.69-5.38-10.48-2-.47-1.11-.95-2.22-1.46-3.33a4.7,4.7,0,0,0-5.34-3c-.21-4.63-5.31-6.78-8.8-5.17q-2.24-8.25-4.48-16.5c-1.46-5.37-7.27-5.29-10.17-2l-7.47-25c-1.76-5.9-9.46-5.34-11.35-.37a4.8,4.8,0,0,0-2.88-1.24,6,6,0,0,0-3.36-1.45q-1.78-11.67-3.88-23.3c-1.21-6.69-12-5.09-11.79,1.6l.6,22.13a5,5,0,0,0-1.93.26q-6.58-14.37-12.28-29.14c-2.42-6.27-11.29-5.39-11.78,1.6q-.76,10.76-1.52,21.51a7.83,7.83,0,0,0-4.55,1.23c.58-2.11,1.13-4.22,1.65-6.35,1.62-6.73-6.59-9.81-10.64-5.05-.42-3.36-4.06-5.28-7.21-4.79,0-.19,0-.38.07-.58a5.27,5.27,0,0,0-3.53-5.37,98.86,98.86,0,0,0-4.66-15.74q2.1-7.23,4-14.51c1.8-6.9-7.12-10-11-4.62-.81,1.13-1.6,2.28-2.4,3.42.46-2.45.9-4.92,1.29-7.4,1.19-7.55-10.37-10.81-11.57-3.19a231.3,231.3,0,0,1-16.14,56.12c-3,6.93,7,13.09,10.34,6.1a89.19,89.19,0,0,0-2.55,9.43,5.73,5.73,0,0,0,2.68,6.55c-.49,1.38-1,2.76-1.51,4.13-1.86,4.88,2.65,7.78,6.71,7.08q-.48,3.39-.86,6.79a6.2,6.2,0,0,0-4.33,5.36,21.8,21.8,0,0,0,1.08,9.41,6.14,6.14,0,0,0,2.81,3.5,47.36,47.36,0,0,0,2.66,9.47c2.45,6.14,11.41,5.51,11.79-1.59.27-5.15.44-10.3.56-15.44a5.72,5.72,0,0,0,2.2-.6,6.6,6.6,0,0,0,6.85,4.85,6.41,6.41,0,0,0,1.23,1.15c-1.57,4.79-2.93,9.66-4,14.62-1.05,4.73,4.21,8.73,8,7.5a7,7,0,0,0,5-.69c0,.22,0,.44,0,.66-.22,6.69,10.3,8.25,11.78,1.6a203.5,203.5,0,0,1,7.29-25,5.76,5.76,0,0,0,4.2-1.7c-.38,3.07-.86,6.14-1.47,9.2-1.5,7.51,9.84,10.77,11.57,3.19a201.14,201.14,0,0,1,5.54-19.56,343.12,343.12,0,0,1-1.88,36.1c-.71,6.68,10.6,8.25,11.78,1.6.78-4.34,1.66-8.66,2.6-13a5.88,5.88,0,0,0,3.84-.17c1,2.39,3.63,3.51,6.14,3.33q1.4,2.53,2.58,5.27a4.44,4.44,0,0,0,1.79,2q.71,14.25,1.42,28.49c.11,3,.25,5.91.44,8.86.49,7.66,12.39,7.76,12,0-.14-2.76-.27-5.51-.41-8.27a5.25,5.25,0,0,0,.79-3.05c-.08-1.62-.12-3.25-.17-4.87a5.81,5.81,0,0,0,8.41-3.15,6.41,6.41,0,0,0,8.68,1.72q.86,10.62,2.11,21.21c.88,7.45,12.25,7.91,12,0q-.19-6-.18-12.1a5.74,5.74,0,0,0,.3-.72l.66-2.14c.61,4.3,5,5.12,8.23,3.55l7.42,13.25q1.07,3,2.17,6a6.36,6.36,0,0,0,3,3.29l2.42,4.33a5.52,5.52,0,0,0,5.83,2.83c.83,2.54,1.67,5.08,2.5,7.62,1.68,5.08,10.6,6.3,11.58,0q1.13-7.35,1.7-14.72c3.16,1.62,8.13,0,8.81-3.7A12.23,12.23,0,0,0,504.57,549.18Z"/><path class="cls-3" d="M275.19,350.18l-3.48,15.56-.17,0c0-.58.11-1.15.16-1.73.31-3.77-4.1-7-7.6-5.78q-9.69,3.29-19.17,7.15c-3.19-2.85-9-2.8-9.74,2.44-.08.6-.17,1.21-.25,1.81l-3.41,1.54c-1.88-5-10.23-6.54-11.42,0-.37,2-.73,4.05-1.09,6.07q-5.27,2.68-10.45,5.54c0-.08,0-.16,0-.25-.34-6.47-10.21-8.5-11.79-1.59-.14.62-.27,1.24-.41,1.87l-1.42,0a15.91,15.91,0,0,0-1.32-2.6,5.91,5.91,0,0,0-8.47-1.84,5.45,5.45,0,0,0-5.77,4.27l-.78,3.1a5.35,5.35,0,0,0-1.77,4.39c0,.8,0,1.6.07,2.4l-.21.86a5.9,5.9,0,0,0,.37,4.19l.72,23.84A6.23,6.23,0,0,0,175,426q-1.15,14.4-1.32,28.84a6.72,6.72,0,0,0-2.55,3.32q-6.24,16.46-13.31,32.56c-1.78-11.68-3.21-23.42-4.59-35.16-.74-6.22-10.05-8.72-11.79-1.59l-2.1,8.61c-1.89-5.29-10-6-11.56,0a169.77,169.77,0,0,0-3.94,64.27c.81,6.15,10,8.79,11.79,1.59q2.48-10.2,5-20.41,1.94,7.61,3.64,15.28c.87,3.92,6,5.44,9.12,3.47,2.57,2.61,7.61,2.43,9.57-1.09q5-9,9.58-18.3a6.84,6.84,0,0,0,5.31-.68l.69,8.73c.62,7.78,11.21,7.66,12,0q1.62-15.59,3.23-31.18h0c.14.61.27,1.22.41,1.83,1.54,6.62,11.73,5.12,11.78-1.54a5.39,5.39,0,0,0,4.16-2.31c0,1.72,0,3.44.07,5.16.2,7,9.46,7.81,11.79,1.59a299.59,299.59,0,0,0,13.8-49.65,6.31,6.31,0,0,0-.65-4.31,4.55,4.55,0,0,0,3.36-4.16c.2-1.41.4-2.83.59-4.25,2,5.77,10.82,4.92,11.62-2q.88-7.73,1.78-15.43a4.87,4.87,0,0,0,3.68-4.12q1.65-9.8,3.31-19.58c3.14,2.05,7.88,1.21,9.08-3.21.42-1.53.8-3.06,1.13-4.6a13.12,13.12,0,0,1,3.28,1.65c3.12,2.13,8,0,8.82-3.59q2.49-11.2,5-22.41C288.43,345.85,276.87,342.63,275.19,350.18Z"/></svg>